<svg width="28" height="29" viewBox="0 0 28 29" fill="none" xmlns="http://www.w3.org/2000/svg">
<rect y="0.5" width="28" height="28" rx="14" fill="#FE7171"/>
<path d="M14.3141 7.38468C18.2028 7.38468 21.3551 10.537 21.3551 14.4257V19.5685C21.3551 19.7558 21.2807 19.9354 21.1483 20.0679C21.0158 20.2004 20.8361 20.2748 20.6488 20.2748H7.97945C7.79213 20.2748 7.61248 20.2004 7.48002 20.0679C7.34756 19.9354 7.27315 19.7558 7.27315 19.5685V14.4257C7.27315 10.537 10.4255 7.38468 14.3141 7.38468ZM13.6961 3.5H14.9322C14.979 3.5 15.0239 3.5186 15.057 3.55172C15.0901 3.58483 15.1087 3.62975 15.1087 3.67658V5.7955C15.1087 5.84233 15.0901 5.88724 15.057 5.92035C15.0239 5.95347 14.979 5.97207 14.9322 5.97207H13.6961C13.6493 5.97207 13.6044 5.95347 13.5713 5.92035C13.5381 5.88724 13.5195 5.84233 13.5195 5.7955V3.67658C13.5195 3.62975 13.5381 3.58483 13.5713 3.55172C13.6044 3.5186 13.6493 3.5 13.6961 3.5ZM6.92551 6.22943C6.94191 6.21302 6.96138 6.19999 6.98282 6.1911C7.00426 6.18222 7.02723 6.17764 7.05044 6.17764C7.07364 6.17764 7.09662 6.18222 7.11806 6.1911C7.13949 6.19999 7.15897 6.21302 7.17537 6.22943L8.67362 7.72769C8.70671 7.7608 8.7253 7.80569 8.7253 7.8525C8.7253 7.89931 8.70671 7.94421 8.67362 7.97732L7.79956 8.85137C7.76645 8.88446 7.72156 8.90305 7.67475 8.90305C7.62794 8.90305 7.58304 8.88446 7.54993 8.85137L6.05168 7.35312C6.01859 7.32001 6 7.27512 6 7.2283C6 7.18149 6.01859 7.1366 6.05168 7.10349L6.92551 6.22943ZM21.705 6.22943L22.579 7.10349C22.612 7.13659 22.6306 7.18144 22.6306 7.22819C22.6306 7.27495 22.612 7.3198 22.579 7.3529L21.0808 8.85159C21.0644 8.86801 21.0449 8.88104 21.0235 8.88992C21.002 8.89881 20.979 8.90338 20.9558 8.90338C20.9326 8.90338 20.9097 8.89881 20.8882 8.88992C20.8668 8.88104 20.8473 8.86801 20.8309 8.85159L19.9569 7.97754C19.9404 7.96114 19.9274 7.94167 19.9185 7.92023C19.9096 7.8988 19.9051 7.87582 19.9051 7.85261C19.9051 7.82941 19.9096 7.80643 19.9185 7.78499C19.9274 7.76356 19.9404 7.74408 19.9569 7.72769L21.4553 6.22943C21.4884 6.19634 21.5333 6.17776 21.5802 6.17776C21.627 6.17776 21.6719 6.19634 21.705 6.22943ZM7.25107 21.6874H21.3772C21.5645 21.6874 21.7442 21.7618 21.8766 21.8943C22.0091 22.0267 22.0835 22.2064 22.0835 22.3937V22.9234C22.0835 22.9703 22.0649 23.0152 22.0318 23.0483C21.9987 23.0814 21.9538 23.1 21.9069 23.1H6.72134C6.67451 23.1 6.6296 23.0814 6.59649 23.0483C6.56337 23.0152 6.54477 22.9703 6.54477 22.9234V22.3937C6.54477 22.2064 6.61918 22.0267 6.75164 21.8943C6.8841 21.7618 7.06375 21.6874 7.25107 21.6874ZM10.5177 14.6905V20.2748H11.9304V14.6905H10.5177Z" fill="white"/>
</svg>
