<svg width="17" height="18" viewBox="0 0 17 18" fill="none" xmlns="http://www.w3.org/2000/svg">
<mask id="mask0_44_13882" style="mask-type:alpha" maskUnits="userSpaceOnUse" x="0" y="0" width="17" height="18">
<rect y="0.5" width="17" height="17" fill="#D9D9D9"/>
</mask>
<g mask="url(#mask0_44_13882)">
<path d="M7.50829 12.2584L12.502 7.26467L11.5104 6.273L7.50829 10.2751L5.48954 8.25633L4.49788 9.248L7.50829 12.2584ZM8.49996 16.0834C7.5201 16.0834 6.59927 15.8975 5.73746 15.5256C4.87565 15.1537 4.126 14.649 3.4885 14.0115C2.851 13.374 2.34631 12.6244 1.97444 11.7626C1.60256 10.9008 1.41663 9.97994 1.41663 9.00008C1.41663 8.02022 1.60256 7.09939 1.97444 6.23758C2.34631 5.37578 2.851 4.62612 3.4885 3.98862C4.126 3.35112 4.87565 2.84644 5.73746 2.47456C6.59927 2.10269 7.5201 1.91675 8.49996 1.91675C9.47982 1.91675 10.4007 2.10269 11.2625 2.47456C12.1243 2.84644 12.8739 3.35112 13.5114 3.98862C14.1489 4.62612 14.6536 5.37578 15.0255 6.23758C15.3974 7.09939 15.5833 8.02022 15.5833 9.00008C15.5833 9.97994 15.3974 10.9008 15.0255 11.7626C14.6536 12.6244 14.1489 13.374 13.5114 14.0115C12.8739 14.649 12.1243 15.1537 11.2625 15.5256C10.4007 15.8975 9.47982 16.0834 8.49996 16.0834Z" fill="#63C258"/>
</g>
</svg>
