<svg width="17" height="18" viewBox="0 0 17 18" fill="none" xmlns="http://www.w3.org/2000/svg">
<mask id="mask0_22_12215" style="mask-type:alpha" maskUnits="userSpaceOnUse" x="0" y="0" width="17" height="18">
<rect y="0.5" width="17" height="17" fill="#D9D9D9"/>
</mask>
<g mask="url(#mask0_22_12215)">
<path d="M7.50835 12.2584L12.5021 7.2646L11.5104 6.27294L7.50835 10.275L5.4896 8.25627L4.49794 9.24794L7.50835 12.2584ZM8.50002 16.0834C7.52016 16.0834 6.59933 15.8974 5.73752 15.5255C4.87571 15.1537 4.12606 14.649 3.48856 14.0115C2.85106 13.374 2.34637 12.6243 1.9745 11.7625C1.60262 10.9007 1.41669 9.97988 1.41669 9.00002C1.41669 8.02016 1.60262 7.09933 1.9745 6.23752C2.34637 5.37571 2.85106 4.62606 3.48856 3.98856C4.12606 3.35106 4.87571 2.84637 5.73752 2.4745C6.59933 2.10262 7.52016 1.91669 8.50002 1.91669C9.47988 1.91669 10.4007 2.10262 11.2625 2.4745C12.1243 2.84637 12.874 3.35106 13.5115 3.98856C14.149 4.62606 14.6537 5.37571 15.0255 6.23752C15.3974 7.09933 15.5834 8.02016 15.5834 9.00002C15.5834 9.97988 15.3974 10.9007 15.0255 11.7625C14.6537 12.6243 14.149 13.374 13.5115 14.0115C12.874 14.649 12.1243 15.1537 11.2625 15.5255C10.4007 15.8974 9.47988 16.0834 8.50002 16.0834Z" fill="#63C258"/>
</g>
</svg>
