<svg width="17" height="18" viewBox="0 0 17 18" fill="none" xmlns="http://www.w3.org/2000/svg">
<mask id="mask0_22_12178" style="mask-type:alpha" maskUnits="userSpaceOnUse" x="0" y="0" width="17" height="18">
<rect y="0.5" width="17" height="17" fill="#D9D9D9"/>
</mask>
<g mask="url(#mask0_22_12178)">
<path d="M7.50829 12.2584L12.502 7.2646L11.5104 6.27294L7.50829 10.275L5.48954 8.25627L4.49788 9.24794L7.50829 12.2584ZM8.49996 16.0834C7.5201 16.0834 6.59927 15.8974 5.73746 15.5255C4.87565 15.1537 4.126 14.649 3.4885 14.0115C2.851 13.374 2.34631 12.6243 1.97444 11.7625C1.60256 10.9007 1.41663 9.97988 1.41663 9.00002C1.41663 8.02016 1.60256 7.09933 1.97444 6.23752C2.34631 5.37571 2.851 4.62606 3.4885 3.98856C4.126 3.35106 4.87565 2.84637 5.73746 2.4745C6.59927 2.10262 7.5201 1.91669 8.49996 1.91669C9.47982 1.91669 10.4007 2.10262 11.2625 2.4745C12.1243 2.84637 12.8739 3.35106 13.5114 3.98856C14.1489 4.62606 14.6536 5.37571 15.0255 6.23752C15.3974 7.09933 15.5833 8.02016 15.5833 9.00002C15.5833 9.97988 15.3974 10.9007 15.0255 11.7625C14.6536 12.6243 14.1489 13.374 13.5114 14.0115C12.8739 14.649 12.1243 15.1537 11.2625 15.5255C10.4007 15.8974 9.47982 16.0834 8.49996 16.0834Z" fill="#63C258"/>
</g>
</svg>
