<svg width="17" height="18" viewBox="0 0 17 18" fill="none" xmlns="http://www.w3.org/2000/svg">
<mask id="mask0_44_13658" style="mask-type:alpha" maskUnits="userSpaceOnUse" x="0" y="0" width="17" height="18">
<rect y="0.5" width="17" height="17" fill="#D9D9D9"/>
</mask>
<g mask="url(#mask0_44_13658)">
<path d="M7.50866 12.2584L12.5024 7.26467L11.5107 6.273L7.50866 10.2751L5.48991 8.25633L4.49824 9.248L7.50866 12.2584ZM8.50033 16.0834C7.52046 16.0834 6.59963 15.8975 5.73783 15.5256C4.87602 15.1537 4.12637 14.649 3.48887 14.0115C2.85137 13.374 2.34668 12.6244 1.9748 11.7626C1.60293 10.9008 1.41699 9.97994 1.41699 9.00008C1.41699 8.02022 1.60293 7.09939 1.9748 6.23758C2.34668 5.37578 2.85137 4.62612 3.48887 3.98862C4.12637 3.35112 4.87602 2.84644 5.73783 2.47456C6.59963 2.10269 7.52046 1.91675 8.50033 1.91675C9.48019 1.91675 10.401 2.10269 11.2628 2.47456C12.1246 2.84644 12.8743 3.35112 13.5118 3.98862C14.1493 4.62612 14.654 5.37578 15.0258 6.23758C15.3977 7.09939 15.5837 8.02022 15.5837 9.00008C15.5837 9.97994 15.3977 10.9008 15.0258 11.7626C14.654 12.6244 14.1493 13.374 13.5118 14.0115C12.8743 14.649 12.1246 15.1537 11.2628 15.5256C10.401 15.8975 9.48019 16.0834 8.50033 16.0834Z" fill="#63C258"/>
</g>
</svg>
