<svg width="17" height="18" viewBox="0 0 17 18" fill="none" xmlns="http://www.w3.org/2000/svg">
<mask id="mask0_37_12987" style="mask-type:alpha" maskUnits="userSpaceOnUse" x="0" y="0" width="17" height="18">
<rect y="0.5" width="17" height="17" fill="#D9D9D9"/>
</mask>
<g mask="url(#mask0_37_12987)">
<path d="M7.50817 12.2584L12.5019 7.26467L11.5103 6.273L7.50817 10.2751L5.48942 8.25633L4.49775 9.248L7.50817 12.2584ZM8.49984 16.0834C7.51998 16.0834 6.59914 15.8975 5.73734 15.5256C4.87553 15.1537 4.12588 14.649 3.48838 14.0115C2.85088 13.374 2.34619 12.6244 1.97432 11.7626C1.60244 10.9008 1.4165 9.97994 1.4165 9.00008C1.4165 8.02022 1.60244 7.09939 1.97432 6.23758C2.34619 5.37578 2.85088 4.62612 3.48838 3.98862C4.12588 3.35112 4.87553 2.84644 5.73734 2.47456C6.59914 2.10269 7.51998 1.91675 8.49984 1.91675C9.4797 1.91675 10.4005 2.10269 11.2623 2.47456C12.1241 2.84644 12.8738 3.35112 13.5113 3.98862C14.1488 4.62612 14.6535 5.37578 15.0254 6.23758C15.3972 7.09939 15.5832 8.02022 15.5832 9.00008C15.5832 9.97994 15.3972 10.9008 15.0254 11.7626C14.6535 12.6244 14.1488 13.374 13.5113 14.0115C12.8738 14.649 12.1241 15.1537 11.2623 15.5256C10.4005 15.8975 9.4797 16.0834 8.49984 16.0834Z" fill="#63C258"/>
</g>
</svg>
