<svg width="17" height="18" viewBox="0 0 17 18" fill="none" xmlns="http://www.w3.org/2000/svg">
<mask id="mask0_44_13929" style="mask-type:alpha" maskUnits="userSpaceOnUse" x="0" y="0" width="17" height="18">
<rect y="0.5" width="17" height="17" fill="#D9D9D9"/>
</mask>
<g mask="url(#mask0_44_13929)">
<path d="M7.50832 12.2584L12.5021 7.26467L11.5104 6.273L7.50832 10.2751L5.48957 8.25633L4.49791 9.248L7.50832 12.2584ZM8.49999 16.0834C7.52013 16.0834 6.5993 15.8975 5.73749 15.5256C4.87568 15.1537 4.12603 14.649 3.48853 14.0115C2.85103 13.374 2.34634 12.6244 1.97447 11.7626C1.60259 10.9008 1.41666 9.97994 1.41666 9.00008C1.41666 8.02022 1.60259 7.09939 1.97447 6.23758C2.34634 5.37578 2.85103 4.62612 3.48853 3.98862C4.12603 3.35112 4.87568 2.84644 5.73749 2.47456C6.5993 2.10269 7.52013 1.91675 8.49999 1.91675C9.47985 1.91675 10.4007 2.10269 11.2625 2.47456C12.1243 2.84644 12.8739 3.35112 13.5114 3.98862C14.1489 4.62612 14.6536 5.37578 15.0255 6.23758C15.3974 7.09939 15.5833 8.02022 15.5833 9.00008C15.5833 9.97994 15.3974 10.9008 15.0255 11.7626C14.6536 12.6244 14.1489 13.374 13.5114 14.0115C12.8739 14.649 12.1243 15.1537 11.2625 15.5256C10.4007 15.8975 9.47985 16.0834 8.49999 16.0834Z" fill="#63C258"/>
</g>
</svg>
