<svg width="46" height="46" viewBox="0 0 46 46" fill="none" xmlns="http://www.w3.org/2000/svg">
<rect x="3" y="3" width="40" height="40" rx="20" fill="#F8F5F5"/>
<g clip-path="url(#clip0_22_11123)">
<path d="M26.3334 26.3332L23 22.9999M23 22.9999L19.6667 26.3332M23 22.9999V30.4999M29.9917 28.3249C30.8045 27.8818 31.4466 27.1806 31.8166 26.3321C32.1866 25.4835 32.2635 24.5359 32.0352 23.6388C31.8069 22.7417 31.2863 21.9462 30.5556 21.3778C29.8249 20.8094 28.9257 20.5005 28 20.4999H26.95C26.6978 19.5243 26.2277 18.6185 25.575 17.8507C24.9223 17.0829 24.1041 16.4731 23.1818 16.0671C22.2595 15.661 21.2572 15.4694 20.2501 15.5065C19.2431 15.5436 18.2576 15.8085 17.3677 16.2813C16.4778 16.7541 15.7066 17.4225 15.1122 18.2362C14.5178 19.05 14.1156 19.9879 13.9358 20.9794C13.7561 21.9709 13.8034 22.9903 14.0744 23.961C14.3453 24.9316 14.8327 25.8281 15.5 26.5832" stroke="#3C4149" stroke-width="1.66667" stroke-linecap="round" stroke-linejoin="round"/>
</g>
<rect x="3" y="3" width="40" height="40" rx="20" stroke="#DFE1E4" stroke-width="6"/>
<defs>
<clipPath id="clip0_22_11123">
<rect width="20" height="20" fill="white" transform="translate(13 13)"/>
</clipPath>
</defs>
</svg>
