<svg width="32" height="32" viewBox="0 0 32 32" fill="none" xmlns="http://www.w3.org/2000/svg">
<path d="M3.33337 25.3334V9.3334H28.6667V25.3334C28.6667 26.8001 27.4667 28.0001 26 28.0001H6.00004C4.53337 28.0001 3.33337 26.8001 3.33337 25.3334Z" fill="#CBD0FE"/>
<path d="M28.6667 6.66667V10.6667H3.33337V6.66667C3.33337 5.2 4.53337 4 6.00004 4H26C27.4667 4 28.6667 5.2 28.6667 6.66667Z" fill="#4456FE"/>
<path d="M22 8.6666C23.1046 8.6666 24 7.77117 24 6.6666C24 5.56203 23.1046 4.6666 22 4.6666C20.8954 4.6666 20 5.56203 20 6.6666C20 7.77117 20.8954 8.6666 22 8.6666Z" fill="white"/>
<path d="M10 8.6666C11.1046 8.6666 12 7.77117 12 6.6666C12 5.56203 11.1046 4.6666 10 4.6666C8.89543 4.6666 8 5.56203 8 6.6666C8 7.77117 8.89543 8.6666 10 8.6666Z" fill="white"/>
<path d="M22 2C21.2666 2 20.6666 2.6 20.6666 3.33333V6.66667C20.6666 7.4 21.2666 8 22 8C22.7333 8 23.3333 7.4 23.3333 6.66667V3.33333C23.3333 2.6 22.7333 2 22 2ZM9.99996 2C9.26663 2 8.66663 2.6 8.66663 3.33333V6.66667C8.66663 7.4 9.26663 8 9.99996 8C10.7333 8 11.3333 7.4 11.3333 6.66667V3.33333C11.3333 2.6 10.7333 2 9.99996 2Z" fill="#CBD0FE"/>
<path d="M8.66663 13.3334H11.3333V16.0001H8.66663V13.3334ZM12.6666 13.3334H15.3333V16.0001H12.6666V13.3334ZM16.6666 13.3334H19.3333V16.0001H16.6666V13.3334ZM20.6666 13.3334H23.3333V16.0001H20.6666V13.3334ZM8.66663 17.3334H11.3333V20.0001H8.66663V17.3334ZM12.6666 17.3334H15.3333V20.0001H12.6666V17.3334ZM16.6666 17.3334H19.3333V20.0001H16.6666V17.3334ZM20.6666 17.3334H23.3333V20.0001H20.6666V17.3334ZM8.66663 21.3334H11.3333V24.0001H8.66663V21.3334ZM12.6666 21.3334H15.3333V24.0001H12.6666V21.3334ZM16.6666 21.3334H19.3333V24.0001H16.6666V21.3334ZM20.6666 21.3334H23.3333V24.0001H20.6666V21.3334Z" fill="#4456FE"/>
</svg>
