<svg width="32" height="32" viewBox="0 0 32 32" fill="none" xmlns="http://www.w3.org/2000/svg">
<path d="M3.33325 25.3335V9.3335H28.6666V25.3335C28.6666 26.8002 27.4666 28.0002 25.9999 28.0002H5.99992C4.53325 28.0002 3.33325 26.8002 3.33325 25.3335Z" fill="#CBD0FE"/>
<path d="M28.6666 6.66667V10.6667H3.33325V6.66667C3.33325 5.2 4.53325 4 5.99992 4H25.9999C27.4666 4 28.6666 5.2 28.6666 6.66667Z" fill="#4456FE"/>
<path d="M22 8.6665C23.1046 8.6665 24 7.77107 24 6.6665C24 5.56193 23.1046 4.6665 22 4.6665C20.8954 4.6665 20 5.56193 20 6.6665C20 7.77107 20.8954 8.6665 22 8.6665Z" fill="white"/>
<path d="M10 8.6665C11.1046 8.6665 12 7.77107 12 6.6665C12 5.56193 11.1046 4.6665 10 4.6665C8.89543 4.6665 8 5.56193 8 6.6665C8 7.77107 8.89543 8.6665 10 8.6665Z" fill="white"/>
<path d="M22.0001 2C21.2667 2 20.6667 2.6 20.6667 3.33333V6.66667C20.6667 7.4 21.2667 8 22.0001 8C22.7334 8 23.3334 7.4 23.3334 6.66667V3.33333C23.3334 2.6 22.7334 2 22.0001 2ZM10.0001 2C9.26675 2 8.66675 2.6 8.66675 3.33333V6.66667C8.66675 7.4 9.26675 8 10.0001 8C10.7334 8 11.3334 7.4 11.3334 6.66667V3.33333C11.3334 2.6 10.7334 2 10.0001 2Z" fill="#CBD0FE"/>
<path d="M8.66675 13.3335H11.3334V16.0002H8.66675V13.3335ZM12.6667 13.3335H15.3334V16.0002H12.6667V13.3335ZM16.6667 13.3335H19.3334V16.0002H16.6667V13.3335ZM20.6667 13.3335H23.3334V16.0002H20.6667V13.3335ZM8.66675 17.3335H11.3334V20.0002H8.66675V17.3335ZM12.6667 17.3335H15.3334V20.0002H12.6667V17.3335ZM16.6667 17.3335H19.3334V20.0002H16.6667V17.3335ZM20.6667 17.3335H23.3334V20.0002H20.6667V17.3335ZM8.66675 21.3335H11.3334V24.0002H8.66675V21.3335ZM12.6667 21.3335H15.3334V24.0002H12.6667V21.3335ZM16.6667 21.3335H19.3334V24.0002H16.6667V21.3335ZM20.6667 21.3335H23.3334V24.0002H20.6667V21.3335Z" fill="#4456FE"/>
</svg>
