<svg width="32" height="32" viewBox="0 0 32 32" fill="none" xmlns="http://www.w3.org/2000/svg">
<path d="M3.3335 25.3335V9.3335H28.6668V25.3335C28.6668 26.8002 27.4668 28.0002 26.0002 28.0002H6.00016C4.5335 28.0002 3.3335 26.8002 3.3335 25.3335Z" fill="#CBD0FE"/>
<path d="M28.6668 6.66667V10.6667H3.3335V6.66667C3.3335 5.2 4.5335 4 6.00016 4H26.0002C27.4668 4 28.6668 5.2 28.6668 6.66667Z" fill="#4456FE"/>
<path d="M22 8.6665C23.1046 8.6665 24 7.77107 24 6.6665C24 5.56193 23.1046 4.6665 22 4.6665C20.8954 4.6665 20 5.56193 20 6.6665C20 7.77107 20.8954 8.6665 22 8.6665Z" fill="white"/>
<path d="M10 8.6665C11.1046 8.6665 12 7.77107 12 6.6665C12 5.56193 11.1046 4.6665 10 4.6665C8.89543 4.6665 8 5.56193 8 6.6665C8 7.77107 8.89543 8.6665 10 8.6665Z" fill="white"/>
<path d="M21.9998 2C21.2665 2 20.6665 2.6 20.6665 3.33333V6.66667C20.6665 7.4 21.2665 8 21.9998 8C22.7332 8 23.3332 7.4 23.3332 6.66667V3.33333C23.3332 2.6 22.7332 2 21.9998 2ZM9.99984 2C9.2665 2 8.6665 2.6 8.6665 3.33333V6.66667C8.6665 7.4 9.2665 8 9.99984 8C10.7332 8 11.3332 7.4 11.3332 6.66667V3.33333C11.3332 2.6 10.7332 2 9.99984 2Z" fill="#CBD0FE"/>
<path d="M8.6665 13.3335H11.3332V16.0002H8.6665V13.3335ZM12.6665 13.3335H15.3332V16.0002H12.6665V13.3335ZM16.6665 13.3335H19.3332V16.0002H16.6665V13.3335ZM20.6665 13.3335H23.3332V16.0002H20.6665V13.3335ZM8.6665 17.3335H11.3332V20.0002H8.6665V17.3335ZM12.6665 17.3335H15.3332V20.0002H12.6665V17.3335ZM16.6665 17.3335H19.3332V20.0002H16.6665V17.3335ZM20.6665 17.3335H23.3332V20.0002H20.6665V17.3335ZM8.6665 21.3335H11.3332V24.0002H8.6665V21.3335ZM12.6665 21.3335H15.3332V24.0002H12.6665V21.3335ZM16.6665 21.3335H19.3332V24.0002H16.6665V21.3335ZM20.6665 21.3335H23.3332V24.0002H20.6665V21.3335Z" fill="#4456FE"/>
</svg>
