<svg width="32" height="32" viewBox="0 0 32 32" fill="none" xmlns="http://www.w3.org/2000/svg">
<path d="M3.33337 25.3335V9.3335H28.6667V25.3335C28.6667 26.8002 27.4667 28.0002 26 28.0002H6.00004C4.53337 28.0002 3.33337 26.8002 3.33337 25.3335Z" fill="#CBD0FE"/>
<path d="M28.6667 6.66667V10.6667H3.33337V6.66667C3.33337 5.2 4.53337 4 6.00004 4H26C27.4667 4 28.6667 5.2 28.6667 6.66667Z" fill="#4456FE"/>
<path d="M22 8.6665C23.1046 8.6665 24 7.77107 24 6.6665C24 5.56193 23.1046 4.6665 22 4.6665C20.8954 4.6665 20 5.56193 20 6.6665C20 7.77107 20.8954 8.6665 22 8.6665Z" fill="white"/>
<path d="M10 8.6665C11.1046 8.6665 12 7.77107 12 6.6665C12 5.56193 11.1046 4.6665 10 4.6665C8.89543 4.6665 8 5.56193 8 6.6665C8 7.77107 8.89543 8.6665 10 8.6665Z" fill="white"/>
<path d="M22 2C21.2666 2 20.6666 2.6 20.6666 3.33333V6.66667C20.6666 7.4 21.2666 8 22 8C22.7333 8 23.3333 7.4 23.3333 6.66667V3.33333C23.3333 2.6 22.7333 2 22 2ZM9.99996 2C9.26663 2 8.66663 2.6 8.66663 3.33333V6.66667C8.66663 7.4 9.26663 8 9.99996 8C10.7333 8 11.3333 7.4 11.3333 6.66667V3.33333C11.3333 2.6 10.7333 2 9.99996 2Z" fill="#CBD0FE"/>
<path d="M8.66663 13.3335H11.3333V16.0002H8.66663V13.3335ZM12.6666 13.3335H15.3333V16.0002H12.6666V13.3335ZM16.6666 13.3335H19.3333V16.0002H16.6666V13.3335ZM20.6666 13.3335H23.3333V16.0002H20.6666V13.3335ZM8.66663 17.3335H11.3333V20.0002H8.66663V17.3335ZM12.6666 17.3335H15.3333V20.0002H12.6666V17.3335ZM16.6666 17.3335H19.3333V20.0002H16.6666V17.3335ZM20.6666 17.3335H23.3333V20.0002H20.6666V17.3335ZM8.66663 21.3335H11.3333V24.0002H8.66663V21.3335ZM12.6666 21.3335H15.3333V24.0002H12.6666V21.3335ZM16.6666 21.3335H19.3333V24.0002H16.6666V21.3335ZM20.6666 21.3335H23.3333V24.0002H20.6666V21.3335Z" fill="#4456FE"/>
</svg>
