<svg width="75" height="75" viewBox="0 0 75 75" fill="none" xmlns="http://www.w3.org/2000/svg">
<path d="M74.6875 37.3438C74.6875 44.456 72.6565 51.4203 68.8334 57.4175C65.0103 63.4148 59.5541 68.1956 53.1066 71.1977C46.659 74.1998 39.4882 75.2982 32.4377 74.3638C25.3871 73.4295 18.75 70.5011 13.307 65.9233C7.86394 61.3454 3.84136 55.3084 1.71237 48.5223C-0.416612 41.7363 -0.563467 34.4833 1.28908 27.6166C3.14163 20.75 6.91654 14.5551 12.1698 9.76064C17.4231 4.96621 23.9362 1.77161 30.9432 0.552608L31.6857 4.82076C25.4916 5.89834 19.7341 8.72233 15.0902 12.9606C10.4464 17.1988 7.10943 22.675 5.47179 28.7451C3.83416 34.8152 3.96398 41.2267 5.84598 47.2255C7.72798 53.2243 11.2839 58.561 16.0955 62.6078C20.9071 66.6545 26.7742 69.2431 33.0068 70.0691C39.2394 70.8951 45.5783 69.9241 51.2779 67.2703C56.9775 64.6165 61.8007 60.3903 65.1803 55.0888C68.5599 49.7872 70.3552 43.6309 70.3552 37.3438H74.6875Z" fill="#D95753"/>
<path d="M32.5495 0.309023C37.673 -0.35423 42.8785 0.0528248 47.8366 1.50445C52.7948 2.95607 57.3978 5.42068 61.3546 8.74244C65.3114 12.0642 68.5359 16.1708 70.8243 20.8027C73.1127 25.4345 74.4151 30.4907 74.6491 35.6517L71.1163 35.812C70.9044 31.1397 69.7253 26.5623 67.6537 22.3691C65.582 18.1759 62.6629 14.4582 59.0807 11.451C55.4986 8.44382 51.3315 6.21261 46.8429 4.89845C42.3543 3.5843 37.6419 3.21579 33.0035 3.81623L32.5495 0.309023Z" fill="#2B963A"/>
</svg>
