<svg width="36" height="36" viewBox="0 0 36 36" fill="none" xmlns="http://www.w3.org/2000/svg">
<circle cx="18.0002" cy="18" r="18" fill="#FF68DE"/>
<path d="M17.6244 9C16.8652 9.66307 15.6754 10.3845 14.4112 11.0537C13.1131 11.741 11.771 12.3434 10.763 12.7053C10.8447 13.1711 11.1192 14.0646 11.5552 15.116C12.0756 16.3711 12.794 17.87 13.5727 19.3045C14.3515 20.7391 15.1927 22.1116 15.9484 23.1092C16.3262 23.6079 16.6841 24.0129 16.9878 24.279C17.2914 24.5451 17.5418 24.645 17.6244 24.645C17.707 24.645 17.9573 24.5451 18.261 24.279C18.5647 24.0129 18.9225 23.6079 19.3004 23.1092C20.0561 22.1116 20.8973 20.7391 21.676 19.3045C22.4548 17.87 23.1732 16.3711 23.6936 15.116C24.1296 14.0646 24.4041 13.1711 24.4859 12.7053C23.4778 12.3434 22.1357 11.741 20.8375 11.0537C19.5734 10.3845 18.3835 9.66307 17.6244 9ZM12.1711 9.40132C10.8501 10.0618 9.52098 10.7199 8.20442 11.3846L8.00024 11.4877V11.7164C8.00024 12.1708 8.17926 12.8097 8.4323 13.5689C8.68538 14.3281 9.01966 15.165 9.36126 15.8481L10.0263 15.5155C9.70698 14.8768 9.38038 14.0616 9.13779 13.3338C8.95064 12.7724 8.81982 12.2437 8.76881 11.9337C10.0076 11.3096 11.2575 10.6894 12.5036 10.0663L12.1711 9.40132ZM23.0777 9.40132L22.7452 10.0663C23.9914 10.6894 25.2413 11.3096 26.48 11.9338C26.429 12.2437 26.2981 12.7724 26.111 13.3338C25.8684 14.0616 25.5418 14.8768 25.2225 15.5156L25.8876 15.8481C26.2291 15.165 26.5634 14.3281 26.8164 13.5689C27.0695 12.8097 27.2485 12.1708 27.2485 11.7164V11.4877L27.0444 11.3846C25.7278 10.7199 24.3986 10.0618 23.0777 9.40132ZM17.6244 10.9037L17.9043 11.224C18.2086 11.5722 19.0488 12.0555 19.9411 12.4562C20.8335 12.857 21.7834 13.2057 22.3831 13.4344L22.6223 13.5257V13.7817C22.6223 14.0421 22.5467 14.3152 22.4315 14.6598C22.3162 15.0044 22.1551 15.4068 21.961 15.8485C21.5729 16.732 21.0531 17.771 20.5121 18.7691C19.9712 19.7672 19.4103 20.7226 18.9362 21.4403C18.6992 21.7992 18.4852 22.0977 18.297 22.3206C18.2029 22.4321 18.1164 22.5246 18.0246 22.6018C17.9329 22.6791 17.8477 22.7661 17.6419 22.7758L17.6244 22.7766L17.6069 22.7758C17.4011 22.7661 17.3159 22.6791 17.2242 22.6019C17.1324 22.5246 17.0459 22.4321 16.9518 22.3206C16.7636 22.0977 16.5496 21.7992 16.3125 21.4403C15.8385 20.7226 15.2776 19.7672 14.7366 18.7691C14.1957 17.771 13.6758 16.732 13.2877 15.8485C13.0937 15.4068 12.9326 15.0044 12.8173 14.6598C12.7021 14.3152 12.6264 14.0421 12.6264 13.7817V13.5257L12.8657 13.4344C13.4654 13.2057 14.4153 12.857 15.3077 12.4562C16.2 12.0555 17.0402 11.5722 17.3445 11.224L17.6244 10.9037ZM17.6244 11.984C17.1168 12.4202 16.3825 12.7886 15.6123 13.1345C14.8027 13.4981 14.002 13.7985 13.4091 14.0228C13.4342 14.1335 13.4712 14.2708 13.5224 14.424C13.6266 14.7355 13.7804 15.1215 13.9685 15.5495C14.3445 16.4056 14.8573 17.4314 15.3903 18.4149C15.9233 19.3983 16.4776 20.3413 16.9329 21.0306C17.1606 21.3752 17.3647 21.6572 17.5199 21.841C17.5642 21.8935 17.5904 21.9161 17.6244 21.9507C17.6584 21.9161 17.6846 21.8935 17.7289 21.841C17.884 21.6572 18.0882 21.3752 18.3158 21.0306C18.7711 20.3413 19.3255 19.3983 19.8585 18.4148C20.3915 17.4314 20.9043 16.4056 21.2803 15.5495C21.4683 15.1215 21.6222 14.7355 21.7264 14.424C21.7707 14.2922 21.8086 14.1583 21.8397 14.0228C21.2468 13.7985 20.4461 13.4981 19.6365 13.1345C18.8662 12.7886 18.1319 12.4202 17.6244 11.984ZM15.2743 24.5407L14.6874 24.9971C14.6874 24.9971 15.0871 25.5121 15.6339 26.0302C16.1807 26.5483 16.8506 27.1233 17.6244 27.1233C18.3982 27.1233 19.068 26.5483 19.6149 26.0302C20.1617 25.5121 20.5614 24.9971 20.5614 24.9971L19.9745 24.5407C19.9745 24.5407 19.6031 25.0171 19.1036 25.4904C18.604 25.9637 17.9521 26.3798 17.6244 26.3798C17.2967 26.3798 16.6448 25.9637 16.1452 25.4904C15.6457 25.0171 15.2743 24.5407 15.2743 24.5407Z" fill="white"/>
</svg>
