<svg width="36" height="36" viewBox="0 0 36 36" fill="none" xmlns="http://www.w3.org/2000/svg">
<circle cx="18" cy="18" r="18" fill="#FF68DE"/>
<path d="M17.6241 9C16.865 9.66307 15.6752 10.3845 14.411 11.0537C13.1128 11.741 11.7708 12.3434 10.7627 12.7053C10.8444 13.1711 11.119 14.0646 11.5549 15.116C12.0754 16.3711 12.7937 17.87 13.5725 19.3045C14.3513 20.7391 15.1924 22.1116 15.9481 23.1092C16.326 23.6079 16.6839 24.0129 16.9875 24.279C17.2912 24.5451 17.5415 24.645 17.6241 24.645C17.7068 24.645 17.9571 24.5451 18.2607 24.279C18.5644 24.0129 18.9223 23.6079 19.3001 23.1092C20.0559 22.1116 20.897 20.7391 21.6758 19.3045C22.4546 17.87 23.1729 16.3711 23.6934 15.116C24.1293 14.0646 24.4039 13.1711 24.4856 12.7053C23.4775 12.3434 22.1355 11.741 20.8372 11.0537C19.5731 10.3845 18.3833 9.66307 17.6241 9ZM12.1708 9.40132C10.8499 10.0618 9.52074 10.7199 8.20417 11.3846L8 11.4877V11.7164C8 12.1708 8.17902 12.8097 8.43205 13.5689C8.68513 14.3281 9.01942 15.165 9.36101 15.8481L10.026 15.5155C9.70674 14.8768 9.38014 14.0616 9.13755 13.3338C8.95039 12.7724 8.81958 12.2437 8.76857 11.9337C10.0073 11.3096 11.2572 10.6894 12.5033 10.0663L12.1708 9.40132ZM23.0775 9.40132L22.745 10.0663C23.9911 10.6894 25.241 11.3096 26.4797 11.9338C26.4287 12.2437 26.2979 12.7724 26.1108 13.3338C25.8682 14.0616 25.5416 14.8768 25.2222 15.5156L25.8873 15.8481C26.2288 15.165 26.5632 14.3281 26.8162 13.5689C27.0693 12.8097 27.2483 12.1708 27.2483 11.7164V11.4877L27.0441 11.3846C25.7276 10.7199 24.3984 10.0618 23.0775 9.40132ZM17.6241 10.9037L17.9041 11.224C18.2083 11.5722 19.0485 12.0555 19.9408 12.4562C20.8332 12.857 21.7832 13.2057 22.3828 13.4344L22.6221 13.5257V13.7817C22.6221 14.0421 22.5465 14.3152 22.4312 14.6598C22.316 15.0044 22.1549 15.4068 21.9608 15.8485C21.5727 16.732 21.0528 17.771 20.5119 18.7691C19.9709 19.7672 19.4101 20.7226 18.936 21.4403C18.699 21.7992 18.4849 22.0977 18.2967 22.3206C18.2026 22.4321 18.1161 22.5246 18.0244 22.6018C17.9326 22.6791 17.8475 22.7661 17.6417 22.7758L17.6241 22.7766L17.6066 22.7758C17.4008 22.7661 17.3157 22.6791 17.2239 22.6019C17.1322 22.5246 17.0457 22.4321 16.9516 22.3206C16.7634 22.0977 16.5493 21.7992 16.3123 21.4403C15.8382 20.7226 15.2773 19.7672 14.7364 18.7691C14.1955 17.771 13.6756 16.732 13.2875 15.8485C13.0934 15.4068 12.9323 15.0044 12.8171 14.6598C12.7018 14.3152 12.6262 14.0421 12.6262 13.7817V13.5257L12.8655 13.4344C13.4651 13.2057 14.415 12.857 15.3075 12.4562C16.1998 12.0555 17.04 11.5722 17.3442 11.224L17.6241 10.9037ZM17.6241 11.984C17.1166 12.4202 16.3823 12.7886 15.612 13.1345C14.8025 13.4981 14.0017 13.7985 13.4088 14.0228C13.4339 14.1335 13.4709 14.2708 13.5222 14.424C13.6264 14.7355 13.7802 15.1215 13.9682 15.5495C14.3443 16.4056 14.857 17.4314 15.39 18.4149C15.923 19.3983 16.4774 20.3413 16.9327 21.0306C17.1603 21.3752 17.3645 21.6572 17.5196 21.841C17.564 21.8935 17.5902 21.9161 17.6241 21.9507C17.6581 21.9161 17.6843 21.8935 17.7286 21.841C17.8838 21.6572 18.088 21.3752 18.3156 21.0306C18.7709 20.3413 19.3253 19.3983 19.8583 18.4148C20.3913 17.4314 20.904 16.4056 21.2801 15.5495C21.4681 15.1215 21.6219 14.7355 21.7261 14.424C21.7705 14.2922 21.8083 14.1583 21.8395 14.0228C21.2466 13.7985 20.4458 13.4981 19.6363 13.1345C18.866 12.7886 18.1317 12.4202 17.6241 11.984ZM15.274 24.5407L14.6872 24.9971C14.6872 24.9971 15.0868 25.5121 15.6337 26.0302C16.1805 26.5483 16.8504 27.1233 17.6241 27.1233C18.3979 27.1233 19.0678 26.5483 19.6146 26.0302C20.1614 25.5121 20.5611 24.9971 20.5611 24.9971L19.9743 24.5407C19.9743 24.5407 19.6029 25.0171 19.1033 25.4904C18.6037 25.9637 17.9518 26.3798 17.6241 26.3798C17.2965 26.3798 16.6445 25.9637 16.145 25.4904C15.6454 25.0171 15.274 24.5407 15.274 24.5407Z" fill="white"/>
</svg>
