<svg width="21" height="10" viewBox="0 0 21 10" fill="none" xmlns="http://www.w3.org/2000/svg">
<path d="M12.7625 8.98771C12.5647 8.98767 12.3714 8.929 12.207 8.81911C12.0426 8.70923 11.9145 8.55307 11.8388 8.37037C11.7631 8.18767 11.7433 7.98663 11.7819 7.79268C11.8205 7.59873 11.9157 7.42056 12.0555 7.28071L19.0555 0.280712C19.2441 0.0985542 19.4967 -0.00224062 19.7589 3.78025e-05C20.0211 0.00231622 20.2719 0.107485 20.4573 0.292894C20.6427 0.478302 20.7479 0.729114 20.7502 0.991311C20.7524 1.25351 20.6516 1.50611 20.4695 1.69471L13.4695 8.69471C13.3767 8.78771 13.2665 8.86147 13.1452 8.91175C13.0239 8.96203 12.8938 8.98785 12.7625 8.98771ZM1.76248 9.98771C1.56473 9.98767 1.37143 9.929 1.20702 9.81911C1.04261 9.70923 0.914474 9.55307 0.838804 9.37037C0.763134 9.18767 0.743331 8.98663 0.781899 8.79268C0.820466 8.59873 0.915673 8.42056 1.05548 8.28071L7.05548 2.28071C7.24408 2.09855 7.49669 1.99776 7.75888 2.00004C8.02108 2.00232 8.27189 2.10749 8.4573 2.29289C8.64271 2.4783 8.74788 2.72911 8.75016 2.99131C8.75243 3.25351 8.65164 3.50611 8.46948 3.69471L2.46948 9.69471C2.37674 9.78771 2.26654 9.86147 2.14522 9.91175C2.02389 9.96203 1.89382 9.98785 1.76248 9.98771Z" fill="white"/>
<path d="M12.7626 8.98771C12.6313 8.98785 12.5012 8.96203 12.3799 8.91175C12.2586 8.86147 12.1484 8.78771 12.0556 8.69471L7.05561 3.69471C6.87346 3.50611 6.77266 3.25351 6.77494 2.99131C6.77722 2.72911 6.88239 2.4783 7.0678 2.29289C7.2532 2.10748 7.50402 2.00232 7.76621 2.00004C8.02841 1.99776 8.28101 2.09855 8.46961 2.28071L13.4696 7.28071C13.6094 7.42056 13.7046 7.59873 13.7432 7.79268C13.7818 7.98663 13.762 8.18767 13.6863 8.37037C13.6106 8.55307 13.4825 8.70923 13.3181 8.81911C13.1537 8.929 12.9604 8.98767 12.7626 8.98771Z" fill="white"/>
</svg>
