<svg width="14" height="14" viewBox="0 0 14 14" fill="none" xmlns="http://www.w3.org/2000/svg">
<path fill-rule="evenodd" clip-rule="evenodd" d="M7.297 1.103C7.13298 0.938975 6.86705 0.938975 6.70303 1.103L3.90303 3.903C3.73901 4.06702 3.73901 4.33295 3.90303 4.49697C4.06705 4.66099 4.33298 4.66099 4.497 4.49697L6.58002 2.41395V8.86653C6.58002 9.09849 6.76806 9.28653 7.00002 9.28653C7.23198 9.28653 7.42002 9.09849 7.42002 8.86653V2.41395L9.50303 4.49697C9.66705 4.66099 9.93298 4.66099 10.097 4.49697C10.261 4.33295 10.261 4.06702 10.097 3.903L7.297 1.103ZM2.3333 9.33321C2.59104 9.33321 2.79997 9.54215 2.79997 9.79988V11.1999C2.79997 11.7168 3.21591 12.1332 3.7299 12.1332H10.2677C10.7827 12.1332 11.2 11.7158 11.2 11.1999V9.79988C11.2 9.54215 11.4089 9.33321 11.6666 9.33321C11.9244 9.33321 12.1333 9.54215 12.1333 9.79988V11.1999C12.1333 12.2303 11.2991 13.0665 10.2677 13.0665H3.7299C2.69748 13.0665 1.86664 12.2293 1.86664 11.1999V9.79988C1.86664 9.54215 2.07557 9.33321 2.3333 9.33321Z" fill="#3C4149"/>
</svg>
