<svg width="14" height="17" viewBox="0 0 14 17" fill="none" xmlns="http://www.w3.org/2000/svg">
<path d="M12.3846 9.13662V7.62069H11.3077V9.37931C11.3077 9.53477 11.3645 9.68385 11.4655 9.79376L12.9231 11.3806V12.3103H1.07692V11.3806L2.53454 9.79376C2.63553 9.68385 2.69228 9.53477 2.69231 9.37931V7.03448C2.69081 6.21074 2.88901 5.40116 3.26689 4.6875C3.64478 3.97384 4.18896 3.38138 4.84448 2.96996C5.5 2.55855 6.24364 2.34274 7.00029 2.34435C7.75694 2.34595 8.4998 2.56491 9.15385 2.9791V1.66893C8.64128 1.42186 8.09612 1.26438 7.53846 1.20231V0H6.46154V1.20172C5.134 1.34882 3.90372 2.02659 3.00858 3.10396C2.11345 4.18132 1.61705 5.58177 1.61538 7.03448V9.13662L0.157769 10.7235C0.0567811 10.8334 3.04971e-05 10.9825 0 11.1379V12.8966C0 13.052 0.0567306 13.2011 0.157712 13.3111C0.258693 13.421 0.395653 13.4828 0.538462 13.4828H4.30769V14.069C4.30769 14.8463 4.59135 15.5918 5.09625 16.1415C5.60116 16.6912 6.28596 17 7 17C7.71404 17 8.39884 16.6912 8.90375 16.1415C9.40866 15.5918 9.69231 14.8463 9.69231 14.069V13.4828H13.4615C13.6043 13.4828 13.7413 13.421 13.8423 13.3111C13.9433 13.2011 14 13.052 14 12.8966V11.1379C14 10.9825 13.9432 10.8334 13.8422 10.7235L12.3846 9.13662ZM8.61539 14.069C8.61539 14.5354 8.44519 14.9827 8.14225 15.3125C7.83931 15.6423 7.42843 15.8276 7 15.8276C6.57157 15.8276 6.16069 15.6423 5.85775 15.3125C5.55481 14.9827 5.38462 14.5354 5.38462 14.069V13.4828H8.61539V14.069Z" fill="#9CA1AB"/>
</svg>
