<svg width="33" height="28" viewBox="0 0 33 28" fill="none" xmlns="http://www.w3.org/2000/svg">
<path d="M2.35332 12.1884C10.9544 8.44186 16.6885 5.97169 19.5555 4.77833C27.751 1.37061 29.4518 0.77877 30.5627 0.75872C30.807 0.754802 31.3509 0.815184 31.7058 1.10212C32.0008 1.34411 32.0838 1.67138 32.1253 1.90115C32.1621 2.1307 32.2129 2.65386 32.1714 3.06226C31.7289 7.72694 29.8068 19.0466 28.8296 24.2714C28.4193 26.482 27.6035 27.2232 26.8153 27.2956C25.1006 27.4532 23.8007 26.1635 22.1414 25.0762C19.5463 23.3739 18.0805 22.3147 15.5592 20.6539C12.6461 18.7346 14.5359 17.6795 16.1953 15.9556C16.6286 15.5043 24.1787 8.63868 24.3216 8.01595C24.34 7.93805 24.3585 7.64766 24.1833 7.49463C24.0128 7.34114 23.7593 7.39368 23.5749 7.43517C23.3122 7.49417 19.1683 10.2358 11.1296 15.6597C9.95418 16.4682 8.88942 16.8623 7.93067 16.8415C6.87973 16.8189 4.8516 16.246 3.34434 15.7565C1.50059 15.1559 0.0301978 14.8383 0.15926 13.8182C0.223792 13.2872 0.956682 12.7438 2.35332 12.1884Z" fill="white"/>
</svg>
