<svg width="33" height="28" viewBox="0 0 33 28" fill="none" xmlns="http://www.w3.org/2000/svg">
<path d="M2.35332 12.1886C10.9544 8.4421 16.6885 5.97194 19.5555 4.77857C27.751 1.37086 29.4518 0.779015 30.5627 0.758964C30.807 0.755046 31.3509 0.815428 31.7058 1.10236C32.0008 1.34435 32.0838 1.67162 32.1253 1.9014C32.1621 2.13094 32.2129 2.65411 32.1714 3.0625C31.7289 7.72719 29.8068 19.0469 28.8296 24.2716C28.4193 26.4823 27.6035 27.2235 26.8153 27.2958C25.1006 27.4535 23.8007 26.1638 22.1414 25.0764C19.5463 23.3742 18.0805 22.3149 15.5592 20.6542C12.6461 18.7348 14.5359 17.6797 16.1953 15.9558C16.6286 15.5046 24.1787 8.63892 24.3216 8.01619C24.34 7.9383 24.3585 7.6479 24.1833 7.49487C24.0128 7.34138 23.7593 7.39393 23.5749 7.43541C23.3122 7.49441 19.1683 10.2361 11.1296 15.6599C9.95418 16.4684 8.88942 16.8625 7.93067 16.8418C6.87973 16.8192 4.8516 16.2462 3.34434 15.7567C1.50059 15.1561 0.0301978 14.8385 0.15926 13.8185C0.223792 13.2875 0.956682 12.744 2.35332 12.1886Z" fill="white"/>
</svg>
