<svg width="14" height="11" viewBox="0 0 14 11" fill="none" xmlns="http://www.w3.org/2000/svg">
<path d="M4.70312 8.1875H6.04688V6.17188H8.0625V4.82812H6.04688V2.8125H4.70312V4.82812H2.6875V6.17188H4.70312V8.1875ZM1.34375 10.875C0.974219 10.875 0.65799 10.7435 0.395063 10.4806C0.131688 10.2172 0 9.90078 0 9.53125V1.46875C0 1.09922 0.131688 0.782989 0.395063 0.520062C0.65799 0.256687 0.974219 0.125 1.34375 0.125H9.40625C9.77578 0.125 10.0922 0.256687 10.3556 0.520062C10.6185 0.782989 10.75 1.09922 10.75 1.46875V4.49219L13.4375 1.80469V9.19531L10.75 6.50781V9.53125C10.75 9.90078 10.6185 10.2172 10.3556 10.4806C10.0922 10.7435 9.77578 10.875 9.40625 10.875H1.34375Z" fill="white"/>
</svg>
