<svg width="18" height="18" viewBox="0 0 18 18" fill="none" xmlns="http://www.w3.org/2000/svg">
<path d="M10.0041 16.0711C10.0041 16.3374 9.8983 16.5928 9.71 16.7811C9.5217 16.9694 9.2663 17.0752 9 17.0752C8.7337 17.0752 8.4783 16.9694 8.29 16.7811C8.1017 16.5928 7.99591 16.3374 7.99591 16.0711L8.00298 9.99703L1.92893 10.0041C1.66263 10.0041 1.40724 9.89831 1.21893 9.71001C1.03063 9.52171 0.924842 9.26631 0.924842 9.00001C0.924842 8.73371 1.03063 8.47831 1.21893 8.29001C1.40724 8.10171 1.66263 7.99592 1.92893 7.99592L8.00298 8.00299L7.99591 1.92894C7.99591 1.66264 8.1017 1.40725 8.29 1.21894C8.4783 1.03064 8.7337 0.92485 9 0.92485C9.2663 0.92485 9.5217 1.03064 9.71 1.21894C9.8983 1.40725 10.0041 1.66264 10.0041 1.92894L9.99702 8.00299L16.0711 7.99592C16.3374 7.99592 16.5928 8.10171 16.7811 8.29001C16.9694 8.47831 17.0752 8.73371 17.0752 9.00001C17.0752 9.26631 16.9694 9.52171 16.7811 9.71001C16.5928 9.89831 16.3374 10.0041 16.0711 10.0041L9.99702 9.99703L10.0041 16.0711Z" fill="white"/>
</svg>
