<svg width="458" height="270" viewBox="0 0 458 270" fill="none" xmlns="http://www.w3.org/2000/svg">
<g clip-path="url(#clip0_2225_6578)">
<path d="M108.362 94.7049H119.127L63.9215 270H53.1563H46.9863L102.192 94.7049H108.362ZM350.112 94.7049H356.282L411.488 270H405.318H394.553L339.347 94.7049H350.112Z" fill="#E1E5F0"/>
<path d="M40.8164 165.432L51.0902 155.467C52.4275 154.17 54.2502 153.44 56.1519 153.44H402.346C404.262 153.44 406.097 154.181 407.436 155.495L417.658 165.525L40.8164 165.432ZM77.3168 173.929H381.218L386.992 192.597H71.4084L77.3168 173.929Z" fill="#D8DEED"/>
<path d="M42.9522 164.368H415.522C416.702 164.368 417.658 165.285 417.658 166.417V171.88C417.658 173.012 416.702 173.929 415.522 173.929H42.9522C41.7726 173.929 40.8164 173.012 40.8164 171.88V166.417C40.8164 165.285 41.7726 164.368 42.9522 164.368ZM53.1563 119.974V76.0371C53.1563 72.2652 56.3437 69.2074 60.2755 69.2074H398.199C402.131 69.2074 405.318 72.2652 405.318 76.0371V113.373C405.323 117.145 402.135 120.202 398.204 120.202C398.202 120.202 398.2 120.202 398.199 120.198L53.1563 119.974Z" fill="#F2F6FB"/>
</g>
<defs>
<clipPath id="clip0_2225_6578">
<rect width="458" height="270" fill="white"/>
</clipPath>
</defs>
</svg>
