<svg width="22" height="20" viewBox="0 0 22 20" fill="none" xmlns="http://www.w3.org/2000/svg">
<path fill-rule="evenodd" clip-rule="evenodd" d="M12.6316 4.21053V2.10526H8.42105V4.21053H12.6316ZM2.10526 6.31579V17.8947H18.9474V6.31579H2.10526ZM18.9474 4.21053C20.1158 4.21053 21.0526 5.14737 21.0526 6.31579V17.8947C21.0526 19.0632 20.1158 20 18.9474 20H2.10526C0.936842 20 0 19.0632 0 17.8947L0.0105263 6.31579C0.0105263 5.14737 0.936842 4.21053 2.10526 4.21053H6.31579V2.10526C6.31579 0.936842 7.25263 0 8.42105 0H12.6316C13.8 0 14.7368 0.936842 14.7368 2.10526V4.21053H18.9474Z" fill="#939393"/>
</svg>
