<svg width="16" height="17" viewBox="0 0 16 17" fill="none" xmlns="http://www.w3.org/2000/svg">
<rect width="16" height="17" fill="#E5E5E5"/>
<g clip-path="url(#clip0_779_2522)">
<rect width="1411" height="5956" transform="translate(-19 -358)" fill="white"/>
<rect x="-19" y="-296" width="236" height="5894" fill="#0000F5"/>
<path d="M8.83333 4.00001C8.83333 3.77899 8.92113 3.56703 9.07741 3.41075C9.23369 3.25447 9.44565 3.16667 9.66667 3.16667H13.1333L12.1083 1.98334C12.0383 1.91488 11.9833 1.83264 11.9466 1.74183C11.91 1.65101 11.8926 1.55359 11.8955 1.45571C11.8985 1.35783 11.9216 1.26162 11.9636 1.17316C12.0056 1.08469 12.0655 1.00589 12.1395 0.941739C12.2135 0.877584 12.2999 0.829465 12.3935 0.800421C12.487 0.771377 12.5855 0.762038 12.6828 0.772995C12.7801 0.783952 12.8741 0.814966 12.9588 0.86408C13.0435 0.913193 13.1171 0.979338 13.175 1.05834L15.325 3.55834C15.3447 3.58419 15.3614 3.61214 15.375 3.64167C15.4021 3.68052 15.4245 3.72249 15.4417 3.76667C15.4454 3.80825 15.4454 3.85009 15.4417 3.89167C15.4639 3.97917 15.4639 4.07084 15.4417 4.15834C15.4454 4.19992 15.4454 4.24176 15.4417 4.28334C15.4245 4.32752 15.4021 4.36949 15.375 4.40834C15.3614 4.43787 15.3447 4.46582 15.325 4.49167L13.175 6.99167C13.1171 7.07067 13.0435 7.13682 12.9588 7.18593C12.8741 7.23504 12.7801 7.26606 12.6828 7.27702C12.5855 7.28797 12.487 7.27863 12.3935 7.24959C12.2999 7.22054 12.2135 7.17243 12.1395 7.10827C12.0655 7.04412 12.0056 6.96532 11.9636 6.87685C11.9216 6.78839 11.8985 6.69218 11.8955 6.5943C11.8926 6.49642 11.91 6.399 11.9466 6.30818C11.9833 6.21737 12.0383 6.13513 12.1083 6.06667L13.1333 4.83334H9.66667C9.44565 4.83334 9.23369 4.74554 9.07741 4.58926C8.92113 4.43298 8.83333 4.22102 8.83333 4.00001ZM7.16667 2.75001V5.25C7.16667 5.80254 6.94717 6.33244 6.55647 6.72314C6.16577 7.11384 5.63587 7.33334 5.08333 7.33334H2.58333C2.0308 7.33334 1.5009 7.11384 1.11019 6.72314C0.719493 6.33244 0.5 5.80254 0.5 5.25V2.75001C0.5 2.19747 0.719493 1.66757 1.11019 1.27687C1.5009 0.886165 2.0308 0.666672 2.58333 0.666672H5.08333C5.63587 0.666672 6.16577 0.886165 6.55647 1.27687C6.94717 1.66757 7.16667 2.19747 7.16667 2.75001ZM5.5 2.75001C5.5 2.6395 5.4561 2.53352 5.37796 2.45538C5.29982 2.37724 5.19384 2.33334 5.08333 2.33334H2.58333C2.47283 2.33334 2.36685 2.37724 2.28871 2.45538C2.21057 2.53352 2.16667 2.6395 2.16667 2.75001V5.25C2.16667 5.36051 2.21057 5.46649 2.28871 5.54463C2.36685 5.62277 2.47283 5.66667 2.58333 5.66667H5.08333C5.19384 5.66667 5.29982 5.62277 5.37796 5.54463C5.4561 5.46649 5.5 5.36051 5.5 5.25V2.75001ZM6.33333 12.3333H2.86667L3.89167 11.15C3.96168 11.0815 4.01674 10.9993 4.05337 10.9085C4.09 10.8177 4.1074 10.7203 4.10447 10.6224C4.10154 10.5245 4.07835 10.4283 4.03637 10.3398C3.99438 10.2514 3.9345 10.1726 3.86052 10.1084C3.78654 10.0442 3.70006 9.99613 3.60654 9.96709C3.51303 9.93804 3.4145 9.92871 3.3172 9.93966C3.21989 9.95062 3.12591 9.98163 3.04119 10.0307C2.95647 10.0799 2.88286 10.146 2.825 10.225L0.675 12.725C0.655319 12.7509 0.638551 12.7788 0.625 12.8083C0.597852 12.8472 0.575469 12.8892 0.558333 12.9333C0.55456 12.9749 0.55456 13.0168 0.558333 13.0583C0.536111 13.1458 0.536111 13.2375 0.558333 13.325C0.55456 13.3666 0.55456 13.4084 0.558333 13.45C0.575469 13.4942 0.597852 13.5362 0.625 13.575C0.638551 13.6045 0.655319 13.6325 0.675 13.6583L2.825 16.1583C2.88286 16.2373 2.95647 16.3035 3.04119 16.3526C3.12591 16.4017 3.21989 16.4327 3.3172 16.4437C3.4145 16.4546 3.51303 16.4453 3.60654 16.4163C3.70006 16.3872 3.78654 16.3391 3.86052 16.2749C3.9345 16.2108 3.99438 16.132 4.03637 16.0435C4.07835 15.9551 4.10154 15.8588 4.10447 15.761C4.1074 15.6631 4.09 15.5657 4.05337 15.4748C4.01674 15.384 3.96168 15.3018 3.89167 15.2333L2.86667 14H6.33333C6.55435 14 6.76631 13.9122 6.92259 13.7559C7.07887 13.5996 7.16667 13.3877 7.16667 13.1667C7.16667 12.9457 7.07887 12.7337 6.92259 12.5774C6.76631 12.4211 6.55435 12.3333 6.33333 12.3333ZM15.5 11.9167V14.4167C15.5 14.9692 15.2805 15.4991 14.8898 15.8898C14.4991 16.2805 13.9692 16.5 13.4167 16.5H10.9167C10.3641 16.5 9.83423 16.2805 9.44353 15.8898C9.05283 15.4991 8.83333 14.9692 8.83333 14.4167V11.9167C8.83333 11.3641 9.05283 10.8342 9.44353 10.4435C9.83423 10.0528 10.3641 9.83334 10.9167 9.83334H13.4167C13.9692 9.83334 14.4991 10.0528 14.8898 10.4435C15.2805 10.8342 15.5 11.3641 15.5 11.9167ZM13.8333 11.9167C13.8333 11.8062 13.7894 11.7002 13.7113 11.622C13.6332 11.5439 13.5272 11.5 13.4167 11.5H10.9167C10.8062 11.5 10.7002 11.5439 10.622 11.622C10.5439 11.7002 10.5 11.8062 10.5 11.9167V14.4167C10.5 14.5272 10.5439 14.6332 10.622 14.7113C10.7002 14.7894 10.8062 14.8333 10.9167 14.8333H13.4167C13.5272 14.8333 13.6332 14.7894 13.7113 14.7113C13.7894 14.6332 13.8333 14.5272 13.8333 14.4167V11.9167Z" fill="white"/>
</g>
<defs>
<clipPath id="clip0_779_2522">
<rect width="1411" height="5956" fill="white" transform="translate(-19 -358)"/>
</clipPath>
</defs>
</svg>
