<svg width="16" height="16" viewBox="0 0 16 16" fill="none" xmlns="http://www.w3.org/2000/svg">
<path d="M10.9219 5.51562H10.1891C10.0297 5.51562 9.87814 5.59219 9.78439 5.72344L7.32814 9.12969L6.21564 7.58594C6.12189 7.45625 5.97189 7.37813 5.81095 7.37813H5.07814C4.97658 7.37813 4.9172 7.49375 4.97658 7.57656L6.92345 10.2766C6.96944 10.3408 7.03007 10.3931 7.10032 10.4291C7.17056 10.4652 7.24839 10.4841 7.32736 10.4841C7.40633 10.4841 7.48416 10.4652 7.5544 10.4291C7.62464 10.3931 7.68527 10.3408 7.73126 10.2766L11.0219 5.71406C11.0828 5.63125 11.0235 5.51562 10.9219 5.51562Z" fill="#0000F5"/>
<path d="M8 1C4.13438 1 1 4.13438 1 8C1 11.8656 4.13438 15 8 15C11.8656 15 15 11.8656 15 8C15 4.13438 11.8656 1 8 1ZM8 13.8125C4.79063 13.8125 2.1875 11.2094 2.1875 8C2.1875 4.79063 4.79063 2.1875 8 2.1875C11.2094 2.1875 13.8125 4.79063 13.8125 8C13.8125 11.2094 11.2094 13.8125 8 13.8125Z" fill="#1982F8"/>
</svg>
