<svg width="21" height="20" viewBox="0 0 21 20" fill="none" xmlns="http://www.w3.org/2000/svg">
<path d="M12.5949 6L10.0049 8.59L7.41488 6L6.00488 7.41L8.59488 10L6.00488 12.59L7.41488 14L10.0049 11.41L12.5949 14L14.0049 12.59L11.4149 10L14.0049 7.41L12.5949 6ZM10.0049 0C4.47488 0 0.00488281 4.47 0.00488281 10C0.00488281 15.53 4.47488 20 10.0049 20C15.5349 20 20.0049 15.53 20.0049 10C20.0049 4.47 15.5349 0 10.0049 0ZM10.0049 18C5.59488 18 2.00488 14.41 2.00488 10C2.00488 5.59 5.59488 2 10.0049 2C14.4149 2 18.0049 5.59 18.0049 10C18.0049 14.41 14.4149 18 10.0049 18Z" fill="#1982f8"/>
</svg>
