<svg width="18" height="18" viewBox="0 0 18 18" fill="none" xmlns="http://www.w3.org/2000/svg">
<rect width="18" height="18" fill="#E5E5E5"/>
<g clip-path="url(#clip0_779_2522)">
<rect width="1411" height="5956" transform="translate(-19 -256)" fill="white"/>
<rect x="-19" y="-194" width="236" height="5894" fill="#0000F5"/>
<path d="M16.2 0H1.8C0.81 0 0.00899999 0.81 0.00899999 1.8L0 18L3.6 14.4H16.2C17.19 14.4 18 13.59 18 12.6V1.8C18 0.81 17.19 0 16.2 0ZM3.6 10.8V8.577L9.792 2.385C9.972 2.205 10.251 2.205 10.431 2.385L12.024 3.978C12.204 4.158 12.204 4.437 12.024 4.617L5.823 10.8H3.6ZM14.4 10.8H7.65L9.45 9H14.4V10.8Z" fill="white"/>
</g>
<defs>
<clipPath id="clip0_779_2522">
<rect width="1411" height="5956" fill="white" transform="translate(-19 -256)"/>
</clipPath>
</defs>
</svg>
