<svg width="18" height="19" viewBox="0 0 18 19" fill="none" xmlns="http://www.w3.org/2000/svg">
<path d="M10 4C10 3.73478 10.1054 3.48043 10.2929 3.29289C10.4804 3.10536 10.7348 3 11 3H15.16L13.93 1.58C13.846 1.49785 13.7799 1.39917 13.736 1.29019C13.692 1.18121 13.6711 1.0643 13.6746 0.946846C13.6781 0.82939 13.706 0.713938 13.7564 0.607781C13.8067 0.501623 13.8786 0.407066 13.9674 0.33008C14.0562 0.253094 14.1599 0.195352 14.2721 0.160499C14.3844 0.125646 14.5026 0.11444 14.6194 0.127588C14.7361 0.140737 14.8489 0.177954 14.9506 0.236889C15.0522 0.295825 15.1406 0.375199 15.21 0.47L17.79 3.47C17.8136 3.50102 17.8337 3.53456 17.85 3.57C17.8826 3.61662 17.9094 3.66698 17.93 3.72C17.9345 3.7699 17.9345 3.8201 17.93 3.87C17.9567 3.975 17.9567 4.085 17.93 4.19C17.9345 4.2399 17.9345 4.2901 17.93 4.34C17.9094 4.39302 17.8826 4.44338 17.85 4.49C17.8337 4.52544 17.8136 4.55898 17.79 4.59L15.21 7.59C15.1406 7.6848 15.0522 7.76417 14.9506 7.82311C14.8489 7.88205 14.7361 7.91926 14.6194 7.93241C14.5026 7.94556 14.3844 7.93435 14.2721 7.8995C14.1599 7.86465 14.0562 7.80691 13.9674 7.72992C13.8786 7.65293 13.8067 7.55838 13.7564 7.45222C13.706 7.34606 13.6781 7.23061 13.6746 7.11315C13.6711 6.9957 13.692 6.87879 13.736 6.76981C13.7799 6.66083 13.846 6.56215 13.93 6.48L15.16 5H11C10.7348 5 10.4804 4.89464 10.2929 4.70711C10.1054 4.51957 10 4.26522 10 4ZM8 2.5V5.5C8 6.16304 7.73661 6.79893 7.26777 7.26777C6.79893 7.73661 6.16304 8 5.5 8H2.5C1.83696 8 1.20107 7.73661 0.732233 7.26777C0.263392 6.79893 0 6.16304 0 5.5V2.5C0 1.83696 0.263392 1.20107 0.732233 0.732233C1.20107 0.263392 1.83696 0 2.5 0H5.5C6.16304 0 6.79893 0.263392 7.26777 0.732233C7.73661 1.20107 8 1.83696 8 2.5ZM6 2.5C6 2.36739 5.94732 2.24021 5.85355 2.14645C5.75979 2.05268 5.63261 2 5.5 2H2.5C2.36739 2 2.24021 2.05268 2.14645 2.14645C2.05268 2.24021 2 2.36739 2 2.5V5.5C2 5.63261 2.05268 5.75979 2.14645 5.85355C2.24021 5.94732 2.36739 6 2.5 6H5.5C5.63261 6 5.75979 5.94732 5.85355 5.85355C5.94732 5.75979 6 5.63261 6 5.5V2.5ZM7 14H2.84L4.07 12.58C4.15402 12.4978 4.22009 12.3992 4.26404 12.2902C4.308 12.1812 4.32888 12.0643 4.32536 11.9468C4.32185 11.8294 4.29402 11.7139 4.24364 11.6078C4.19325 11.5016 4.1214 11.4071 4.03263 11.3301C3.94385 11.2531 3.84007 11.1954 3.72785 11.1605C3.61563 11.1256 3.49741 11.1144 3.38063 11.1276C3.26386 11.1407 3.15109 11.178 3.04943 11.2369C2.94777 11.2958 2.85943 11.3752 2.79 11.47L0.21 14.47C0.186383 14.501 0.166261 14.5346 0.15 14.57C0.117422 14.6166 0.0905628 14.667 0.0699999 14.72C0.0654726 14.7699 0.0654726 14.8201 0.0699999 14.87C0.0433333 14.975 0.0433333 15.085 0.0699999 15.19C0.0654726 15.2399 0.0654726 15.2901 0.0699999 15.34C0.0905628 15.393 0.117422 15.4434 0.15 15.49C0.166261 15.5254 0.186383 15.559 0.21 15.59L2.79 18.59C2.85943 18.6848 2.94777 18.7642 3.04943 18.8231C3.15109 18.882 3.26386 18.9193 3.38063 18.9324C3.49741 18.9456 3.61563 18.9344 3.72785 18.8995C3.84007 18.8646 3.94385 18.8069 4.03263 18.7299C4.1214 18.6529 4.19325 18.5584 4.24364 18.4522C4.29402 18.3461 4.32185 18.2306 4.32536 18.1132C4.32888 17.9957 4.308 17.8788 4.26404 17.7698C4.22009 17.6608 4.15402 17.5622 4.07 17.48L2.84 16H7C7.26522 16 7.51957 15.8946 7.70711 15.7071C7.89464 15.5196 8 15.2652 8 15C8 14.7348 7.89464 14.4804 7.70711 14.2929C7.51957 14.1054 7.26522 14 7 14ZM18 13.5V16.5C18 17.163 17.7366 17.7989 17.2678 18.2678C16.7989 18.7366 16.163 19 15.5 19H12.5C11.837 19 11.2011 18.7366 10.7322 18.2678C10.2634 17.7989 10 17.163 10 16.5V13.5C10 12.837 10.2634 12.2011 10.7322 11.7322C11.2011 11.2634 11.837 11 12.5 11H15.5C16.163 11 16.7989 11.2634 17.2678 11.7322C17.7366 12.2011 18 12.837 18 13.5ZM16 13.5C16 13.3674 15.9473 13.2402 15.8536 13.1464C15.7598 13.0527 15.6326 13 15.5 13H12.5C12.3674 13 12.2402 13.0527 12.1464 13.1464C12.0527 13.2402 12 13.3674 12 13.5V16.5C12 16.6326 12.0527 16.7598 12.1464 16.8536C12.2402 16.9473 12.3674 17 12.5 17H15.5C15.6326 17 15.7598 16.9473 15.8536 16.8536C15.9473 16.7598 16 16.6326 16 16.5V13.5Z" fill="white"/>
</svg>
