<svg width="27" height="30" viewBox="0 0 27 30" fill="none" xmlns="http://www.w3.org/2000/svg">
<path d="M23.7083 3.37504H17.6125C17 1.68337 15.3958 0.458374 13.5 0.458374C11.6042 0.458374 10 1.68337 9.3875 3.37504H3.29167C1.6875 3.37504 0.375 4.68754 0.375 6.29171V26.7084C0.375 28.3125 1.6875 29.625 3.29167 29.625H23.7083C25.3125 29.625 26.625 28.3125 26.625 26.7084V6.29171C26.625 4.68754 25.3125 3.37504 23.7083 3.37504ZM13.5 3.37504C14.3021 3.37504 14.9583 4.03129 14.9583 4.83337C14.9583 5.63546 14.3021 6.29171 13.5 6.29171C12.6979 6.29171 12.0417 5.63546 12.0417 4.83337C12.0417 4.03129 12.6979 3.37504 13.5 3.37504ZM16.4167 23.7917H6.20833V20.875H16.4167V23.7917ZM20.7917 17.9584H6.20833V15.0417H20.7917V17.9584ZM20.7917 12.125H6.20833V9.20837H20.7917V12.125Z" fill="#F859A5"/>
</svg>
