<svg width="12" height="14" viewBox="0 0 12 14" fill="none" xmlns="http://www.w3.org/2000/svg">
<path d="M1.33333 13.6667C0.966668 13.6667 0.652668 13.536 0.391334 13.2747C0.130001 13.0133 -0.000443313 12.6996 1.13186e-06 12.3333V3H1.33333V12.3333H8.66667V13.6667H1.33333ZM4 11C3.63333 11 3.31933 10.8693 3.058 10.608C2.79667 10.3467 2.66622 10.0329 2.66667 9.66666V1.66666C2.66667 1.3 2.79733 0.985996 3.05867 0.724663C3.32 0.463329 3.63378 0.332885 4 0.333329H10C10.3667 0.333329 10.6807 0.463996 10.942 0.725329C11.2033 0.986663 11.3338 1.30044 11.3333 1.66666V9.66666C11.3333 10.0333 11.2027 10.3473 10.9413 10.6087C10.68 10.87 10.3662 11.0004 10 11H4ZM4 9.66666H10V1.66666H4V9.66666Z" fill="#1982F8"/>
</svg>
