<svg width="126" height="44" viewBox="0 0 126 44" fill="none" xmlns="http://www.w3.org/2000/svg">
<g filter="url(#filter0_d_1236_42254)">
<path d="M2 9C2 4.58172 5.58172 1 10 1H116C120.418 1 124 4.58172 124 9V33C124 37.4183 120.418 41 116 41H10C5.58172 41 2 37.4183 2 33V9Z" fill="#1F2032"/>
<path d="M22.167 23.5003H21.3337C20.8916 23.5003 20.4677 23.3247 20.1551 23.0122C19.8426 22.6996 19.667 22.2757 19.667 21.8337V14.3337C19.667 13.8916 19.8426 13.4677 20.1551 13.1551C20.4677 12.8426 20.8916 12.667 21.3337 12.667H28.8337C29.2757 12.667 29.6996 12.8426 30.0122 13.1551C30.3247 13.4677 30.5003 13.8916 30.5003 14.3337V15.167M27.167 18.5003H34.667C35.5875 18.5003 36.3337 19.2465 36.3337 20.167V27.667C36.3337 28.5875 35.5875 29.3337 34.667 29.3337H27.167C26.2465 29.3337 25.5003 28.5875 25.5003 27.667V20.167C25.5003 19.2465 26.2465 18.5003 27.167 18.5003Z" stroke="#E6E8EC" stroke-width="1.67" stroke-linecap="round" stroke-linejoin="round"/>
<path d="M55.5753 19.1293H54.0241C53.9645 18.7978 53.8535 18.5062 53.6911 18.2543C53.5286 18.0024 53.3298 17.7886 53.0945 17.6129C52.8591 17.4373 52.5956 17.3047 52.304 17.2152C52.0156 17.1257 51.709 17.081 51.3842 17.081C50.7976 17.081 50.2723 17.2285 49.8082 17.5234C49.3475 17.8184 48.983 18.2509 48.7145 18.821C48.4493 19.3911 48.3168 20.0871 48.3168 20.9091C48.3168 21.7377 48.4493 22.437 48.7145 23.0071C48.983 23.5772 49.3492 24.008 49.8132 24.2997C50.2772 24.5914 50.7992 24.7372 51.3793 24.7372C51.7008 24.7372 52.0057 24.6941 52.294 24.608C52.5857 24.5185 52.8492 24.3875 53.0845 24.2152C53.3198 24.0429 53.5187 23.8324 53.6811 23.5838C53.8468 23.3319 53.9612 23.0436 54.0241 22.7188L55.5753 22.7237C55.4924 23.2242 55.3317 23.6849 55.093 24.1058C54.8577 24.5234 54.5545 24.8847 54.1832 25.1896C53.8153 25.4912 53.3944 25.7249 52.9205 25.8906C52.4465 26.0563 51.9295 26.1392 51.3693 26.1392C50.4877 26.1392 49.7022 25.9304 49.0128 25.5128C48.3234 25.0919 47.7798 24.4903 47.3821 23.7081C46.9877 22.9259 46.7905 21.9929 46.7905 20.9091C46.7905 19.822 46.9893 18.889 47.3871 18.1101C47.7848 17.3279 48.3284 16.728 49.0178 16.3104C49.7071 15.8894 50.491 15.679 51.3693 15.679C51.9096 15.679 52.4134 15.7569 52.8807 15.9126C53.3513 16.0651 53.7739 16.2905 54.1484 16.5888C54.523 16.8838 54.8329 17.245 55.0781 17.6726C55.3234 18.0968 55.4891 18.5824 55.5753 19.1293ZM60.5108 26.1541C59.7949 26.1541 59.1702 25.9901 58.6365 25.6619C58.1029 25.3338 57.6886 24.8748 57.3936 24.2848C57.0987 23.6948 56.9512 23.0054 56.9512 22.2166C56.9512 21.4245 57.0987 20.7318 57.3936 20.1385C57.6886 19.5452 58.1029 19.0845 58.6365 18.7564C59.1702 18.4283 59.7949 18.2642 60.5108 18.2642C61.2267 18.2642 61.8515 18.4283 62.3851 18.7564C62.9187 19.0845 63.333 19.5452 63.628 20.1385C63.923 20.7318 64.0705 21.4245 64.0705 22.2166C64.0705 23.0054 63.923 23.6948 63.628 24.2848C63.333 24.8748 62.9187 25.3338 62.3851 25.6619C61.8515 25.9901 61.2267 26.1541 60.5108 26.1541ZM60.5158 24.9062C60.9798 24.9062 61.3643 24.7836 61.6692 24.5384C61.9741 24.2931 62.1995 23.9666 62.3453 23.5589C62.4945 23.1513 62.5691 22.7022 62.5691 22.2116C62.5691 21.7244 62.4945 21.277 62.3453 20.8693C62.1995 20.4583 61.9741 20.1286 61.6692 19.88C61.3643 19.6314 60.9798 19.5071 60.5158 19.5071C60.0485 19.5071 59.6607 19.6314 59.3525 19.88C59.0475 20.1286 58.8205 20.4583 58.6713 20.8693C58.5255 21.277 58.4526 21.7244 58.4526 22.2116C58.4526 22.7022 58.5255 23.1513 58.6713 23.5589C58.8205 23.9666 59.0475 24.2931 59.3525 24.5384C59.6607 24.7836 60.0485 24.9062 60.5158 24.9062ZM65.7298 28.8636V18.3636H67.1815V19.6016H67.3058C67.3919 19.4425 67.5162 19.2585 67.6786 19.0497C67.841 18.8409 68.0664 18.6586 68.3548 18.5028C68.6431 18.3438 69.0243 18.2642 69.4982 18.2642C70.1147 18.2642 70.6649 18.42 71.1488 18.7315C71.6327 19.0431 72.0122 19.4922 72.2873 20.0788C72.5657 20.6655 72.7049 21.3714 72.7049 22.1967C72.7049 23.022 72.5674 23.7296 72.2923 24.3196C72.0172 24.9062 71.6393 25.3587 71.1587 25.6768C70.6781 25.9917 70.1296 26.1491 69.5131 26.1491C69.0491 26.1491 68.6696 26.0713 68.3746 25.9155C68.083 25.7597 67.8543 25.5774 67.6886 25.3686C67.5228 25.1598 67.3952 24.9742 67.3058 24.8118H67.2163V28.8636H65.7298ZM67.1864 22.1818C67.1864 22.7187 67.2643 23.1894 67.4201 23.5938C67.5759 23.9981 67.8013 24.3146 68.0962 24.5433C68.3912 24.7687 68.7525 24.8814 69.18 24.8814C69.6242 24.8814 69.9954 24.7637 70.2937 24.5284C70.592 24.2898 70.8174 23.9666 70.9698 23.5589C71.1256 23.1513 71.2035 22.6922 71.2035 22.1818C71.2035 21.678 71.1272 21.2256 70.9748 20.8246C70.8256 20.4235 70.6003 20.107 70.2987 19.875C70.0004 19.643 69.6275 19.527 69.18 19.527C68.7492 19.527 68.3846 19.638 68.0863 19.8601C67.7913 20.0821 67.5676 20.392 67.4151 20.7898C67.2627 21.1875 67.1864 21.6515 67.1864 22.1818ZM75.0502 28.8636C74.8282 28.8636 74.626 28.8454 74.4437 28.8089C74.2614 28.7758 74.1255 28.7393 74.036 28.6996L74.394 27.4815C74.6658 27.5545 74.9077 27.5859 75.1199 27.576C75.332 27.5661 75.5192 27.4865 75.6816 27.3374C75.8474 27.1882 75.9932 26.9446 76.1191 26.6065L76.3031 26.0994L73.5091 18.3636H75.1L77.0339 24.2898H77.1135L79.0474 18.3636H80.6433L77.4963 27.0192C77.3504 27.4169 77.1648 27.7533 76.9395 28.0284C76.7141 28.3068 76.4456 28.5156 76.1341 28.6548C75.8225 28.794 75.4612 28.8636 75.0502 28.8636ZM87.2319 15.8182V26H85.7454V15.8182H87.2319ZM89.2317 26V18.3636H90.7182V26H89.2317ZM89.9824 17.1854C89.7239 17.1854 89.5018 17.0992 89.3162 16.9268C89.1339 16.7512 89.0428 16.5424 89.0428 16.3004C89.0428 16.0552 89.1339 15.8464 89.3162 15.674C89.5018 15.4983 89.7239 15.4105 89.9824 15.4105C90.2409 15.4105 90.4614 15.4983 90.6436 15.674C90.8292 15.8464 90.9221 16.0552 90.9221 16.3004C90.9221 16.5424 90.8292 16.7512 90.6436 16.9268C90.4614 17.0992 90.2409 17.1854 89.9824 17.1854ZM94.2045 21.4659V26H92.718V18.3636H94.1449V19.6065H94.2393C94.415 19.2022 94.6901 18.8774 95.0646 18.6321C95.4425 18.3868 95.9181 18.2642 96.4915 18.2642C97.0118 18.2642 97.4676 18.3736 97.8587 18.5923C98.2498 18.8078 98.553 19.1293 98.7685 19.5568C98.9839 19.9844 99.0916 20.513 99.0916 21.1428V26H97.6051V21.3217C97.6051 20.7682 97.4609 20.3357 97.1726 20.0241C96.8842 19.7093 96.4882 19.5518 95.9844 19.5518C95.6397 19.5518 95.3331 19.6264 95.0646 19.7756C94.7995 19.9247 94.589 20.1435 94.4332 20.4318C94.2808 20.7169 94.2045 21.0616 94.2045 21.4659ZM102.452 23.4098L102.442 21.5952H102.701L105.744 18.3636H107.523L104.053 22.0426H103.82L102.452 23.4098ZM101.085 26V15.8182H102.572V26H101.085ZM105.908 26L103.173 22.3707L104.197 21.3317L107.732 26H105.908Z" fill="#E6E8EC"/>
<path d="M10 2H116V0H10V2ZM123 9V33H125V9H123ZM116 40H10V42H116V40ZM3 33V9H1V33H3ZM10 40C6.13401 40 3 36.866 3 33H1C1 37.9706 5.02943 42 10 42V40ZM123 33C123 36.866 119.866 40 116 40V42C120.971 42 125 37.9706 125 33H123ZM116 2C119.866 2 123 5.13401 123 9H125C125 4.02944 120.971 0 116 0V2ZM10 0C5.02944 0 1 4.02944 1 9H3C3 5.13401 6.13401 2 10 2V0Z" fill="#E6E8EC"/>
</g>
<defs>
<filter id="filter0_d_1236_42254" x="0" y="0" width="126" height="44" filterUnits="userSpaceOnUse" color-interpolation-filters="sRGB">
<feFlood flood-opacity="0" result="BackgroundImageFix"/>
<feColorMatrix in="SourceAlpha" type="matrix" values="0 0 0 0 0 0 0 0 0 0 0 0 0 0 0 0 0 0 127 0" result="hardAlpha"/>
<feOffset dy="1"/>
<feGaussianBlur stdDeviation="1"/>
<feColorMatrix type="matrix" values="0 0 0 0 0.0627451 0 0 0 0 0.0941176 0 0 0 0 0.156863 0 0 0 0.05 0"/>
<feBlend mode="normal" in2="BackgroundImageFix" result="effect1_dropShadow_1236_42254"/>
<feBlend mode="normal" in="SourceGraphic" in2="effect1_dropShadow_1236_42254" result="shape"/>
</filter>
</defs>
</svg>
