<svg width="19" height="20" viewBox="0 0 19 20" fill="none" xmlns="http://www.w3.org/2000/svg">
<path d="M13.1804 11.0837C13.085 11.0837 13.085 10.9926 12.9896 10.9926C14.4206 9.99115 15.1838 8.44343 15.1838 6.71363C15.1838 6.53155 15.1838 6.34946 15.1838 6.16738V6.07633L15.4701 3.89132C15.6609 2.43465 14.6114 1.16006 13.1804 0.886929L12.3217 0.704845C10.4136 0.431718 8.50556 0.431718 6.59748 0.704845L5.83425 0.886929C4.30779 1.16006 3.25835 2.43465 3.44915 3.89132L3.73537 6.07633V6.16738C3.73537 6.34946 3.73537 6.53155 3.73537 6.71363C3.73537 8.35239 4.4986 9.99115 5.92966 10.9926C5.83425 10.9926 5.83425 11.0837 5.73885 11.0837C2.59052 12.3582 0.396226 15.1806 0.0146105 18.4581C-0.0807935 18.9133 0.300822 19.3685 0.873246 19.4595C1.44567 19.5506 17.5689 19.4595 18.046 19.4595H18.1414C18.6184 19.3685 19 18.9133 19 18.4581C18.523 15.1806 16.3287 12.3582 13.1804 11.0837ZM9.4596 10.3553C7.36072 10.3553 5.73885 8.8076 5.64345 6.80467H13.2758C13.1804 8.8076 11.5585 10.3553 9.4596 10.3553Z" fill="#777E90"/>
</svg>
