<svg width="14" height="14" viewBox="0 0 14 14" fill="none" xmlns="http://www.w3.org/2000/svg">
<path d="M5.79998 2.2H8.19998C8.19998 1.88174 8.07355 1.57652 7.8485 1.35147C7.62346 1.12643 7.31824 1 6.99998 1C6.68172 1 6.37649 1.12643 6.15145 1.35147C5.9264 1.57652 5.79998 1.88174 5.79998 2.2ZM4.99998 2.2C4.99998 1.66957 5.21069 1.16086 5.58576 0.785787C5.96083 0.410714 6.46954 0.200001 6.99998 0.200001C7.53041 0.200001 8.03912 0.410714 8.41419 0.785787C8.78926 1.16086 8.99998 1.66957 8.99998 2.2H13C13.1061 2.2 13.2078 2.24214 13.2828 2.31716C13.3578 2.39217 13.4 2.49391 13.4 2.6C13.4 2.70609 13.3578 2.80783 13.2828 2.88284C13.2078 2.95786 13.1061 3 13 3H12.1568L11.2016 11.2752C11.1341 11.8602 10.8538 12.3999 10.4143 12.7917C9.97469 13.1834 9.40641 13.4 8.81758 13.4H5.18238C4.59354 13.4 4.02527 13.1834 3.58569 12.7917C3.1461 12.3999 2.8659 11.8602 2.79838 11.2752L1.84318 3H0.999976C0.893889 3 0.792148 2.95786 0.717133 2.88284C0.642118 2.80783 0.599976 2.70609 0.599976 2.6C0.599976 2.49391 0.642118 2.39217 0.717133 2.31716C0.792148 2.24214 0.893889 2.2 0.999976 2.2H4.99998ZM3.59278 11.184C3.63792 11.5739 3.82481 11.9336 4.11791 12.1947C4.41101 12.4558 4.78985 12.6001 5.18238 12.6H8.81758C9.2101 12.6001 9.58894 12.4558 9.88204 12.1947C10.1751 11.9336 10.362 11.5739 10.4072 11.184L11.3512 3H2.64878L3.59278 11.184ZM5.79998 5C5.90606 5 6.0078 5.04214 6.08282 5.11716C6.15783 5.19217 6.19998 5.29391 6.19998 5.4V10.2C6.19998 10.3061 6.15783 10.4078 6.08282 10.4828C6.0078 10.5579 5.90606 10.6 5.79998 10.6C5.69389 10.6 5.59215 10.5579 5.51713 10.4828C5.44212 10.4078 5.39998 10.3061 5.39998 10.2V5.4C5.39998 5.29391 5.44212 5.19217 5.51713 5.11716C5.59215 5.04214 5.69389 5 5.79998 5ZM8.59998 5.4C8.59998 5.29391 8.55783 5.19217 8.48282 5.11716C8.4078 5.04214 8.30606 5 8.19998 5C8.09389 5 7.99215 5.04214 7.91713 5.11716C7.84212 5.19217 7.79998 5.29391 7.79998 5.4V10.2C7.79998 10.3061 7.84212 10.4078 7.91713 10.4828C7.99215 10.5579 8.09389 10.6 8.19998 10.6C8.30606 10.6 8.4078 10.5579 8.48282 10.4828C8.55783 10.4078 8.59998 10.3061 8.59998 10.2V5.4Z" fill="#EF5055"/>
</svg>
