<svg width="12" height="8" viewBox="0 0 12 8" fill="none" xmlns="http://www.w3.org/2000/svg">
<path d="M10.7099 2.71L6.70994 6.71C6.61698 6.80373 6.50638 6.87812 6.38452 6.92889C6.26266 6.97966 6.13195 7.0058 5.99994 7.0058C5.86793 7.0058 5.73722 6.97966 5.61536 6.92889C5.49351 6.87812 5.3829 6.80373 5.28994 6.71L1.28994 2.71C1.1967 2.61676 1.12274 2.50607 1.07228 2.38425C1.02182 2.26243 0.99585 2.13186 0.99585 2C0.99585 1.86814 1.02182 1.73757 1.07228 1.61575C1.12274 1.49393 1.1967 1.38324 1.28994 1.29C1.38318 1.19676 1.49387 1.1228 1.61569 1.07234C1.73751 1.02188 1.86808 0.995911 1.99994 0.995911C2.1318 0.995911 2.26237 1.02188 2.38419 1.07234C2.50601 1.1228 2.6167 1.19676 2.70994 1.29L5.99994 4.59L9.28994 1.29C9.47825 1.1017 9.73364 0.995911 9.99994 0.995911C10.2662 0.995911 10.5216 1.1017 10.7099 1.29C10.8982 1.47831 11.004 1.7337 11.004 2C11.004 2.2663 10.8982 2.5217 10.7099 2.71Z" fill="#323232"/>
</svg>
