<svg width="12" height="13" viewBox="0 0 12 13" fill="none" xmlns="http://www.w3.org/2000/svg">
<path d="M2.125 12.75C1.78125 12.75 1.48687 12.6277 1.24187 12.3831C0.997292 12.1381 0.875 11.8438 0.875 11.5V2.75H2.125V11.5H9V12.75H2.125ZM4.625 10.25C4.28125 10.25 3.98708 10.1277 3.7425 9.88313C3.4975 9.63813 3.375 9.34375 3.375 9V1.5C3.375 1.15625 3.4975 0.861875 3.7425 0.616875C3.98708 0.372292 4.28125 0.25 4.625 0.25H10.25C10.5938 0.25 10.8881 0.372292 11.1331 0.616875C11.3777 0.861875 11.5 1.15625 11.5 1.5V9C11.5 9.34375 11.3777 9.63813 11.1331 9.88313C10.8881 10.1277 10.5938 10.25 10.25 10.25H4.625ZM4.625 9H10.25V1.5H4.625V9ZM4.625 9V1.5V9Z" fill="#56B787"/>
</svg>
