<svg width="16" height="16" viewBox="0 0 16 16" fill="none" xmlns="http://www.w3.org/2000/svg">
<path d="M2.8457 12.5C2.88477 12.5 2.92383 12.4961 2.96289 12.4902L6.24805 11.9141C6.28711 11.9062 6.32422 11.8887 6.35156 11.8594L14.6309 3.58008C14.649 3.56201 14.6633 3.54055 14.6731 3.51692C14.6829 3.49329 14.688 3.46796 14.688 3.44238C14.688 3.4168 14.6829 3.39147 14.6731 3.36785C14.6633 3.34422 14.649 3.32276 14.6309 3.30469L11.3848 0.0566407C11.3477 0.0195313 11.2988 0 11.2461 0C11.1934 0 11.1445 0.0195313 11.1074 0.0566407L2.82812 8.33594C2.79883 8.36523 2.78125 8.40039 2.77344 8.43945L2.19727 11.7246C2.17827 11.8292 2.18505 11.9369 2.21704 12.0383C2.24904 12.1398 2.30526 12.2318 2.38086 12.3066C2.50977 12.4316 2.67188 12.5 2.8457 12.5ZM4.16211 9.09375L11.2461 2.01172L12.6777 3.44336L5.59375 10.5254L3.85742 10.832L4.16211 9.09375ZM15 14.1406H0.625C0.279297 14.1406 0 14.4199 0 14.7656V15.4688C0 15.5547 0.0703125 15.625 0.15625 15.625H15.4688C15.5547 15.625 15.625 15.5547 15.625 15.4688V14.7656C15.625 14.4199 15.3457 14.1406 15 14.1406Z" fill="#1982F8"/>
</svg>
