<svg width="16" height="16" viewBox="0 0 16 16" fill="none" xmlns="http://www.w3.org/2000/svg">
<path d="M0.952971 10.7478L0.0232656 14.7688C-0.00880609 14.9158 -0.00770665 15.0681 0.0264835 15.2146C0.0606737 15.3611 0.127091 15.4981 0.220883 15.6156C0.314676 15.7331 0.433474 15.8281 0.5686 15.8937C0.703725 15.9593 0.851765 15.9938 1.0019 15.9947C1.07186 16.0018 1.14235 16.0018 1.21231 15.9947L5.24919 15.063L13 7.32502L8.67442 3L0.952971 10.7478Z" fill="#1877F7"/>
<path d="M15.7109 3.06905L12.9262 0.284405C12.7432 0.102254 12.4954 0 12.2372 0C11.9789 0 11.7311 0.102254 11.5481 0.284405L10 1.83248L14.1675 6L15.7156 4.45193C15.8062 4.36087 15.8779 4.25285 15.9267 4.13404C15.9755 4.01522 16.0004 3.88795 16 3.75951C15.9996 3.63106 15.9738 3.50397 15.9242 3.38549C15.8746 3.26701 15.8021 3.15948 15.7109 3.06905Z" fill="#1877F7"/>
</svg>
