<svg width="50" height="50" viewBox="0 0 50 50" fill="none" xmlns="http://www.w3.org/2000/svg">
<path d="M25.0002 0.833008C11.6602 0.833008 0.833496 11.6597 0.833496 24.9997C0.833496 38.3397 11.6602 49.1663 25.0002 49.1663C38.3402 49.1663 49.1668 38.3397 49.1668 24.9997C49.1668 11.6597 38.3402 0.833008 25.0002 0.833008ZM33.7243 16.1547C36.3102 16.1547 38.3885 18.233 38.3885 20.8188C38.3885 23.4047 36.3102 25.483 33.7243 25.483C31.1385 25.483 29.0602 23.4047 29.0602 20.8188C29.036 18.233 31.1385 16.1547 33.7243 16.1547ZM19.2243 12.3363C22.366 12.3363 24.9277 14.898 24.9277 18.0397C24.9277 21.1813 22.366 23.743 19.2243 23.743C16.0827 23.743 13.521 21.1813 13.521 18.0397C13.521 14.8738 16.0585 12.3363 19.2243 12.3363ZM19.2243 34.4005V43.463C13.4243 41.6505 8.83266 37.1797 6.80266 31.4763C9.34016 28.7697 15.6718 27.3922 19.2243 27.3922C20.5052 27.3922 22.1243 27.5855 23.816 27.9238C19.8527 30.0263 19.2243 32.8055 19.2243 34.4005ZM25.0002 44.333C24.3477 44.333 23.7193 44.3088 23.091 44.2363V34.4005C23.091 30.9688 30.196 29.253 33.7243 29.253C36.3102 29.253 40.781 30.1955 43.0043 32.0322C40.1768 39.2097 33.1927 44.333 25.0002 44.333Z" fill="#1982F8"/>
</svg>
