<svg width="44" height="44" viewBox="0 0 44 44" fill="none" xmlns="http://www.w3.org/2000/svg">
<g filter="url(#filter0_d_1236_43238)">
<path d="M2 9C2 4.58172 5.58172 1 10 1H34C38.4183 1 42 4.58172 42 9V33C42 37.4183 38.4183 41 34 41H10C5.58172 41 2 37.4183 2 33V9Z" fill="#1F2032"/>
<path d="M32 21C32 15.4771 27.5229 11 22 11C16.4771 11 12 15.4771 12 21C12 25.9912 15.6568 30.1283 20.4375 30.8785V23.8906H17.8984V21H20.4375V18.7969C20.4375 16.2906 21.9305 14.9063 24.2146 14.9063C25.3084 14.9063 26.4531 15.1016 26.4531 15.1016V17.5625H25.1922C23.95 17.5625 23.5625 18.3334 23.5625 19.125V21H26.3359L25.8926 23.8906H23.5625V30.8785C28.3432 30.1283 32 25.9912 32 21Z" fill="#777E91"/>
<path d="M10 2H34V0H10V2ZM41 9V33H43V9H41ZM34 40H10V42H34V40ZM3 33V9H1V33H3ZM10 40C6.13401 40 3 36.866 3 33H1C1 37.9706 5.02944 42 10 42V40ZM41 33C41 36.866 37.866 40 34 40V42C38.9706 42 43 37.9706 43 33H41ZM34 2C37.866 2 41 5.13401 41 9H43C43 4.02944 38.9706 0 34 0V2ZM10 0C5.02944 0 1 4.02944 1 9H3C3 5.13401 6.13401 2 10 2V0Z" fill="#353945"/>
</g>
<defs>
<filter id="filter0_d_1236_43238" x="0" y="0" width="44" height="44" filterUnits="userSpaceOnUse" color-interpolation-filters="sRGB">
<feFlood flood-opacity="0" result="BackgroundImageFix"/>
<feColorMatrix in="SourceAlpha" type="matrix" values="0 0 0 0 0 0 0 0 0 0 0 0 0 0 0 0 0 0 127 0" result="hardAlpha"/>
<feOffset dy="1"/>
<feGaussianBlur stdDeviation="1"/>
<feColorMatrix type="matrix" values="0 0 0 0 0.0627451 0 0 0 0 0.0941176 0 0 0 0 0.156863 0 0 0 0.05 0"/>
<feBlend mode="normal" in2="BackgroundImageFix" result="effect1_dropShadow_1236_43238"/>
<feBlend mode="normal" in="SourceGraphic" in2="effect1_dropShadow_1236_43238" result="shape"/>
</filter>
</defs>
</svg>
