<svg width="20" height="25" viewBox="0 0 20 25" fill="none" xmlns="http://www.w3.org/2000/svg">
<path d="M10 15.441C12.3714 15.441 14.2714 13.7613 14.2714 11.6805L14.2857 4.15963C14.2857 2.07884 12.3714 0.39917 10 0.39917C7.62857 0.39917 5.71429 2.07884 5.71429 4.15963V11.6805C5.71429 13.7613 7.62857 15.441 10 15.441ZM17.5714 11.6805C17.5714 15.441 13.9429 18.0733 10 18.0733C6.05714 18.0733 2.42857 15.441 2.42857 11.6805H0C0 15.9549 3.88571 19.4898 8.57143 20.104V24.2154H11.4286V20.104C16.1143 19.5023 20 15.9675 20 11.6805H17.5714Z" fill="grey"/>
<defs>
<linearGradient id="paint0_linear_3815_7378" x1="10" y1="0.39917" x2="10" y2="24.2154" gradientUnits="userSpaceOnUse">
<stop stop-color="#08B6ED"/>
<stop offset="0.708333" stop-color="#0346F8"/>
</linearGradient>
</defs>
</svg>
