<svg width="191" height="239" viewBox="0 0 191 239" fill="none" xmlns="http://www.w3.org/2000/svg">
<path d="M17.2319 190.492C25.4326 207.744 39.2053 221.73 56.3287 230.196C73.4521 238.662 92.9279 241.113 111.615 237.155L105.274 207.219C93.3139 209.753 80.8493 208.184 69.8904 202.766C58.9314 197.348 50.1169 188.396 44.8684 177.355L17.2319 190.492Z" fill="#A37DF1"/>
<path d="M33.8959 93.8959C21.4338 106.358 13.1536 122.386 10.2012 139.761C7.24878 157.136 9.77021 174.999 17.4165 190.878L44.9866 177.602C40.0929 167.439 38.4792 156.007 40.3688 144.887C42.2583 133.767 47.5577 123.509 55.5334 115.533L33.8959 93.8959Z" fill="#3DC182"/>
<path d="M111.765 237.123C124.182 234.469 135.846 229.067 145.902 221.314L127.217 197.081C120.782 202.043 113.316 205.5 105.369 207.199L111.765 237.123Z" fill="#1EB8CD"/>
<path d="M145.453 221.658C162.42 208.755 173.919 189.948 177.672 168.965C181.425 147.982 177.157 126.355 165.715 108.371L139.897 124.798C147.221 136.307 149.952 150.149 147.55 163.578C145.148 177.007 137.789 189.043 126.93 197.301L145.453 221.658Z" fill="#D04F55"/>
<path d="M165.875 108.624C159.07 97.8443 149.926 88.7333 139.123 81.9657C128.319 75.1982 116.131 70.9474 103.462 69.5283C90.793 68.1092 77.9669 69.558 65.9335 73.7674C53.9001 77.9768 42.9677 84.8391 33.9458 93.8461L55.5653 115.502C61.3393 109.737 68.3361 105.345 76.0374 102.651C83.7388 99.9571 91.9475 99.0299 100.056 99.9381C108.164 100.846 115.964 103.567 122.879 107.898C129.793 112.229 135.645 118.06 140 124.959L165.875 108.624Z" fill="#DF8559"/>
<path d="M30.723 4.22H33.243L37.941 17H35.385L34.197 13.814H29.733L28.563 17H26.007L30.723 4.22ZM33.747 12.068L31.983 6.794L30.147 12.068H33.747ZM42.4421 17.18C41.6381 17.18 40.8701 17.048 40.1381 16.784C39.4061 16.52 38.7761 16.13 38.2481 15.614L39.1121 14.048C39.6761 14.504 40.2281 14.84 40.7681 15.056C41.3201 15.272 41.8481 15.38 42.3521 15.38C42.8201 15.38 43.1921 15.296 43.4681 15.128C43.7561 14.96 43.9001 14.708 43.9001 14.372C43.9001 14.144 43.8221 13.97 43.6661 13.85C43.5101 13.718 43.2821 13.604 42.9821 13.508C42.6941 13.412 42.3401 13.304 41.9201 13.184C41.2241 12.956 40.6421 12.734 40.1741 12.518C39.7061 12.302 39.3521 12.032 39.1121 11.708C38.8841 11.372 38.7701 10.946 38.7701 10.43C38.7701 9.806 38.9261 9.272 39.2381 8.828C39.5621 8.372 40.0061 8.018 40.5701 7.766C41.1461 7.514 41.8181 7.388 42.5861 7.388C43.2581 7.388 43.8941 7.496 44.4941 7.712C45.0941 7.916 45.6401 8.252 46.1321 8.72L45.1601 10.25C44.6801 9.878 44.2241 9.608 43.7921 9.44C43.3601 9.26 42.9221 9.17 42.4781 9.17C42.2261 9.17 41.9861 9.2 41.7581 9.26C41.5421 9.32 41.3621 9.422 41.2181 9.566C41.0861 9.698 41.0201 9.89 41.0201 10.142C41.0201 10.37 41.0801 10.55 41.2001 10.682C41.3321 10.802 41.5241 10.91 41.7761 11.006C42.0401 11.102 42.3581 11.21 42.7301 11.33C43.4861 11.546 44.1221 11.768 44.6381 11.996C45.1661 12.224 45.5621 12.506 45.8261 12.842C46.0901 13.166 46.2221 13.616 46.2221 14.192C46.2221 15.128 45.8801 15.86 45.1961 16.388C44.5121 16.916 43.5941 17.18 42.4421 17.18ZM51.3366 17.18C50.5326 17.18 49.7646 17.048 49.0326 16.784C48.3006 16.52 47.6706 16.13 47.1426 15.614L48.0066 14.048C48.5706 14.504 49.1226 14.84 49.6626 15.056C50.2146 15.272 50.7426 15.38 51.2466 15.38C51.7146 15.38 52.0866 15.296 52.3626 15.128C52.6506 14.96 52.7946 14.708 52.7946 14.372C52.7946 14.144 52.7166 13.97 52.5606 13.85C52.4046 13.718 52.1766 13.604 51.8766 13.508C51.5886 13.412 51.2346 13.304 50.8146 13.184C50.1186 12.956 49.5366 12.734 49.0686 12.518C48.6006 12.302 48.2466 12.032 48.0066 11.708C47.7786 11.372 47.6646 10.946 47.6646 10.43C47.6646 9.806 47.8206 9.272 48.1326 8.828C48.4566 8.372 48.9006 8.018 49.4646 7.766C50.0406 7.514 50.7126 7.388 51.4806 7.388C52.1526 7.388 52.7886 7.496 53.3886 7.712C53.9886 7.916 54.5346 8.252 55.0266 8.72L54.0546 10.25C53.5746 9.878 53.1186 9.608 52.6866 9.44C52.2546 9.26 51.8166 9.17 51.3726 9.17C51.1206 9.17 50.8806 9.2 50.6526 9.26C50.4366 9.32 50.2566 9.422 50.1126 9.566C49.9806 9.698 49.9146 9.89 49.9146 10.142C49.9146 10.37 49.9746 10.55 50.0946 10.682C50.2266 10.802 50.4186 10.91 50.6706 11.006C50.9346 11.102 51.2526 11.21 51.6246 11.33C52.3806 11.546 53.0166 11.768 53.5326 11.996C54.0606 12.224 54.4566 12.506 54.7206 12.842C54.9846 13.166 55.1166 13.616 55.1166 14.192C55.1166 15.128 54.7746 15.86 54.0906 16.388C53.4066 16.916 52.4886 17.18 51.3366 17.18ZM61.1312 17.18C60.3752 17.18 59.6912 17.054 59.0792 16.802C58.4672 16.538 57.9452 16.184 57.5132 15.74C57.0812 15.284 56.7452 14.768 56.5052 14.192C56.2772 13.604 56.1632 12.986 56.1632 12.338C56.1632 11.438 56.3612 10.616 56.7572 9.872C57.1652 9.128 57.7412 8.534 58.4852 8.09C59.2412 7.634 60.1292 7.406 61.1492 7.406C62.1812 7.406 63.0632 7.634 63.7952 8.09C64.5272 8.534 65.0852 9.128 65.4692 9.872C65.8652 10.604 66.0632 11.396 66.0632 12.248C66.0632 12.392 66.0572 12.542 66.0452 12.698C66.0332 12.842 66.0212 12.962 66.0092 13.058H58.7192C58.7672 13.538 58.9052 13.958 59.1332 14.318C59.3732 14.678 59.6732 14.954 60.0332 15.146C60.4052 15.326 60.8012 15.416 61.2212 15.416C61.7012 15.416 62.1512 15.302 62.5712 15.074C63.0032 14.834 63.2972 14.522 63.4532 14.138L65.5232 14.714C65.2952 15.194 64.9652 15.62 64.5332 15.992C64.1132 16.364 63.6152 16.658 63.0392 16.874C62.4632 17.078 61.8272 17.18 61.1312 17.18ZM58.6652 11.528H63.5972C63.5492 11.048 63.4112 10.634 63.1832 10.286C62.9672 9.926 62.6792 9.65 62.3192 9.458C61.9592 9.254 61.5572 9.152 61.1132 9.152C60.6812 9.152 60.2852 9.254 59.9252 9.458C59.5772 9.65 59.2892 9.926 59.0612 10.286C58.8452 10.634 58.7132 11.048 58.6652 11.528ZM73.0967 16.514C72.8927 16.598 72.6467 16.694 72.3587 16.802C72.0707 16.91 71.7587 16.994 71.4227 17.054C71.0987 17.126 70.7687 17.162 70.4327 17.162C69.9887 17.162 69.5807 17.084 69.2087 16.928C68.8367 16.772 68.5367 16.526 68.3087 16.19C68.0927 15.842 67.9847 15.392 67.9847 14.84V9.422H66.7427V7.568H67.9847V4.508H70.3967V7.568H72.3767V9.422H70.3967V14.03C70.4087 14.354 70.4987 14.588 70.6667 14.732C70.8347 14.876 71.0447 14.948 71.2967 14.948C71.5487 14.948 71.7947 14.906 72.0347 14.822C72.2747 14.738 72.4667 14.666 72.6107 14.606L73.0967 16.514ZM81.8226 4.22H84.3426L89.0406 17H86.4846L85.2966 13.814H80.8326L79.6626 17H77.1066L81.8226 4.22ZM84.8466 12.068L83.0826 6.794L81.2466 12.068H84.8466ZM90.1376 3.86H92.5496V13.976C92.5496 14.408 92.6216 14.702 92.7656 14.858C92.9096 15.002 93.1076 15.074 93.3596 15.074C93.5516 15.074 93.7496 15.05 93.9536 15.002C94.1576 14.954 94.3376 14.894 94.4936 14.822L94.8176 16.658C94.4936 16.814 94.1156 16.934 93.6836 17.018C93.2516 17.102 92.8616 17.144 92.5136 17.144C91.7576 17.144 91.1696 16.946 90.7496 16.55C90.3416 16.142 90.1376 15.566 90.1376 14.822V3.86ZM95.8505 3.86H98.2625V13.976C98.2625 14.408 98.3345 14.702 98.4785 14.858C98.6225 15.002 98.8205 15.074 99.0725 15.074C99.2645 15.074 99.4625 15.05 99.6665 15.002C99.8705 14.954 100.051 14.894 100.207 14.822L100.531 16.658C100.207 16.814 99.8285 16.934 99.3965 17.018C98.9645 17.102 98.5745 17.144 98.2265 17.144C97.4705 17.144 96.8825 16.946 96.4625 16.55C96.0545 16.142 95.8505 15.566 95.8505 14.822V3.86ZM105.937 17.18C105.169 17.18 104.479 17.054 103.867 16.802C103.255 16.538 102.733 16.178 102.301 15.722C101.881 15.266 101.557 14.744 101.329 14.156C101.101 13.568 100.987 12.95 100.987 12.302C100.987 11.642 101.101 11.018 101.329 10.43C101.557 9.842 101.881 9.32 102.301 8.864C102.733 8.408 103.255 8.054 103.867 7.802C104.479 7.538 105.169 7.406 105.937 7.406C106.705 7.406 107.389 7.538 107.989 7.802C108.601 8.054 109.123 8.408 109.555 8.864C109.987 9.32 110.311 9.842 110.527 10.43C110.755 11.018 110.869 11.642 110.869 12.302C110.869 12.95 110.755 13.568 110.527 14.156C110.311 14.744 109.987 15.266 109.555 15.722C109.135 16.178 108.619 16.538 108.007 16.802C107.395 17.054 106.705 17.18 105.937 17.18ZM103.471 12.302C103.471 12.854 103.579 13.346 103.795 13.778C104.011 14.198 104.305 14.528 104.677 14.768C105.049 15.008 105.469 15.128 105.937 15.128C106.393 15.128 106.807 15.008 107.179 14.768C107.551 14.516 107.845 14.18 108.061 13.76C108.289 13.328 108.403 12.836 108.403 12.284C108.403 11.744 108.289 11.258 108.061 10.826C107.845 10.394 107.551 10.058 107.179 9.818C106.807 9.578 106.393 9.458 105.937 9.458C105.469 9.458 105.049 9.584 104.677 9.836C104.305 10.076 104.011 10.412 103.795 10.844C103.579 11.264 103.471 11.75 103.471 12.302ZM116.889 17.18C116.121 17.18 115.431 17.054 114.819 16.802C114.207 16.538 113.685 16.178 113.253 15.722C112.821 15.254 112.485 14.726 112.245 14.138C112.017 13.55 111.903 12.932 111.903 12.284C111.903 11.396 112.101 10.586 112.497 9.854C112.905 9.11 113.481 8.516 114.225 8.072C114.969 7.628 115.851 7.406 116.871 7.406C117.891 7.406 118.767 7.628 119.499 8.072C120.231 8.516 120.777 9.098 121.137 9.818L118.779 10.538C118.575 10.19 118.305 9.926 117.969 9.746C117.633 9.554 117.261 9.458 116.853 9.458C116.397 9.458 115.977 9.578 115.593 9.818C115.221 10.046 114.927 10.376 114.711 10.808C114.495 11.228 114.387 11.72 114.387 12.284C114.387 12.836 114.495 13.328 114.711 13.76C114.939 14.18 115.239 14.516 115.611 14.768C115.983 15.008 116.397 15.128 116.853 15.128C117.141 15.128 117.411 15.08 117.663 14.984C117.927 14.888 118.161 14.756 118.365 14.588C118.569 14.42 118.719 14.228 118.815 14.012L121.173 14.732C120.957 15.2 120.639 15.62 120.219 15.992C119.811 16.364 119.325 16.658 118.761 16.874C118.209 17.078 117.585 17.18 116.889 17.18ZM122.01 14.21C122.01 13.598 122.178 13.064 122.514 12.608C122.862 12.14 123.342 11.78 123.954 11.528C124.566 11.276 125.268 11.15 126.06 11.15C126.456 11.15 126.858 11.18 127.266 11.24C127.674 11.3 128.028 11.396 128.328 11.528V11.024C128.328 10.424 128.148 9.962 127.788 9.638C127.44 9.314 126.918 9.152 126.222 9.152C125.706 9.152 125.214 9.242 124.746 9.422C124.278 9.602 123.786 9.866 123.27 10.214L122.496 8.63C123.12 8.222 123.756 7.916 124.404 7.712C125.064 7.508 125.754 7.406 126.474 7.406C127.818 7.406 128.862 7.742 129.606 8.414C130.362 9.086 130.74 10.046 130.74 11.294V14.3C130.74 14.552 130.782 14.732 130.866 14.84C130.962 14.948 131.112 15.014 131.316 15.038V17C131.1 17.036 130.902 17.066 130.722 17.09C130.554 17.114 130.41 17.126 130.29 17.126C129.81 17.126 129.444 17.018 129.192 16.802C128.952 16.586 128.802 16.322 128.742 16.01L128.688 15.524C128.28 16.052 127.77 16.46 127.158 16.748C126.546 17.036 125.922 17.18 125.286 17.18C124.662 17.18 124.098 17.054 123.594 16.802C123.102 16.538 122.712 16.184 122.424 15.74C122.148 15.284 122.01 14.774 122.01 14.21ZM127.878 14.696C128.01 14.552 128.118 14.408 128.202 14.264C128.286 14.12 128.328 13.988 128.328 13.868V12.914C128.04 12.794 127.728 12.704 127.392 12.644C127.056 12.572 126.738 12.536 126.438 12.536C125.814 12.536 125.298 12.674 124.89 12.95C124.494 13.214 124.296 13.568 124.296 14.012C124.296 14.252 124.362 14.48 124.494 14.696C124.626 14.912 124.818 15.086 125.07 15.218C125.322 15.35 125.622 15.416 125.97 15.416C126.33 15.416 126.684 15.35 127.032 15.218C127.38 15.074 127.662 14.9 127.878 14.696ZM138.558 16.514C138.354 16.598 138.108 16.694 137.82 16.802C137.532 16.91 137.22 16.994 136.884 17.054C136.56 17.126 136.23 17.162 135.894 17.162C135.45 17.162 135.042 17.084 134.67 16.928C134.298 16.772 133.998 16.526 133.77 16.19C133.554 15.842 133.446 15.392 133.446 14.84V9.422H132.204V7.568H133.446V4.508H135.858V7.568H137.838V9.422H135.858V14.03C135.87 14.354 135.96 14.588 136.128 14.732C136.296 14.876 136.506 14.948 136.758 14.948C137.01 14.948 137.256 14.906 137.496 14.822C137.736 14.738 137.928 14.666 138.072 14.606L138.558 16.514ZM139.814 17V7.568H142.226V17H139.814ZM139.814 6.254V3.86H142.226V6.254H139.814ZM148.758 17.18C147.99 17.18 147.3 17.054 146.688 16.802C146.076 16.538 145.554 16.178 145.122 15.722C144.702 15.266 144.378 14.744 144.15 14.156C143.922 13.568 143.808 12.95 143.808 12.302C143.808 11.642 143.922 11.018 144.15 10.43C144.378 9.842 144.702 9.32 145.122 8.864C145.554 8.408 146.076 8.054 146.688 7.802C147.3 7.538 147.99 7.406 148.758 7.406C149.526 7.406 150.21 7.538 150.81 7.802C151.422 8.054 151.944 8.408 152.376 8.864C152.808 9.32 153.132 9.842 153.348 10.43C153.576 11.018 153.69 11.642 153.69 12.302C153.69 12.95 153.576 13.568 153.348 14.156C153.132 14.744 152.808 15.266 152.376 15.722C151.956 16.178 151.44 16.538 150.828 16.802C150.216 17.054 149.526 17.18 148.758 17.18ZM146.292 12.302C146.292 12.854 146.4 13.346 146.616 13.778C146.832 14.198 147.126 14.528 147.498 14.768C147.87 15.008 148.29 15.128 148.758 15.128C149.214 15.128 149.628 15.008 150 14.768C150.372 14.516 150.666 14.18 150.882 13.76C151.11 13.328 151.224 12.836 151.224 12.284C151.224 11.744 151.11 11.258 150.882 10.826C150.666 10.394 150.372 10.058 150 9.818C149.628 9.578 149.214 9.458 148.758 9.458C148.29 9.458 147.87 9.584 147.498 9.836C147.126 10.076 146.832 10.412 146.616 10.844C146.4 11.264 146.292 11.75 146.292 12.302ZM164.084 17H161.672V11.708C161.672 10.952 161.54 10.4 161.276 10.052C161.012 9.704 160.646 9.53 160.178 9.53C159.854 9.53 159.524 9.614 159.188 9.782C158.864 9.95 158.57 10.184 158.306 10.484C158.042 10.772 157.85 11.108 157.73 11.492V17H155.318V7.568H157.496V9.314C157.736 8.906 158.042 8.564 158.414 8.288C158.786 8 159.212 7.784 159.692 7.64C160.184 7.484 160.7 7.406 161.24 7.406C161.828 7.406 162.308 7.514 162.68 7.73C163.064 7.934 163.352 8.216 163.544 8.576C163.748 8.924 163.886 9.32 163.958 9.764C164.042 10.208 164.084 10.658 164.084 11.114V17Z" fill="black"/>
</svg>
