<svg width="24" height="24" viewBox="0 0 24 24" fill="none" xmlns="http://www.w3.org/2000/svg">
<path fill-rule="evenodd" clip-rule="evenodd" d="M12 4C10.0478 4 8.24816 4.161 6.80371 4.35177C5.50372 4.52346 4.52346 5.50372 4.35177 6.80371C4.16101 8.24816 4 10.0478 4 12C4 13.9522 4.161 15.7518 4.35177 17.1963C4.52346 18.4963 5.50372 19.4765 6.80371 19.6482C8.24816 19.839 10.0478 20 12 20C13.9522 20 15.7518 19.839 17.1963 19.6482C18.4963 19.4765 19.4765 18.4963 19.6482 17.1963C19.839 15.7518 20 13.9522 20 12C20 10.0478 19.839 8.24816 19.6482 6.80371C19.4765 5.50372 18.4963 4.52346 17.1963 4.35177C15.7518 4.16101 13.9522 4 12 4ZM6.54184 2.36899C4.34504 2.65912 2.65912 4.34504 2.36899 6.54184C2.16953 8.05208 2 9.94127 2 12C2 14.0587 2.16953 15.9479 2.36899 17.4582C2.65912 19.655 4.34504 21.3409 6.54184 21.631C8.05208 21.8305 9.94127 22 12 22C14.0587 22 15.9479 21.8305 17.4582 21.631C19.655 21.3409 21.3409 19.655 21.631 17.4582C21.8305 15.9479 22 14.0587 22 12C22 9.94127 21.8305 8.05208 21.631 6.54184C21.3409 4.34504 19.655 2.65912 17.4582 2.36899C15.9479 2.16953 14.0587 2 12 2C9.94127 2 8.05208 2.16953 6.54184 2.36899Z" fill="#3D3D3D"/>
<path fill-rule="evenodd" clip-rule="evenodd" d="M8.29289 8.29289C8.68342 7.90237 9.31658 7.90237 9.70711 8.29289L12 10.5858L14.2929 8.29289C14.6834 7.90237 15.3166 7.90237 15.7071 8.29289C16.0976 8.68342 16.0976 9.31658 15.7071 9.70711L13.4142 12L15.7071 14.2929C16.0976 14.6834 16.0976 15.3166 15.7071 15.7071C15.3166 16.0976 14.6834 16.0976 14.2929 15.7071L12 13.4142L9.70711 15.7071C9.31658 16.0976 8.68342 16.0976 8.29289 15.7071C7.90237 15.3166 7.90237 14.6834 8.29289 14.2929L10.5858 12L8.29289 9.70711C7.90237 9.31658 7.90237 8.68342 8.29289 8.29289Z" fill="#3D3D3D"/>
</svg>
