<svg width="14" height="10" viewBox="0 0 14 10" fill="none" xmlns="http://www.w3.org/2000/svg">
<path fill-rule="evenodd" clip-rule="evenodd" d="M9.09094 0.765207C9.49676 0.390601 10.1294 0.415904 10.504 0.821722L13.7348 4.32168C14.0884 4.70474 14.0884 5.29518 13.7348 5.67824L10.504 9.17828C10.1294 9.58411 9.49677 9.60941 9.09095 9.23481C8.68513 8.86021 8.65982 8.22755 9.03442 7.82173L10.716 5.99997L0.999999 5.99997C0.447714 5.99997 -7.64154e-07 5.55225 -7.86799e-07 4.99997C-8.09444e-07 4.44768 0.447714 3.99997 0.999999 3.99997L10.716 3.99997L9.03443 2.17829C8.65982 1.77247 8.68513 1.13981 9.09094 0.765207Z" fill="url(#paint0_linear_1250_48326)"/>
<defs>
<linearGradient id="paint0_linear_1250_48326" x1="14" y1="0.500002" x2="5.81226" y2="13.2365" gradientUnits="userSpaceOnUse">
<stop stop-color="#9C2979"/>
<stop offset="1" stop-color="#F15E75"/>
</linearGradient>
</defs>
</svg>
