<svg width="20" height="20" viewBox="0 0 20 20" fill="none" xmlns="http://www.w3.org/2000/svg">
<path fill-rule="evenodd" clip-rule="evenodd" d="M15.4582 0.368992C17.655 0.659124 19.3409 2.34504 19.631 4.54184C19.8305 6.05208 20 7.94127 20 10C20 12.0587 19.8305 13.9479 19.631 15.4582C19.3409 17.655 17.655 19.3409 15.4582 19.631C13.9479 19.8305 12.0587 20 10 20C7.94127 20 6.05208 19.8305 4.54184 19.631C2.34504 19.3409 0.659124 17.655 0.368991 15.4582C0.169534 13.9479 -5.27104e-07 12.0587 -4.37114e-07 10C-3.47124e-07 7.94127 0.169534 6.05208 0.368992 4.54184C0.659124 2.34504 2.34504 0.659124 4.54184 0.368992C6.05208 0.169533 7.94127 -5.27104e-07 10 -4.37114e-07C12.0587 -3.47124e-07 13.9479 0.169534 15.4582 0.368992ZM12.7929 7.79289C13.1834 7.40237 13.8166 7.40237 14.2071 7.79289C14.5976 8.18342 14.5976 8.81658 14.2071 9.20711L10.7071 12.7071C10.3166 13.0976 9.68342 13.0976 9.29289 12.7071L5.79289 9.20711C5.40237 8.81658 5.40237 8.18342 5.79289 7.79289C6.18342 7.40237 6.81658 7.40237 7.20711 7.79289L10 10.5858L12.7929 7.79289Z" fill="#FCFCFD"/>
</svg>
