<svg width="281" height="173" viewBox="0 0 281 173" fill="none" xmlns="http://www.w3.org/2000/svg">
<rect width="281" height="173" fill="#E5E5E5"/>
<rect width="1440" height="9160" transform="translate(-892 -120)" fill="white"/>
<path d="M263.458 173H17.5424C7.88603 173 0 166.077 0 157.6V15.3998C0 6.92283 7.88603 0 17.5424 0H263.458C273.114 0 281 6.92283 281 15.3998V157.53C281 166.077 273.114 173 263.458 173Z" fill="#F2F6FB"/>
<path d="M73 87C84.0457 87 93 78.0457 93 67C93 55.9543 84.0457 47 73 47C61.9543 47 53 55.9543 53 67C53 78.0457 61.9543 87 73 87Z" fill="#A2A5A4"/>
<path d="M127.21 87C138.256 87 147.21 78.0457 147.21 67C147.21 55.9543 138.256 47 127.21 47C116.164 47 107.21 55.9543 107.21 67C107.21 78.0457 116.164 87 127.21 87Z" fill="#56AB39"/>
<path d="M181.419 87C192.465 87 201.419 78.0457 201.419 67C201.419 55.9543 192.465 47 181.419 47C170.373 47 161.419 55.9543 161.419 67C161.419 78.0457 170.373 87 181.419 87Z" fill="#A2A5A4"/>
<path d="M203.234 151H56.0971C53.8343 151 52 152.588 52 154.547C52 156.506 53.8343 158.094 56.0971 158.094H203.234C205.496 158.094 207.331 156.506 207.331 154.547C207.331 152.588 205.496 151 203.234 151Z" fill="#E1E5F0"/>
<path d="M202.977 134H56.3531C53.949 134 52 135.687 52 137.769C52 139.85 53.949 141.537 56.3531 141.537H202.977C205.382 141.537 207.331 139.85 207.331 137.769C207.331 135.687 205.382 134 202.977 134Z" fill="#E1E5F0"/>
<path d="M10 16.7539C10 11.367 15.0432 7 21.2708 7H263C269.224 7 274.27 11.3658 274.27 16.7539V26.5077H10V16.7539Z" fill="#E1E5F0"/>
<path d="M25.1548 20.7636C27.3639 20.7636 29.1548 18.9727 29.1548 16.7636C29.1548 14.5545 27.3639 12.7636 25.1548 12.7636C22.9456 12.7636 21.1548 14.5545 21.1548 16.7636C21.1548 18.9727 22.9456 20.7636 25.1548 20.7636Z" fill="#FF5645"/>
<path d="M41.3125 20.7636C43.5216 20.7636 45.3125 18.9727 45.3125 16.7636C45.3125 14.5545 43.5216 12.7636 41.3125 12.7636C39.1034 12.7636 37.3125 14.5545 37.3125 16.7636C37.3125 18.9727 39.1034 20.7636 41.3125 20.7636Z" fill="#FFCB3D"/>
<path d="M57.9932 20.7636C60.2023 20.7636 61.9932 18.9727 61.9932 16.7636C61.9932 14.5545 60.2023 12.7636 57.9932 12.7636C55.784 12.7636 53.9932 14.5545 53.9932 16.7636C53.9932 18.9727 55.784 20.7636 57.9932 20.7636Z" fill="#3ABF7C"/>
<path d="M63.19 116V106.06H67.334C67.7727 106.06 68.174 106.153 68.538 106.34C68.902 106.517 69.2193 106.76 69.49 107.068C69.7607 107.367 69.9707 107.707 70.12 108.09C70.2693 108.463 70.344 108.846 70.344 109.238C70.344 109.779 70.2227 110.297 69.98 110.792C69.7373 111.277 69.3967 111.674 68.958 111.982C68.5193 112.281 68.006 112.43 67.418 112.43H64.45V116H63.19ZM64.45 111.31H67.348C67.6933 111.31 67.992 111.217 68.244 111.03C68.5053 110.843 68.706 110.591 68.846 110.274C68.9953 109.957 69.07 109.611 69.07 109.238C69.07 108.846 68.986 108.496 68.818 108.188C68.65 107.871 68.4307 107.623 68.16 107.446C67.8893 107.269 67.5907 107.18 67.264 107.18H64.45V111.31ZM74.8139 116.14C74.2633 116.14 73.7593 116.042 73.3019 115.846C72.8539 115.641 72.4619 115.365 72.1259 115.02C71.7993 114.665 71.5426 114.259 71.3559 113.802C71.1786 113.345 71.0899 112.859 71.0899 112.346C71.0899 111.655 71.2486 111.025 71.5659 110.456C71.8833 109.887 72.3219 109.429 72.8819 109.084C73.4513 108.739 74.0999 108.566 74.8279 108.566C75.5653 108.566 76.2046 108.743 76.7459 109.098C77.2966 109.443 77.7213 109.901 78.0199 110.47C78.3279 111.03 78.4819 111.637 78.4819 112.29C78.4819 112.383 78.4773 112.477 78.4679 112.57C78.4679 112.654 78.4633 112.719 78.4539 112.766H72.3919C72.4293 113.242 72.5599 113.667 72.7839 114.04C73.0173 114.404 73.3159 114.693 73.6799 114.908C74.0439 115.113 74.4359 115.216 74.8559 115.216C75.3039 115.216 75.7239 115.104 76.1159 114.88C76.5173 114.656 76.7926 114.362 76.9419 113.998L78.0059 114.292C77.8473 114.647 77.6093 114.964 77.2919 115.244C76.9839 115.524 76.6153 115.743 76.1859 115.902C75.7659 116.061 75.3086 116.14 74.8139 116.14ZM72.3499 111.912H77.3339C77.2966 111.436 77.1613 111.016 76.9279 110.652C76.6946 110.288 76.3959 110.003 76.0319 109.798C75.6679 109.593 75.2666 109.49 74.8279 109.49C74.3986 109.49 74.0019 109.593 73.6379 109.798C73.2739 110.003 72.9753 110.288 72.7419 110.652C72.5179 111.016 72.3873 111.436 72.3499 111.912ZM83.7154 109.77C83.0994 109.779 82.5534 109.938 82.0774 110.246C81.6108 110.545 81.2794 110.96 81.0834 111.492V116H79.8514V108.692H80.9994V110.386C81.2514 109.882 81.5828 109.476 81.9934 109.168C82.4134 108.851 82.8521 108.673 83.3094 108.636C83.4028 108.636 83.4821 108.636 83.5474 108.636C83.6128 108.636 83.6688 108.641 83.7154 108.65V109.77ZM87.4434 116.14C86.8367 116.14 86.2674 116.042 85.7354 115.846C85.2034 115.641 84.746 115.337 84.3634 114.936L84.8394 114.068C85.2594 114.46 85.6794 114.74 86.0994 114.908C86.5194 115.076 86.9487 115.16 87.3874 115.16C87.8914 115.16 88.302 115.067 88.6194 114.88C88.9367 114.684 89.0954 114.399 89.0954 114.026C89.0954 113.755 89.0114 113.555 88.8434 113.424C88.6847 113.293 88.456 113.186 88.1574 113.102C87.8587 113.009 87.504 112.906 87.0934 112.794C86.5894 112.645 86.1647 112.486 85.8194 112.318C85.474 112.15 85.2127 111.94 85.0354 111.688C84.858 111.436 84.7694 111.119 84.7694 110.736C84.7694 110.269 84.8907 109.877 85.1334 109.56C85.376 109.233 85.7074 108.986 86.1274 108.818C86.5567 108.65 87.042 108.566 87.5834 108.566C88.1247 108.566 88.6147 108.65 89.0534 108.818C89.492 108.986 89.87 109.233 90.1874 109.56L89.6274 110.414C89.338 110.115 89.0207 109.896 88.6754 109.756C88.33 109.607 87.9427 109.532 87.5134 109.532C87.2614 109.532 87.014 109.565 86.7714 109.63C86.5287 109.686 86.328 109.793 86.1694 109.952C86.0107 110.101 85.9314 110.316 85.9314 110.596C85.9314 110.829 85.992 111.016 86.1134 111.156C86.244 111.287 86.4307 111.399 86.6734 111.492C86.9254 111.585 87.2287 111.688 87.5834 111.8C88.134 111.959 88.61 112.117 89.0114 112.276C89.422 112.435 89.7394 112.64 89.9634 112.892C90.1874 113.144 90.2994 113.494 90.2994 113.942C90.2994 114.633 90.038 115.174 89.5154 115.566C88.9927 115.949 88.302 116.14 87.4434 116.14ZM94.9653 116.14C94.4146 116.14 93.9153 116.042 93.4673 115.846C93.0193 115.641 92.632 115.365 92.3053 115.02C91.9786 114.665 91.7266 114.259 91.5493 113.802C91.372 113.345 91.2833 112.864 91.2833 112.36C91.2833 111.847 91.372 111.361 91.5493 110.904C91.7266 110.447 91.9786 110.045 92.3053 109.7C92.632 109.345 93.0193 109.07 93.4673 108.874C93.9246 108.669 94.424 108.566 94.9653 108.566C95.516 108.566 96.0153 108.669 96.4633 108.874C96.9113 109.07 97.2986 109.345 97.6253 109.7C97.9613 110.045 98.218 110.447 98.3953 110.904C98.5726 111.361 98.6613 111.847 98.6613 112.36C98.6613 112.864 98.5726 113.345 98.3953 113.802C98.218 114.259 97.966 114.665 97.6393 115.02C97.3126 115.365 96.9206 115.641 96.4633 115.846C96.0153 116.042 95.516 116.14 94.9653 116.14ZM92.5433 112.374C92.5433 112.878 92.6506 113.335 92.8653 113.746C93.0893 114.157 93.3833 114.483 93.7473 114.726C94.1113 114.959 94.5173 115.076 94.9653 115.076C95.4133 115.076 95.8193 114.955 96.1833 114.712C96.5566 114.469 96.8506 114.143 97.0653 113.732C97.2893 113.312 97.4013 112.85 97.4013 112.346C97.4013 111.842 97.2893 111.385 97.0653 110.974C96.8506 110.563 96.5566 110.237 96.1833 109.994C95.8193 109.751 95.4133 109.63 94.9653 109.63C94.5173 109.63 94.1113 109.756 93.7473 110.008C93.3833 110.251 93.0893 110.577 92.8653 110.988C92.6506 111.399 92.5433 111.861 92.5433 112.374ZM106.496 116H105.264V111.912C105.264 111.137 105.143 110.573 104.9 110.218C104.667 109.854 104.307 109.672 103.822 109.672C103.486 109.672 103.15 109.756 102.814 109.924C102.487 110.092 102.193 110.321 101.932 110.61C101.68 110.89 101.498 111.217 101.386 111.59V116H100.154V108.692H101.274V110.26C101.47 109.915 101.722 109.616 102.03 109.364C102.338 109.112 102.688 108.916 103.08 108.776C103.472 108.636 103.883 108.566 104.312 108.566C104.732 108.566 105.082 108.645 105.362 108.804C105.651 108.953 105.875 109.168 106.034 109.448C106.202 109.719 106.319 110.041 106.384 110.414C106.459 110.787 106.496 111.193 106.496 111.632V116ZM107.838 113.886C107.838 113.419 107.969 113.018 108.23 112.682C108.501 112.337 108.869 112.071 109.336 111.884C109.803 111.697 110.344 111.604 110.96 111.604C111.287 111.604 111.632 111.632 111.996 111.688C112.36 111.735 112.682 111.809 112.962 111.912V111.38C112.962 110.82 112.794 110.381 112.458 110.064C112.122 109.737 111.646 109.574 111.03 109.574C110.629 109.574 110.241 109.649 109.868 109.798C109.504 109.938 109.117 110.143 108.706 110.414L108.258 109.546C108.734 109.219 109.21 108.977 109.686 108.818C110.162 108.65 110.657 108.566 111.17 108.566C112.103 108.566 112.841 108.827 113.382 109.35C113.923 109.863 114.194 110.582 114.194 111.506V114.6C114.194 114.749 114.222 114.861 114.278 114.936C114.343 115.001 114.446 115.039 114.586 115.048V116C114.465 116.019 114.357 116.033 114.264 116.042C114.18 116.051 114.11 116.056 114.054 116.056C113.765 116.056 113.545 115.977 113.396 115.818C113.256 115.659 113.177 115.491 113.158 115.314L113.13 114.852C112.813 115.263 112.397 115.58 111.884 115.804C111.371 116.028 110.862 116.14 110.358 116.14C109.873 116.14 109.439 116.042 109.056 115.846C108.673 115.641 108.375 115.37 108.16 115.034C107.945 114.689 107.838 114.306 107.838 113.886ZM112.598 114.404C112.71 114.273 112.799 114.143 112.864 114.012C112.929 113.872 112.962 113.755 112.962 113.662V112.752C112.673 112.64 112.369 112.556 112.052 112.5C111.735 112.435 111.422 112.402 111.114 112.402C110.489 112.402 109.98 112.528 109.588 112.78C109.205 113.023 109.014 113.359 109.014 113.788C109.014 114.021 109.075 114.25 109.196 114.474C109.327 114.689 109.513 114.866 109.756 115.006C110.008 115.146 110.316 115.216 110.68 115.216C111.063 115.216 111.427 115.141 111.772 114.992C112.117 114.833 112.393 114.637 112.598 114.404ZM116.192 105.78H117.424V114.11C117.424 114.511 117.48 114.759 117.592 114.852C117.704 114.945 117.839 114.992 117.998 114.992C118.194 114.992 118.381 114.973 118.558 114.936C118.735 114.889 118.885 114.843 119.006 114.796L119.202 115.804C118.997 115.888 118.754 115.958 118.474 116.014C118.194 116.07 117.947 116.098 117.732 116.098C117.256 116.098 116.878 115.963 116.598 115.692C116.327 115.421 116.192 115.043 116.192 114.558V105.78ZM120.17 116V108.692H121.402V116H120.17ZM120.17 107.32V105.78H121.402V107.32H120.17ZM122.822 115.202L127.428 109.588H122.948V108.692H128.814V109.49L124.236 115.104H128.828V116H122.822V115.202ZM133.398 116.14C132.847 116.14 132.343 116.042 131.886 115.846C131.438 115.641 131.046 115.365 130.71 115.02C130.383 114.665 130.127 114.259 129.94 113.802C129.763 113.345 129.674 112.859 129.674 112.346C129.674 111.655 129.833 111.025 130.15 110.456C130.467 109.887 130.906 109.429 131.466 109.084C132.035 108.739 132.684 108.566 133.412 108.566C134.149 108.566 134.789 108.743 135.33 109.098C135.881 109.443 136.305 109.901 136.604 110.47C136.912 111.03 137.066 111.637 137.066 112.29C137.066 112.383 137.061 112.477 137.052 112.57C137.052 112.654 137.047 112.719 137.038 112.766H130.976C131.013 113.242 131.144 113.667 131.368 114.04C131.601 114.404 131.9 114.693 132.264 114.908C132.628 115.113 133.02 115.216 133.44 115.216C133.888 115.216 134.308 115.104 134.7 114.88C135.101 114.656 135.377 114.362 135.526 113.998L136.59 114.292C136.431 114.647 136.193 114.964 135.876 115.244C135.568 115.524 135.199 115.743 134.77 115.902C134.35 116.061 133.893 116.14 133.398 116.14ZM130.934 111.912H135.918C135.881 111.436 135.745 111.016 135.512 110.652C135.279 110.288 134.98 110.003 134.616 109.798C134.252 109.593 133.851 109.49 133.412 109.49C132.983 109.49 132.586 109.593 132.222 109.798C131.858 110.003 131.559 110.288 131.326 110.652C131.102 111.016 130.971 111.436 130.934 111.912ZM137.959 112.36C137.959 111.669 138.099 111.039 138.379 110.47C138.669 109.891 139.061 109.429 139.555 109.084C140.059 108.739 140.633 108.566 141.277 108.566C141.865 108.566 142.393 108.72 142.859 109.028C143.326 109.336 143.69 109.709 143.951 110.148V105.78H145.183V114.6C145.183 114.749 145.211 114.861 145.267 114.936C145.333 115.001 145.435 115.039 145.575 115.048V116C145.342 116.037 145.16 116.056 145.029 116.056C144.787 116.056 144.572 115.972 144.385 115.804C144.208 115.636 144.119 115.449 144.119 115.244V114.628C143.83 115.095 143.443 115.463 142.957 115.734C142.472 116.005 141.968 116.14 141.445 116.14C140.941 116.14 140.475 116.042 140.045 115.846C139.625 115.641 139.257 115.361 138.939 115.006C138.631 114.651 138.389 114.25 138.211 113.802C138.043 113.345 137.959 112.864 137.959 112.36ZM143.951 113.438V111.338C143.839 111.021 143.657 110.736 143.405 110.484C143.153 110.223 142.869 110.017 142.551 109.868C142.243 109.709 141.935 109.63 141.627 109.63C141.263 109.63 140.932 109.709 140.633 109.868C140.344 110.017 140.092 110.223 139.877 110.484C139.672 110.736 139.513 111.025 139.401 111.352C139.289 111.679 139.233 112.019 139.233 112.374C139.233 112.738 139.294 113.083 139.415 113.41C139.546 113.737 139.723 114.026 139.947 114.278C140.181 114.53 140.447 114.726 140.745 114.866C141.053 115.006 141.385 115.076 141.739 115.076C141.963 115.076 142.192 115.034 142.425 114.95C142.668 114.866 142.897 114.749 143.111 114.6C143.326 114.451 143.508 114.278 143.657 114.082C143.807 113.877 143.905 113.662 143.951 113.438ZM154.715 116.14C154.118 116.14 153.586 115.991 153.119 115.692C152.652 115.393 152.284 115.015 152.013 114.558V118.982H150.781V108.692H151.873V110.064C152.162 109.616 152.54 109.257 153.007 108.986C153.474 108.706 153.982 108.566 154.533 108.566C155.037 108.566 155.499 108.669 155.919 108.874C156.339 109.079 156.703 109.359 157.011 109.714C157.319 110.069 157.557 110.475 157.725 110.932C157.902 111.38 157.991 111.851 157.991 112.346C157.991 113.037 157.851 113.671 157.571 114.25C157.3 114.829 156.918 115.291 156.423 115.636C155.928 115.972 155.359 116.14 154.715 116.14ZM154.337 115.076C154.701 115.076 155.028 115.001 155.317 114.852C155.616 114.693 155.868 114.488 156.073 114.236C156.288 113.975 156.451 113.681 156.563 113.354C156.675 113.027 156.731 112.691 156.731 112.346C156.731 111.982 156.666 111.637 156.535 111.31C156.414 110.983 156.236 110.694 156.003 110.442C155.779 110.19 155.513 109.994 155.205 109.854C154.906 109.705 154.58 109.63 154.225 109.63C154.001 109.63 153.768 109.672 153.525 109.756C153.292 109.84 153.068 109.961 152.853 110.12C152.638 110.269 152.456 110.442 152.307 110.638C152.158 110.834 152.06 111.044 152.013 111.268V113.354C152.153 113.671 152.34 113.961 152.573 114.222C152.806 114.483 153.077 114.693 153.385 114.852C153.693 115.001 154.01 115.076 154.337 115.076ZM162.696 116.14C162.145 116.14 161.646 116.042 161.198 115.846C160.75 115.641 160.362 115.365 160.036 115.02C159.709 114.665 159.457 114.259 159.28 113.802C159.102 113.345 159.014 112.864 159.014 112.36C159.014 111.847 159.102 111.361 159.28 110.904C159.457 110.447 159.709 110.045 160.036 109.7C160.362 109.345 160.75 109.07 161.198 108.874C161.655 108.669 162.154 108.566 162.696 108.566C163.246 108.566 163.746 108.669 164.194 108.874C164.642 109.07 165.029 109.345 165.356 109.7C165.692 110.045 165.948 110.447 166.126 110.904C166.303 111.361 166.392 111.847 166.392 112.36C166.392 112.864 166.303 113.345 166.126 113.802C165.948 114.259 165.696 114.665 165.37 115.02C165.043 115.365 164.651 115.641 164.194 115.846C163.746 116.042 163.246 116.14 162.696 116.14ZM160.274 112.374C160.274 112.878 160.381 113.335 160.596 113.746C160.82 114.157 161.114 114.483 161.478 114.726C161.842 114.959 162.248 115.076 162.696 115.076C163.144 115.076 163.55 114.955 163.914 114.712C164.287 114.469 164.581 114.143 164.796 113.732C165.02 113.312 165.132 112.85 165.132 112.346C165.132 111.842 165.02 111.385 164.796 110.974C164.581 110.563 164.287 110.237 163.914 109.994C163.55 109.751 163.144 109.63 162.696 109.63C162.248 109.63 161.842 109.756 161.478 110.008C161.114 110.251 160.82 110.577 160.596 110.988C160.381 111.399 160.274 111.861 160.274 112.374ZM171.749 109.77C171.133 109.779 170.587 109.938 170.111 110.246C169.644 110.545 169.313 110.96 169.117 111.492V116H167.885V108.692H169.033V110.386C169.285 109.882 169.616 109.476 170.027 109.168C170.447 108.851 170.885 108.673 171.343 108.636C171.436 108.636 171.515 108.636 171.581 108.636C171.646 108.636 171.702 108.641 171.749 108.65V109.77ZM176.751 115.636C176.648 115.683 176.508 115.743 176.331 115.818C176.153 115.893 175.948 115.958 175.715 116.014C175.481 116.07 175.234 116.098 174.973 116.098C174.674 116.098 174.399 116.047 174.147 115.944C173.895 115.832 173.694 115.664 173.545 115.44C173.395 115.207 173.321 114.917 173.321 114.572V109.658H172.327V108.692H173.321V106.256H174.553V108.692H176.191V109.658H174.553V114.194C174.571 114.455 174.66 114.651 174.819 114.782C174.977 114.903 175.164 114.964 175.379 114.964C175.621 114.964 175.845 114.922 176.051 114.838C176.256 114.754 176.391 114.693 176.457 114.656L176.751 115.636ZM178.284 116V109.658H177.29V108.692H178.284V108.538C178.284 107.941 178.373 107.427 178.55 106.998C178.737 106.559 178.998 106.223 179.334 105.99C179.67 105.757 180.067 105.64 180.524 105.64C180.814 105.64 181.098 105.682 181.378 105.766C181.658 105.841 181.91 105.948 182.134 106.088L181.826 106.998C181.696 106.905 181.532 106.83 181.336 106.774C181.15 106.718 180.963 106.69 180.776 106.69C180.375 106.69 180.062 106.849 179.838 107.166C179.624 107.474 179.516 107.917 179.516 108.496V108.692H181.462V109.658H179.516V116H178.284ZM185.706 116.14C185.155 116.14 184.656 116.042 184.208 115.846C183.76 115.641 183.372 115.365 183.046 115.02C182.719 114.665 182.467 114.259 182.29 113.802C182.112 113.345 182.024 112.864 182.024 112.36C182.024 111.847 182.112 111.361 182.29 110.904C182.467 110.447 182.719 110.045 183.046 109.7C183.372 109.345 183.76 109.07 184.208 108.874C184.665 108.669 185.164 108.566 185.706 108.566C186.256 108.566 186.756 108.669 187.204 108.874C187.652 109.07 188.039 109.345 188.366 109.7C188.702 110.045 188.958 110.447 189.136 110.904C189.313 111.361 189.402 111.847 189.402 112.36C189.402 112.864 189.313 113.345 189.136 113.802C188.958 114.259 188.706 114.665 188.38 115.02C188.053 115.365 187.661 115.641 187.204 115.846C186.756 116.042 186.256 116.14 185.706 116.14ZM183.284 112.374C183.284 112.878 183.391 113.335 183.606 113.746C183.83 114.157 184.124 114.483 184.488 114.726C184.852 114.959 185.258 115.076 185.706 115.076C186.154 115.076 186.56 114.955 186.924 114.712C187.297 114.469 187.591 114.143 187.806 113.732C188.03 113.312 188.142 112.85 188.142 112.346C188.142 111.842 188.03 111.385 187.806 110.974C187.591 110.563 187.297 110.237 186.924 109.994C186.56 109.751 186.154 109.63 185.706 109.63C185.258 109.63 184.852 109.756 184.488 110.008C184.124 110.251 183.83 110.577 183.606 110.988C183.391 111.399 183.284 111.861 183.284 112.374ZM190.922 105.78H192.154V114.11C192.154 114.511 192.21 114.759 192.322 114.852C192.434 114.945 192.57 114.992 192.728 114.992C192.924 114.992 193.111 114.973 193.288 114.936C193.466 114.889 193.615 114.843 193.736 114.796L193.932 115.804C193.727 115.888 193.484 115.958 193.204 116.014C192.924 116.07 192.677 116.098 192.462 116.098C191.986 116.098 191.608 115.963 191.328 115.692C191.058 115.421 190.922 115.043 190.922 114.558V105.78ZM194.9 116V108.692H196.132V116H194.9ZM194.9 107.32V105.78H196.132V107.32H194.9ZM201.319 116.14C200.768 116.14 200.269 116.042 199.821 115.846C199.373 115.641 198.985 115.365 198.659 115.02C198.332 114.665 198.08 114.259 197.903 113.802C197.725 113.345 197.637 112.864 197.637 112.36C197.637 111.847 197.725 111.361 197.903 110.904C198.08 110.447 198.332 110.045 198.659 109.7C198.985 109.345 199.373 109.07 199.821 108.874C200.278 108.669 200.777 108.566 201.319 108.566C201.869 108.566 202.369 108.669 202.817 108.874C203.265 109.07 203.652 109.345 203.979 109.7C204.315 110.045 204.571 110.447 204.749 110.904C204.926 111.361 205.015 111.847 205.015 112.36C205.015 112.864 204.926 113.345 204.749 113.802C204.571 114.259 204.319 114.665 203.993 115.02C203.666 115.365 203.274 115.641 202.817 115.846C202.369 116.042 201.869 116.14 201.319 116.14ZM198.897 112.374C198.897 112.878 199.004 113.335 199.219 113.746C199.443 114.157 199.737 114.483 200.101 114.726C200.465 114.959 200.871 115.076 201.319 115.076C201.767 115.076 202.173 114.955 202.537 114.712C202.91 114.469 203.204 114.143 203.419 113.732C203.643 113.312 203.755 112.85 203.755 112.346C203.755 111.842 203.643 111.385 203.419 110.974C203.204 110.563 202.91 110.237 202.537 109.994C202.173 109.751 201.767 109.63 201.319 109.63C200.871 109.63 200.465 109.756 200.101 110.008C199.737 110.251 199.443 110.577 199.219 110.988C199.004 111.399 198.897 111.861 198.897 112.374ZM209.014 116.14C208.407 116.14 207.838 116.042 207.306 115.846C206.774 115.641 206.316 115.337 205.934 114.936L206.41 114.068C206.83 114.46 207.25 114.74 207.67 114.908C208.09 115.076 208.519 115.16 208.958 115.16C209.462 115.16 209.872 115.067 210.19 114.88C210.507 114.684 210.666 114.399 210.666 114.026C210.666 113.755 210.582 113.555 210.414 113.424C210.255 113.293 210.026 113.186 209.728 113.102C209.429 113.009 209.074 112.906 208.664 112.794C208.16 112.645 207.735 112.486 207.39 112.318C207.044 112.15 206.783 111.94 206.606 111.688C206.428 111.436 206.34 111.119 206.34 110.736C206.34 110.269 206.461 109.877 206.704 109.56C206.946 109.233 207.278 108.986 207.698 108.818C208.127 108.65 208.612 108.566 209.154 108.566C209.695 108.566 210.185 108.65 210.624 108.818C211.062 108.986 211.44 109.233 211.758 109.56L211.198 110.414C210.908 110.115 210.591 109.896 210.246 109.756C209.9 109.607 209.513 109.532 209.084 109.532C208.832 109.532 208.584 109.565 208.342 109.63C208.099 109.686 207.898 109.793 207.74 109.952C207.581 110.101 207.502 110.316 207.502 110.596C207.502 110.829 207.562 111.016 207.684 111.156C207.814 111.287 208.001 111.399 208.244 111.492C208.496 111.585 208.799 111.688 209.154 111.8C209.704 111.959 210.18 112.117 210.582 112.276C210.992 112.435 211.31 112.64 211.534 112.892C211.758 113.144 211.87 113.494 211.87 113.942C211.87 114.633 211.608 115.174 211.086 115.566C210.563 115.949 209.872 116.14 209.014 116.14Z" fill="black"/>
<path d="M438.028 202.185C438.028 202.185 365.648 183.149 314.626 157.1C263.603 131.051 211.396 106.004 154.445 120.033C97.4948 134.063 92.744 173.132 76.1338 217.214C59.5236 261.296 -0.993806 358.48 70.1997 416.588C141.393 474.697 203.09 500.744 330.051 448.645C415.052 413.766 449.587 384.635 489.048 352.466C523.46 324.412 604.145 253.282 438.028 202.185Z" fill="url(#paint0_linear_0_1)" fill-opacity="0.05"/>
<path style="mix-blend-mode:multiply" opacity="0.3" d="M-14.5053 334.314C-14.5053 334.314 -61.5204 386.527 29.8133 440.641C121.147 494.756 283.844 508.18 334.936 420.245C386.029 332.311 413.604 306.536 338.655 234.744C263.705 162.951 40.9759 90.9784 27.62 172.015C14.2641 253.051 54.4312 269.886 -14.5053 334.314Z" fill="url(#paint1_linear_0_1)" fill-opacity="0.05"/>
<path d="M163.013 165.41C161.392 165.41 160.083 165.405 160.083 167.884H165.942C165.944 165.405 164.631 165.41 163.013 165.41Z" fill="#93DEFB" fill-opacity="0.1"/>
<path d="M160.082 149.756C160.082 150.245 160.253 150.724 160.575 151.13C160.897 151.537 161.355 151.854 161.89 152.041C162.425 152.229 163.014 152.278 163.583 152.182C164.151 152.087 164.673 151.851 165.082 151.505C165.492 151.159 165.771 150.719 165.884 150.239C165.997 149.759 165.939 149.262 165.718 148.81C165.496 148.358 165.12 147.971 164.639 147.7C164.157 147.428 163.59 147.283 163.011 147.283C162.234 147.283 161.489 147.543 160.94 148.007C160.39 148.471 160.082 149.1 160.082 149.756V149.756Z" fill="#93DEFB" fill-opacity="0.1"/>
<path d="M153.241 160.481C153.821 160.481 154.387 160.336 154.869 160.064C155.351 159.792 155.726 159.406 155.948 158.954C156.17 158.502 156.228 158.005 156.115 157.525C156.002 157.045 155.723 156.604 155.313 156.259C154.903 155.913 154.381 155.677 153.813 155.582C153.245 155.486 152.656 155.535 152.12 155.722C151.585 155.91 151.128 156.227 150.806 156.633C150.484 157.04 150.312 157.518 150.312 158.008C150.312 158.664 150.621 159.293 151.17 159.757C151.719 160.221 152.465 160.481 153.241 160.481V160.481Z" fill="#93DEFB" fill-opacity="0.1"/>
<path d="M169.853 158.006C169.853 158.662 170.161 159.291 170.711 159.755C171.26 160.219 172.005 160.48 172.782 160.48C172.855 160.48 172.924 160.466 172.995 160.461C172.584 158.872 172.109 157.302 171.594 155.746C171.076 155.94 170.636 156.257 170.327 156.658C170.018 157.059 169.853 157.527 169.853 158.006Z" fill="#93DEFB" fill-opacity="0.1"/>
<path d="M150.312 141.506C150.313 141.995 150.485 142.473 150.808 142.879C151.13 143.286 151.588 143.602 152.123 143.789C152.658 143.976 153.247 144.024 153.815 143.928C154.383 143.832 154.905 143.597 155.314 143.251C155.724 142.904 156.002 142.464 156.115 141.984C156.228 141.504 156.169 141.007 155.948 140.555C155.726 140.103 155.35 139.717 154.869 139.446C154.387 139.174 153.821 139.029 153.241 139.029C152.856 139.029 152.475 139.093 152.12 139.218C151.764 139.342 151.441 139.525 151.169 139.755C150.897 139.985 150.681 140.258 150.534 140.558C150.387 140.859 150.312 141.181 150.312 141.506Z" fill="#93DEFB" fill-opacity="0.1"/>
<path d="M143.556 166.232H146.396C146.396 166.232 145.515 163.782 143.556 163.782V166.232Z" fill="#93DEFB" fill-opacity="0.1"/>
<path d="M144.536 147.28V152.23C145.313 152.23 146.059 151.97 146.608 151.505C147.158 151.041 147.467 150.412 147.467 149.755C147.467 149.099 147.158 148.469 146.608 148.005C146.059 147.541 145.313 147.28 144.536 147.28V147.28Z" fill="#93DEFB" fill-opacity="0.1"/>
<path d="M153.241 172.036C152.662 172.037 152.096 172.183 151.615 172.455C151.133 172.727 150.758 173.114 150.537 173.566C150.316 174.018 150.259 174.515 150.372 174.994C150.486 175.474 150.765 175.914 151.175 176.26C151.585 176.606 152.107 176.841 152.675 176.936C153.243 177.031 153.832 176.982 154.367 176.795C154.902 176.608 155.359 176.29 155.681 175.884C156.003 175.477 156.174 174.999 156.174 174.51C156.174 174.185 156.098 173.863 155.951 173.563C155.804 173.262 155.587 172.989 155.315 172.76C155.043 172.53 154.719 172.348 154.363 172.224C154.007 172.1 153.626 172.036 153.241 172.036Z" fill="#93DEFB" fill-opacity="0.1"/>
<path d="M172.785 172.036C172.28 172.037 171.783 172.148 171.344 172.358C170.904 172.568 170.536 172.871 170.276 173.237C170.016 173.603 169.873 174.02 169.86 174.446C169.847 174.873 169.965 175.295 170.202 175.672C170.44 176.048 170.788 176.367 171.215 176.596C171.641 176.825 172.13 176.958 172.635 176.98C173.14 177.002 173.642 176.914 174.095 176.724C174.547 176.534 174.934 176.248 175.216 175.894C175.184 174.918 175.142 173.946 175.072 172.981C174.801 172.687 174.454 172.45 174.058 172.286C173.661 172.123 173.226 172.037 172.785 172.036V172.036Z" fill="#93DEFB" fill-opacity="0.1"/>
<path d="M160.082 167.886C160.082 167.886 161.392 170.363 163.011 170.363C164.63 170.363 165.941 167.886 165.941 167.886H160.082Z" fill="#93DEFB" fill-opacity="0.1"/>
<path d="M143.556 168.738C145.515 168.738 146.396 167.062 146.396 166.235H143.556V168.738Z" fill="#93DEFB" fill-opacity="0.1"/>
<path d="M143.558 163.782C142.788 163.813 142.058 164.078 141.502 164.528C140.946 164.979 140.603 165.584 140.535 166.232H143.558V163.782Z" fill="#93DEFB" fill-opacity="0.1"/>
<path d="M126.856 167.886C126.856 165.405 125.541 165.412 123.923 165.412C122.305 165.412 120.994 165.406 120.994 167.886H126.856Z" fill="#93DEFB" fill-opacity="0.1"/>
<path d="M141.606 149.756C141.577 150.087 141.633 150.419 141.771 150.73C141.908 151.041 142.123 151.324 142.4 151.559C142.678 151.793 143.013 151.975 143.381 152.09C143.75 152.206 144.143 152.254 144.535 152.23V147.279C144.143 147.255 143.749 147.303 143.38 147.419C143.012 147.535 142.677 147.717 142.399 147.952C142.121 148.187 141.906 148.469 141.769 148.781C141.632 149.092 141.577 149.425 141.606 149.756V149.756Z" fill="#93DEFB" fill-opacity="0.1"/>
<path d="M123.923 152.23C124.503 152.23 125.069 152.085 125.551 151.813C126.032 151.542 126.408 151.155 126.63 150.703C126.851 150.251 126.909 149.754 126.796 149.274C126.683 148.794 126.404 148.354 125.995 148.008C125.585 147.662 125.063 147.426 124.495 147.331C123.926 147.235 123.337 147.284 122.802 147.471C122.267 147.659 121.809 147.976 121.487 148.383C121.165 148.789 120.994 149.268 120.994 149.757C120.994 150.413 121.303 151.041 121.853 151.505C122.402 151.969 123.146 152.23 123.923 152.23Z" fill="#93DEFB" fill-opacity="0.1"/>
<path d="M114.15 160.481C114.73 160.481 115.296 160.336 115.778 160.064C116.259 159.792 116.635 159.406 116.857 158.954C117.078 158.502 117.136 158.005 117.023 157.525C116.91 157.045 116.631 156.604 116.222 156.259C115.812 155.913 115.29 155.677 114.722 155.582C114.153 155.486 113.564 155.535 113.029 155.722C112.494 155.91 112.036 156.227 111.714 156.633C111.393 157.04 111.221 157.518 111.221 158.008C111.221 158.664 111.529 159.293 112.079 159.757C112.628 160.221 113.373 160.481 114.15 160.481V160.481Z" fill="#93DEFB" fill-opacity="0.1"/>
<path d="M133.695 160.481C134.274 160.481 134.841 160.336 135.323 160.064C135.804 159.792 136.18 159.406 136.402 158.954C136.623 158.502 136.681 158.005 136.568 157.525C136.455 157.045 136.176 156.604 135.767 156.259C135.357 155.913 134.835 155.677 134.267 155.582C133.698 155.486 133.109 155.535 132.574 155.722C132.039 155.91 131.581 156.227 131.259 156.633C130.937 157.04 130.766 157.518 130.766 158.008C130.766 158.664 131.074 159.293 131.624 159.757C132.173 160.221 132.918 160.481 133.695 160.481V160.481Z" fill="#93DEFB" fill-opacity="0.1"/>
<path d="M114.15 143.977C114.73 143.977 115.296 143.832 115.778 143.56C116.259 143.288 116.635 142.902 116.857 142.45C117.078 141.998 117.136 141.5 117.023 141.021C116.91 140.541 116.631 140.1 116.222 139.754C115.812 139.408 115.29 139.173 114.722 139.077C114.153 138.982 113.564 139.031 113.029 139.218C112.494 139.405 112.036 139.722 111.714 140.129C111.393 140.536 111.221 141.014 111.221 141.503C111.221 141.828 111.296 142.15 111.444 142.45C111.591 142.75 111.807 143.023 112.079 143.252C112.351 143.482 112.674 143.664 113.029 143.788C113.385 143.913 113.765 143.977 114.15 143.977V143.977Z" fill="#93DEFB" fill-opacity="0.1"/>
<path d="M130.764 141.506C130.764 141.995 130.937 142.473 131.259 142.879C131.582 143.286 132.039 143.602 132.575 143.789C133.11 143.976 133.699 144.024 134.267 143.928C134.835 143.832 135.357 143.597 135.766 143.251C136.175 142.904 136.454 142.464 136.567 141.984C136.679 141.504 136.621 141.007 136.399 140.555C136.177 140.103 135.802 139.717 135.32 139.446C134.839 139.174 134.272 139.029 133.693 139.029C133.308 139.029 132.927 139.093 132.571 139.218C132.216 139.342 131.892 139.525 131.62 139.755C131.348 139.985 131.133 140.258 130.986 140.558C130.839 140.859 130.763 141.181 130.764 141.506Z" fill="#93DEFB" fill-opacity="0.1"/>
<path d="M103.4 163.782V166.232H107.307C107.307 166.232 107.32 163.782 103.4 163.782Z" fill="#93DEFB" fill-opacity="0.1"/>
<path d="M103.4 147.28V152.23C107.318 152.23 106.329 151.123 106.329 149.757C106.329 148.39 107.32 147.28 103.4 147.28Z" fill="#93DEFB" fill-opacity="0.1"/>
<path d="M114.15 172.036C113.571 172.037 113.005 172.183 112.524 172.455C112.043 172.727 111.668 173.114 111.447 173.566C111.225 174.018 111.168 174.515 111.281 174.994C111.395 175.474 111.674 175.914 112.084 176.26C112.494 176.606 113.016 176.841 113.584 176.936C114.152 177.031 114.741 176.982 115.276 176.795C115.811 176.608 116.268 176.29 116.59 175.884C116.912 175.477 117.084 174.999 117.084 174.51C117.084 174.185 117.008 173.863 116.86 173.563C116.713 173.262 116.497 172.989 116.224 172.76C115.952 172.53 115.628 172.348 115.273 172.224C114.917 172.1 114.535 172.036 114.15 172.036V172.036Z" fill="#93DEFB" fill-opacity="0.1"/>
<path d="M133.695 172.036C133.116 172.036 132.549 172.181 132.068 172.453C131.586 172.725 131.21 173.111 130.989 173.563C130.767 174.015 130.709 174.513 130.822 174.992C130.935 175.472 131.214 175.913 131.624 176.259C132.033 176.605 132.555 176.84 133.124 176.936C133.692 177.031 134.281 176.982 134.816 176.795C135.351 176.608 135.809 176.291 136.131 175.884C136.453 175.477 136.625 174.999 136.625 174.51C136.625 173.854 136.316 173.225 135.767 172.761C135.217 172.297 134.472 172.036 133.695 172.036V172.036Z" fill="#93DEFB" fill-opacity="0.1"/>
<path d="M143.558 168.738V166.232H140.535C140.535 167.059 141.599 168.738 143.558 168.738Z" fill="#93DEFB" fill-opacity="0.1"/>
<path d="M123.923 170.363C125.541 170.363 126.856 167.886 126.856 167.886H120.991C120.991 167.886 122.302 170.363 123.923 170.363Z" fill="#93DEFB" fill-opacity="0.1"/>
<path d="M103.4 168.738C107.318 168.738 107.307 167.889 107.307 166.235H103.4V168.738Z" fill="#93DEFB" fill-opacity="0.1"/>
<path d="M104.381 163.782C102.422 163.782 101.447 165.405 101.447 166.232H104.381V163.782Z" fill="#93DEFB" fill-opacity="0.1"/>
<path d="M84.8338 165.41C83.2149 165.41 81.9043 165.405 81.9043 167.884H87.7671C87.7652 165.405 86.4546 165.41 84.8338 165.41Z" fill="#93DEFB" fill-opacity="0.1"/>
<path d="M100.471 149.756C100.471 151.123 103.401 152.23 103.401 152.23V147.279C103.401 147.279 100.471 148.388 100.471 149.756Z" fill="#93DEFB" fill-opacity="0.1"/>
<path d="M84.8338 152.23C85.4132 152.23 85.9796 152.085 86.4613 151.813C86.9431 151.542 87.3186 151.155 87.5403 150.703C87.762 150.251 87.82 149.754 87.707 149.274C87.594 148.794 87.315 148.354 86.9053 148.008C86.4956 147.662 85.9736 147.426 85.4053 147.331C84.837 147.235 84.248 147.284 83.7127 147.471C83.1774 147.659 82.7199 147.976 82.398 148.383C82.0761 148.789 81.9043 149.268 81.9043 149.757C81.9043 150.413 82.2129 151.042 82.7623 151.506C83.3117 151.97 84.0568 152.23 84.8338 152.23V152.23Z" fill="#93DEFB" fill-opacity="0.1"/>
<path d="M75.0608 160.481C75.6402 160.481 76.2066 160.336 76.6884 160.064C77.1701 159.792 77.5456 159.406 77.7673 158.954C77.989 158.502 78.0471 158.005 77.934 157.525C77.821 157.045 77.542 156.604 77.1323 156.259C76.7226 155.913 76.2006 155.677 75.6323 155.582C75.0641 155.486 74.475 155.535 73.9398 155.722C73.4045 155.91 72.947 156.227 72.6251 156.633C72.3032 157.04 72.1313 157.518 72.1313 158.008C72.1325 158.663 72.4415 159.292 72.9907 159.756C73.5398 160.219 74.2842 160.48 75.0608 160.481V160.481Z" fill="#93DEFB" fill-opacity="0.1"/>
<path d="M94.6072 160.481C95.1866 160.481 95.753 160.336 96.2348 160.064C96.7165 159.792 97.092 159.406 97.3137 158.954C97.5354 158.502 97.5935 158.005 97.4804 157.525C97.3674 157.045 97.0884 156.604 96.6787 156.259C96.269 155.913 95.747 155.677 95.1787 155.582C94.6105 155.486 94.0214 155.535 93.4861 155.722C92.9508 155.91 92.4933 156.227 92.1714 156.633C91.8495 157.04 91.6777 157.518 91.6777 158.008C91.6786 158.663 91.9875 159.292 92.5367 159.756C93.0859 160.22 93.8305 160.48 94.6072 160.481V160.481Z" fill="#93DEFB" fill-opacity="0.1"/>
<path d="M75.0608 143.977C75.6402 143.977 76.2066 143.832 76.6884 143.56C77.1701 143.288 77.5456 142.902 77.7673 142.45C77.989 141.998 78.0471 141.5 77.934 141.021C77.821 140.541 77.542 140.1 77.1323 139.754C76.7226 139.408 76.2006 139.173 75.6323 139.077C75.0641 138.982 74.475 139.031 73.9398 139.218C73.4045 139.405 72.947 139.722 72.6251 140.129C72.3032 140.536 72.1313 141.014 72.1313 141.503C72.1313 141.828 72.2071 142.15 72.3543 142.45C72.5015 142.75 72.7173 143.023 72.9894 143.252C73.2614 143.482 73.5843 143.664 73.9398 143.788C74.2952 143.913 74.6761 143.977 75.0608 143.977V143.977Z" fill="#93DEFB" fill-opacity="0.1"/>
<path d="M94.6072 143.977C95.1866 143.977 95.753 143.832 96.2348 143.56C96.7165 143.288 97.092 142.902 97.3137 142.45C97.5354 141.998 97.5935 141.5 97.4804 141.021C97.3674 140.541 97.0884 140.1 96.6787 139.754C96.269 139.408 95.747 139.173 95.1787 139.077C94.6105 138.982 94.0214 139.031 93.4861 139.218C92.9508 139.405 92.4933 139.722 92.1714 140.129C91.8495 140.536 91.6777 141.014 91.6777 141.503C91.6777 141.828 91.7535 142.15 91.9007 142.45C92.0479 142.75 92.2637 143.023 92.5358 143.252C92.8078 143.482 93.1307 143.664 93.4861 143.788C93.8416 143.913 94.2225 143.977 94.6072 143.977V143.977Z" fill="#93DEFB" fill-opacity="0.1"/>
<path d="M65.2026 163.782V166.232H68.2181C68.2181 166.232 68.1429 163.782 65.2026 163.782Z" fill="#93DEFB" fill-opacity="0.1"/>
<path d="M68.1321 149.756C68.1321 148.388 66.1821 147.283 65.2026 147.283V152.233C66.184 152.23 68.1321 151.123 68.1321 149.756Z" fill="#93DEFB" fill-opacity="0.1"/>
<path d="M75.0609 172.036C74.4817 172.037 73.9157 172.183 73.4344 172.455C72.9532 172.727 72.5783 173.114 72.3572 173.566C72.136 174.018 72.0785 174.515 72.192 174.994C72.3055 175.474 72.5848 175.914 72.9946 176.26C73.4045 176.606 73.9265 176.841 74.4946 176.936C75.0628 177.031 75.6516 176.982 76.1867 176.795C76.7218 176.608 77.1791 176.29 77.5008 175.884C77.8225 175.477 77.9942 174.999 77.9942 174.51C77.9942 174.185 77.9183 173.863 77.7709 173.563C77.6234 173.262 77.4073 172.989 77.1349 172.76C76.8624 172.53 76.539 172.348 76.1832 172.224C75.8273 172.1 75.4459 172.036 75.0609 172.036V172.036Z" fill="#93DEFB" fill-opacity="0.1"/>
<path d="M94.6072 172.036C94.0278 172.036 93.4614 172.181 92.9797 172.453C92.4979 172.725 92.1224 173.111 91.9007 173.563C91.679 174.015 91.621 174.513 91.734 174.992C91.8471 175.472 92.1261 175.913 92.5358 176.259C92.9455 176.605 93.4674 176.84 94.0357 176.936C94.604 177.031 95.193 176.982 95.7283 176.795C96.2636 176.608 96.7211 176.291 97.043 175.884C97.3649 175.477 97.5367 174.999 97.5367 174.51C97.5367 173.854 97.2281 173.225 96.6787 172.761C96.1293 172.297 95.3842 172.036 94.6072 172.036V172.036Z" fill="#93DEFB" fill-opacity="0.1"/>
<path d="M104.381 166.232H101.447C101.447 167.059 102.422 168.735 104.381 168.735V166.232Z" fill="#93DEFB" fill-opacity="0.1"/>
<path d="M84.8337 170.363C86.4538 170.363 87.7632 167.886 87.7632 167.886H81.9004C81.9004 167.886 83.2148 170.363 84.8337 170.363Z" fill="#93DEFB" fill-opacity="0.1"/>
<path d="M65.2026 168.738C68.141 168.738 68.2181 167.889 68.2181 166.235H65.2026V168.738Z" fill="#93DEFB" fill-opacity="0.1"/>
<path d="M65.2043 163.782C63.2453 163.782 62.3569 165.405 62.3569 166.232H65.2043V163.782Z" fill="#93DEFB" fill-opacity="0.1"/>
<path d="M45.743 165.41C44.1247 165.41 42.8135 165.405 42.8135 167.884H48.6782C48.6763 165.405 47.3612 165.41 45.743 165.41Z" fill="#93DEFB" fill-opacity="0.1"/>
<path d="M65.2043 152.23V147.28C64.4269 147.28 63.6813 147.541 63.1315 148.005C62.5818 148.469 62.2729 149.099 62.2729 149.755C62.2729 150.412 62.5818 151.041 63.1315 151.505C63.6813 151.97 64.4269 152.23 65.2043 152.23Z" fill="#93DEFB" fill-opacity="0.1"/>
<path d="M45.743 152.23C46.3224 152.23 46.8888 152.085 47.3705 151.813C47.8523 151.542 48.2277 151.155 48.4495 150.703C48.6712 150.251 48.7292 149.754 48.6162 149.274C48.5032 148.794 48.2241 148.354 47.8144 148.008C47.4047 147.662 46.8828 147.426 46.3145 147.331C45.7462 147.235 45.1572 147.284 44.6219 147.471C44.0866 147.659 43.6291 147.976 43.3072 148.383C42.9853 148.789 42.8135 149.268 42.8135 149.757C42.8143 150.413 43.1232 151.041 43.6724 151.505C44.2216 151.969 44.9663 152.23 45.743 152.23Z" fill="#93DEFB" fill-opacity="0.1"/>
<path d="M35.9719 155.531C35.3925 155.531 34.8262 155.676 34.3444 155.948C33.8627 156.22 33.4872 156.606 33.2655 157.058C33.0438 157.51 32.9857 158.007 33.0988 158.487C33.2118 158.967 33.4908 159.408 33.9005 159.753C34.3102 160.099 34.8322 160.335 35.4004 160.43C35.9687 160.526 36.5577 160.477 37.093 160.29C37.6283 160.102 38.0858 159.785 38.4077 159.379C38.7296 158.972 38.9014 158.494 38.9014 158.004C38.9014 157.348 38.5928 156.719 38.0434 156.255C37.494 155.791 36.7489 155.531 35.9719 155.531V155.531Z" fill="#93DEFB" fill-opacity="0.1"/>
<path d="M55.5183 160.481C56.0975 160.481 56.6635 160.335 57.1448 160.063C57.626 159.791 58.0009 159.404 58.222 158.952C58.4432 158.5 58.5006 158.003 58.3872 157.523C58.2737 157.043 57.9944 156.603 57.5846 156.257C57.1747 155.912 56.6527 155.677 56.0846 155.581C55.5164 155.486 54.9276 155.535 54.3925 155.723C53.8574 155.91 53.4001 156.227 53.0784 156.634C52.7567 157.04 52.585 157.519 52.585 158.008C52.585 158.333 52.6609 158.655 52.8083 158.955C52.9558 159.255 53.1719 159.528 53.4443 159.758C53.7168 159.988 54.0402 160.17 54.396 160.294C54.7519 160.418 55.1332 160.482 55.5183 160.481V160.481Z" fill="#93DEFB" fill-opacity="0.1"/>
<path d="M35.9719 139.029C35.3927 139.029 34.8265 139.174 34.3448 139.446C33.8631 139.717 33.4877 140.103 33.2658 140.555C33.044 141.007 32.9858 141.504 33.0985 141.984C33.2112 142.464 33.4898 142.904 33.8992 143.251C34.3085 143.597 34.8301 143.832 35.3981 143.928C35.9661 144.024 36.555 143.976 37.0904 143.789C37.6257 143.602 38.0835 143.286 38.4059 142.879C38.7282 142.473 38.9007 141.995 38.9014 141.506C38.9019 141.181 38.8265 140.859 38.6795 140.558C38.5325 140.258 38.3168 139.985 38.0448 139.755C37.7727 139.525 37.4496 139.342 37.0939 139.218C36.7382 139.093 36.357 139.029 35.9719 139.029V139.029Z" fill="#93DEFB" fill-opacity="0.1"/>
<path d="M55.5183 143.977C56.0975 143.976 56.6635 143.83 57.1448 143.558C57.626 143.286 58.0009 142.9 58.222 142.448C58.4432 141.996 58.5006 141.498 58.3872 141.019C58.2737 140.539 57.9944 140.099 57.5846 139.753C57.1747 139.407 56.6527 139.172 56.0846 139.077C55.5164 138.982 54.9276 139.031 54.3925 139.218C53.8574 139.406 53.4001 139.723 53.0784 140.129C52.7567 140.536 52.585 141.014 52.585 141.503C52.585 141.828 52.6609 142.15 52.8083 142.451C52.9558 142.751 53.1719 143.024 53.4443 143.253C53.7168 143.483 54.0402 143.665 54.396 143.789C54.7519 143.914 55.1332 143.977 55.5183 143.977V143.977Z" fill="#93DEFB" fill-opacity="0.1"/>
<path d="M26.0259 163.782V166.232H29.1286C29.1286 166.232 28.9662 163.782 26.0259 163.782Z" fill="#93DEFB" fill-opacity="0.1"/>
<path d="M27.0054 147.28V152.23C27.7828 152.23 28.5284 151.97 29.0782 151.505C29.6279 151.041 29.9368 150.412 29.9368 149.755C29.9368 149.099 29.6279 148.469 29.0782 148.005C28.5284 147.541 27.7828 147.28 27.0054 147.28Z" fill="#93DEFB" fill-opacity="0.1"/>
<path d="M35.9719 172.036C35.3925 172.036 34.8262 172.181 34.3444 172.453C33.8627 172.725 33.4872 173.111 33.2655 173.563C33.0438 174.015 32.9857 174.513 33.0988 174.992C33.2118 175.472 33.4908 175.913 33.9005 176.259C34.3102 176.605 34.8322 176.84 35.4004 176.936C35.9687 177.031 36.5577 176.982 37.093 176.795C37.6283 176.608 38.0858 176.291 38.4077 175.884C38.7296 175.477 38.9014 174.999 38.9014 174.51C38.9014 173.854 38.5928 173.225 38.0434 172.761C37.494 172.297 36.7489 172.036 35.9719 172.036V172.036Z" fill="#93DEFB" fill-opacity="0.1"/>
<path d="M55.5179 172.036C54.9385 172.036 54.3721 172.181 53.8903 172.453C53.4086 172.725 53.0331 173.111 52.8114 173.563C52.5896 174.015 52.5316 174.513 52.6447 174.992C52.7577 175.472 53.0367 175.913 53.4464 176.259C53.8561 176.605 54.3781 176.84 54.9464 176.936C55.5146 177.031 56.1036 176.982 56.6389 176.795C57.1742 176.608 57.6317 176.291 57.9536 175.884C58.2755 175.477 58.4473 174.999 58.4473 174.51C58.4473 174.185 58.3716 173.863 58.2244 173.563C58.0771 173.263 57.8614 172.991 57.5893 172.761C57.3173 172.531 56.9943 172.349 56.6389 172.225C56.2835 172.1 55.9026 172.036 55.5179 172.036V172.036Z" fill="#93DEFB" fill-opacity="0.1"/>
<path d="M65.2047 166.232H62.3599C62.3599 167.059 63.2483 168.735 65.2072 168.735L65.2047 166.232Z" fill="#93DEFB" fill-opacity="0.1"/>
<path d="M45.7429 170.363C47.3611 170.363 48.6762 167.886 48.6762 167.886H42.8115C42.8115 167.886 44.1234 170.363 45.7429 170.363Z" fill="#93DEFB" fill-opacity="0.1"/>
<path d="M26.0259 168.738C28.9643 168.738 29.1286 167.889 29.1286 166.235H26.0259V168.738Z" fill="#93DEFB" fill-opacity="0.1"/>
<path d="M26.0271 163.782C24.0682 163.782 23.2651 165.405 23.2651 166.232H26.0271V163.782Z" fill="#93DEFB" fill-opacity="0.1"/>
<path d="M6.65507 165.41C5.03494 165.41 3.72559 165.405 3.72559 167.884H9.58839C9.58711 165.405 8.27202 165.41 6.65507 165.41Z" fill="#93DEFB" fill-opacity="0.1"/>
<path d="M24.0757 149.756C24.0757 151.123 24.0687 152.23 27.0052 152.23V147.279C24.0693 147.28 24.0757 148.388 24.0757 149.756Z" fill="#93DEFB" fill-opacity="0.1"/>
<path d="M6.65507 147.28C6.07567 147.28 5.50928 147.425 5.02752 147.697C4.54577 147.969 4.1703 148.355 3.94857 148.807C3.72685 149.259 3.66884 149.756 3.78188 150.236C3.89491 150.716 4.17391 151.157 4.58361 151.503C4.99331 151.848 5.5153 152.084 6.08356 152.18C6.65183 152.275 7.24084 152.226 7.77613 152.039C8.31143 151.852 8.76895 151.535 9.09085 151.128C9.41275 150.721 9.58456 150.243 9.58456 149.754C9.58456 149.429 9.50878 149.107 9.36156 148.807C9.21434 148.507 8.99855 148.234 8.72652 148.004C8.45449 147.775 8.13155 147.593 7.77613 147.468C7.42071 147.344 7.03977 147.28 6.65507 147.28V147.28Z" fill="#93DEFB" fill-opacity="0.1"/>
<path d="M16.427 155.531C15.8476 155.531 15.2813 155.676 14.7995 155.948C14.3178 156.22 13.9423 156.606 13.7205 157.058C13.4988 157.51 13.4408 158.007 13.5539 158.487C13.6669 158.967 13.9459 159.408 14.3556 159.753C14.7653 160.099 15.2873 160.335 15.8555 160.43C16.4238 160.526 17.0128 160.477 17.5481 160.29C18.0834 160.102 18.5409 159.785 18.8628 159.379C19.1847 158.972 19.3565 158.494 19.3565 158.004C19.3565 157.68 19.2808 157.358 19.1335 157.058C18.9863 156.758 18.7705 156.485 18.4985 156.255C18.2265 156.026 17.9035 155.843 17.5481 155.719C17.1927 155.595 16.8117 155.531 16.427 155.531V155.531Z" fill="#93DEFB" fill-opacity="0.1"/>
<path d="M16.4275 139.029C15.8483 139.029 15.2821 139.174 14.8004 139.446C14.3187 139.717 13.9432 140.103 13.7214 140.555C13.4996 141.007 13.4413 141.504 13.5541 141.984C13.6668 142.464 13.9454 142.904 14.3547 143.251C14.764 143.597 15.2857 143.832 15.8537 143.928C16.4217 144.024 17.0106 143.976 17.5459 143.789C18.0813 143.602 18.5391 143.286 18.8614 142.879C19.1838 142.473 19.3562 141.995 19.357 141.506C19.3575 141.181 19.2821 140.859 19.1351 140.558C18.9881 140.258 18.7724 139.985 18.5003 139.755C18.2283 139.525 17.9051 139.342 17.5495 139.218C17.1938 139.093 16.8125 139.029 16.4275 139.029V139.029Z" fill="#93DEFB" fill-opacity="0.1"/>
<path d="M16.427 172.036C15.8476 172.036 15.2813 172.181 14.7995 172.453C14.3178 172.725 13.9423 173.111 13.7205 173.563C13.4988 174.015 13.4408 174.513 13.5539 174.992C13.6669 175.472 13.9459 175.913 14.3556 176.259C14.7653 176.605 15.2873 176.84 15.8555 176.936C16.4238 177.031 17.0128 176.982 17.5481 176.795C18.0834 176.608 18.5409 176.291 18.8628 175.884C19.1847 175.477 19.3565 174.999 19.3565 174.51C19.3565 174.185 19.2808 173.863 19.1335 173.563C18.9863 173.263 18.7705 172.991 18.4985 172.761C18.2265 172.531 17.9035 172.349 17.5481 172.225C17.1927 172.1 16.8117 172.036 16.427 172.036V172.036Z" fill="#93DEFB" fill-opacity="0.1"/>
<path d="M26.0271 166.232H23.2651C23.2651 167.059 24.0682 168.735 26.0271 168.735V166.232Z" fill="#93DEFB" fill-opacity="0.1"/>
<path d="M6.65449 170.363C8.27143 170.363 9.58397 167.886 9.58397 167.886H3.72119C3.72119 167.886 5.03436 170.363 6.65449 170.363Z" fill="#93DEFB" fill-opacity="0.1"/>
<defs>
<linearGradient id="paint0_linear_0_1" x1="36.3179" y1="296.359" x2="539.134" y2="296.359" gradientUnits="userSpaceOnUse">
<stop stop-color="#93DEFB"/>
<stop offset="0.651" stop-color="#EBADF8"/>
<stop offset="0.998" stop-color="#C7F2E3"/>
</linearGradient>
<linearGradient id="paint1_linear_0_1" x1="-344.597" y1="1491.99" x2="75.4176" y2="1491.99" gradientUnits="userSpaceOnUse">
<stop stop-color="#93DEFB"/>
<stop offset="0.651" stop-color="#EBADF8"/>
<stop offset="0.998" stop-color="#C7F2E3"/>
</linearGradient>
</defs>
</svg>
