<svg width="281" height="173" viewBox="0 0 281 173" fill="none" xmlns="http://www.w3.org/2000/svg">
<rect width="281" height="173" fill="#E5E5E5"/>
<rect width="1440" height="9160" transform="translate(-892 -120)" fill="white"/>
<path d="M263.458 173H17.5424C7.88603 173 0 166.077 0 157.6V15.3998C0 6.92283 7.88603 0 17.5424 0H263.458C273.114 0 281 6.92283 281 15.3998V157.53C281 166.077 273.114 173 263.458 173Z" fill="#F2F6FB"/>
<path d="M73 87C84.0457 87 93 78.0457 93 67C93 55.9543 84.0457 47 73 47C61.9543 47 53 55.9543 53 67C53 78.0457 61.9543 87 73 87Z" fill="#FFCB3D"/>
<path d="M127.21 87C138.256 87 147.21 78.0457 147.21 67C147.21 55.9543 138.256 47 127.21 47C116.164 47 107.21 55.9543 107.21 67C107.21 78.0457 116.164 87 127.21 87Z" fill="#A2A5A4"/>
<path d="M181.419 87C192.465 87 201.419 78.0457 201.419 67C201.419 55.9543 192.465 47 181.419 47C170.373 47 161.419 55.9543 161.419 67C161.419 78.0457 170.373 87 181.419 87Z" fill="#A2A5A4"/>
<path d="M203.234 151H56.0971C53.8343 151 52 152.588 52 154.547C52 156.506 53.8343 158.094 56.0971 158.094H203.234C205.496 158.094 207.331 156.506 207.331 154.547C207.331 152.588 205.496 151 203.234 151Z" fill="#E1E5F0"/>
<path d="M202.977 134H56.3531C53.949 134 52 135.687 52 137.769C52 139.85 53.949 141.537 56.3531 141.537H202.977C205.382 141.537 207.331 139.85 207.331 137.769C207.331 135.687 205.382 134 202.977 134Z" fill="#E1E5F0"/>
<path d="M10 16.7539C10 11.367 15.0432 7 21.2708 7H263C269.224 7 274.27 11.3658 274.27 16.7539V26.5077H10V16.7539Z" fill="#E1E5F0"/>
<path d="M25.1548 20.7636C27.3639 20.7636 29.1548 18.9727 29.1548 16.7636C29.1548 14.5545 27.3639 12.7636 25.1548 12.7636C22.9456 12.7636 21.1548 14.5545 21.1548 16.7636C21.1548 18.9727 22.9456 20.7636 25.1548 20.7636Z" fill="#FF5645"/>
<path d="M41.3125 20.7636C43.5216 20.7636 45.3125 18.9727 45.3125 16.7636C45.3125 14.5545 43.5216 12.7636 41.3125 12.7636C39.1034 12.7636 37.3125 14.5545 37.3125 16.7636C37.3125 18.9727 39.1034 20.7636 41.3125 20.7636Z" fill="#FFCB3D"/>
<path d="M57.9932 20.7636C60.2023 20.7636 61.9932 18.9727 61.9932 16.7636C61.9932 14.5545 60.2023 12.7636 57.9932 12.7636C55.784 12.7636 53.9932 14.5545 53.9932 16.7636C53.9932 18.9727 55.784 20.7636 57.9932 20.7636Z" fill="#3ABF7C"/>
<path d="M46.45 109.384V117H45.19V107.06H46.254L52.33 114.83V107.074H53.59V117H52.442L46.45 109.384ZM58.8784 117.14C58.3277 117.14 57.8237 117.042 57.3664 116.846C56.9184 116.641 56.5264 116.365 56.1904 116.02C55.8637 115.665 55.6071 115.259 55.4204 114.802C55.2431 114.345 55.1544 113.859 55.1544 113.346C55.1544 112.655 55.3131 112.025 55.6304 111.456C55.9477 110.887 56.3864 110.429 56.9464 110.084C57.5157 109.739 58.1644 109.566 58.8924 109.566C59.6297 109.566 60.2691 109.743 60.8104 110.098C61.3611 110.443 61.7857 110.901 62.0844 111.47C62.3924 112.03 62.5464 112.637 62.5464 113.29C62.5464 113.383 62.5417 113.477 62.5324 113.57C62.5324 113.654 62.5277 113.719 62.5184 113.766H56.4564C56.4937 114.242 56.6244 114.667 56.8484 115.04C57.0817 115.404 57.3804 115.693 57.7444 115.908C58.1084 116.113 58.5004 116.216 58.9204 116.216C59.3684 116.216 59.7884 116.104 60.1804 115.88C60.5817 115.656 60.8571 115.362 61.0064 114.998L62.0704 115.292C61.9117 115.647 61.6737 115.964 61.3564 116.244C61.0484 116.524 60.6797 116.743 60.2504 116.902C59.8304 117.061 59.3731 117.14 58.8784 117.14ZM56.4144 112.912H61.3984C61.3611 112.436 61.2257 112.016 60.9924 111.652C60.7591 111.288 60.4604 111.003 60.0964 110.798C59.7324 110.593 59.3311 110.49 58.8924 110.49C58.4631 110.49 58.0664 110.593 57.7024 110.798C57.3384 111.003 57.0397 111.288 56.8064 111.652C56.5824 112.016 56.4517 112.436 56.4144 112.912ZM64.1884 109.692L66.1204 112.38L66.2324 112.604L66.3584 112.38L68.2764 109.692H69.6484L66.9464 113.36L69.6624 117H68.2904L66.3584 114.326L66.2324 114.116L66.1204 114.326L64.1884 117H62.8164L65.5324 113.36L62.8304 109.692H64.1884ZM74.6002 116.636C74.4975 116.683 74.3575 116.743 74.1802 116.818C74.0028 116.893 73.7975 116.958 73.5642 117.014C73.3308 117.07 73.0835 117.098 72.8222 117.098C72.5235 117.098 72.2482 117.047 71.9962 116.944C71.7442 116.832 71.5435 116.664 71.3942 116.44C71.2448 116.207 71.1702 115.917 71.1702 115.572V110.658H70.1762V109.692H71.1702V107.256H72.4022V109.692H74.0402V110.658H72.4022V115.194C72.4208 115.455 72.5095 115.651 72.6682 115.782C72.8268 115.903 73.0135 115.964 73.2282 115.964C73.4708 115.964 73.6948 115.922 73.9002 115.838C74.1055 115.754 74.2408 115.693 74.3062 115.656L74.6002 116.636ZM82.1951 117.084C81.7004 117.084 81.2431 116.986 80.8231 116.79C80.4124 116.585 80.0577 116.309 79.7591 115.964C79.4604 115.609 79.2271 115.208 79.0591 114.76C78.9004 114.312 78.8211 113.845 78.8211 113.36C78.8211 112.847 78.9004 112.361 79.0591 111.904C79.2271 111.447 79.4604 111.045 79.7591 110.7C80.0671 110.345 80.4264 110.07 80.8371 109.874C81.2477 109.669 81.7051 109.566 82.2091 109.566C82.8157 109.566 83.3431 109.715 83.7911 110.014C84.2484 110.313 84.6311 110.691 84.9391 111.148V109.692H86.0311V116.916C86.0311 117.607 85.8631 118.19 85.5271 118.666C85.2004 119.142 84.7524 119.501 84.1831 119.744C83.6231 119.996 82.9977 120.122 82.3071 120.122C81.4857 120.122 80.8137 119.977 80.2911 119.688C79.7684 119.399 79.3344 119.007 78.9891 118.512L79.7031 117.882C79.9924 118.311 80.3657 118.633 80.8231 118.848C81.2897 119.063 81.7844 119.17 82.3071 119.17C82.7551 119.17 83.1657 119.086 83.5391 118.918C83.9217 118.759 84.2251 118.512 84.4491 118.176C84.6824 117.84 84.7991 117.42 84.7991 116.916V115.628C84.5284 116.076 84.1551 116.431 83.6791 116.692C83.2124 116.953 82.7177 117.084 82.1951 117.084ZM82.5731 116.076C82.8344 116.076 83.0864 116.029 83.3291 115.936C83.5717 115.843 83.7957 115.721 84.0011 115.572C84.2064 115.413 84.3791 115.236 84.5191 115.04C84.6591 114.844 84.7524 114.643 84.7991 114.438V112.338C84.6684 112.002 84.4817 111.708 84.2391 111.456C83.9964 111.195 83.7211 110.994 83.4131 110.854C83.1051 110.705 82.7877 110.63 82.4611 110.63C82.0877 110.63 81.7517 110.709 81.4531 110.868C81.1637 111.027 80.9164 111.241 80.7111 111.512C80.5057 111.773 80.3471 112.067 80.2351 112.394C80.1231 112.721 80.0671 113.052 80.0671 113.388C80.0671 113.752 80.1324 114.097 80.2631 114.424C80.3937 114.741 80.5711 115.026 80.7951 115.278C81.0191 115.53 81.2851 115.726 81.5931 115.866C81.9011 116.006 82.2277 116.076 82.5731 116.076ZM91.2534 117.14C90.7027 117.14 90.1987 117.042 89.7414 116.846C89.2934 116.641 88.9014 116.365 88.5654 116.02C88.2387 115.665 87.9821 115.259 87.7954 114.802C87.6181 114.345 87.5294 113.859 87.5294 113.346C87.5294 112.655 87.6881 112.025 88.0054 111.456C88.3227 110.887 88.7614 110.429 89.3214 110.084C89.8907 109.739 90.5394 109.566 91.2674 109.566C92.0047 109.566 92.6441 109.743 93.1854 110.098C93.7361 110.443 94.1607 110.901 94.4594 111.47C94.7674 112.03 94.9214 112.637 94.9214 113.29C94.9214 113.383 94.9167 113.477 94.9074 113.57C94.9074 113.654 94.9027 113.719 94.8934 113.766H88.8314C88.8687 114.242 88.9994 114.667 89.2234 115.04C89.4567 115.404 89.7554 115.693 90.1194 115.908C90.4834 116.113 90.8754 116.216 91.2954 116.216C91.7434 116.216 92.1634 116.104 92.5554 115.88C92.9567 115.656 93.2321 115.362 93.3814 114.998L94.4454 115.292C94.2867 115.647 94.0487 115.964 93.7314 116.244C93.4234 116.524 93.0547 116.743 92.6254 116.902C92.2054 117.061 91.7481 117.14 91.2534 117.14ZM88.7894 112.912H93.7734C93.7361 112.436 93.6007 112.016 93.3674 111.652C93.1341 111.288 92.8354 111.003 92.4714 110.798C92.1074 110.593 91.7061 110.49 91.2674 110.49C90.8381 110.49 90.4414 110.593 90.0774 110.798C89.7134 111.003 89.4147 111.288 89.1814 111.652C88.9574 112.016 88.8267 112.436 88.7894 112.912ZM102.633 117H101.401V112.912C101.401 112.137 101.28 111.573 101.037 111.218C100.804 110.854 100.444 110.672 99.9589 110.672C99.6229 110.672 99.2869 110.756 98.9509 110.924C98.6242 111.092 98.3302 111.321 98.0689 111.61C97.8169 111.89 97.6349 112.217 97.5229 112.59V117H96.2909V109.692H97.4109V111.26C97.6069 110.915 97.8589 110.616 98.1669 110.364C98.4749 110.112 98.8249 109.916 99.2169 109.776C99.6089 109.636 100.02 109.566 100.449 109.566C100.869 109.566 101.219 109.645 101.499 109.804C101.788 109.953 102.012 110.168 102.171 110.448C102.339 110.719 102.456 111.041 102.521 111.414C102.596 111.787 102.633 112.193 102.633 112.632V117ZM108.09 117V109.692H109.322V117H108.09ZM108.09 108.32V106.78H109.322V108.32H108.09ZM117.658 117H116.426V112.912C116.426 112.137 116.305 111.573 116.062 111.218C115.829 110.854 115.47 110.672 114.984 110.672C114.648 110.672 114.312 110.756 113.976 110.924C113.65 111.092 113.356 111.321 113.094 111.61C112.842 111.89 112.66 112.217 112.548 112.59V117H111.316V109.692H112.436V111.26C112.632 110.915 112.884 110.616 113.192 110.364C113.5 110.112 113.85 109.916 114.242 109.776C114.634 109.636 115.045 109.566 115.474 109.566C115.894 109.566 116.244 109.645 116.524 109.804C116.814 109.953 117.038 110.168 117.196 110.448C117.364 110.719 117.481 111.041 117.546 111.414C117.621 111.787 117.658 112.193 117.658 112.632V117ZM121.524 117L118.654 109.692H119.942L122.238 115.824L124.534 109.692H125.738L122.868 117H121.524ZM129.958 117.14C129.408 117.14 128.904 117.042 128.446 116.846C127.998 116.641 127.606 116.365 127.27 116.02C126.944 115.665 126.687 115.259 126.5 114.802C126.323 114.345 126.234 113.859 126.234 113.346C126.234 112.655 126.393 112.025 126.71 111.456C127.028 110.887 127.466 110.429 128.026 110.084C128.596 109.739 129.244 109.566 129.972 109.566C130.71 109.566 131.349 109.743 131.89 110.098C132.441 110.443 132.866 110.901 133.164 111.47C133.472 112.03 133.626 112.637 133.626 113.29C133.626 113.383 133.622 113.477 133.612 113.57C133.612 113.654 133.608 113.719 133.598 113.766H127.536C127.574 114.242 127.704 114.667 127.928 115.04C128.162 115.404 128.46 115.693 128.824 115.908C129.188 116.113 129.58 116.216 130 116.216C130.448 116.216 130.868 116.104 131.26 115.88C131.662 115.656 131.937 115.362 132.086 114.998L133.15 115.292C132.992 115.647 132.754 115.964 132.436 116.244C132.128 116.524 131.76 116.743 131.33 116.902C130.91 117.061 130.453 117.14 129.958 117.14ZM127.494 112.912H132.478C132.441 112.436 132.306 112.016 132.072 111.652C131.839 111.288 131.54 111.003 131.176 110.798C130.812 110.593 130.411 110.49 129.972 110.49C129.543 110.49 129.146 110.593 128.782 110.798C128.418 111.003 128.12 111.288 127.886 111.652C127.662 112.016 127.532 112.436 127.494 112.912ZM137.502 117.14C136.895 117.14 136.326 117.042 135.794 116.846C135.262 116.641 134.805 116.337 134.422 115.936L134.898 115.068C135.318 115.46 135.738 115.74 136.158 115.908C136.578 116.076 137.007 116.16 137.446 116.16C137.95 116.16 138.361 116.067 138.678 115.88C138.995 115.684 139.154 115.399 139.154 115.026C139.154 114.755 139.07 114.555 138.902 114.424C138.743 114.293 138.515 114.186 138.216 114.102C137.917 114.009 137.563 113.906 137.152 113.794C136.648 113.645 136.223 113.486 135.878 113.318C135.533 113.15 135.271 112.94 135.094 112.688C134.917 112.436 134.828 112.119 134.828 111.736C134.828 111.269 134.949 110.877 135.192 110.56C135.435 110.233 135.766 109.986 136.186 109.818C136.615 109.65 137.101 109.566 137.642 109.566C138.183 109.566 138.673 109.65 139.112 109.818C139.551 109.986 139.929 110.233 140.246 110.56L139.686 111.414C139.397 111.115 139.079 110.896 138.734 110.756C138.389 110.607 138.001 110.532 137.572 110.532C137.32 110.532 137.073 110.565 136.83 110.63C136.587 110.686 136.387 110.793 136.228 110.952C136.069 111.101 135.99 111.316 135.99 111.596C135.99 111.829 136.051 112.016 136.172 112.156C136.303 112.287 136.489 112.399 136.732 112.492C136.984 112.585 137.287 112.688 137.642 112.8C138.193 112.959 138.669 113.117 139.07 113.276C139.481 113.435 139.798 113.64 140.022 113.892C140.246 114.144 140.358 114.494 140.358 114.942C140.358 115.633 140.097 116.174 139.574 116.566C139.051 116.949 138.361 117.14 137.502 117.14ZM145.612 116.636C145.509 116.683 145.369 116.743 145.192 116.818C145.015 116.893 144.809 116.958 144.576 117.014C144.343 117.07 144.095 117.098 143.834 117.098C143.535 117.098 143.26 117.047 143.008 116.944C142.756 116.832 142.555 116.664 142.406 116.44C142.257 116.207 142.182 115.917 142.182 115.572V110.658H141.188V109.692H142.182V107.256H143.414V109.692H145.052V110.658H143.414V115.194C143.433 115.455 143.521 115.651 143.68 115.782C143.839 115.903 144.025 115.964 144.24 115.964C144.483 115.964 144.707 115.922 144.912 115.838C145.117 115.754 145.253 115.693 145.318 115.656L145.612 116.636ZM157.772 117H156.54V112.912C156.54 112.147 156.414 111.582 156.162 111.218C155.919 110.854 155.555 110.672 155.07 110.672C154.575 110.672 154.127 110.854 153.726 111.218C153.324 111.573 153.04 112.035 152.872 112.604V117H151.64V112.912C151.64 112.137 151.518 111.573 151.276 111.218C151.033 110.854 150.669 110.672 150.184 110.672C149.698 110.672 149.25 110.849 148.84 111.204C148.438 111.549 148.154 112.011 147.986 112.59V117H146.754V109.692H147.874V111.26C148.172 110.719 148.56 110.303 149.036 110.014C149.512 109.715 150.048 109.566 150.646 109.566C151.252 109.566 151.738 109.734 152.102 110.07C152.466 110.397 152.69 110.821 152.774 111.344C153.1 110.765 153.497 110.327 153.964 110.028C154.43 109.72 154.962 109.566 155.56 109.566C155.98 109.566 156.33 109.645 156.61 109.804C156.899 109.953 157.128 110.168 157.296 110.448C157.464 110.719 157.585 111.041 157.66 111.414C157.734 111.787 157.772 112.193 157.772 112.632V117ZM162.921 117.14C162.371 117.14 161.867 117.042 161.409 116.846C160.961 116.641 160.569 116.365 160.233 116.02C159.907 115.665 159.65 115.259 159.463 114.802C159.286 114.345 159.197 113.859 159.197 113.346C159.197 112.655 159.356 112.025 159.673 111.456C159.991 110.887 160.429 110.429 160.989 110.084C161.559 109.739 162.207 109.566 162.935 109.566C163.673 109.566 164.312 109.743 164.853 110.098C165.404 110.443 165.829 110.901 166.127 111.47C166.435 112.03 166.589 112.637 166.589 113.29C166.589 113.383 166.585 113.477 166.575 113.57C166.575 113.654 166.571 113.719 166.561 113.766H160.499C160.537 114.242 160.667 114.667 160.891 115.04C161.125 115.404 161.423 115.693 161.787 115.908C162.151 116.113 162.543 116.216 162.963 116.216C163.411 116.216 163.831 116.104 164.223 115.88C164.625 115.656 164.9 115.362 165.049 114.998L166.113 115.292C165.955 115.647 165.717 115.964 165.399 116.244C165.091 116.524 164.723 116.743 164.293 116.902C163.873 117.061 163.416 117.14 162.921 117.14ZM160.457 112.912H165.441C165.404 112.436 165.269 112.016 165.035 111.652C164.802 111.288 164.503 111.003 164.139 110.798C163.775 110.593 163.374 110.49 162.935 110.49C162.506 110.49 162.109 110.593 161.745 110.798C161.381 111.003 161.083 111.288 160.849 111.652C160.625 112.016 160.495 112.436 160.457 112.912ZM174.301 117H173.069V112.912C173.069 112.137 172.948 111.573 172.705 111.218C172.472 110.854 172.112 110.672 171.627 110.672C171.291 110.672 170.955 110.756 170.619 110.924C170.292 111.092 169.998 111.321 169.737 111.61C169.485 111.89 169.303 112.217 169.191 112.59V117H167.959V109.692H169.079V111.26C169.275 110.915 169.527 110.616 169.835 110.364C170.143 110.112 170.493 109.916 170.885 109.776C171.277 109.636 171.688 109.566 172.117 109.566C172.537 109.566 172.887 109.645 173.167 109.804C173.456 109.953 173.68 110.168 173.839 110.448C174.007 110.719 174.124 111.041 174.189 111.414C174.264 111.787 174.301 112.193 174.301 112.632V117ZM179.928 116.636C179.826 116.683 179.686 116.743 179.508 116.818C179.331 116.893 179.126 116.958 178.892 117.014C178.659 117.07 178.412 117.098 178.15 117.098C177.852 117.098 177.576 117.047 177.324 116.944C177.072 116.832 176.872 116.664 176.722 116.44C176.573 116.207 176.498 115.917 176.498 115.572V110.658H175.504V109.692H176.498V107.256H177.73V109.692H179.368V110.658H177.73V115.194C177.749 115.455 177.838 115.651 177.996 115.782C178.155 115.903 178.342 115.964 178.556 115.964C178.799 115.964 179.023 115.922 179.228 115.838C179.434 115.754 179.569 115.693 179.634 115.656L179.928 116.636ZM184.037 114.886C184.037 114.419 184.168 114.018 184.429 113.682C184.7 113.337 185.069 113.071 185.535 112.884C186.002 112.697 186.543 112.604 187.159 112.604C187.486 112.604 187.831 112.632 188.195 112.688C188.559 112.735 188.881 112.809 189.161 112.912V112.38C189.161 111.82 188.993 111.381 188.657 111.064C188.321 110.737 187.845 110.574 187.229 110.574C186.828 110.574 186.441 110.649 186.067 110.798C185.703 110.938 185.316 111.143 184.905 111.414L184.457 110.546C184.933 110.219 185.409 109.977 185.885 109.818C186.361 109.65 186.856 109.566 187.369 109.566C188.303 109.566 189.04 109.827 189.581 110.35C190.123 110.863 190.393 111.582 190.393 112.506V115.6C190.393 115.749 190.421 115.861 190.477 115.936C190.543 116.001 190.645 116.039 190.785 116.048V117C190.664 117.019 190.557 117.033 190.463 117.042C190.379 117.051 190.309 117.056 190.253 117.056C189.964 117.056 189.745 116.977 189.595 116.818C189.455 116.659 189.376 116.491 189.357 116.314L189.329 115.852C189.012 116.263 188.597 116.58 188.083 116.804C187.57 117.028 187.061 117.14 186.557 117.14C186.072 117.14 185.638 117.042 185.255 116.846C184.873 116.641 184.574 116.37 184.359 116.034C184.145 115.689 184.037 115.306 184.037 114.886ZM188.797 115.404C188.909 115.273 188.998 115.143 189.063 115.012C189.129 114.872 189.161 114.755 189.161 114.662V113.752C188.872 113.64 188.569 113.556 188.251 113.5C187.934 113.435 187.621 113.402 187.313 113.402C186.688 113.402 186.179 113.528 185.787 113.78C185.405 114.023 185.213 114.359 185.213 114.788C185.213 115.021 185.274 115.25 185.395 115.474C185.526 115.689 185.713 115.866 185.955 116.006C186.207 116.146 186.515 116.216 186.879 116.216C187.262 116.216 187.626 116.141 187.971 115.992C188.317 115.833 188.592 115.637 188.797 115.404ZM191.887 113.36C191.887 112.669 192.027 112.039 192.307 111.47C192.596 110.891 192.988 110.429 193.483 110.084C193.987 109.739 194.561 109.566 195.205 109.566C195.793 109.566 196.32 109.72 196.787 110.028C197.254 110.336 197.618 110.709 197.879 111.148V106.78H199.111V115.6C199.111 115.749 199.139 115.861 199.195 115.936C199.26 116.001 199.363 116.039 199.503 116.048V117C199.27 117.037 199.088 117.056 198.957 117.056C198.714 117.056 198.5 116.972 198.313 116.804C198.136 116.636 198.047 116.449 198.047 116.244V115.628C197.758 116.095 197.37 116.463 196.885 116.734C196.4 117.005 195.896 117.14 195.373 117.14C194.869 117.14 194.402 117.042 193.973 116.846C193.553 116.641 193.184 116.361 192.867 116.006C192.559 115.651 192.316 115.25 192.139 114.802C191.971 114.345 191.887 113.864 191.887 113.36ZM197.879 114.438V112.338C197.767 112.021 197.585 111.736 197.333 111.484C197.081 111.223 196.796 111.017 196.479 110.868C196.171 110.709 195.863 110.63 195.555 110.63C195.191 110.63 194.86 110.709 194.561 110.868C194.272 111.017 194.02 111.223 193.805 111.484C193.6 111.736 193.441 112.025 193.329 112.352C193.217 112.679 193.161 113.019 193.161 113.374C193.161 113.738 193.222 114.083 193.343 114.41C193.474 114.737 193.651 115.026 193.875 115.278C194.108 115.53 194.374 115.726 194.673 115.866C194.981 116.006 195.312 116.076 195.667 116.076C195.891 116.076 196.12 116.034 196.353 115.95C196.596 115.866 196.824 115.749 197.039 115.6C197.254 115.451 197.436 115.278 197.585 115.082C197.734 114.877 197.832 114.662 197.879 114.438ZM203.268 117L200.398 109.692H201.686L203.982 115.824L206.278 109.692H207.482L204.612 117H203.268ZM208.715 117V109.692H209.947V117H208.715ZM208.715 108.32V106.78H209.947V108.32H208.715ZM215.175 117.14C214.625 117.14 214.121 117.042 213.663 116.846C213.215 116.641 212.823 116.361 212.487 116.006C212.161 115.651 211.904 115.245 211.717 114.788C211.54 114.331 211.451 113.845 211.451 113.332C211.451 112.641 211.605 112.011 211.913 111.442C212.221 110.873 212.655 110.42 213.215 110.084C213.775 109.739 214.424 109.566 215.161 109.566C215.88 109.566 216.505 109.729 217.037 110.056C217.579 110.373 217.98 110.803 218.241 111.344L217.037 111.722C216.851 111.377 216.589 111.111 216.253 110.924C215.917 110.728 215.544 110.63 215.133 110.63C214.685 110.63 214.275 110.747 213.901 110.98C213.537 111.213 213.248 111.535 213.033 111.946C212.819 112.347 212.711 112.809 212.711 113.332C212.711 113.845 212.819 114.312 213.033 114.732C213.257 115.143 213.551 115.469 213.915 115.712C214.289 115.955 214.699 116.076 215.147 116.076C215.437 116.076 215.712 116.025 215.973 115.922C216.244 115.819 216.477 115.684 216.673 115.516C216.879 115.339 217.019 115.147 217.093 114.942L218.297 115.306C218.148 115.661 217.919 115.978 217.611 116.258C217.313 116.529 216.953 116.743 216.533 116.902C216.123 117.061 215.67 117.14 215.175 117.14ZM222.859 117.14C222.308 117.14 221.804 117.042 221.347 116.846C220.899 116.641 220.507 116.365 220.171 116.02C219.844 115.665 219.588 115.259 219.401 114.802C219.224 114.345 219.135 113.859 219.135 113.346C219.135 112.655 219.294 112.025 219.611 111.456C219.928 110.887 220.367 110.429 220.927 110.084C221.496 109.739 222.145 109.566 222.873 109.566C223.61 109.566 224.25 109.743 224.791 110.098C225.342 110.443 225.766 110.901 226.065 111.47C226.373 112.03 226.527 112.637 226.527 113.29C226.527 113.383 226.522 113.477 226.513 113.57C226.513 113.654 226.508 113.719 226.499 113.766H220.437C220.474 114.242 220.605 114.667 220.829 115.04C221.062 115.404 221.361 115.693 221.725 115.908C222.089 116.113 222.481 116.216 222.901 116.216C223.349 116.216 223.769 116.104 224.161 115.88C224.562 115.656 224.838 115.362 224.987 114.998L226.051 115.292C225.892 115.647 225.654 115.964 225.337 116.244C225.029 116.524 224.66 116.743 224.231 116.902C223.811 117.061 223.354 117.14 222.859 117.14ZM220.395 112.912H225.379C225.342 112.436 225.206 112.016 224.973 111.652C224.74 111.288 224.441 111.003 224.077 110.798C223.713 110.593 223.312 110.49 222.873 110.49C222.444 110.49 222.047 110.593 221.683 110.798C221.319 111.003 221.02 111.288 220.787 111.652C220.563 112.016 220.432 112.436 220.395 112.912Z" fill="black"/>
<path d="M438.028 202.185C438.028 202.185 365.648 183.149 314.626 157.1C263.603 131.051 211.396 106.004 154.445 120.033C97.4948 134.063 92.744 173.132 76.1338 217.214C59.5236 261.296 -0.993806 358.48 70.1997 416.588C141.393 474.697 203.09 500.744 330.051 448.645C415.052 413.766 449.587 384.635 489.048 352.466C523.46 324.412 604.145 253.282 438.028 202.185Z" fill="url(#paint0_linear_0_1)" fill-opacity="0.05"/>
<path style="mix-blend-mode:multiply" opacity="0.3" d="M-14.5053 334.314C-14.5053 334.314 -61.5204 386.527 29.8133 440.641C121.147 494.756 283.844 508.18 334.936 420.245C386.029 332.311 413.604 306.536 338.655 234.744C263.705 162.951 40.9759 90.9784 27.62 172.015C14.2641 253.051 54.4312 269.886 -14.5053 334.314Z" fill="url(#paint1_linear_0_1)" fill-opacity="0.05"/>
<path d="M163.013 165.41C161.392 165.41 160.083 165.405 160.083 167.884H165.942C165.944 165.405 164.631 165.41 163.013 165.41Z" fill="#93DEFB" fill-opacity="0.1"/>
<path d="M160.082 149.756C160.082 150.245 160.253 150.724 160.575 151.13C160.897 151.537 161.355 151.854 161.89 152.041C162.425 152.229 163.014 152.278 163.583 152.182C164.151 152.087 164.673 151.851 165.082 151.505C165.492 151.159 165.771 150.719 165.884 150.239C165.997 149.759 165.939 149.262 165.718 148.81C165.496 148.358 165.12 147.971 164.639 147.7C164.157 147.428 163.59 147.283 163.011 147.283C162.234 147.283 161.489 147.543 160.94 148.007C160.39 148.471 160.082 149.1 160.082 149.756V149.756Z" fill="#93DEFB" fill-opacity="0.1"/>
<path d="M153.241 160.481C153.821 160.481 154.387 160.336 154.869 160.064C155.351 159.792 155.726 159.406 155.948 158.954C156.17 158.502 156.228 158.005 156.115 157.525C156.002 157.045 155.723 156.604 155.313 156.259C154.903 155.913 154.381 155.677 153.813 155.582C153.245 155.486 152.656 155.535 152.12 155.722C151.585 155.91 151.128 156.227 150.806 156.633C150.484 157.04 150.312 157.518 150.312 158.008C150.312 158.664 150.621 159.293 151.17 159.757C151.719 160.221 152.465 160.481 153.241 160.481V160.481Z" fill="#93DEFB" fill-opacity="0.1"/>
<path d="M169.853 158.006C169.853 158.662 170.161 159.291 170.711 159.755C171.26 160.219 172.005 160.48 172.782 160.48C172.855 160.48 172.924 160.466 172.995 160.461C172.584 158.872 172.109 157.302 171.594 155.746C171.076 155.94 170.636 156.257 170.327 156.658C170.018 157.059 169.853 157.527 169.853 158.006Z" fill="#93DEFB" fill-opacity="0.1"/>
<path d="M150.312 141.506C150.313 141.995 150.485 142.473 150.808 142.879C151.13 143.286 151.588 143.602 152.123 143.789C152.658 143.976 153.247 144.024 153.815 143.928C154.383 143.832 154.905 143.597 155.314 143.251C155.724 142.904 156.002 142.464 156.115 141.984C156.228 141.504 156.169 141.007 155.948 140.555C155.726 140.103 155.35 139.717 154.869 139.446C154.387 139.174 153.821 139.029 153.241 139.029C152.856 139.029 152.475 139.093 152.12 139.218C151.764 139.342 151.441 139.525 151.169 139.755C150.897 139.985 150.681 140.258 150.534 140.558C150.387 140.859 150.312 141.181 150.312 141.506Z" fill="#93DEFB" fill-opacity="0.1"/>
<path d="M143.556 166.232H146.396C146.396 166.232 145.515 163.782 143.556 163.782V166.232Z" fill="#93DEFB" fill-opacity="0.1"/>
<path d="M144.536 147.28V152.23C145.313 152.23 146.059 151.97 146.608 151.505C147.158 151.041 147.467 150.412 147.467 149.755C147.467 149.099 147.158 148.469 146.608 148.005C146.059 147.541 145.313 147.28 144.536 147.28V147.28Z" fill="#93DEFB" fill-opacity="0.1"/>
<path d="M153.241 172.036C152.662 172.037 152.096 172.183 151.615 172.455C151.133 172.727 150.758 173.114 150.537 173.566C150.316 174.018 150.259 174.515 150.372 174.994C150.486 175.474 150.765 175.914 151.175 176.26C151.585 176.606 152.107 176.841 152.675 176.936C153.243 177.031 153.832 176.982 154.367 176.795C154.902 176.608 155.359 176.29 155.681 175.884C156.003 175.477 156.174 174.999 156.174 174.51C156.174 174.185 156.098 173.863 155.951 173.563C155.804 173.262 155.587 172.989 155.315 172.76C155.043 172.53 154.719 172.348 154.363 172.224C154.007 172.1 153.626 172.036 153.241 172.036Z" fill="#93DEFB" fill-opacity="0.1"/>
<path d="M172.785 172.036C172.28 172.037 171.783 172.148 171.344 172.358C170.904 172.568 170.536 172.871 170.276 173.237C170.016 173.603 169.873 174.02 169.86 174.446C169.847 174.873 169.965 175.295 170.202 175.672C170.44 176.048 170.788 176.367 171.215 176.596C171.641 176.825 172.13 176.958 172.635 176.98C173.14 177.002 173.642 176.914 174.095 176.724C174.547 176.534 174.934 176.248 175.216 175.894C175.184 174.918 175.142 173.946 175.072 172.981C174.801 172.687 174.454 172.45 174.058 172.286C173.661 172.123 173.226 172.037 172.785 172.036V172.036Z" fill="#93DEFB" fill-opacity="0.1"/>
<path d="M160.082 167.886C160.082 167.886 161.392 170.363 163.011 170.363C164.63 170.363 165.941 167.886 165.941 167.886H160.082Z" fill="#93DEFB" fill-opacity="0.1"/>
<path d="M143.556 168.738C145.515 168.738 146.396 167.062 146.396 166.235H143.556V168.738Z" fill="#93DEFB" fill-opacity="0.1"/>
<path d="M143.558 163.782C142.788 163.813 142.058 164.078 141.502 164.528C140.946 164.979 140.603 165.584 140.535 166.232H143.558V163.782Z" fill="#93DEFB" fill-opacity="0.1"/>
<path d="M126.856 167.886C126.856 165.405 125.541 165.412 123.923 165.412C122.305 165.412 120.994 165.406 120.994 167.886H126.856Z" fill="#93DEFB" fill-opacity="0.1"/>
<path d="M141.606 149.756C141.577 150.087 141.633 150.419 141.771 150.73C141.908 151.041 142.123 151.324 142.4 151.559C142.678 151.793 143.013 151.975 143.381 152.09C143.75 152.206 144.143 152.254 144.535 152.23V147.279C144.143 147.255 143.749 147.303 143.38 147.419C143.012 147.535 142.677 147.717 142.399 147.952C142.121 148.187 141.906 148.469 141.769 148.781C141.632 149.092 141.577 149.425 141.606 149.756V149.756Z" fill="#93DEFB" fill-opacity="0.1"/>
<path d="M123.923 152.23C124.503 152.23 125.069 152.085 125.551 151.813C126.032 151.542 126.408 151.155 126.63 150.703C126.851 150.251 126.909 149.754 126.796 149.274C126.683 148.794 126.404 148.354 125.995 148.008C125.585 147.662 125.063 147.426 124.495 147.331C123.926 147.235 123.337 147.284 122.802 147.471C122.267 147.659 121.809 147.976 121.487 148.383C121.165 148.789 120.994 149.268 120.994 149.757C120.994 150.413 121.303 151.041 121.853 151.505C122.402 151.969 123.146 152.23 123.923 152.23Z" fill="#93DEFB" fill-opacity="0.1"/>
<path d="M114.15 160.481C114.73 160.481 115.296 160.336 115.778 160.064C116.259 159.792 116.635 159.406 116.857 158.954C117.078 158.502 117.136 158.005 117.023 157.525C116.91 157.045 116.631 156.604 116.222 156.259C115.812 155.913 115.29 155.677 114.722 155.582C114.153 155.486 113.564 155.535 113.029 155.722C112.494 155.91 112.036 156.227 111.714 156.633C111.393 157.04 111.221 157.518 111.221 158.008C111.221 158.664 111.529 159.293 112.079 159.757C112.628 160.221 113.373 160.481 114.15 160.481V160.481Z" fill="#93DEFB" fill-opacity="0.1"/>
<path d="M133.695 160.481C134.274 160.481 134.841 160.336 135.323 160.064C135.804 159.792 136.18 159.406 136.402 158.954C136.623 158.502 136.681 158.005 136.568 157.525C136.455 157.045 136.176 156.604 135.767 156.259C135.357 155.913 134.835 155.677 134.267 155.582C133.698 155.486 133.109 155.535 132.574 155.722C132.039 155.91 131.581 156.227 131.259 156.633C130.937 157.04 130.766 157.518 130.766 158.008C130.766 158.664 131.074 159.293 131.624 159.757C132.173 160.221 132.918 160.481 133.695 160.481V160.481Z" fill="#93DEFB" fill-opacity="0.1"/>
<path d="M114.15 143.977C114.73 143.977 115.296 143.832 115.778 143.56C116.259 143.288 116.635 142.902 116.857 142.45C117.078 141.998 117.136 141.5 117.023 141.021C116.91 140.541 116.631 140.1 116.222 139.754C115.812 139.408 115.29 139.173 114.722 139.077C114.153 138.982 113.564 139.031 113.029 139.218C112.494 139.405 112.036 139.722 111.714 140.129C111.393 140.536 111.221 141.014 111.221 141.503C111.221 141.828 111.296 142.15 111.444 142.45C111.591 142.75 111.807 143.023 112.079 143.252C112.351 143.482 112.674 143.664 113.029 143.788C113.385 143.913 113.765 143.977 114.15 143.977V143.977Z" fill="#93DEFB" fill-opacity="0.1"/>
<path d="M130.764 141.506C130.764 141.995 130.937 142.473 131.259 142.879C131.582 143.286 132.039 143.602 132.575 143.789C133.11 143.976 133.699 144.024 134.267 143.928C134.835 143.832 135.357 143.597 135.766 143.251C136.175 142.904 136.454 142.464 136.567 141.984C136.679 141.504 136.621 141.007 136.399 140.555C136.177 140.103 135.802 139.717 135.32 139.446C134.839 139.174 134.272 139.029 133.693 139.029C133.308 139.029 132.927 139.093 132.571 139.218C132.216 139.342 131.892 139.525 131.62 139.755C131.348 139.985 131.133 140.258 130.986 140.558C130.839 140.859 130.763 141.181 130.764 141.506Z" fill="#93DEFB" fill-opacity="0.1"/>
<path d="M103.4 163.782V166.232H107.307C107.307 166.232 107.32 163.782 103.4 163.782Z" fill="#93DEFB" fill-opacity="0.1"/>
<path d="M103.4 147.28V152.23C107.318 152.23 106.329 151.123 106.329 149.757C106.329 148.39 107.32 147.28 103.4 147.28Z" fill="#93DEFB" fill-opacity="0.1"/>
<path d="M114.15 172.036C113.571 172.037 113.005 172.183 112.524 172.455C112.043 172.727 111.668 173.114 111.447 173.566C111.225 174.018 111.168 174.515 111.281 174.994C111.395 175.474 111.674 175.914 112.084 176.26C112.494 176.606 113.016 176.841 113.584 176.936C114.152 177.031 114.741 176.982 115.276 176.795C115.811 176.608 116.268 176.29 116.59 175.884C116.912 175.477 117.084 174.999 117.084 174.51C117.084 174.185 117.008 173.863 116.86 173.563C116.713 173.262 116.497 172.989 116.224 172.76C115.952 172.53 115.628 172.348 115.273 172.224C114.917 172.1 114.535 172.036 114.15 172.036V172.036Z" fill="#93DEFB" fill-opacity="0.1"/>
<path d="M133.695 172.036C133.116 172.036 132.549 172.181 132.068 172.453C131.586 172.725 131.21 173.111 130.989 173.563C130.767 174.015 130.709 174.513 130.822 174.992C130.935 175.472 131.214 175.913 131.624 176.259C132.033 176.605 132.555 176.84 133.124 176.936C133.692 177.031 134.281 176.982 134.816 176.795C135.351 176.608 135.809 176.291 136.131 175.884C136.453 175.477 136.625 174.999 136.625 174.51C136.625 173.854 136.316 173.225 135.767 172.761C135.217 172.297 134.472 172.036 133.695 172.036V172.036Z" fill="#93DEFB" fill-opacity="0.1"/>
<path d="M143.558 168.738V166.232H140.535C140.535 167.059 141.599 168.738 143.558 168.738Z" fill="#93DEFB" fill-opacity="0.1"/>
<path d="M123.923 170.363C125.541 170.363 126.856 167.886 126.856 167.886H120.991C120.991 167.886 122.302 170.363 123.923 170.363Z" fill="#93DEFB" fill-opacity="0.1"/>
<path d="M103.4 168.738C107.318 168.738 107.307 167.889 107.307 166.235H103.4V168.738Z" fill="#93DEFB" fill-opacity="0.1"/>
<path d="M104.381 163.782C102.422 163.782 101.447 165.405 101.447 166.232H104.381V163.782Z" fill="#93DEFB" fill-opacity="0.1"/>
<path d="M84.8338 165.41C83.2149 165.41 81.9043 165.405 81.9043 167.884H87.7671C87.7652 165.405 86.4546 165.41 84.8338 165.41Z" fill="#93DEFB" fill-opacity="0.1"/>
<path d="M100.471 149.756C100.471 151.123 103.401 152.23 103.401 152.23V147.279C103.401 147.279 100.471 148.388 100.471 149.756Z" fill="#93DEFB" fill-opacity="0.1"/>
<path d="M84.8338 152.23C85.4132 152.23 85.9796 152.085 86.4613 151.813C86.9431 151.542 87.3186 151.155 87.5403 150.703C87.762 150.251 87.82 149.754 87.707 149.274C87.594 148.794 87.315 148.354 86.9053 148.008C86.4956 147.662 85.9736 147.426 85.4053 147.331C84.837 147.235 84.248 147.284 83.7127 147.471C83.1774 147.659 82.7199 147.976 82.398 148.383C82.0761 148.789 81.9043 149.268 81.9043 149.757C81.9043 150.413 82.2129 151.042 82.7623 151.506C83.3117 151.97 84.0568 152.23 84.8338 152.23V152.23Z" fill="#93DEFB" fill-opacity="0.1"/>
<path d="M75.0608 160.481C75.6402 160.481 76.2066 160.336 76.6884 160.064C77.1701 159.792 77.5456 159.406 77.7673 158.954C77.989 158.502 78.0471 158.005 77.934 157.525C77.821 157.045 77.542 156.604 77.1323 156.259C76.7226 155.913 76.2006 155.677 75.6323 155.582C75.0641 155.486 74.475 155.535 73.9398 155.722C73.4045 155.91 72.947 156.227 72.6251 156.633C72.3032 157.04 72.1313 157.518 72.1313 158.008C72.1325 158.663 72.4415 159.292 72.9907 159.756C73.5398 160.219 74.2842 160.48 75.0608 160.481V160.481Z" fill="#93DEFB" fill-opacity="0.1"/>
<path d="M94.6072 160.481C95.1866 160.481 95.753 160.336 96.2348 160.064C96.7165 159.792 97.092 159.406 97.3137 158.954C97.5354 158.502 97.5935 158.005 97.4804 157.525C97.3674 157.045 97.0884 156.604 96.6787 156.259C96.269 155.913 95.747 155.677 95.1787 155.582C94.6105 155.486 94.0214 155.535 93.4861 155.722C92.9508 155.91 92.4933 156.227 92.1714 156.633C91.8495 157.04 91.6777 157.518 91.6777 158.008C91.6786 158.663 91.9875 159.292 92.5367 159.756C93.0859 160.22 93.8305 160.48 94.6072 160.481V160.481Z" fill="#93DEFB" fill-opacity="0.1"/>
<path d="M75.0608 143.977C75.6402 143.977 76.2066 143.832 76.6884 143.56C77.1701 143.288 77.5456 142.902 77.7673 142.45C77.989 141.998 78.0471 141.5 77.934 141.021C77.821 140.541 77.542 140.1 77.1323 139.754C76.7226 139.408 76.2006 139.173 75.6323 139.077C75.0641 138.982 74.475 139.031 73.9398 139.218C73.4045 139.405 72.947 139.722 72.6251 140.129C72.3032 140.536 72.1313 141.014 72.1313 141.503C72.1313 141.828 72.2071 142.15 72.3543 142.45C72.5015 142.75 72.7173 143.023 72.9894 143.252C73.2614 143.482 73.5843 143.664 73.9398 143.788C74.2952 143.913 74.6761 143.977 75.0608 143.977V143.977Z" fill="#93DEFB" fill-opacity="0.1"/>
<path d="M94.6072 143.977C95.1866 143.977 95.753 143.832 96.2348 143.56C96.7165 143.288 97.092 142.902 97.3137 142.45C97.5354 141.998 97.5935 141.5 97.4804 141.021C97.3674 140.541 97.0884 140.1 96.6787 139.754C96.269 139.408 95.747 139.173 95.1787 139.077C94.6105 138.982 94.0214 139.031 93.4861 139.218C92.9508 139.405 92.4933 139.722 92.1714 140.129C91.8495 140.536 91.6777 141.014 91.6777 141.503C91.6777 141.828 91.7535 142.15 91.9007 142.45C92.0479 142.75 92.2637 143.023 92.5358 143.252C92.8078 143.482 93.1307 143.664 93.4861 143.788C93.8416 143.913 94.2225 143.977 94.6072 143.977V143.977Z" fill="#93DEFB" fill-opacity="0.1"/>
<path d="M65.2026 163.782V166.232H68.2181C68.2181 166.232 68.1429 163.782 65.2026 163.782Z" fill="#93DEFB" fill-opacity="0.1"/>
<path d="M68.1321 149.756C68.1321 148.388 66.1821 147.283 65.2026 147.283V152.233C66.184 152.23 68.1321 151.123 68.1321 149.756Z" fill="#93DEFB" fill-opacity="0.1"/>
<path d="M75.0609 172.036C74.4817 172.037 73.9157 172.183 73.4344 172.455C72.9532 172.727 72.5783 173.114 72.3572 173.566C72.136 174.018 72.0785 174.515 72.192 174.994C72.3055 175.474 72.5848 175.914 72.9946 176.26C73.4045 176.606 73.9265 176.841 74.4946 176.936C75.0628 177.031 75.6516 176.982 76.1867 176.795C76.7218 176.608 77.1791 176.29 77.5008 175.884C77.8225 175.477 77.9942 174.999 77.9942 174.51C77.9942 174.185 77.9183 173.863 77.7709 173.563C77.6234 173.262 77.4073 172.989 77.1349 172.76C76.8624 172.53 76.539 172.348 76.1832 172.224C75.8273 172.1 75.4459 172.036 75.0609 172.036V172.036Z" fill="#93DEFB" fill-opacity="0.1"/>
<path d="M94.6072 172.036C94.0278 172.036 93.4614 172.181 92.9797 172.453C92.4979 172.725 92.1224 173.111 91.9007 173.563C91.679 174.015 91.621 174.513 91.734 174.992C91.8471 175.472 92.1261 175.913 92.5358 176.259C92.9455 176.605 93.4674 176.84 94.0357 176.936C94.604 177.031 95.193 176.982 95.7283 176.795C96.2636 176.608 96.7211 176.291 97.043 175.884C97.3649 175.477 97.5367 174.999 97.5367 174.51C97.5367 173.854 97.2281 173.225 96.6787 172.761C96.1293 172.297 95.3842 172.036 94.6072 172.036V172.036Z" fill="#93DEFB" fill-opacity="0.1"/>
<path d="M104.381 166.232H101.447C101.447 167.059 102.422 168.735 104.381 168.735V166.232Z" fill="#93DEFB" fill-opacity="0.1"/>
<path d="M84.8337 170.363C86.4538 170.363 87.7632 167.886 87.7632 167.886H81.9004C81.9004 167.886 83.2148 170.363 84.8337 170.363Z" fill="#93DEFB" fill-opacity="0.1"/>
<path d="M65.2026 168.738C68.141 168.738 68.2181 167.889 68.2181 166.235H65.2026V168.738Z" fill="#93DEFB" fill-opacity="0.1"/>
<path d="M65.2043 163.782C63.2453 163.782 62.3569 165.405 62.3569 166.232H65.2043V163.782Z" fill="#93DEFB" fill-opacity="0.1"/>
<path d="M45.743 165.41C44.1247 165.41 42.8135 165.405 42.8135 167.884H48.6782C48.6763 165.405 47.3612 165.41 45.743 165.41Z" fill="#93DEFB" fill-opacity="0.1"/>
<path d="M65.2043 152.23V147.28C64.4269 147.28 63.6813 147.541 63.1315 148.005C62.5818 148.469 62.2729 149.099 62.2729 149.755C62.2729 150.412 62.5818 151.041 63.1315 151.505C63.6813 151.97 64.4269 152.23 65.2043 152.23Z" fill="#93DEFB" fill-opacity="0.1"/>
<path d="M45.743 152.23C46.3224 152.23 46.8888 152.085 47.3705 151.813C47.8523 151.542 48.2277 151.155 48.4495 150.703C48.6712 150.251 48.7292 149.754 48.6162 149.274C48.5032 148.794 48.2241 148.354 47.8144 148.008C47.4047 147.662 46.8828 147.426 46.3145 147.331C45.7462 147.235 45.1572 147.284 44.6219 147.471C44.0866 147.659 43.6291 147.976 43.3072 148.383C42.9853 148.789 42.8135 149.268 42.8135 149.757C42.8143 150.413 43.1232 151.041 43.6724 151.505C44.2216 151.969 44.9663 152.23 45.743 152.23Z" fill="#93DEFB" fill-opacity="0.1"/>
<path d="M35.9719 155.531C35.3925 155.531 34.8262 155.676 34.3444 155.948C33.8627 156.22 33.4872 156.606 33.2655 157.058C33.0438 157.51 32.9857 158.007 33.0988 158.487C33.2118 158.967 33.4908 159.408 33.9005 159.753C34.3102 160.099 34.8322 160.335 35.4004 160.43C35.9687 160.526 36.5577 160.477 37.093 160.29C37.6283 160.102 38.0858 159.785 38.4077 159.379C38.7296 158.972 38.9014 158.494 38.9014 158.004C38.9014 157.348 38.5928 156.719 38.0434 156.255C37.494 155.791 36.7489 155.531 35.9719 155.531V155.531Z" fill="#93DEFB" fill-opacity="0.1"/>
<path d="M55.5183 160.481C56.0975 160.481 56.6635 160.335 57.1448 160.063C57.626 159.791 58.0009 159.404 58.222 158.952C58.4432 158.5 58.5006 158.003 58.3872 157.523C58.2737 157.043 57.9944 156.603 57.5846 156.257C57.1747 155.912 56.6527 155.677 56.0846 155.581C55.5164 155.486 54.9276 155.535 54.3925 155.723C53.8574 155.91 53.4001 156.227 53.0784 156.634C52.7567 157.04 52.585 157.519 52.585 158.008C52.585 158.333 52.6609 158.655 52.8083 158.955C52.9558 159.255 53.1719 159.528 53.4443 159.758C53.7168 159.988 54.0402 160.17 54.396 160.294C54.7519 160.418 55.1332 160.482 55.5183 160.481V160.481Z" fill="#93DEFB" fill-opacity="0.1"/>
<path d="M35.9719 139.029C35.3927 139.029 34.8265 139.174 34.3448 139.446C33.8631 139.717 33.4877 140.103 33.2658 140.555C33.044 141.007 32.9858 141.504 33.0985 141.984C33.2112 142.464 33.4898 142.904 33.8992 143.251C34.3085 143.597 34.8301 143.832 35.3981 143.928C35.9661 144.024 36.555 143.976 37.0904 143.789C37.6257 143.602 38.0835 143.286 38.4059 142.879C38.7282 142.473 38.9007 141.995 38.9014 141.506C38.9019 141.181 38.8265 140.859 38.6795 140.558C38.5325 140.258 38.3168 139.985 38.0448 139.755C37.7727 139.525 37.4496 139.342 37.0939 139.218C36.7382 139.093 36.357 139.029 35.9719 139.029V139.029Z" fill="#93DEFB" fill-opacity="0.1"/>
<path d="M55.5183 143.977C56.0975 143.976 56.6635 143.83 57.1448 143.558C57.626 143.286 58.0009 142.9 58.222 142.448C58.4432 141.996 58.5006 141.498 58.3872 141.019C58.2737 140.539 57.9944 140.099 57.5846 139.753C57.1747 139.407 56.6527 139.172 56.0846 139.077C55.5164 138.982 54.9276 139.031 54.3925 139.218C53.8574 139.406 53.4001 139.723 53.0784 140.129C52.7567 140.536 52.585 141.014 52.585 141.503C52.585 141.828 52.6609 142.15 52.8083 142.451C52.9558 142.751 53.1719 143.024 53.4443 143.253C53.7168 143.483 54.0402 143.665 54.396 143.789C54.7519 143.914 55.1332 143.977 55.5183 143.977V143.977Z" fill="#93DEFB" fill-opacity="0.1"/>
<path d="M26.0259 163.782V166.232H29.1286C29.1286 166.232 28.9662 163.782 26.0259 163.782Z" fill="#93DEFB" fill-opacity="0.1"/>
<path d="M27.0054 147.28V152.23C27.7828 152.23 28.5284 151.97 29.0782 151.505C29.6279 151.041 29.9368 150.412 29.9368 149.755C29.9368 149.099 29.6279 148.469 29.0782 148.005C28.5284 147.541 27.7828 147.28 27.0054 147.28Z" fill="#93DEFB" fill-opacity="0.1"/>
<path d="M35.9719 172.036C35.3925 172.036 34.8262 172.181 34.3444 172.453C33.8627 172.725 33.4872 173.111 33.2655 173.563C33.0438 174.015 32.9857 174.513 33.0988 174.992C33.2118 175.472 33.4908 175.913 33.9005 176.259C34.3102 176.605 34.8322 176.84 35.4004 176.936C35.9687 177.031 36.5577 176.982 37.093 176.795C37.6283 176.608 38.0858 176.291 38.4077 175.884C38.7296 175.477 38.9014 174.999 38.9014 174.51C38.9014 173.854 38.5928 173.225 38.0434 172.761C37.494 172.297 36.7489 172.036 35.9719 172.036V172.036Z" fill="#93DEFB" fill-opacity="0.1"/>
<path d="M55.5179 172.036C54.9385 172.036 54.3721 172.181 53.8903 172.453C53.4086 172.725 53.0331 173.111 52.8114 173.563C52.5896 174.015 52.5316 174.513 52.6447 174.992C52.7577 175.472 53.0367 175.913 53.4464 176.259C53.8561 176.605 54.3781 176.84 54.9464 176.936C55.5146 177.031 56.1036 176.982 56.6389 176.795C57.1742 176.608 57.6317 176.291 57.9536 175.884C58.2755 175.477 58.4473 174.999 58.4473 174.51C58.4473 174.185 58.3716 173.863 58.2244 173.563C58.0771 173.263 57.8614 172.991 57.5893 172.761C57.3173 172.531 56.9943 172.349 56.6389 172.225C56.2835 172.1 55.9026 172.036 55.5179 172.036V172.036Z" fill="#93DEFB" fill-opacity="0.1"/>
<path d="M65.2047 166.232H62.3599C62.3599 167.059 63.2483 168.735 65.2072 168.735L65.2047 166.232Z" fill="#93DEFB" fill-opacity="0.1"/>
<path d="M45.7429 170.363C47.3611 170.363 48.6762 167.886 48.6762 167.886H42.8115C42.8115 167.886 44.1234 170.363 45.7429 170.363Z" fill="#93DEFB" fill-opacity="0.1"/>
<path d="M26.0259 168.738C28.9643 168.738 29.1286 167.889 29.1286 166.235H26.0259V168.738Z" fill="#93DEFB" fill-opacity="0.1"/>
<path d="M26.0271 163.782C24.0682 163.782 23.2651 165.405 23.2651 166.232H26.0271V163.782Z" fill="#93DEFB" fill-opacity="0.1"/>
<path d="M6.65507 165.41C5.03494 165.41 3.72559 165.405 3.72559 167.884H9.58839C9.58711 165.405 8.27202 165.41 6.65507 165.41Z" fill="#93DEFB" fill-opacity="0.1"/>
<path d="M24.0757 149.756C24.0757 151.123 24.0687 152.23 27.0052 152.23V147.279C24.0693 147.28 24.0757 148.388 24.0757 149.756Z" fill="#93DEFB" fill-opacity="0.1"/>
<path d="M6.65507 147.28C6.07567 147.28 5.50928 147.425 5.02752 147.697C4.54577 147.969 4.1703 148.355 3.94857 148.807C3.72685 149.259 3.66884 149.756 3.78188 150.236C3.89491 150.716 4.17391 151.157 4.58361 151.503C4.99331 151.848 5.5153 152.084 6.08356 152.18C6.65183 152.275 7.24084 152.226 7.77613 152.039C8.31143 151.852 8.76895 151.535 9.09085 151.128C9.41275 150.721 9.58456 150.243 9.58456 149.754C9.58456 149.429 9.50878 149.107 9.36156 148.807C9.21434 148.507 8.99855 148.234 8.72652 148.004C8.45449 147.775 8.13155 147.593 7.77613 147.468C7.42071 147.344 7.03977 147.28 6.65507 147.28V147.28Z" fill="#93DEFB" fill-opacity="0.1"/>
<path d="M16.427 155.531C15.8476 155.531 15.2813 155.676 14.7995 155.948C14.3178 156.22 13.9423 156.606 13.7205 157.058C13.4988 157.51 13.4408 158.007 13.5539 158.487C13.6669 158.967 13.9459 159.408 14.3556 159.753C14.7653 160.099 15.2873 160.335 15.8555 160.43C16.4238 160.526 17.0128 160.477 17.5481 160.29C18.0834 160.102 18.5409 159.785 18.8628 159.379C19.1847 158.972 19.3565 158.494 19.3565 158.004C19.3565 157.68 19.2808 157.358 19.1335 157.058C18.9863 156.758 18.7705 156.485 18.4985 156.255C18.2265 156.026 17.9035 155.843 17.5481 155.719C17.1927 155.595 16.8117 155.531 16.427 155.531V155.531Z" fill="#93DEFB" fill-opacity="0.1"/>
<path d="M16.4275 139.029C15.8483 139.029 15.2821 139.174 14.8004 139.446C14.3187 139.717 13.9432 140.103 13.7214 140.555C13.4996 141.007 13.4413 141.504 13.5541 141.984C13.6668 142.464 13.9454 142.904 14.3547 143.251C14.764 143.597 15.2857 143.832 15.8537 143.928C16.4217 144.024 17.0106 143.976 17.5459 143.789C18.0813 143.602 18.5391 143.286 18.8614 142.879C19.1838 142.473 19.3562 141.995 19.357 141.506C19.3575 141.181 19.2821 140.859 19.1351 140.558C18.9881 140.258 18.7724 139.985 18.5003 139.755C18.2283 139.525 17.9051 139.342 17.5495 139.218C17.1938 139.093 16.8125 139.029 16.4275 139.029V139.029Z" fill="#93DEFB" fill-opacity="0.1"/>
<path d="M16.427 172.036C15.8476 172.036 15.2813 172.181 14.7995 172.453C14.3178 172.725 13.9423 173.111 13.7205 173.563C13.4988 174.015 13.4408 174.513 13.5539 174.992C13.6669 175.472 13.9459 175.913 14.3556 176.259C14.7653 176.605 15.2873 176.84 15.8555 176.936C16.4238 177.031 17.0128 176.982 17.5481 176.795C18.0834 176.608 18.5409 176.291 18.8628 175.884C19.1847 175.477 19.3565 174.999 19.3565 174.51C19.3565 174.185 19.2808 173.863 19.1335 173.563C18.9863 173.263 18.7705 172.991 18.4985 172.761C18.2265 172.531 17.9035 172.349 17.5481 172.225C17.1927 172.1 16.8117 172.036 16.427 172.036V172.036Z" fill="#93DEFB" fill-opacity="0.1"/>
<path d="M26.0271 166.232H23.2651C23.2651 167.059 24.0682 168.735 26.0271 168.735V166.232Z" fill="#93DEFB" fill-opacity="0.1"/>
<path d="M6.65449 170.363C8.27143 170.363 9.58397 167.886 9.58397 167.886H3.72119C3.72119 167.886 5.03436 170.363 6.65449 170.363Z" fill="#93DEFB" fill-opacity="0.1"/>
<defs>
<linearGradient id="paint0_linear_0_1" x1="36.3179" y1="296.359" x2="539.134" y2="296.359" gradientUnits="userSpaceOnUse">
<stop stop-color="#93DEFB"/>
<stop offset="0.651" stop-color="#EBADF8"/>
<stop offset="0.998" stop-color="#C7F2E3"/>
</linearGradient>
<linearGradient id="paint1_linear_0_1" x1="-344.597" y1="1491.99" x2="75.4176" y2="1491.99" gradientUnits="userSpaceOnUse">
<stop stop-color="#93DEFB"/>
<stop offset="0.651" stop-color="#EBADF8"/>
<stop offset="0.998" stop-color="#C7F2E3"/>
</linearGradient>
</defs>
</svg>
