<svg width="281" height="173" viewBox="0 0 281 173" fill="none" xmlns="http://www.w3.org/2000/svg">
<rect width="281" height="173" fill="#E5E5E5"/>
<rect width="1440" height="9160" transform="translate(-892 -120)" fill="white"/>
<path d="M263.458 173H17.5424C7.88603 173 0 166.077 0 157.6V15.3998C0 6.92283 7.88603 0 17.5424 0H263.458C273.114 0 281 6.92283 281 15.3998V157.53C281 166.077 273.114 173 263.458 173Z" fill="#F2F6FB"/>
<path d="M73 87C84.0457 87 93 78.0457 93 67C93 55.9543 84.0457 47 73 47C61.9543 47 53 55.9543 53 67C53 78.0457 61.9543 87 73 87Z" fill="#A2A5A4"/>
<path d="M127.21 87C138.256 87 147.21 78.0457 147.21 67C147.21 55.9543 138.256 47 127.21 47C116.164 47 107.21 55.9543 107.21 67C107.21 78.0457 116.164 87 127.21 87Z" fill="#A2A5A4"/>
<path d="M181.419 87C192.465 87 201.419 78.0457 201.419 67C201.419 55.9543 192.465 47 181.419 47C170.373 47 161.419 55.9543 161.419 67C161.419 78.0457 170.373 87 181.419 87Z" fill="#A339FF"/>
<path d="M203.234 151H56.0971C53.8343 151 52 152.588 52 154.547C52 156.506 53.8343 158.094 56.0971 158.094H203.234C205.496 158.094 207.331 156.506 207.331 154.547C207.331 152.588 205.496 151 203.234 151Z" fill="#E1E5F0"/>
<path d="M202.977 134H56.3531C53.949 134 52 135.687 52 137.769C52 139.85 53.949 141.537 56.3531 141.537H202.977C205.382 141.537 207.331 139.85 207.331 137.769C207.331 135.687 205.382 134 202.977 134Z" fill="#E1E5F0"/>
<path d="M10 16.7539C10 11.367 15.0432 7 21.2708 7H263C269.224 7 274.27 11.3658 274.27 16.7539V26.5077H10V16.7539Z" fill="#E1E5F0"/>
<path d="M25.1548 20.7636C27.3639 20.7636 29.1548 18.9727 29.1548 16.7636C29.1548 14.5545 27.3639 12.7636 25.1548 12.7636C22.9456 12.7636 21.1548 14.5545 21.1548 16.7636C21.1548 18.9727 22.9456 20.7636 25.1548 20.7636Z" fill="#FF5645"/>
<path d="M41.3125 20.7636C43.5216 20.7636 45.3125 18.9727 45.3125 16.7636C45.3125 14.5545 43.5216 12.7636 41.3125 12.7636C39.1034 12.7636 37.3125 14.5545 37.3125 16.7636C37.3125 18.9727 39.1034 20.7636 41.3125 20.7636Z" fill="#FFCB3D"/>
<path d="M57.9932 20.7636C60.2023 20.7636 61.9932 18.9727 61.9932 16.7636C61.9932 14.5545 60.2023 12.7636 57.9932 12.7636C55.784 12.7636 53.9932 14.5545 53.9932 16.7636C53.9932 18.9727 55.784 20.7636 57.9932 20.7636Z" fill="#3ABF7C"/>
<path d="M71.214 107.06H72.278L76.338 117H74.994L73.818 114.088H69.646L68.484 117H67.14L71.214 107.06ZM73.538 113.108L71.746 108.516L69.898 113.108H73.538ZM80.4839 117.14C79.9332 117.14 79.4292 117.042 78.9719 116.846C78.5239 116.641 78.1319 116.361 77.7959 116.006C77.4692 115.651 77.2125 115.245 77.0259 114.788C76.8485 114.331 76.7599 113.845 76.7599 113.332C76.7599 112.641 76.9139 112.011 77.2219 111.442C77.5299 110.873 77.9639 110.42 78.5239 110.084C79.0839 109.739 79.7325 109.566 80.4699 109.566C81.1885 109.566 81.8139 109.729 82.3459 110.056C82.8872 110.373 83.2885 110.803 83.5499 111.344L82.3459 111.722C82.1592 111.377 81.8979 111.111 81.5619 110.924C81.2259 110.728 80.8525 110.63 80.4419 110.63C79.9939 110.63 79.5832 110.747 79.2099 110.98C78.8459 111.213 78.5565 111.535 78.3419 111.946C78.1272 112.347 78.0199 112.809 78.0199 113.332C78.0199 113.845 78.1272 114.312 78.3419 114.732C78.5659 115.143 78.8599 115.469 79.2239 115.712C79.5972 115.955 80.0079 116.076 80.4559 116.076C80.7452 116.076 81.0205 116.025 81.2819 115.922C81.5525 115.819 81.7859 115.684 81.9819 115.516C82.1872 115.339 82.3272 115.147 82.4019 114.942L83.6059 115.306C83.4565 115.661 83.2279 115.978 82.9199 116.258C82.6212 116.529 82.2619 116.743 81.8419 116.902C81.4312 117.061 80.9785 117.14 80.4839 117.14ZM88.7818 116.636C88.6791 116.683 88.5391 116.743 88.3618 116.818C88.1845 116.893 87.9791 116.958 87.7458 117.014C87.5125 117.07 87.2651 117.098 87.0038 117.098C86.7051 117.098 86.4298 117.047 86.1778 116.944C85.9258 116.832 85.7251 116.664 85.5758 116.44C85.4265 116.207 85.3518 115.917 85.3518 115.572V110.658H84.3578V109.692H85.3518V107.256H86.5838V109.692H88.2218V110.658H86.5838V115.194C86.6025 115.455 86.6911 115.651 86.8498 115.782C87.0085 115.903 87.1951 115.964 87.4098 115.964C87.6525 115.964 87.8765 115.922 88.0818 115.838C88.2871 115.754 88.4225 115.693 88.4878 115.656L88.7818 116.636ZM89.9237 117V109.692H91.1557V117H89.9237ZM89.9237 108.32V106.78H91.1557V108.32H89.9237ZM96.3423 117.14C95.7916 117.14 95.2923 117.042 94.8443 116.846C94.3963 116.641 94.0089 116.365 93.6823 116.02C93.3556 115.665 93.1036 115.259 92.9263 114.802C92.7489 114.345 92.6603 113.864 92.6603 113.36C92.6603 112.847 92.7489 112.361 92.9263 111.904C93.1036 111.447 93.3556 111.045 93.6823 110.7C94.0089 110.345 94.3963 110.07 94.8443 109.874C95.3016 109.669 95.8009 109.566 96.3423 109.566C96.8929 109.566 97.3923 109.669 97.8403 109.874C98.2883 110.07 98.6756 110.345 99.0023 110.7C99.3383 111.045 99.5949 111.447 99.7723 111.904C99.9496 112.361 100.038 112.847 100.038 113.36C100.038 113.864 99.9496 114.345 99.7723 114.802C99.5949 115.259 99.3429 115.665 99.0163 116.02C98.6896 116.365 98.2976 116.641 97.8403 116.846C97.3923 117.042 96.8929 117.14 96.3423 117.14ZM93.9203 113.374C93.9203 113.878 94.0276 114.335 94.2423 114.746C94.4663 115.157 94.7603 115.483 95.1243 115.726C95.4883 115.959 95.8943 116.076 96.3423 116.076C96.7903 116.076 97.1963 115.955 97.5603 115.712C97.9336 115.469 98.2276 115.143 98.4423 114.732C98.6663 114.312 98.7783 113.85 98.7783 113.346C98.7783 112.842 98.6663 112.385 98.4423 111.974C98.2276 111.563 97.9336 111.237 97.5603 110.994C97.1963 110.751 96.7903 110.63 96.3423 110.63C95.8943 110.63 95.4883 110.756 95.1243 111.008C94.7603 111.251 94.4663 111.577 94.2423 111.988C94.0276 112.399 93.9203 112.861 93.9203 113.374ZM107.873 117H106.641V112.912C106.641 112.137 106.52 111.573 106.277 111.218C106.044 110.854 105.684 110.672 105.199 110.672C104.863 110.672 104.527 110.756 104.191 110.924C103.864 111.092 103.57 111.321 103.309 111.61C103.057 111.89 102.875 112.217 102.763 112.59V117H101.531V109.692H102.651V111.26C102.847 110.915 103.099 110.616 103.407 110.364C103.715 110.112 104.065 109.916 104.457 109.776C104.849 109.636 105.26 109.566 105.689 109.566C106.109 109.566 106.459 109.645 106.739 109.804C107.028 109.953 107.252 110.168 107.411 110.448C107.579 110.719 107.696 111.041 107.761 111.414C107.836 111.787 107.873 112.193 107.873 112.632V117ZM109.215 114.886C109.215 114.419 109.346 114.018 109.607 113.682C109.878 113.337 110.246 113.071 110.713 112.884C111.18 112.697 111.721 112.604 112.337 112.604C112.664 112.604 113.009 112.632 113.373 112.688C113.737 112.735 114.059 112.809 114.339 112.912V112.38C114.339 111.82 114.171 111.381 113.835 111.064C113.499 110.737 113.023 110.574 112.407 110.574C112.006 110.574 111.618 110.649 111.245 110.798C110.881 110.938 110.494 111.143 110.083 111.414L109.635 110.546C110.111 110.219 110.587 109.977 111.063 109.818C111.539 109.65 112.034 109.566 112.547 109.566C113.48 109.566 114.218 109.827 114.759 110.35C115.3 110.863 115.571 111.582 115.571 112.506V115.6C115.571 115.749 115.599 115.861 115.655 115.936C115.72 116.001 115.823 116.039 115.963 116.048V117C115.842 117.019 115.734 117.033 115.641 117.042C115.557 117.051 115.487 117.056 115.431 117.056C115.142 117.056 114.922 116.977 114.773 116.818C114.633 116.659 114.554 116.491 114.535 116.314L114.507 115.852C114.19 116.263 113.774 116.58 113.261 116.804C112.748 117.028 112.239 117.14 111.735 117.14C111.25 117.14 110.816 117.042 110.433 116.846C110.05 116.641 109.752 116.37 109.537 116.034C109.322 115.689 109.215 115.306 109.215 114.886ZM113.975 115.404C114.087 115.273 114.176 115.143 114.241 115.012C114.306 114.872 114.339 114.755 114.339 114.662V113.752C114.05 113.64 113.746 113.556 113.429 113.5C113.112 113.435 112.799 113.402 112.491 113.402C111.866 113.402 111.357 113.528 110.965 113.78C110.582 114.023 110.391 114.359 110.391 114.788C110.391 115.021 110.452 115.25 110.573 115.474C110.704 115.689 110.89 115.866 111.133 116.006C111.385 116.146 111.693 116.216 112.057 116.216C112.44 116.216 112.804 116.141 113.149 115.992C113.494 115.833 113.77 115.637 113.975 115.404ZM121.293 117.14C120.724 117.14 120.206 117 119.739 116.72C119.272 116.44 118.904 116.076 118.633 115.628V117H117.541V106.78H118.773V111.148C119.081 110.672 119.459 110.289 119.907 110C120.355 109.711 120.878 109.566 121.475 109.566C121.979 109.566 122.432 109.673 122.833 109.888C123.234 110.093 123.575 110.378 123.855 110.742C124.144 111.097 124.364 111.503 124.513 111.96C124.672 112.408 124.751 112.879 124.751 113.374C124.751 113.887 124.662 114.373 124.485 114.83C124.317 115.278 124.074 115.679 123.757 116.034C123.44 116.379 123.071 116.65 122.651 116.846C122.24 117.042 121.788 117.14 121.293 117.14ZM120.985 116.076C121.349 116.076 121.685 116.001 121.993 115.852C122.301 115.703 122.567 115.502 122.791 115.25C123.015 114.998 123.188 114.709 123.309 114.382C123.43 114.055 123.491 113.719 123.491 113.374C123.491 112.898 123.388 112.45 123.183 112.03C122.987 111.61 122.707 111.274 122.343 111.022C121.988 110.761 121.573 110.63 121.097 110.63C120.752 110.63 120.43 110.709 120.131 110.868C119.832 111.027 119.566 111.237 119.333 111.498C119.109 111.75 118.922 112.03 118.773 112.338V114.452C118.82 114.685 118.918 114.9 119.067 115.096C119.216 115.292 119.398 115.465 119.613 115.614C119.828 115.754 120.052 115.866 120.285 115.95C120.528 116.034 120.761 116.076 120.985 116.076ZM126.292 106.78H127.524V115.11C127.524 115.511 127.58 115.759 127.692 115.852C127.804 115.945 127.939 115.992 128.098 115.992C128.294 115.992 128.48 115.973 128.658 115.936C128.835 115.889 128.984 115.843 129.106 115.796L129.302 116.804C129.096 116.888 128.854 116.958 128.574 117.014C128.294 117.07 128.046 117.098 127.832 117.098C127.356 117.098 126.978 116.963 126.698 116.692C126.427 116.421 126.292 116.043 126.292 115.558V106.78ZM133.503 117.14C132.953 117.14 132.449 117.042 131.991 116.846C131.543 116.641 131.151 116.365 130.815 116.02C130.489 115.665 130.232 115.259 130.045 114.802C129.868 114.345 129.779 113.859 129.779 113.346C129.779 112.655 129.938 112.025 130.255 111.456C130.573 110.887 131.011 110.429 131.571 110.084C132.141 109.739 132.789 109.566 133.517 109.566C134.255 109.566 134.894 109.743 135.435 110.098C135.986 110.443 136.411 110.901 136.709 111.47C137.017 112.03 137.171 112.637 137.171 113.29C137.171 113.383 137.167 113.477 137.157 113.57C137.157 113.654 137.153 113.719 137.143 113.766H131.081C131.119 114.242 131.249 114.667 131.473 115.04C131.707 115.404 132.005 115.693 132.369 115.908C132.733 116.113 133.125 116.216 133.545 116.216C133.993 116.216 134.413 116.104 134.805 115.88C135.207 115.656 135.482 115.362 135.631 114.998L136.695 115.292C136.537 115.647 136.299 115.964 135.981 116.244C135.673 116.524 135.305 116.743 134.875 116.902C134.455 117.061 133.998 117.14 133.503 117.14ZM131.039 112.912H136.023C135.986 112.436 135.851 112.016 135.617 111.652C135.384 111.288 135.085 111.003 134.721 110.798C134.357 110.593 133.956 110.49 133.517 110.49C133.088 110.49 132.691 110.593 132.327 110.798C131.963 111.003 131.665 111.288 131.431 111.652C131.207 112.016 131.077 112.436 131.039 112.912ZM142.082 117V109.692H143.314V117H142.082ZM142.082 108.32V106.78H143.314V108.32H142.082ZM151.65 117H150.418V112.912C150.418 112.137 150.297 111.573 150.054 111.218C149.821 110.854 149.462 110.672 148.976 110.672C148.64 110.672 148.304 110.756 147.968 110.924C147.642 111.092 147.348 111.321 147.086 111.61C146.834 111.89 146.652 112.217 146.54 112.59V117H145.308V109.692H146.428V111.26C146.624 110.915 146.876 110.616 147.184 110.364C147.492 110.112 147.842 109.916 148.234 109.776C148.626 109.636 149.037 109.566 149.466 109.566C149.886 109.566 150.236 109.645 150.516 109.804C150.806 109.953 151.03 110.168 151.188 110.448C151.356 110.719 151.473 111.041 151.538 111.414C151.613 111.787 151.65 112.193 151.65 112.632V117ZM156.072 117.14C155.466 117.14 154.896 117.042 154.364 116.846C153.832 116.641 153.375 116.337 152.992 115.936L153.468 115.068C153.888 115.46 154.308 115.74 154.728 115.908C155.148 116.076 155.578 116.16 156.016 116.16C156.52 116.16 156.931 116.067 157.248 115.88C157.566 115.684 157.724 115.399 157.724 115.026C157.724 114.755 157.64 114.555 157.472 114.424C157.314 114.293 157.085 114.186 156.786 114.102C156.488 114.009 156.133 113.906 155.722 113.794C155.218 113.645 154.794 113.486 154.448 113.318C154.103 113.15 153.842 112.94 153.664 112.688C153.487 112.436 153.398 112.119 153.398 111.736C153.398 111.269 153.52 110.877 153.762 110.56C154.005 110.233 154.336 109.986 154.756 109.818C155.186 109.65 155.671 109.566 156.212 109.566C156.754 109.566 157.244 109.65 157.682 109.818C158.121 109.986 158.499 110.233 158.816 110.56L158.256 111.414C157.967 111.115 157.65 110.896 157.304 110.756C156.959 110.607 156.572 110.532 156.142 110.532C155.89 110.532 155.643 110.565 155.4 110.63C155.158 110.686 154.957 110.793 154.798 110.952C154.64 111.101 154.56 111.316 154.56 111.596C154.56 111.829 154.621 112.016 154.742 112.156C154.873 112.287 155.06 112.399 155.302 112.492C155.554 112.585 155.858 112.688 156.212 112.8C156.763 112.959 157.239 113.117 157.64 113.276C158.051 113.435 158.368 113.64 158.592 113.892C158.816 114.144 158.928 114.494 158.928 114.942C158.928 115.633 158.667 116.174 158.144 116.566C157.622 116.949 156.931 117.14 156.072 117.14ZM160.402 117V109.692H161.634V117H160.402ZM160.402 108.32V106.78H161.634V108.32H160.402ZM166.541 117.084C166.046 117.084 165.589 116.986 165.169 116.79C164.758 116.585 164.403 116.309 164.105 115.964C163.806 115.609 163.573 115.208 163.405 114.76C163.246 114.312 163.167 113.845 163.167 113.36C163.167 112.847 163.246 112.361 163.405 111.904C163.573 111.447 163.806 111.045 164.105 110.7C164.413 110.345 164.772 110.07 165.183 109.874C165.593 109.669 166.051 109.566 166.555 109.566C167.161 109.566 167.689 109.715 168.137 110.014C168.594 110.313 168.977 110.691 169.285 111.148V109.692H170.377V116.916C170.377 117.607 170.209 118.19 169.873 118.666C169.546 119.142 169.098 119.501 168.529 119.744C167.969 119.996 167.343 120.122 166.653 120.122C165.831 120.122 165.159 119.977 164.637 119.688C164.114 119.399 163.68 119.007 163.335 118.512L164.049 117.882C164.338 118.311 164.711 118.633 165.169 118.848C165.635 119.063 166.13 119.17 166.653 119.17C167.101 119.17 167.511 119.086 167.885 118.918C168.267 118.759 168.571 118.512 168.795 118.176C169.028 117.84 169.145 117.42 169.145 116.916V115.628C168.874 116.076 168.501 116.431 168.025 116.692C167.558 116.953 167.063 117.084 166.541 117.084ZM166.919 116.076C167.18 116.076 167.432 116.029 167.675 115.936C167.917 115.843 168.141 115.721 168.347 115.572C168.552 115.413 168.725 115.236 168.865 115.04C169.005 114.844 169.098 114.643 169.145 114.438V112.338C169.014 112.002 168.827 111.708 168.585 111.456C168.342 111.195 168.067 110.994 167.759 110.854C167.451 110.705 167.133 110.63 166.807 110.63C166.433 110.63 166.097 110.709 165.799 110.868C165.509 111.027 165.262 111.241 165.057 111.512C164.851 111.773 164.693 112.067 164.581 112.394C164.469 112.721 164.413 113.052 164.413 113.388C164.413 113.752 164.478 114.097 164.609 114.424C164.739 114.741 164.917 115.026 165.141 115.278C165.365 115.53 165.631 115.726 165.939 115.866C166.247 116.006 166.573 116.076 166.919 116.076ZM178.707 117H177.475V112.912C177.475 112.165 177.34 111.605 177.069 111.232C176.808 110.859 176.43 110.672 175.935 110.672C175.618 110.672 175.296 110.756 174.969 110.924C174.652 111.092 174.372 111.321 174.129 111.61C173.886 111.89 173.709 112.217 173.597 112.59V117H172.365V106.78H173.597V111.26C173.886 110.737 174.278 110.327 174.773 110.028C175.277 109.72 175.818 109.566 176.397 109.566C176.836 109.566 177.2 109.645 177.489 109.804C177.788 109.953 178.026 110.168 178.203 110.448C178.38 110.728 178.506 111.055 178.581 111.428C178.665 111.792 178.707 112.193 178.707 112.632V117ZM184.335 116.636C184.232 116.683 184.092 116.743 183.915 116.818C183.737 116.893 183.532 116.958 183.299 117.014C183.065 117.07 182.818 117.098 182.557 117.098C182.258 117.098 181.983 117.047 181.731 116.944C181.479 116.832 181.278 116.664 181.129 116.44C180.979 116.207 180.905 115.917 180.905 115.572V110.658H179.911V109.692H180.905V107.256H182.137V109.692H183.775V110.658H182.137V115.194C182.155 115.455 182.244 115.651 182.403 115.782C182.561 115.903 182.748 115.964 182.963 115.964C183.205 115.964 183.429 115.922 183.635 115.838C183.84 115.754 183.975 115.693 184.041 115.656L184.335 116.636ZM187.982 117.14C187.376 117.14 186.806 117.042 186.274 116.846C185.742 116.641 185.285 116.337 184.902 115.936L185.378 115.068C185.798 115.46 186.218 115.74 186.638 115.908C187.058 116.076 187.488 116.16 187.926 116.16C188.43 116.16 188.841 116.067 189.158 115.88C189.476 115.684 189.634 115.399 189.634 115.026C189.634 114.755 189.55 114.555 189.382 114.424C189.224 114.293 188.995 114.186 188.696 114.102C188.398 114.009 188.043 113.906 187.632 113.794C187.128 113.645 186.704 113.486 186.358 113.318C186.013 113.15 185.752 112.94 185.574 112.688C185.397 112.436 185.308 112.119 185.308 111.736C185.308 111.269 185.43 110.877 185.672 110.56C185.915 110.233 186.246 109.986 186.666 109.818C187.096 109.65 187.581 109.566 188.122 109.566C188.664 109.566 189.154 109.65 189.592 109.818C190.031 109.986 190.409 110.233 190.726 110.56L190.166 111.414C189.877 111.115 189.56 110.896 189.214 110.756C188.869 110.607 188.482 110.532 188.052 110.532C187.8 110.532 187.553 110.565 187.31 110.63C187.068 110.686 186.867 110.793 186.708 110.952C186.55 111.101 186.47 111.316 186.47 111.596C186.47 111.829 186.531 112.016 186.652 112.156C186.783 112.287 186.97 112.399 187.212 112.492C187.464 112.585 187.768 112.688 188.122 112.8C188.673 112.959 189.149 113.117 189.55 113.276C189.961 113.435 190.278 113.64 190.502 113.892C190.726 114.144 190.838 114.494 190.838 114.942C190.838 115.633 190.577 116.174 190.054 116.566C189.532 116.949 188.841 117.14 187.982 117.14Z" fill="black"/>
<path d="M438.028 202.185C438.028 202.185 365.648 183.149 314.626 157.1C263.603 131.051 211.396 106.004 154.445 120.033C97.4948 134.063 92.744 173.132 76.1338 217.214C59.5236 261.296 -0.993806 358.48 70.1997 416.588C141.393 474.697 203.09 500.744 330.051 448.645C415.052 413.766 449.587 384.635 489.048 352.466C523.46 324.412 604.145 253.282 438.028 202.185Z" fill="url(#paint0_linear_0_1)" fill-opacity="0.05"/>
<path style="mix-blend-mode:multiply" opacity="0.3" d="M-14.5053 334.314C-14.5053 334.314 -61.5204 386.527 29.8133 440.641C121.147 494.756 283.844 508.18 334.936 420.245C386.029 332.311 413.604 306.536 338.655 234.744C263.705 162.951 40.9759 90.9784 27.62 172.015C14.2641 253.051 54.4312 269.886 -14.5053 334.314Z" fill="url(#paint1_linear_0_1)" fill-opacity="0.05"/>
<path d="M163.013 165.41C161.392 165.41 160.083 165.405 160.083 167.884H165.942C165.944 165.405 164.631 165.41 163.013 165.41Z" fill="#93DEFB" fill-opacity="0.1"/>
<path d="M160.082 149.756C160.082 150.245 160.253 150.724 160.575 151.13C160.897 151.537 161.355 151.854 161.89 152.041C162.425 152.229 163.014 152.278 163.583 152.182C164.151 152.087 164.673 151.851 165.082 151.505C165.492 151.159 165.771 150.719 165.884 150.239C165.997 149.759 165.939 149.262 165.718 148.81C165.496 148.358 165.12 147.971 164.639 147.7C164.157 147.428 163.59 147.283 163.011 147.283C162.234 147.283 161.489 147.543 160.94 148.007C160.39 148.471 160.082 149.1 160.082 149.756V149.756Z" fill="#93DEFB" fill-opacity="0.1"/>
<path d="M153.241 160.481C153.821 160.481 154.387 160.336 154.869 160.064C155.351 159.792 155.726 159.406 155.948 158.954C156.17 158.502 156.228 158.005 156.115 157.525C156.002 157.045 155.723 156.604 155.313 156.259C154.903 155.913 154.381 155.677 153.813 155.582C153.245 155.486 152.656 155.535 152.12 155.722C151.585 155.91 151.128 156.227 150.806 156.633C150.484 157.04 150.312 157.518 150.312 158.008C150.312 158.664 150.621 159.293 151.17 159.757C151.719 160.221 152.465 160.481 153.241 160.481V160.481Z" fill="#93DEFB" fill-opacity="0.1"/>
<path d="M169.853 158.006C169.853 158.662 170.161 159.291 170.711 159.755C171.26 160.219 172.005 160.48 172.782 160.48C172.855 160.48 172.924 160.466 172.995 160.461C172.584 158.872 172.109 157.302 171.594 155.746C171.076 155.94 170.636 156.257 170.327 156.658C170.018 157.059 169.853 157.527 169.853 158.006Z" fill="#93DEFB" fill-opacity="0.1"/>
<path d="M150.312 141.506C150.313 141.995 150.485 142.473 150.808 142.879C151.13 143.286 151.588 143.602 152.123 143.789C152.658 143.976 153.247 144.024 153.815 143.928C154.383 143.832 154.905 143.597 155.314 143.251C155.724 142.904 156.002 142.464 156.115 141.984C156.228 141.504 156.169 141.007 155.948 140.555C155.726 140.103 155.35 139.717 154.869 139.446C154.387 139.174 153.821 139.029 153.241 139.029C152.856 139.029 152.475 139.093 152.12 139.218C151.764 139.342 151.441 139.525 151.169 139.755C150.897 139.985 150.681 140.258 150.534 140.558C150.387 140.859 150.312 141.181 150.312 141.506Z" fill="#93DEFB" fill-opacity="0.1"/>
<path d="M143.556 166.232H146.396C146.396 166.232 145.515 163.782 143.556 163.782V166.232Z" fill="#93DEFB" fill-opacity="0.1"/>
<path d="M144.536 147.28V152.23C145.313 152.23 146.059 151.97 146.608 151.505C147.158 151.041 147.467 150.412 147.467 149.755C147.467 149.099 147.158 148.469 146.608 148.005C146.059 147.541 145.313 147.28 144.536 147.28V147.28Z" fill="#93DEFB" fill-opacity="0.1"/>
<path d="M153.241 172.036C152.662 172.037 152.096 172.183 151.615 172.455C151.133 172.727 150.758 173.114 150.537 173.566C150.316 174.018 150.259 174.515 150.372 174.994C150.486 175.474 150.765 175.914 151.175 176.26C151.585 176.606 152.107 176.841 152.675 176.936C153.243 177.031 153.832 176.982 154.367 176.795C154.902 176.608 155.359 176.29 155.681 175.884C156.003 175.477 156.174 174.999 156.174 174.51C156.174 174.185 156.098 173.863 155.951 173.563C155.804 173.262 155.587 172.989 155.315 172.76C155.043 172.53 154.719 172.348 154.363 172.224C154.007 172.1 153.626 172.036 153.241 172.036Z" fill="#93DEFB" fill-opacity="0.1"/>
<path d="M172.785 172.036C172.28 172.037 171.783 172.148 171.344 172.358C170.904 172.568 170.536 172.871 170.276 173.237C170.016 173.603 169.873 174.02 169.86 174.446C169.847 174.873 169.965 175.295 170.202 175.672C170.44 176.048 170.788 176.367 171.215 176.596C171.641 176.825 172.13 176.958 172.635 176.98C173.14 177.002 173.642 176.914 174.095 176.724C174.547 176.534 174.934 176.248 175.216 175.894C175.184 174.918 175.142 173.946 175.072 172.981C174.801 172.687 174.454 172.45 174.058 172.286C173.661 172.123 173.226 172.037 172.785 172.036V172.036Z" fill="#93DEFB" fill-opacity="0.1"/>
<path d="M160.082 167.886C160.082 167.886 161.392 170.363 163.011 170.363C164.63 170.363 165.941 167.886 165.941 167.886H160.082Z" fill="#93DEFB" fill-opacity="0.1"/>
<path d="M143.556 168.738C145.515 168.738 146.396 167.062 146.396 166.235H143.556V168.738Z" fill="#93DEFB" fill-opacity="0.1"/>
<path d="M143.558 163.782C142.788 163.813 142.058 164.078 141.502 164.528C140.946 164.979 140.603 165.584 140.535 166.232H143.558V163.782Z" fill="#93DEFB" fill-opacity="0.1"/>
<path d="M126.856 167.886C126.856 165.405 125.541 165.412 123.923 165.412C122.305 165.412 120.994 165.406 120.994 167.886H126.856Z" fill="#93DEFB" fill-opacity="0.1"/>
<path d="M141.606 149.756C141.577 150.087 141.633 150.419 141.771 150.73C141.908 151.041 142.123 151.324 142.4 151.559C142.678 151.793 143.013 151.975 143.381 152.09C143.75 152.206 144.143 152.254 144.535 152.23V147.279C144.143 147.255 143.749 147.303 143.38 147.419C143.012 147.535 142.677 147.717 142.399 147.952C142.121 148.187 141.906 148.469 141.769 148.781C141.632 149.092 141.577 149.425 141.606 149.756V149.756Z" fill="#93DEFB" fill-opacity="0.1"/>
<path d="M123.923 152.23C124.503 152.23 125.069 152.085 125.551 151.813C126.032 151.542 126.408 151.155 126.63 150.703C126.851 150.251 126.909 149.754 126.796 149.274C126.683 148.794 126.404 148.354 125.995 148.008C125.585 147.662 125.063 147.426 124.495 147.331C123.926 147.235 123.337 147.284 122.802 147.471C122.267 147.659 121.809 147.976 121.487 148.383C121.165 148.789 120.994 149.268 120.994 149.757C120.994 150.413 121.303 151.041 121.853 151.505C122.402 151.969 123.146 152.23 123.923 152.23Z" fill="#93DEFB" fill-opacity="0.1"/>
<path d="M114.15 160.481C114.73 160.481 115.296 160.336 115.778 160.064C116.259 159.792 116.635 159.406 116.857 158.954C117.078 158.502 117.136 158.005 117.023 157.525C116.91 157.045 116.631 156.604 116.222 156.259C115.812 155.913 115.29 155.677 114.722 155.582C114.153 155.486 113.564 155.535 113.029 155.722C112.494 155.91 112.036 156.227 111.714 156.633C111.393 157.04 111.221 157.518 111.221 158.008C111.221 158.664 111.529 159.293 112.079 159.757C112.628 160.221 113.373 160.481 114.15 160.481V160.481Z" fill="#93DEFB" fill-opacity="0.1"/>
<path d="M133.695 160.481C134.274 160.481 134.841 160.336 135.323 160.064C135.804 159.792 136.18 159.406 136.402 158.954C136.623 158.502 136.681 158.005 136.568 157.525C136.455 157.045 136.176 156.604 135.767 156.259C135.357 155.913 134.835 155.677 134.267 155.582C133.698 155.486 133.109 155.535 132.574 155.722C132.039 155.91 131.581 156.227 131.259 156.633C130.937 157.04 130.766 157.518 130.766 158.008C130.766 158.664 131.074 159.293 131.624 159.757C132.173 160.221 132.918 160.481 133.695 160.481V160.481Z" fill="#93DEFB" fill-opacity="0.1"/>
<path d="M114.15 143.977C114.73 143.977 115.296 143.832 115.778 143.56C116.259 143.288 116.635 142.902 116.857 142.45C117.078 141.998 117.136 141.5 117.023 141.021C116.91 140.541 116.631 140.1 116.222 139.754C115.812 139.408 115.29 139.173 114.722 139.077C114.153 138.982 113.564 139.031 113.029 139.218C112.494 139.405 112.036 139.722 111.714 140.129C111.393 140.536 111.221 141.014 111.221 141.503C111.221 141.828 111.296 142.15 111.444 142.45C111.591 142.75 111.807 143.023 112.079 143.252C112.351 143.482 112.674 143.664 113.029 143.788C113.385 143.913 113.765 143.977 114.15 143.977V143.977Z" fill="#93DEFB" fill-opacity="0.1"/>
<path d="M130.764 141.506C130.764 141.995 130.937 142.473 131.259 142.879C131.582 143.286 132.039 143.602 132.575 143.789C133.11 143.976 133.699 144.024 134.267 143.928C134.835 143.832 135.357 143.597 135.766 143.251C136.175 142.904 136.454 142.464 136.567 141.984C136.679 141.504 136.621 141.007 136.399 140.555C136.177 140.103 135.802 139.717 135.32 139.446C134.839 139.174 134.272 139.029 133.693 139.029C133.308 139.029 132.927 139.093 132.571 139.218C132.216 139.342 131.892 139.525 131.62 139.755C131.348 139.985 131.133 140.258 130.986 140.558C130.839 140.859 130.763 141.181 130.764 141.506Z" fill="#93DEFB" fill-opacity="0.1"/>
<path d="M103.4 163.782V166.232H107.307C107.307 166.232 107.32 163.782 103.4 163.782Z" fill="#93DEFB" fill-opacity="0.1"/>
<path d="M103.4 147.28V152.23C107.318 152.23 106.329 151.123 106.329 149.757C106.329 148.39 107.32 147.28 103.4 147.28Z" fill="#93DEFB" fill-opacity="0.1"/>
<path d="M114.15 172.036C113.571 172.037 113.005 172.183 112.524 172.455C112.043 172.727 111.668 173.114 111.447 173.566C111.225 174.018 111.168 174.515 111.281 174.994C111.395 175.474 111.674 175.914 112.084 176.26C112.494 176.606 113.016 176.841 113.584 176.936C114.152 177.031 114.741 176.982 115.276 176.795C115.811 176.608 116.268 176.29 116.59 175.884C116.912 175.477 117.084 174.999 117.084 174.51C117.084 174.185 117.008 173.863 116.86 173.563C116.713 173.262 116.497 172.989 116.224 172.76C115.952 172.53 115.628 172.348 115.273 172.224C114.917 172.1 114.535 172.036 114.15 172.036V172.036Z" fill="#93DEFB" fill-opacity="0.1"/>
<path d="M133.695 172.036C133.116 172.036 132.549 172.181 132.068 172.453C131.586 172.725 131.21 173.111 130.989 173.563C130.767 174.015 130.709 174.513 130.822 174.992C130.935 175.472 131.214 175.913 131.624 176.259C132.033 176.605 132.555 176.84 133.124 176.936C133.692 177.031 134.281 176.982 134.816 176.795C135.351 176.608 135.809 176.291 136.131 175.884C136.453 175.477 136.625 174.999 136.625 174.51C136.625 173.854 136.316 173.225 135.767 172.761C135.217 172.297 134.472 172.036 133.695 172.036V172.036Z" fill="#93DEFB" fill-opacity="0.1"/>
<path d="M143.558 168.738V166.232H140.535C140.535 167.059 141.599 168.738 143.558 168.738Z" fill="#93DEFB" fill-opacity="0.1"/>
<path d="M123.923 170.363C125.541 170.363 126.856 167.886 126.856 167.886H120.991C120.991 167.886 122.302 170.363 123.923 170.363Z" fill="#93DEFB" fill-opacity="0.1"/>
<path d="M103.4 168.738C107.318 168.738 107.307 167.889 107.307 166.235H103.4V168.738Z" fill="#93DEFB" fill-opacity="0.1"/>
<path d="M104.381 163.782C102.422 163.782 101.447 165.405 101.447 166.232H104.381V163.782Z" fill="#93DEFB" fill-opacity="0.1"/>
<path d="M84.8338 165.41C83.2149 165.41 81.9043 165.405 81.9043 167.884H87.7671C87.7652 165.405 86.4546 165.41 84.8338 165.41Z" fill="#93DEFB" fill-opacity="0.1"/>
<path d="M100.471 149.756C100.471 151.123 103.401 152.23 103.401 152.23V147.279C103.401 147.279 100.471 148.388 100.471 149.756Z" fill="#93DEFB" fill-opacity="0.1"/>
<path d="M84.8338 152.23C85.4132 152.23 85.9796 152.085 86.4613 151.813C86.9431 151.542 87.3186 151.155 87.5403 150.703C87.762 150.251 87.82 149.754 87.707 149.274C87.594 148.794 87.315 148.354 86.9053 148.008C86.4956 147.662 85.9736 147.426 85.4053 147.331C84.837 147.235 84.248 147.284 83.7127 147.471C83.1774 147.659 82.7199 147.976 82.398 148.383C82.0761 148.789 81.9043 149.268 81.9043 149.757C81.9043 150.413 82.2129 151.042 82.7623 151.506C83.3117 151.97 84.0568 152.23 84.8338 152.23V152.23Z" fill="#93DEFB" fill-opacity="0.1"/>
<path d="M75.0608 160.481C75.6402 160.481 76.2066 160.336 76.6884 160.064C77.1701 159.792 77.5456 159.406 77.7673 158.954C77.989 158.502 78.0471 158.005 77.934 157.525C77.821 157.045 77.542 156.604 77.1323 156.259C76.7226 155.913 76.2006 155.677 75.6323 155.582C75.0641 155.486 74.475 155.535 73.9398 155.722C73.4045 155.91 72.947 156.227 72.6251 156.633C72.3032 157.04 72.1313 157.518 72.1313 158.008C72.1325 158.663 72.4415 159.292 72.9907 159.756C73.5398 160.219 74.2842 160.48 75.0608 160.481V160.481Z" fill="#93DEFB" fill-opacity="0.1"/>
<path d="M94.6072 160.481C95.1866 160.481 95.753 160.336 96.2348 160.064C96.7165 159.792 97.092 159.406 97.3137 158.954C97.5354 158.502 97.5935 158.005 97.4804 157.525C97.3674 157.045 97.0884 156.604 96.6787 156.259C96.269 155.913 95.747 155.677 95.1787 155.582C94.6105 155.486 94.0214 155.535 93.4861 155.722C92.9508 155.91 92.4933 156.227 92.1714 156.633C91.8495 157.04 91.6777 157.518 91.6777 158.008C91.6786 158.663 91.9875 159.292 92.5367 159.756C93.0859 160.22 93.8305 160.48 94.6072 160.481V160.481Z" fill="#93DEFB" fill-opacity="0.1"/>
<path d="M75.0608 143.977C75.6402 143.977 76.2066 143.832 76.6884 143.56C77.1701 143.288 77.5456 142.902 77.7673 142.45C77.989 141.998 78.0471 141.5 77.934 141.021C77.821 140.541 77.542 140.1 77.1323 139.754C76.7226 139.408 76.2006 139.173 75.6323 139.077C75.0641 138.982 74.475 139.031 73.9398 139.218C73.4045 139.405 72.947 139.722 72.6251 140.129C72.3032 140.536 72.1313 141.014 72.1313 141.503C72.1313 141.828 72.2071 142.15 72.3543 142.45C72.5015 142.75 72.7173 143.023 72.9894 143.252C73.2614 143.482 73.5843 143.664 73.9398 143.788C74.2952 143.913 74.6761 143.977 75.0608 143.977V143.977Z" fill="#93DEFB" fill-opacity="0.1"/>
<path d="M94.6072 143.977C95.1866 143.977 95.753 143.832 96.2348 143.56C96.7165 143.288 97.092 142.902 97.3137 142.45C97.5354 141.998 97.5935 141.5 97.4804 141.021C97.3674 140.541 97.0884 140.1 96.6787 139.754C96.269 139.408 95.747 139.173 95.1787 139.077C94.6105 138.982 94.0214 139.031 93.4861 139.218C92.9508 139.405 92.4933 139.722 92.1714 140.129C91.8495 140.536 91.6777 141.014 91.6777 141.503C91.6777 141.828 91.7535 142.15 91.9007 142.45C92.0479 142.75 92.2637 143.023 92.5358 143.252C92.8078 143.482 93.1307 143.664 93.4861 143.788C93.8416 143.913 94.2225 143.977 94.6072 143.977V143.977Z" fill="#93DEFB" fill-opacity="0.1"/>
<path d="M65.2026 163.782V166.232H68.2181C68.2181 166.232 68.1429 163.782 65.2026 163.782Z" fill="#93DEFB" fill-opacity="0.1"/>
<path d="M68.1321 149.756C68.1321 148.388 66.1821 147.283 65.2026 147.283V152.233C66.184 152.23 68.1321 151.123 68.1321 149.756Z" fill="#93DEFB" fill-opacity="0.1"/>
<path d="M75.0609 172.036C74.4817 172.037 73.9157 172.183 73.4344 172.455C72.9532 172.727 72.5783 173.114 72.3572 173.566C72.136 174.018 72.0785 174.515 72.192 174.994C72.3055 175.474 72.5848 175.914 72.9946 176.26C73.4045 176.606 73.9265 176.841 74.4946 176.936C75.0628 177.031 75.6516 176.982 76.1867 176.795C76.7218 176.608 77.1791 176.29 77.5008 175.884C77.8225 175.477 77.9942 174.999 77.9942 174.51C77.9942 174.185 77.9183 173.863 77.7709 173.563C77.6234 173.262 77.4073 172.989 77.1349 172.76C76.8624 172.53 76.539 172.348 76.1832 172.224C75.8273 172.1 75.4459 172.036 75.0609 172.036V172.036Z" fill="#93DEFB" fill-opacity="0.1"/>
<path d="M94.6072 172.036C94.0278 172.036 93.4614 172.181 92.9797 172.453C92.4979 172.725 92.1224 173.111 91.9007 173.563C91.679 174.015 91.621 174.513 91.734 174.992C91.8471 175.472 92.1261 175.913 92.5358 176.259C92.9455 176.605 93.4674 176.84 94.0357 176.936C94.604 177.031 95.193 176.982 95.7283 176.795C96.2636 176.608 96.7211 176.291 97.043 175.884C97.3649 175.477 97.5367 174.999 97.5367 174.51C97.5367 173.854 97.2281 173.225 96.6787 172.761C96.1293 172.297 95.3842 172.036 94.6072 172.036V172.036Z" fill="#93DEFB" fill-opacity="0.1"/>
<path d="M104.381 166.232H101.447C101.447 167.059 102.422 168.735 104.381 168.735V166.232Z" fill="#93DEFB" fill-opacity="0.1"/>
<path d="M84.8337 170.363C86.4538 170.363 87.7632 167.886 87.7632 167.886H81.9004C81.9004 167.886 83.2148 170.363 84.8337 170.363Z" fill="#93DEFB" fill-opacity="0.1"/>
<path d="M65.2026 168.738C68.141 168.738 68.2181 167.889 68.2181 166.235H65.2026V168.738Z" fill="#93DEFB" fill-opacity="0.1"/>
<path d="M65.2043 163.782C63.2453 163.782 62.3569 165.405 62.3569 166.232H65.2043V163.782Z" fill="#93DEFB" fill-opacity="0.1"/>
<path d="M45.743 165.41C44.1247 165.41 42.8135 165.405 42.8135 167.884H48.6782C48.6763 165.405 47.3612 165.41 45.743 165.41Z" fill="#93DEFB" fill-opacity="0.1"/>
<path d="M65.2043 152.23V147.28C64.4269 147.28 63.6813 147.541 63.1315 148.005C62.5818 148.469 62.2729 149.099 62.2729 149.755C62.2729 150.412 62.5818 151.041 63.1315 151.505C63.6813 151.97 64.4269 152.23 65.2043 152.23Z" fill="#93DEFB" fill-opacity="0.1"/>
<path d="M45.743 152.23C46.3224 152.23 46.8888 152.085 47.3705 151.813C47.8523 151.542 48.2277 151.155 48.4495 150.703C48.6712 150.251 48.7292 149.754 48.6162 149.274C48.5032 148.794 48.2241 148.354 47.8144 148.008C47.4047 147.662 46.8828 147.426 46.3145 147.331C45.7462 147.235 45.1572 147.284 44.6219 147.471C44.0866 147.659 43.6291 147.976 43.3072 148.383C42.9853 148.789 42.8135 149.268 42.8135 149.757C42.8143 150.413 43.1232 151.041 43.6724 151.505C44.2216 151.969 44.9663 152.23 45.743 152.23Z" fill="#93DEFB" fill-opacity="0.1"/>
<path d="M35.9719 155.531C35.3925 155.531 34.8262 155.676 34.3444 155.948C33.8627 156.22 33.4872 156.606 33.2655 157.058C33.0438 157.51 32.9857 158.007 33.0988 158.487C33.2118 158.967 33.4908 159.408 33.9005 159.753C34.3102 160.099 34.8322 160.335 35.4004 160.43C35.9687 160.526 36.5577 160.477 37.093 160.29C37.6283 160.102 38.0858 159.785 38.4077 159.379C38.7296 158.972 38.9014 158.494 38.9014 158.004C38.9014 157.348 38.5928 156.719 38.0434 156.255C37.494 155.791 36.7489 155.531 35.9719 155.531V155.531Z" fill="#93DEFB" fill-opacity="0.1"/>
<path d="M55.5183 160.481C56.0975 160.481 56.6635 160.335 57.1448 160.063C57.626 159.791 58.0009 159.404 58.222 158.952C58.4432 158.5 58.5006 158.003 58.3872 157.523C58.2737 157.043 57.9944 156.603 57.5846 156.257C57.1747 155.912 56.6527 155.677 56.0846 155.581C55.5164 155.486 54.9276 155.535 54.3925 155.723C53.8574 155.91 53.4001 156.227 53.0784 156.634C52.7567 157.04 52.585 157.519 52.585 158.008C52.585 158.333 52.6609 158.655 52.8083 158.955C52.9558 159.255 53.1719 159.528 53.4443 159.758C53.7168 159.988 54.0402 160.17 54.396 160.294C54.7519 160.418 55.1332 160.482 55.5183 160.481V160.481Z" fill="#93DEFB" fill-opacity="0.1"/>
<path d="M35.9719 139.029C35.3927 139.029 34.8265 139.174 34.3448 139.446C33.8631 139.717 33.4877 140.103 33.2658 140.555C33.044 141.007 32.9858 141.504 33.0985 141.984C33.2112 142.464 33.4898 142.904 33.8992 143.251C34.3085 143.597 34.8301 143.832 35.3981 143.928C35.9661 144.024 36.555 143.976 37.0904 143.789C37.6257 143.602 38.0835 143.286 38.4059 142.879C38.7282 142.473 38.9007 141.995 38.9014 141.506C38.9019 141.181 38.8265 140.859 38.6795 140.558C38.5325 140.258 38.3168 139.985 38.0448 139.755C37.7727 139.525 37.4496 139.342 37.0939 139.218C36.7382 139.093 36.357 139.029 35.9719 139.029V139.029Z" fill="#93DEFB" fill-opacity="0.1"/>
<path d="M55.5183 143.977C56.0975 143.976 56.6635 143.83 57.1448 143.558C57.626 143.286 58.0009 142.9 58.222 142.448C58.4432 141.996 58.5006 141.498 58.3872 141.019C58.2737 140.539 57.9944 140.099 57.5846 139.753C57.1747 139.407 56.6527 139.172 56.0846 139.077C55.5164 138.982 54.9276 139.031 54.3925 139.218C53.8574 139.406 53.4001 139.723 53.0784 140.129C52.7567 140.536 52.585 141.014 52.585 141.503C52.585 141.828 52.6609 142.15 52.8083 142.451C52.9558 142.751 53.1719 143.024 53.4443 143.253C53.7168 143.483 54.0402 143.665 54.396 143.789C54.7519 143.914 55.1332 143.977 55.5183 143.977V143.977Z" fill="#93DEFB" fill-opacity="0.1"/>
<path d="M26.0259 163.782V166.232H29.1286C29.1286 166.232 28.9662 163.782 26.0259 163.782Z" fill="#93DEFB" fill-opacity="0.1"/>
<path d="M27.0054 147.28V152.23C27.7828 152.23 28.5284 151.97 29.0782 151.505C29.6279 151.041 29.9368 150.412 29.9368 149.755C29.9368 149.099 29.6279 148.469 29.0782 148.005C28.5284 147.541 27.7828 147.28 27.0054 147.28Z" fill="#93DEFB" fill-opacity="0.1"/>
<path d="M35.9719 172.036C35.3925 172.036 34.8262 172.181 34.3444 172.453C33.8627 172.725 33.4872 173.111 33.2655 173.563C33.0438 174.015 32.9857 174.513 33.0988 174.992C33.2118 175.472 33.4908 175.913 33.9005 176.259C34.3102 176.605 34.8322 176.84 35.4004 176.936C35.9687 177.031 36.5577 176.982 37.093 176.795C37.6283 176.608 38.0858 176.291 38.4077 175.884C38.7296 175.477 38.9014 174.999 38.9014 174.51C38.9014 173.854 38.5928 173.225 38.0434 172.761C37.494 172.297 36.7489 172.036 35.9719 172.036V172.036Z" fill="#93DEFB" fill-opacity="0.1"/>
<path d="M55.5179 172.036C54.9385 172.036 54.3721 172.181 53.8903 172.453C53.4086 172.725 53.0331 173.111 52.8114 173.563C52.5896 174.015 52.5316 174.513 52.6447 174.992C52.7577 175.472 53.0367 175.913 53.4464 176.259C53.8561 176.605 54.3781 176.84 54.9464 176.936C55.5146 177.031 56.1036 176.982 56.6389 176.795C57.1742 176.608 57.6317 176.291 57.9536 175.884C58.2755 175.477 58.4473 174.999 58.4473 174.51C58.4473 174.185 58.3716 173.863 58.2244 173.563C58.0771 173.263 57.8614 172.991 57.5893 172.761C57.3173 172.531 56.9943 172.349 56.6389 172.225C56.2835 172.1 55.9026 172.036 55.5179 172.036V172.036Z" fill="#93DEFB" fill-opacity="0.1"/>
<path d="M65.2047 166.232H62.3599C62.3599 167.059 63.2483 168.735 65.2072 168.735L65.2047 166.232Z" fill="#93DEFB" fill-opacity="0.1"/>
<path d="M45.7429 170.363C47.3611 170.363 48.6762 167.886 48.6762 167.886H42.8115C42.8115 167.886 44.1234 170.363 45.7429 170.363Z" fill="#93DEFB" fill-opacity="0.1"/>
<path d="M26.0259 168.738C28.9643 168.738 29.1286 167.889 29.1286 166.235H26.0259V168.738Z" fill="#93DEFB" fill-opacity="0.1"/>
<path d="M26.0271 163.782C24.0682 163.782 23.2651 165.405 23.2651 166.232H26.0271V163.782Z" fill="#93DEFB" fill-opacity="0.1"/>
<path d="M6.65507 165.41C5.03494 165.41 3.72559 165.405 3.72559 167.884H9.58839C9.58711 165.405 8.27202 165.41 6.65507 165.41Z" fill="#93DEFB" fill-opacity="0.1"/>
<path d="M24.0757 149.756C24.0757 151.123 24.0687 152.23 27.0052 152.23V147.279C24.0693 147.28 24.0757 148.388 24.0757 149.756Z" fill="#93DEFB" fill-opacity="0.1"/>
<path d="M6.65507 147.28C6.07567 147.28 5.50928 147.425 5.02752 147.697C4.54577 147.969 4.1703 148.355 3.94857 148.807C3.72685 149.259 3.66884 149.756 3.78188 150.236C3.89491 150.716 4.17391 151.157 4.58361 151.503C4.99331 151.848 5.5153 152.084 6.08356 152.18C6.65183 152.275 7.24084 152.226 7.77613 152.039C8.31143 151.852 8.76895 151.535 9.09085 151.128C9.41275 150.721 9.58456 150.243 9.58456 149.754C9.58456 149.429 9.50878 149.107 9.36156 148.807C9.21434 148.507 8.99855 148.234 8.72652 148.004C8.45449 147.775 8.13155 147.593 7.77613 147.468C7.42071 147.344 7.03977 147.28 6.65507 147.28V147.28Z" fill="#93DEFB" fill-opacity="0.1"/>
<path d="M16.427 155.531C15.8476 155.531 15.2813 155.676 14.7995 155.948C14.3178 156.22 13.9423 156.606 13.7205 157.058C13.4988 157.51 13.4408 158.007 13.5539 158.487C13.6669 158.967 13.9459 159.408 14.3556 159.753C14.7653 160.099 15.2873 160.335 15.8555 160.43C16.4238 160.526 17.0128 160.477 17.5481 160.29C18.0834 160.102 18.5409 159.785 18.8628 159.379C19.1847 158.972 19.3565 158.494 19.3565 158.004C19.3565 157.68 19.2808 157.358 19.1335 157.058C18.9863 156.758 18.7705 156.485 18.4985 156.255C18.2265 156.026 17.9035 155.843 17.5481 155.719C17.1927 155.595 16.8117 155.531 16.427 155.531V155.531Z" fill="#93DEFB" fill-opacity="0.1"/>
<path d="M16.4275 139.029C15.8483 139.029 15.2821 139.174 14.8004 139.446C14.3187 139.717 13.9432 140.103 13.7214 140.555C13.4996 141.007 13.4413 141.504 13.5541 141.984C13.6668 142.464 13.9454 142.904 14.3547 143.251C14.764 143.597 15.2857 143.832 15.8537 143.928C16.4217 144.024 17.0106 143.976 17.5459 143.789C18.0813 143.602 18.5391 143.286 18.8614 142.879C19.1838 142.473 19.3562 141.995 19.357 141.506C19.3575 141.181 19.2821 140.859 19.1351 140.558C18.9881 140.258 18.7724 139.985 18.5003 139.755C18.2283 139.525 17.9051 139.342 17.5495 139.218C17.1938 139.093 16.8125 139.029 16.4275 139.029V139.029Z" fill="#93DEFB" fill-opacity="0.1"/>
<path d="M16.427 172.036C15.8476 172.036 15.2813 172.181 14.7995 172.453C14.3178 172.725 13.9423 173.111 13.7205 173.563C13.4988 174.015 13.4408 174.513 13.5539 174.992C13.6669 175.472 13.9459 175.913 14.3556 176.259C14.7653 176.605 15.2873 176.84 15.8555 176.936C16.4238 177.031 17.0128 176.982 17.5481 176.795C18.0834 176.608 18.5409 176.291 18.8628 175.884C19.1847 175.477 19.3565 174.999 19.3565 174.51C19.3565 174.185 19.2808 173.863 19.1335 173.563C18.9863 173.263 18.7705 172.991 18.4985 172.761C18.2265 172.531 17.9035 172.349 17.5481 172.225C17.1927 172.1 16.8117 172.036 16.427 172.036V172.036Z" fill="#93DEFB" fill-opacity="0.1"/>
<path d="M26.0271 166.232H23.2651C23.2651 167.059 24.0682 168.735 26.0271 168.735V166.232Z" fill="#93DEFB" fill-opacity="0.1"/>
<path d="M6.65449 170.363C8.27143 170.363 9.58397 167.886 9.58397 167.886H3.72119C3.72119 167.886 5.03436 170.363 6.65449 170.363Z" fill="#93DEFB" fill-opacity="0.1"/>
<defs>
<linearGradient id="paint0_linear_0_1" x1="36.3179" y1="296.359" x2="539.134" y2="296.359" gradientUnits="userSpaceOnUse">
<stop stop-color="#93DEFB"/>
<stop offset="0.651" stop-color="#EBADF8"/>
<stop offset="0.998" stop-color="#C7F2E3"/>
</linearGradient>
<linearGradient id="paint1_linear_0_1" x1="-344.597" y1="1491.99" x2="75.4176" y2="1491.99" gradientUnits="userSpaceOnUse">
<stop stop-color="#93DEFB"/>
<stop offset="0.651" stop-color="#EBADF8"/>
<stop offset="0.998" stop-color="#C7F2E3"/>
</linearGradient>
</defs>
</svg>
