<svg width="44" height="44" viewBox="0 0 44 44" fill="none" xmlns="http://www.w3.org/2000/svg">
<g filter="url(#filter0_d_1236_43241)">
<path d="M2 9C2 4.58172 5.58172 1 10 1H34C38.4183 1 42 4.58172 42 9V33C42 37.4183 38.4183 41 34 41H10C5.58172 41 2 37.4183 2 33V9Z" fill="#1F2032"/>
<path d="M30.5195 11H13.4766C12.6602 11 12 11.6445 12 12.4414V29.5547C12 30.3516 12.6602 31 13.4766 31H30.5195C31.3359 31 32 30.3516 32 29.5586V12.4414C32 11.6445 31.3359 11 30.5195 11ZM17.9336 28.043H14.9648V18.4961H17.9336V28.043ZM16.4492 17.1953C15.4961 17.1953 14.7266 16.4258 14.7266 15.4766C14.7266 14.5273 15.4961 13.7578 16.4492 13.7578C17.3984 13.7578 18.168 14.5273 18.168 15.4766C18.168 16.4219 17.3984 17.1953 16.4492 17.1953ZM29.043 28.043H26.0781V23.4023C26.0781 22.2969 26.0586 20.8711 24.5352 20.8711C22.9922 20.8711 22.7578 22.0781 22.7578 23.3242V28.043H19.7969V18.4961H22.6406V19.8008H22.6797C23.0742 19.0508 24.043 18.2578 25.4844 18.2578C28.4883 18.2578 29.043 20.2344 29.043 22.8047V28.043Z" fill="#777E91"/>
<path d="M10 2H34V0H10V2ZM41 9V33H43V9H41ZM34 40H10V42H34V40ZM3 33V9H1V33H3ZM10 40C6.13401 40 3 36.866 3 33H1C1 37.9706 5.02944 42 10 42V40ZM41 33C41 36.866 37.866 40 34 40V42C38.9706 42 43 37.9706 43 33H41ZM34 2C37.866 2 41 5.13401 41 9H43C43 4.02944 38.9706 0 34 0V2ZM10 0C5.02944 0 1 4.02944 1 9H3C3 5.13401 6.13401 2 10 2V0Z" fill="#353945"/>
</g>
<defs>
<filter id="filter0_d_1236_43241" x="0" y="0" width="44" height="44" filterUnits="userSpaceOnUse" color-interpolation-filters="sRGB">
<feFlood flood-opacity="0" result="BackgroundImageFix"/>
<feColorMatrix in="SourceAlpha" type="matrix" values="0 0 0 0 0 0 0 0 0 0 0 0 0 0 0 0 0 0 127 0" result="hardAlpha"/>
<feOffset dy="1"/>
<feGaussianBlur stdDeviation="1"/>
<feColorMatrix type="matrix" values="0 0 0 0 0.0627451 0 0 0 0 0.0941176 0 0 0 0 0.156863 0 0 0 0.05 0"/>
<feBlend mode="normal" in2="BackgroundImageFix" result="effect1_dropShadow_1236_43241"/>
<feBlend mode="normal" in="SourceGraphic" in2="effect1_dropShadow_1236_43241" result="shape"/>
</filter>
</defs>
</svg>
