<svg width="50" height="50" viewBox="0 0 50 50" fill="none" xmlns="http://www.w3.org/2000/svg">
<path d="M25 0.833496C11.66 0.833496 0.833374 11.6602 0.833374 25.0002C0.833374 38.3402 11.66 49.1668 25 49.1668C38.34 49.1668 49.1667 38.3402 49.1667 25.0002C49.1667 11.6602 38.34 0.833496 25 0.833496ZM25 8.0835C29.0117 8.0835 32.25 11.3218 32.25 15.3335C32.25 19.3452 29.0117 22.5835 25 22.5835C20.9884 22.5835 17.75 19.3452 17.75 15.3335C17.75 11.3218 20.9884 8.0835 25 8.0835ZM25 42.4002C18.9584 42.4002 13.6175 39.3068 10.5 34.6185C10.5725 29.8093 20.1667 27.1752 25 27.1752C29.8092 27.1752 39.4275 29.8093 39.5 34.6185C36.3825 39.3068 31.0417 42.4002 25 42.4002Z" fill="#1982F8"/>
</svg>
