<svg width="73" height="72" viewBox="0 0 73 72" fill="none" xmlns="http://www.w3.org/2000/svg">
<rect x="0.333252" width="72" height="72" rx="36" fill="url(#paint0_linear_247_40837)"/>
<path d="M36.3332 52.6673C27.1282 52.6673 19.6665 45.2057 19.6665 36.0007C19.6665 26.7957 27.1282 19.334 36.3332 19.334C45.5382 19.334 52.9998 26.7957 52.9998 36.0007C52.9998 45.2057 45.5382 52.6673 36.3332 52.6673ZM36.3332 49.334C39.8694 49.334 43.2608 47.9292 45.7613 45.4287C48.2617 42.9283 49.6665 39.5369 49.6665 36.0007C49.6665 32.4644 48.2617 29.073 45.7613 26.5726C43.2608 24.0721 39.8694 22.6673 36.3332 22.6673C32.797 22.6673 29.4056 24.0721 26.9051 26.5726C24.4046 29.073 22.9998 32.4644 22.9998 36.0007C22.9998 39.5369 24.4046 42.9283 26.9051 45.4287C29.4056 47.9292 32.797 49.334 36.3332 49.334ZM27.9998 36.0007H31.3332C31.3332 37.3267 31.86 38.5985 32.7976 39.5362C33.7353 40.4739 35.0071 41.0007 36.3332 41.0007C37.6593 41.0007 38.931 40.4739 39.8687 39.5362C40.8064 38.5985 41.3332 37.3267 41.3332 36.0007H44.6665C44.6665 38.2108 43.7885 40.3304 42.2257 41.8932C40.6629 43.456 38.5433 44.334 36.3332 44.334C34.123 44.334 32.0034 43.456 30.4406 41.8932C28.8778 40.3304 27.9998 38.2108 27.9998 36.0007Z" fill="#FCFCFD"/>
<defs>
<linearGradient id="paint0_linear_247_40837" x1="0.333248" y1="-39.4286" x2="124.707" y2="16.4713" gradientUnits="userSpaceOnUse">
<stop stop-color="#FF5F6D"/>
<stop offset="1" stop-color="#FFC371"/>
</linearGradient>
</defs>
</svg>
