<svg width="16" height="15" viewBox="0 0 16 15" fill="none" xmlns="http://www.w3.org/2000/svg">
<rect width="16" height="15" fill="#E5E5E5"/>
<g clip-path="url(#clip0_779_2522)">
<rect width="1411" height="5956" transform="translate(-19 -307)" fill="white"/>
<rect x="-19" y="-245" width="236" height="5894" fill="#0000F5"/>
<path d="M15.5 13.8333C15.5 14.0543 15.4122 14.2663 15.2559 14.4226C15.0996 14.5789 14.8877 14.6667 14.6667 14.6667H1.33333C1.11232 14.6667 0.900358 14.5789 0.744078 14.4226C0.587797 14.2663 0.5 14.0543 0.5 13.8333C0.5 13.6123 0.587797 13.4004 0.744078 13.2441C0.900358 13.0878 1.11232 13 1.33333 13H14.6667C14.8877 13 15.0996 13.0878 15.2559 13.2441C15.4122 13.4004 15.5 13.6123 15.5 13.8333ZM3 11.3333C3.22101 11.3333 3.43298 11.2455 3.58926 11.0893C3.74554 10.933 3.83333 10.721 3.83333 10.5V4.66667C3.83333 4.44565 3.74554 4.23369 3.58926 4.07741C3.43298 3.92113 3.22101 3.83333 3 3.83333C2.77899 3.83333 2.56702 3.92113 2.41074 4.07741C2.25446 4.23369 2.16667 4.44565 2.16667 4.66667V10.5C2.16667 10.721 2.25446 10.933 2.41074 11.0893C2.56702 11.2455 2.77899 11.3333 3 11.3333ZM6.33333 11.3333C6.55435 11.3333 6.76631 11.2455 6.92259 11.0893C7.07887 10.933 7.16667 10.721 7.16667 10.5V1.33333C7.16667 1.11232 7.07887 0.900358 6.92259 0.744078C6.76631 0.587797 6.55435 0.5 6.33333 0.5C6.11232 0.5 5.90036 0.587797 5.74408 0.744078C5.5878 0.900358 5.5 1.11232 5.5 1.33333V10.5C5.5 10.721 5.5878 10.933 5.74408 11.0893C5.90036 11.2455 6.11232 11.3333 6.33333 11.3333ZM13 11.3333C13.221 11.3333 13.433 11.2455 13.5893 11.0893C13.7455 10.933 13.8333 10.721 13.8333 10.5V3.83333C13.8333 3.61232 13.7455 3.40036 13.5893 3.24408C13.433 3.0878 13.221 3 13 3C12.779 3 12.567 3.0878 12.4107 3.24408C12.2545 3.40036 12.1667 3.61232 12.1667 3.83333V10.5C12.1667 10.721 12.2545 10.933 12.4107 11.0893C12.567 11.2455 12.779 11.3333 13 11.3333ZM9.66667 11.3333C9.88768 11.3333 10.0996 11.2455 10.2559 11.0893C10.4122 10.933 10.5 10.721 10.5 10.5V8C10.5 7.77899 10.4122 7.56702 10.2559 7.41074C10.0996 7.25446 9.88768 7.16667 9.66667 7.16667C9.44565 7.16667 9.23369 7.25446 9.07741 7.41074C8.92113 7.56702 8.83333 7.77899 8.83333 8V10.5C8.83333 10.721 8.92113 10.933 9.07741 11.0893C9.23369 11.2455 9.44565 11.3333 9.66667 11.3333Z" fill="white"/>
</g>
<defs>
<clipPath id="clip0_779_2522">
<rect width="1411" height="5956" fill="white" transform="translate(-19 -307)"/>
</clipPath>
</defs>
</svg>
