<svg width="180" height="46" viewBox="0 0 180 46" fill="none" xmlns="http://www.w3.org/2000/svg">
<rect x="0.5" y="0.5" width="179" height="45" rx="7.5" fill="#141416" fill-opacity="0.64"/>
<rect x="28.9231" y="11" width="11.0769" height="11.0769" fill="url(#paint0_linear_102_39440)"/>
<path fill-rule="evenodd" clip-rule="evenodd" d="M27 11H16V24V35H27H40V24H27V11Z" fill="url(#paint1_linear_102_39440)"/>
<path d="M52.1 30V16H54.1V30H52.1ZM63.6714 19.3C64.5381 19.3 65.2981 19.4667 65.9514 19.8C66.6181 20.1333 67.1381 20.64 67.5114 21.32C67.8847 22 68.0714 22.86 68.0714 23.9V30H66.1514V24.12C66.1514 23.0933 65.8981 22.32 65.3914 21.8C64.8981 21.28 64.1981 21.02 63.2914 21.02C62.6114 21.02 62.0181 21.1533 61.5114 21.42C61.0047 21.6867 60.6114 22.08 60.3314 22.6C60.0647 23.12 59.9314 23.7667 59.9314 24.54V30H58.0114V19.4H59.8514V22.26L59.5514 21.5C59.8981 20.8067 60.4314 20.2667 61.1514 19.88C61.8714 19.4933 62.7114 19.3 63.6714 19.3ZM74.2094 30L69.5694 19.4H71.5694L75.6894 29H74.7294L78.9294 19.4H80.8094L76.1694 30H74.2094ZM87.0283 30.12C85.8949 30.12 84.8949 29.8867 84.0283 29.42C83.1749 28.9533 82.5083 28.3133 82.0283 27.5C81.5616 26.6867 81.3283 25.7533 81.3283 24.7C81.3283 23.6467 81.5549 22.7133 82.0083 21.9C82.4749 21.0867 83.1083 20.4533 83.9083 20C84.7216 19.5333 85.6349 19.3 86.6483 19.3C87.6749 19.3 88.5816 19.5267 89.3683 19.98C90.1549 20.4333 90.7683 21.0733 91.2083 21.9C91.6616 22.7133 91.8883 23.6667 91.8883 24.76C91.8883 24.84 91.8816 24.9333 91.8683 25.04C91.8683 25.1467 91.8616 25.2467 91.8483 25.34H82.8283V23.96H90.8483L90.0683 24.44C90.0816 23.76 89.9416 23.1533 89.6483 22.62C89.3549 22.0867 88.9483 21.6733 88.4283 21.38C87.9216 21.0733 87.3283 20.92 86.6483 20.92C85.9816 20.92 85.3883 21.0733 84.8683 21.38C84.3483 21.6733 83.9416 22.0933 83.6483 22.64C83.3549 23.1733 83.2083 23.7867 83.2083 24.48V24.8C83.2083 25.5067 83.3683 26.14 83.6883 26.7C84.0216 27.2467 84.4816 27.6733 85.0683 27.98C85.6549 28.2867 86.3283 28.44 87.0883 28.44C87.7149 28.44 88.2816 28.3333 88.7883 28.12C89.3083 27.9067 89.7616 27.5867 90.1483 27.16L91.2083 28.4C90.7283 28.96 90.1283 29.3867 89.4083 29.68C88.7016 29.9733 87.9083 30.12 87.0283 30.12ZM97.5944 30.12C96.7144 30.12 95.8744 30 95.0744 29.76C94.2877 29.52 93.6677 29.2267 93.2144 28.88L94.0144 27.36C94.4677 27.6667 95.0277 27.9267 95.6944 28.14C96.361 28.3533 97.041 28.46 97.7344 28.46C98.6277 28.46 99.2677 28.3333 99.6544 28.08C100.054 27.8267 100.254 27.4733 100.254 27.02C100.254 26.6867 100.134 26.4267 99.8944 26.24C99.6544 26.0533 99.3344 25.9133 98.9344 25.82C98.5477 25.7267 98.1144 25.6467 97.6344 25.58C97.1544 25.5 96.6744 25.4067 96.1944 25.3C95.7144 25.18 95.2744 25.02 94.8744 24.82C94.4744 24.6067 94.1544 24.32 93.9144 23.96C93.6744 23.5867 93.5544 23.0933 93.5544 22.48C93.5544 21.84 93.7344 21.28 94.0944 20.8C94.4544 20.32 94.961 19.9533 95.6144 19.7C96.281 19.4333 97.0677 19.3 97.9744 19.3C98.6677 19.3 99.3677 19.3867 100.074 19.56C100.794 19.72 101.381 19.9533 101.834 20.26L101.014 21.78C100.534 21.46 100.034 21.24 99.5144 21.12C98.9944 21 98.4744 20.94 97.9544 20.94C97.1144 20.94 96.4877 21.08 96.0744 21.36C95.661 21.6267 95.4544 21.9733 95.4544 22.4C95.4544 22.76 95.5744 23.04 95.8144 23.24C96.0677 23.4267 96.3877 23.5733 96.7744 23.68C97.1744 23.7867 97.6144 23.88 98.0944 23.96C98.5744 24.0267 99.0544 24.12 99.5344 24.24C100.014 24.3467 100.448 24.5 100.834 24.7C101.234 24.9 101.554 25.18 101.794 25.54C102.048 25.9 102.174 26.38 102.174 26.98C102.174 27.62 101.988 28.1733 101.614 28.64C101.241 29.1067 100.714 29.4733 100.034 29.74C99.3544 29.9933 98.541 30.12 97.5944 30.12ZM108.214 30.12C107.147 30.12 106.321 29.8333 105.734 29.26C105.147 28.6867 104.854 27.8667 104.854 26.8V17.08H106.774V26.72C106.774 27.2933 106.914 27.7333 107.194 28.04C107.487 28.3467 107.901 28.5 108.434 28.5C109.034 28.5 109.534 28.3333 109.934 28L110.534 29.38C110.241 29.6333 109.887 29.82 109.474 29.94C109.074 30.06 108.654 30.12 108.214 30.12ZM103.054 20.98V19.4H109.814V20.98H103.054ZM114.955 22.04H122.155V23.74H114.955V22.04ZM115.135 28.26H123.295V30H113.135V16H123.015V17.74H115.135V28.26ZM130.497 30.12C129.47 30.12 128.55 29.8933 127.737 29.44C126.937 28.9867 126.304 28.3533 125.837 27.54C125.37 26.7267 125.137 25.78 125.137 24.7C125.137 23.62 125.37 22.68 125.837 21.88C126.304 21.0667 126.937 20.4333 127.737 19.98C128.55 19.5267 129.47 19.3 130.497 19.3C131.39 19.3 132.197 19.5 132.917 19.9C133.637 20.3 134.21 20.9 134.637 21.7C135.077 22.5 135.297 23.5 135.297 24.7C135.297 25.9 135.084 26.9 134.657 27.7C134.244 28.5 133.677 29.1067 132.957 29.52C132.237 29.92 131.417 30.12 130.497 30.12ZM130.657 28.44C131.324 28.44 131.924 28.2867 132.457 27.98C133.004 27.6733 133.43 27.24 133.737 26.68C134.057 26.1067 134.217 25.4467 134.217 24.7C134.217 23.94 134.057 23.2867 133.737 22.74C133.43 22.18 133.004 21.7467 132.457 21.44C131.924 21.1333 131.324 20.98 130.657 20.98C129.977 20.98 129.37 21.1333 128.837 21.44C128.304 21.7467 127.877 22.18 127.557 22.74C127.237 23.2867 127.077 23.94 127.077 24.7C127.077 25.4467 127.237 26.1067 127.557 26.68C127.877 27.24 128.304 27.6733 128.837 27.98C129.37 28.2867 129.977 28.44 130.657 28.44ZM134.277 30V27.14L134.397 24.68L134.197 22.22V15.16H136.117V30H134.277ZM144.39 34C143.416 34 142.47 33.86 141.55 33.58C140.643 33.3133 139.903 32.9267 139.33 32.42L140.25 30.94C140.743 31.3667 141.35 31.7 142.07 31.94C142.79 32.1933 143.543 32.32 144.33 32.32C145.583 32.32 146.503 32.0267 147.09 31.44C147.676 30.8533 147.97 29.96 147.97 28.76V26.52L148.17 24.42L148.07 22.3V19.4H149.89V28.56C149.89 30.4267 149.423 31.8 148.49 32.68C147.556 33.56 146.19 34 144.39 34ZM144.15 29.56C143.123 29.56 142.203 29.3467 141.39 28.92C140.59 28.48 139.95 27.8733 139.47 27.1C139.003 26.3267 138.77 25.4333 138.77 24.42C138.77 23.3933 139.003 22.5 139.47 21.74C139.95 20.9667 140.59 20.3667 141.39 19.94C142.203 19.5133 143.123 19.3 144.15 19.3C145.056 19.3 145.883 19.4867 146.63 19.86C147.376 20.22 147.97 20.78 148.41 21.54C148.863 22.3 149.09 23.26 149.09 24.42C149.09 25.5667 148.863 26.52 148.41 27.28C147.97 28.04 147.376 28.6133 146.63 29C145.883 29.3733 145.056 29.56 144.15 29.56ZM144.37 27.88C145.076 27.88 145.703 27.7333 146.25 27.44C146.796 27.1467 147.223 26.74 147.53 26.22C147.85 25.7 148.01 25.1 148.01 24.42C148.01 23.74 147.85 23.14 147.53 22.62C147.223 22.1 146.796 21.7 146.25 21.42C145.703 21.1267 145.076 20.98 144.37 20.98C143.663 20.98 143.03 21.1267 142.47 21.42C141.923 21.7 141.49 22.1 141.17 22.62C140.863 23.14 140.71 23.74 140.71 24.42C140.71 25.1 140.863 25.7 141.17 26.22C141.49 26.74 141.923 27.1467 142.47 27.44C143.03 27.7333 143.663 27.88 144.37 27.88ZM158.278 30.12C157.145 30.12 156.145 29.8867 155.278 29.42C154.425 28.9533 153.758 28.3133 153.278 27.5C152.812 26.6867 152.578 25.7533 152.578 24.7C152.578 23.6467 152.805 22.7133 153.258 21.9C153.725 21.0867 154.358 20.4533 155.158 20C155.972 19.5333 156.885 19.3 157.898 19.3C158.925 19.3 159.832 19.5267 160.618 19.98C161.405 20.4333 162.018 21.0733 162.458 21.9C162.912 22.7133 163.138 23.6667 163.138 24.76C163.138 24.84 163.132 24.9333 163.118 25.04C163.118 25.1467 163.112 25.2467 163.098 25.34H154.078V23.96H162.098L161.318 24.44C161.332 23.76 161.192 23.1533 160.898 22.62C160.605 22.0867 160.198 21.6733 159.678 21.38C159.172 21.0733 158.578 20.92 157.898 20.92C157.232 20.92 156.638 21.0733 156.118 21.38C155.598 21.6733 155.192 22.0933 154.898 22.64C154.605 23.1733 154.458 23.7867 154.458 24.48V24.8C154.458 25.5067 154.618 26.14 154.938 26.7C155.272 27.2467 155.732 27.6733 156.318 27.98C156.905 28.2867 157.578 28.44 158.338 28.44C158.965 28.44 159.532 28.3333 160.038 28.12C160.558 27.9067 161.012 27.5867 161.398 27.16L162.458 28.4C161.978 28.96 161.378 29.3867 160.658 29.68C159.952 29.9733 159.158 30.12 158.278 30.12Z" fill="#FCFCFD"/>
<rect x="0.5" y="0.5" width="179" height="45" rx="7.5" stroke="url(#paint2_linear_102_39440)"/>
<defs>
<linearGradient id="paint0_linear_102_39440" x1="52.0002" y1="-0.500001" x2="34.4616" y2="22.0769" gradientUnits="userSpaceOnUse">
<stop stop-color="#FF9E38"/>
<stop offset="1" stop-color="#FD6044"/>
</linearGradient>
<linearGradient id="paint1_linear_102_39440" x1="40" y1="11" x2="16" y2="35" gradientUnits="userSpaceOnUse">
<stop stop-color="#9C2979"/>
<stop offset="1" stop-color="#F15E75"/>
</linearGradient>
<linearGradient id="paint2_linear_102_39440" x1="-33.1579" y1="-25.1905" x2="99.5122" y2="151.65" gradientUnits="userSpaceOnUse">
<stop stop-color="#FF9F38"/>
<stop offset="1" stop-color="#FE5C44"/>
</linearGradient>
</defs>
</svg>
