<svg width="24" height="24" viewBox="0 0 24 24" fill="none" xmlns="http://www.w3.org/2000/svg">
<path d="M0 4C0 1.79086 1.79086 0 4 0H11V11H0V4Z" fill="url(#paint0_linear_649_43176)"/>
<path d="M13 0H20C22.2091 0 24 1.79086 24 4V11H13V0Z" fill="url(#paint1_linear_649_43176)"/>
<path d="M13 13H24V20C24 22.2091 22.2091 24 20 24H13V13Z" fill="url(#paint2_linear_649_43176)"/>
<path d="M0 13H11V24H4C1.79086 24 0 22.2091 0 20V13Z" fill="url(#paint3_linear_649_43176)"/>
<rect x="6" y="6" width="12" height="12" rx="6" fill="url(#paint4_radial_649_43176)"/>
<defs>
<linearGradient id="paint0_linear_649_43176" x1="0" y1="0" x2="12" y2="12" gradientUnits="userSpaceOnUse">
<stop stop-color="#09C3E7"/>
<stop offset="1" stop-color="#7669F0"/>
</linearGradient>
<linearGradient id="paint1_linear_649_43176" x1="24" y1="-6.85453e-07" x2="12.5" y2="12" gradientUnits="userSpaceOnUse">
<stop stop-color="#09C3E7"/>
<stop offset="1" stop-color="#7669F0"/>
</linearGradient>
<linearGradient id="paint2_linear_649_43176" x1="24" y1="24" x2="12.5" y2="12" gradientUnits="userSpaceOnUse">
<stop stop-color="#09C3E7"/>
<stop offset="1" stop-color="#7669F0"/>
</linearGradient>
<linearGradient id="paint3_linear_649_43176" x1="-1.3411e-07" y1="24" x2="12" y2="12" gradientUnits="userSpaceOnUse">
<stop stop-color="#09C3E7"/>
<stop offset="1" stop-color="#7669F0"/>
</linearGradient>
<radialGradient id="paint4_radial_649_43176" cx="0" cy="0" r="1" gradientUnits="userSpaceOnUse" gradientTransform="translate(12 12) rotate(90) scale(9.5)">
<stop stop-color="#00D7E7"/>
<stop offset="1" stop-color="#9642FA"/>
</radialGradient>
</defs>
</svg>
