<svg width="657" height="396" viewBox="0 0 657 396" fill="none" xmlns="http://www.w3.org/2000/svg">
<rect width="657" height="396" fill="#E5E5E5"/>
<rect width="1440" height="9160" transform="translate(-143 -2051)" fill="white"/>
<g filter="url(#filter0_b_0_1)">
<rect width="657" height="396" rx="20" fill="white"/>
</g>
<circle opacity="0.6" cx="295" cy="159" r="105" fill="#00E0FF"/>
<path d="M248.905 139.24C248.905 138.547 249.023 137.869 249.257 137.208C249.503 136.536 249.855 135.928 250.313 135.384C250.783 134.829 251.353 134.392 252.025 134.072C252.697 133.741 253.46 133.576 254.313 133.576C255.327 133.576 256.196 133.811 256.921 134.28C257.647 134.739 258.185 135.331 258.537 136.056L257.401 136.792C257.177 136.312 256.889 135.933 256.537 135.656C256.196 135.368 255.823 135.165 255.417 135.048C255.023 134.931 254.633 134.872 254.249 134.872C253.62 134.872 253.06 135 252.569 135.256C252.089 135.512 251.684 135.853 251.353 136.28C251.023 136.707 250.772 137.187 250.601 137.72C250.441 138.243 250.361 138.771 250.361 139.304C250.361 139.891 250.457 140.456 250.649 141C250.852 141.544 251.129 142.024 251.481 142.44C251.833 142.856 252.249 143.187 252.729 143.432C253.209 143.677 253.732 143.8 254.297 143.8C254.692 143.8 255.097 143.731 255.513 143.592C255.929 143.453 256.319 143.24 256.681 142.952C257.044 142.653 257.332 142.269 257.545 141.8L258.745 142.456C258.511 143.021 258.148 143.501 257.657 143.896C257.167 144.291 256.617 144.589 256.009 144.792C255.412 144.995 254.82 145.096 254.233 145.096C253.455 145.096 252.74 144.931 252.089 144.6C251.439 144.259 250.873 143.811 250.393 143.256C249.924 142.691 249.556 142.061 249.289 141.368C249.033 140.664 248.905 139.955 248.905 139.24ZM260.243 141.656V136.648H261.652V141.384C261.652 142.237 261.801 142.877 262.1 143.304C262.398 143.731 262.841 143.944 263.428 143.944C263.812 143.944 264.18 143.864 264.532 143.704C264.894 143.533 265.22 143.293 265.508 142.984C265.796 142.675 266.02 142.307 266.18 141.88V136.648H267.588V143.4C267.588 143.571 267.62 143.699 267.684 143.784C267.758 143.859 267.876 143.901 268.036 143.912V145C267.876 145.021 267.748 145.032 267.652 145.032C267.566 145.043 267.481 145.048 267.396 145.048C267.129 145.048 266.9 144.968 266.708 144.808C266.516 144.637 266.414 144.429 266.404 144.184L266.372 143.208C266.009 143.827 265.518 144.307 264.9 144.648C264.292 144.989 263.625 145.16 262.9 145.16C262.025 145.16 261.364 144.867 260.916 144.28C260.468 143.683 260.243 142.808 260.243 141.656ZM272.797 145.16C272.104 145.16 271.453 145.048 270.845 144.824C270.237 144.589 269.714 144.243 269.277 143.784L269.821 142.792C270.301 143.24 270.781 143.56 271.261 143.752C271.741 143.944 272.232 144.04 272.733 144.04C273.309 144.04 273.778 143.933 274.141 143.72C274.504 143.496 274.685 143.171 274.685 142.744C274.685 142.435 274.589 142.205 274.397 142.056C274.216 141.907 273.954 141.784 273.613 141.688C273.272 141.581 272.866 141.464 272.397 141.336C271.821 141.165 271.336 140.984 270.941 140.792C270.546 140.6 270.248 140.36 270.045 140.072C269.842 139.784 269.741 139.421 269.741 138.984C269.741 138.451 269.88 138.003 270.157 137.64C270.434 137.267 270.813 136.984 271.293 136.792C271.784 136.6 272.338 136.504 272.957 136.504C273.576 136.504 274.136 136.6 274.637 136.792C275.138 136.984 275.57 137.267 275.933 137.64L275.293 138.616C274.962 138.275 274.6 138.024 274.205 137.864C273.81 137.693 273.368 137.608 272.877 137.608C272.589 137.608 272.306 137.645 272.029 137.72C271.752 137.784 271.522 137.907 271.341 138.088C271.16 138.259 271.069 138.504 271.069 138.824C271.069 139.091 271.138 139.304 271.277 139.464C271.426 139.613 271.64 139.741 271.917 139.848C272.205 139.955 272.552 140.072 272.957 140.2C273.586 140.381 274.13 140.563 274.589 140.744C275.058 140.925 275.421 141.16 275.677 141.448C275.933 141.736 276.061 142.136 276.061 142.648C276.061 143.437 275.762 144.056 275.165 144.504C274.568 144.941 273.778 145.16 272.797 145.16ZM282.065 144.584C281.948 144.637 281.788 144.707 281.585 144.792C281.383 144.877 281.148 144.952 280.881 145.016C280.615 145.08 280.332 145.112 280.033 145.112C279.692 145.112 279.377 145.053 279.089 144.936C278.801 144.808 278.572 144.616 278.401 144.36C278.231 144.093 278.145 143.763 278.145 143.368V137.752H277.009V136.648H278.145V133.864H279.553V136.648H281.425V137.752H279.553V142.936C279.575 143.235 279.676 143.459 279.857 143.608C280.039 143.747 280.252 143.816 280.497 143.816C280.775 143.816 281.031 143.768 281.265 143.672C281.5 143.576 281.655 143.507 281.729 143.464L282.065 144.584ZM286.909 145.16C286.28 145.16 285.709 145.048 285.197 144.824C284.685 144.589 284.242 144.275 283.869 143.88C283.496 143.475 283.208 143.011 283.005 142.488C282.802 141.965 282.701 141.416 282.701 140.84C282.701 140.253 282.802 139.699 283.005 139.176C283.208 138.653 283.496 138.195 283.869 137.8C284.242 137.395 284.685 137.08 285.197 136.856C285.72 136.621 286.29 136.504 286.909 136.504C287.538 136.504 288.109 136.621 288.621 136.856C289.133 137.08 289.576 137.395 289.949 137.8C290.333 138.195 290.626 138.653 290.829 139.176C291.032 139.699 291.133 140.253 291.133 140.84C291.133 141.416 291.032 141.965 290.829 142.488C290.626 143.011 290.338 143.475 289.965 143.88C289.592 144.275 289.144 144.589 288.621 144.824C288.109 145.048 287.538 145.16 286.909 145.16ZM284.141 140.856C284.141 141.432 284.264 141.955 284.509 142.424C284.765 142.893 285.101 143.267 285.517 143.544C285.933 143.811 286.397 143.944 286.909 143.944C287.421 143.944 287.885 143.805 288.301 143.528C288.728 143.251 289.064 142.877 289.309 142.408C289.565 141.928 289.693 141.4 289.693 140.824C289.693 140.248 289.565 139.725 289.309 139.256C289.064 138.787 288.728 138.413 288.301 138.136C287.885 137.859 287.421 137.72 286.909 137.72C286.397 137.72 285.933 137.864 285.517 138.152C285.101 138.429 284.765 138.803 284.509 139.272C284.264 139.741 284.141 140.269 284.141 140.856ZM305.431 145H304.023V140.328C304.023 139.453 303.879 138.808 303.591 138.392C303.314 137.976 302.898 137.768 302.343 137.768C301.778 137.768 301.266 137.976 300.807 138.392C300.348 138.797 300.023 139.325 299.831 139.976V145H298.423V140.328C298.423 139.443 298.284 138.797 298.007 138.392C297.73 137.976 297.314 137.768 296.759 137.768C296.204 137.768 295.692 137.971 295.223 138.376C294.764 138.771 294.439 139.299 294.247 139.96V145H292.839V136.648H294.119V138.44C294.46 137.821 294.903 137.347 295.447 137.016C295.991 136.675 296.604 136.504 297.287 136.504C297.98 136.504 298.535 136.696 298.951 137.08C299.367 137.453 299.623 137.939 299.719 138.536C300.092 137.875 300.546 137.373 301.079 137.032C301.612 136.68 302.22 136.504 302.903 136.504C303.383 136.504 303.783 136.595 304.103 136.776C304.434 136.947 304.695 137.192 304.887 137.512C305.079 137.821 305.218 138.189 305.303 138.616C305.388 139.043 305.431 139.507 305.431 140.008V145ZM307.62 145V136.648H309.028V145H307.62ZM307.62 135.08V133.32H309.028V135.08H307.62ZM310.652 144.088L315.916 137.672H310.796V136.648H317.5V137.56L312.268 143.976H317.516V145H310.652V144.088ZM318.543 142.584C318.543 142.051 318.692 141.592 318.991 141.208C319.3 140.813 319.721 140.509 320.255 140.296C320.788 140.083 321.407 139.976 322.111 139.976C322.484 139.976 322.879 140.008 323.295 140.072C323.711 140.125 324.079 140.211 324.399 140.328V139.72C324.399 139.08 324.207 138.579 323.823 138.216C323.439 137.843 322.895 137.656 322.191 137.656C321.732 137.656 321.289 137.741 320.863 137.912C320.447 138.072 320.004 138.307 319.535 138.616L319.023 137.624C319.567 137.251 320.111 136.973 320.655 136.792C321.199 136.6 321.764 136.504 322.351 136.504C323.417 136.504 324.26 136.803 324.879 137.4C325.497 137.987 325.807 138.808 325.807 139.864V143.4C325.807 143.571 325.839 143.699 325.903 143.784C325.977 143.859 326.095 143.901 326.255 143.912V145C326.116 145.021 325.993 145.037 325.887 145.048C325.791 145.059 325.711 145.064 325.647 145.064C325.316 145.064 325.065 144.973 324.895 144.792C324.735 144.611 324.644 144.419 324.623 144.216L324.591 143.688C324.228 144.157 323.753 144.52 323.167 144.776C322.58 145.032 321.999 145.16 321.423 145.16C320.868 145.16 320.372 145.048 319.935 144.824C319.497 144.589 319.156 144.28 318.911 143.896C318.665 143.501 318.543 143.064 318.543 142.584ZM323.983 143.176C324.111 143.027 324.212 142.877 324.287 142.728C324.361 142.568 324.399 142.435 324.399 142.328V141.288C324.068 141.16 323.721 141.064 323.359 141C322.996 140.925 322.639 140.888 322.286 140.888C321.572 140.888 320.991 141.032 320.543 141.32C320.105 141.597 319.887 141.981 319.887 142.472C319.887 142.739 319.956 143 320.095 143.256C320.244 143.501 320.457 143.704 320.735 143.864C321.023 144.024 321.375 144.104 321.791 144.104C322.228 144.104 322.644 144.019 323.039 143.848C323.433 143.667 323.748 143.443 323.983 143.176ZM332.315 144.584C332.198 144.637 332.038 144.707 331.835 144.792C331.633 144.877 331.398 144.952 331.131 145.016C330.865 145.08 330.582 145.112 330.283 145.112C329.942 145.112 329.627 145.053 329.339 144.936C329.051 144.808 328.822 144.616 328.651 144.36C328.481 144.093 328.395 143.763 328.395 143.368V137.752H327.259V136.648H328.395V133.864H329.803V136.648H331.675V137.752H329.803V142.936C329.825 143.235 329.926 143.459 330.107 143.608C330.289 143.747 330.502 143.816 330.747 143.816C331.025 143.816 331.281 143.768 331.515 143.672C331.75 143.576 331.905 143.507 331.979 143.464L332.315 144.584ZM333.62 145V136.648H335.028V145H333.62ZM333.62 135.08V133.32H335.028V135.08H333.62ZM340.956 145.16C340.327 145.16 339.756 145.048 339.244 144.824C338.732 144.589 338.289 144.275 337.916 143.88C337.543 143.475 337.255 143.011 337.052 142.488C336.849 141.965 336.748 141.416 336.748 140.84C336.748 140.253 336.849 139.699 337.052 139.176C337.255 138.653 337.543 138.195 337.916 137.8C338.289 137.395 338.732 137.08 339.244 136.856C339.767 136.621 340.337 136.504 340.956 136.504C341.585 136.504 342.156 136.621 342.668 136.856C343.18 137.08 343.623 137.395 343.996 137.8C344.38 138.195 344.673 138.653 344.876 139.176C345.079 139.699 345.18 140.253 345.18 140.84C345.18 141.416 345.079 141.965 344.876 142.488C344.673 143.011 344.385 143.475 344.012 143.88C343.639 144.275 343.191 144.589 342.668 144.824C342.156 145.048 341.585 145.16 340.956 145.16ZM338.188 140.856C338.188 141.432 338.311 141.955 338.556 142.424C338.812 142.893 339.148 143.267 339.564 143.544C339.98 143.811 340.444 143.944 340.956 143.944C341.468 143.944 341.932 143.805 342.348 143.528C342.775 143.251 343.111 142.877 343.356 142.408C343.612 141.928 343.74 141.4 343.74 140.824C343.74 140.248 343.612 139.725 343.356 139.256C343.111 138.787 342.775 138.413 342.348 138.136C341.932 137.859 341.468 137.72 340.956 137.72C340.444 137.72 339.98 137.864 339.564 138.152C339.148 138.429 338.812 138.803 338.556 139.272C338.311 139.741 338.188 140.269 338.188 140.856ZM354.134 145H352.726V140.328C352.726 139.443 352.587 138.797 352.31 138.392C352.043 137.976 351.633 137.768 351.078 137.768C350.694 137.768 350.31 137.864 349.926 138.056C349.553 138.248 349.217 138.509 348.918 138.84C348.63 139.16 348.422 139.533 348.294 139.96V145H346.886V136.648H348.166V138.44C348.39 138.045 348.678 137.704 349.03 137.416C349.382 137.128 349.782 136.904 350.23 136.744C350.678 136.584 351.147 136.504 351.638 136.504C352.118 136.504 352.518 136.595 352.838 136.776C353.169 136.947 353.425 137.192 353.606 137.512C353.798 137.821 353.931 138.189 354.006 138.616C354.091 139.043 354.134 139.507 354.134 140.008V145ZM364.69 144.584C364.573 144.637 364.413 144.707 364.21 144.792C364.008 144.877 363.773 144.952 363.506 145.016C363.24 145.08 362.957 145.112 362.658 145.112C362.317 145.112 362.002 145.053 361.714 144.936C361.426 144.808 361.197 144.616 361.026 144.36C360.856 144.093 360.77 143.763 360.77 143.368V137.752H359.634V136.648H360.77V133.864H362.178V136.648H364.05V137.752H362.178V142.936C362.2 143.235 362.301 143.459 362.482 143.608C362.664 143.747 362.877 143.816 363.122 143.816C363.4 143.816 363.656 143.768 363.89 143.672C364.125 143.576 364.28 143.507 364.354 143.464L364.69 144.584ZM373.243 145H371.835V140.328C371.835 139.475 371.681 138.835 371.371 138.408C371.073 137.981 370.641 137.768 370.075 137.768C369.713 137.768 369.345 137.864 368.971 138.056C368.609 138.248 368.289 138.509 368.011 138.84C367.734 139.16 367.531 139.533 367.403 139.96V145H365.995V133.32H367.403V138.44C367.734 137.843 368.182 137.373 368.747 137.032C369.323 136.68 369.942 136.504 370.603 136.504C371.105 136.504 371.521 136.595 371.851 136.776C372.193 136.947 372.465 137.192 372.667 137.512C372.87 137.832 373.014 138.205 373.099 138.632C373.195 139.048 373.243 139.507 373.243 140.008V145ZM374.777 142.584C374.777 142.051 374.926 141.592 375.225 141.208C375.534 140.813 375.956 140.509 376.489 140.296C377.022 140.083 377.641 139.976 378.345 139.976C378.718 139.976 379.113 140.008 379.529 140.072C379.945 140.125 380.313 140.211 380.633 140.328V139.72C380.633 139.08 380.441 138.579 380.057 138.216C379.673 137.843 379.129 137.656 378.425 137.656C377.966 137.656 377.524 137.741 377.097 137.912C376.681 138.072 376.238 138.307 375.769 138.616L375.257 137.624C375.801 137.251 376.345 136.973 376.889 136.792C377.433 136.6 377.998 136.504 378.585 136.504C379.652 136.504 380.494 136.803 381.113 137.4C381.732 137.987 382.041 138.808 382.041 139.864V143.4C382.041 143.571 382.073 143.699 382.137 143.784C382.212 143.859 382.329 143.901 382.489 143.912V145C382.35 145.021 382.228 145.037 382.121 145.048C382.025 145.059 381.945 145.064 381.881 145.064C381.55 145.064 381.3 144.973 381.129 144.792C380.969 144.611 380.878 144.419 380.857 144.216L380.825 143.688C380.462 144.157 379.988 144.52 379.401 144.776C378.814 145.032 378.233 145.16 377.657 145.16C377.102 145.16 376.606 145.048 376.169 144.824C375.732 144.589 375.39 144.28 375.145 143.896C374.9 143.501 374.777 143.064 374.777 142.584ZM380.217 143.176C380.345 143.027 380.446 142.877 380.521 142.728C380.596 142.568 380.633 142.435 380.633 142.328V141.288C380.302 141.16 379.956 141.064 379.593 141C379.23 140.925 378.873 140.888 378.521 140.888C377.806 140.888 377.225 141.032 376.777 141.32C376.34 141.597 376.121 141.981 376.121 142.472C376.121 142.739 376.19 143 376.329 143.256C376.478 143.501 376.692 143.704 376.969 143.864C377.257 144.024 377.609 144.104 378.025 144.104C378.462 144.104 378.878 144.019 379.273 143.848C379.668 143.667 379.982 143.443 380.217 143.176ZM388.55 144.584C388.432 144.637 388.272 144.707 388.07 144.792C387.867 144.877 387.632 144.952 387.366 145.016C387.099 145.08 386.816 145.112 386.518 145.112C386.176 145.112 385.862 145.053 385.574 144.936C385.286 144.808 385.056 144.616 384.886 144.36C384.715 144.093 384.63 143.763 384.63 143.368V137.752H383.494V136.648H384.63V133.864H386.038V136.648H387.91V137.752H386.038V142.936C386.059 143.235 386.16 143.459 386.342 143.608C386.523 143.747 386.736 143.816 386.982 143.816C387.259 143.816 387.515 143.768 387.75 143.672C387.984 143.576 388.139 143.507 388.214 143.464L388.55 144.584ZM298.812 164.16C298.119 164.16 297.469 164.048 296.861 163.824C296.253 163.589 295.73 163.243 295.293 162.784L295.837 161.792C296.317 162.24 296.797 162.56 297.277 162.752C297.757 162.944 298.247 163.04 298.749 163.04C299.325 163.04 299.794 162.933 300.157 162.72C300.519 162.496 300.701 162.171 300.701 161.744C300.701 161.435 300.605 161.205 300.413 161.056C300.231 160.907 299.97 160.784 299.629 160.688C299.287 160.581 298.882 160.464 298.413 160.336C297.837 160.165 297.351 159.984 296.957 159.792C296.562 159.6 296.263 159.36 296.061 159.072C295.858 158.784 295.757 158.421 295.757 157.984C295.757 157.451 295.895 157.003 296.173 156.64C296.45 156.267 296.829 155.984 297.309 155.792C297.799 155.6 298.354 155.504 298.973 155.504C299.591 155.504 300.151 155.6 300.653 155.792C301.154 155.984 301.586 156.267 301.949 156.64L301.309 157.616C300.978 157.275 300.615 157.024 300.221 156.864C299.826 156.693 299.383 156.608 298.893 156.608C298.605 156.608 298.322 156.645 298.045 156.72C297.767 156.784 297.538 156.907 297.357 157.088C297.175 157.259 297.085 157.504 297.085 157.824C297.085 158.091 297.154 158.304 297.293 158.464C297.442 158.613 297.655 158.741 297.933 158.848C298.221 158.955 298.567 159.072 298.973 159.2C299.602 159.381 300.146 159.563 300.605 159.744C301.074 159.925 301.437 160.16 301.693 160.448C301.949 160.736 302.077 161.136 302.077 161.648C302.077 162.437 301.778 163.056 301.181 163.504C300.583 163.941 299.794 164.16 298.812 164.16ZM307.457 164.16C306.828 164.16 306.252 164.048 305.729 163.824C305.217 163.589 304.769 163.269 304.385 162.864C304.012 162.459 303.718 161.995 303.505 161.472C303.302 160.949 303.201 160.395 303.201 159.808C303.201 159.019 303.377 158.299 303.729 157.648C304.081 156.997 304.577 156.48 305.217 156.096C305.857 155.701 306.598 155.504 307.441 155.504C308.262 155.504 308.977 155.691 309.585 156.064C310.204 156.427 310.662 156.917 310.961 157.536L309.585 157.968C309.372 157.573 309.073 157.269 308.689 157.056C308.305 156.832 307.878 156.72 307.409 156.72C306.897 156.72 306.428 156.853 306.001 157.12C305.585 157.387 305.254 157.755 305.009 158.224C304.764 158.683 304.641 159.211 304.641 159.808C304.641 160.395 304.764 160.928 305.009 161.408C305.265 161.877 305.601 162.251 306.017 162.528C306.444 162.805 306.913 162.944 307.425 162.944C307.756 162.944 308.07 162.885 308.369 162.768C308.678 162.651 308.945 162.496 309.169 162.304C309.404 162.101 309.564 161.883 309.649 161.648L311.025 162.064C310.854 162.469 310.593 162.832 310.241 163.152C309.9 163.461 309.489 163.707 309.009 163.888C308.54 164.069 308.022 164.16 307.457 164.16ZM311.964 161.584C311.964 161.051 312.114 160.592 312.412 160.208C312.722 159.813 313.143 159.509 313.676 159.296C314.21 159.083 314.828 158.976 315.532 158.976C315.906 158.976 316.3 159.008 316.716 159.072C317.132 159.125 317.5 159.211 317.82 159.328V158.72C317.82 158.08 317.628 157.579 317.244 157.216C316.86 156.843 316.316 156.656 315.612 156.656C315.154 156.656 314.711 156.741 314.284 156.912C313.868 157.072 313.426 157.307 312.956 157.616L312.444 156.624C312.988 156.251 313.532 155.973 314.076 155.792C314.62 155.6 315.186 155.504 315.772 155.504C316.839 155.504 317.682 155.803 318.3 156.4C318.919 156.987 319.228 157.808 319.228 158.864V162.4C319.228 162.571 319.26 162.699 319.324 162.784C319.399 162.859 319.516 162.901 319.676 162.912V164C319.538 164.021 319.415 164.037 319.308 164.048C319.212 164.059 319.132 164.064 319.068 164.064C318.738 164.064 318.487 163.973 318.316 163.792C318.156 163.611 318.066 163.419 318.044 163.216L318.012 162.688C317.65 163.157 317.175 163.52 316.588 163.776C316.002 164.032 315.42 164.16 314.844 164.16C314.29 164.16 313.794 164.048 313.356 163.824C312.919 163.589 312.578 163.28 312.332 162.896C312.087 162.501 311.964 162.064 311.964 161.584ZM317.404 162.176C317.532 162.027 317.634 161.877 317.708 161.728C317.783 161.568 317.82 161.435 317.82 161.328V160.288C317.49 160.16 317.143 160.064 316.78 160C316.418 159.925 316.06 159.888 315.708 159.888C314.994 159.888 314.412 160.032 313.964 160.32C313.527 160.597 313.308 160.981 313.308 161.472C313.308 161.739 313.378 162 313.516 162.256C313.666 162.501 313.879 162.704 314.156 162.864C314.444 163.024 314.796 163.104 315.212 163.104C315.65 163.104 316.066 163.019 316.46 162.848C316.855 162.667 317.17 162.443 317.404 162.176ZM321.512 152.32H322.92V161.84C322.92 162.299 322.984 162.581 323.112 162.688C323.24 162.795 323.394 162.848 323.576 162.848C323.8 162.848 324.013 162.827 324.216 162.784C324.418 162.731 324.589 162.677 324.728 162.624L324.952 163.776C324.717 163.872 324.44 163.952 324.12 164.016C323.8 164.08 323.517 164.112 323.272 164.112C322.728 164.112 322.296 163.957 321.976 163.648C321.666 163.339 321.512 162.907 321.512 162.352V152.32ZM329.754 164.16C329.125 164.16 328.549 164.048 328.026 163.824C327.514 163.589 327.066 163.275 326.682 162.88C326.309 162.475 326.015 162.011 325.802 161.488C325.599 160.965 325.498 160.411 325.498 159.824C325.498 159.035 325.679 158.315 326.042 157.664C326.405 157.013 326.906 156.491 327.546 156.096C328.197 155.701 328.938 155.504 329.77 155.504C330.613 155.504 331.343 155.707 331.962 156.112C332.591 156.507 333.077 157.029 333.418 157.68C333.77 158.32 333.946 159.013 333.946 159.76C333.946 159.867 333.941 159.973 333.93 160.08C333.93 160.176 333.925 160.251 333.914 160.304H326.986C327.029 160.848 327.178 161.333 327.434 161.76C327.701 162.176 328.042 162.507 328.458 162.752C328.874 162.987 329.322 163.104 329.802 163.104C330.314 163.104 330.794 162.976 331.242 162.72C331.701 162.464 332.015 162.128 332.186 161.712L333.402 162.048C333.221 162.453 332.949 162.816 332.586 163.136C332.234 163.456 331.813 163.707 331.322 163.888C330.842 164.069 330.319 164.16 329.754 164.16ZM326.938 159.328H332.634C332.591 158.784 332.437 158.304 332.17 157.888C331.903 157.472 331.562 157.147 331.146 156.912C330.73 156.677 330.271 156.56 329.77 156.56C329.279 156.56 328.826 156.677 328.41 156.912C327.994 157.147 327.653 157.472 327.386 157.888C327.13 158.304 326.981 158.784 326.938 159.328ZM338.375 164.16C337.682 164.16 337.031 164.048 336.423 163.824C335.815 163.589 335.292 163.243 334.855 162.784L335.399 161.792C335.879 162.24 336.359 162.56 336.839 162.752C337.319 162.944 337.81 163.04 338.311 163.04C338.887 163.04 339.356 162.933 339.719 162.72C340.082 162.496 340.263 162.171 340.263 161.744C340.263 161.435 340.167 161.205 339.975 161.056C339.794 160.907 339.532 160.784 339.191 160.688C338.85 160.581 338.444 160.464 337.975 160.336C337.399 160.165 336.914 159.984 336.519 159.792C336.124 159.6 335.826 159.36 335.623 159.072C335.42 158.784 335.319 158.421 335.319 157.984C335.319 157.451 335.458 157.003 335.735 156.64C336.012 156.267 336.391 155.984 336.871 155.792C337.362 155.6 337.916 155.504 338.535 155.504C339.154 155.504 339.714 155.6 340.215 155.792C340.716 155.984 341.148 156.267 341.511 156.64L340.871 157.616C340.54 157.275 340.178 157.024 339.783 156.864C339.388 156.693 338.946 156.608 338.455 156.608C338.167 156.608 337.884 156.645 337.607 156.72C337.33 156.784 337.1 156.907 336.919 157.088C336.738 157.259 336.647 157.504 336.647 157.824C336.647 158.091 336.716 158.304 336.855 158.464C337.004 158.613 337.218 158.741 337.495 158.848C337.783 158.955 338.13 159.072 338.535 159.2C339.164 159.381 339.708 159.563 340.167 159.744C340.636 159.925 340.999 160.16 341.255 160.448C341.511 160.736 341.639 161.136 341.639 161.648C341.639 162.437 341.34 163.056 340.743 163.504C340.146 163.941 339.356 164.16 338.375 164.16Z" fill="#2331AF"/>
<path d="M77 198V184H129V198H77Z" fill="white"/>
<circle cx="139" cy="161" r="105" fill="#F55B5B" fill-opacity="0.6"/>
<circle opacity="0.6" cx="222" cy="263" r="105" fill="#2CD997"/>
<path d="M166.804 297.24C166.804 296.547 166.921 295.869 167.156 295.208C167.401 294.536 167.753 293.928 168.212 293.384C168.681 292.829 169.252 292.392 169.924 292.072C170.596 291.741 171.358 291.576 172.212 291.576C173.225 291.576 174.094 291.811 174.82 292.28C175.545 292.739 176.084 293.331 176.436 294.056L175.3 294.792C175.076 294.312 174.788 293.933 174.436 293.656C174.094 293.368 173.721 293.165 173.316 293.048C172.921 292.931 172.532 292.872 172.148 292.872C171.518 292.872 170.958 293 170.468 293.256C169.988 293.512 169.582 293.853 169.252 294.28C168.921 294.707 168.67 295.187 168.5 295.72C168.34 296.243 168.26 296.771 168.26 297.304C168.26 297.891 168.356 298.456 168.548 299C168.75 299.544 169.028 300.024 169.38 300.44C169.732 300.856 170.148 301.187 170.628 301.432C171.108 301.677 171.63 301.8 172.196 301.8C172.59 301.8 172.996 301.731 173.412 301.592C173.828 301.453 174.217 301.24 174.58 300.952C174.942 300.653 175.23 300.269 175.444 299.8L176.644 300.456C176.409 301.021 176.046 301.501 175.556 301.896C175.065 302.291 174.516 302.589 173.908 302.792C173.31 302.995 172.718 303.096 172.132 303.096C171.353 303.096 170.638 302.931 169.988 302.6C169.337 302.259 168.772 301.811 168.292 301.256C167.822 300.691 167.454 300.061 167.188 299.368C166.932 298.664 166.804 297.955 166.804 297.24ZM178.254 291.32H179.662V300.84C179.662 301.299 179.726 301.581 179.854 301.688C179.982 301.795 180.137 301.848 180.318 301.848C180.542 301.848 180.755 301.827 180.958 301.784C181.161 301.731 181.331 301.677 181.47 301.624L181.694 302.776C181.459 302.872 181.182 302.952 180.862 303.016C180.542 303.08 180.259 303.112 180.014 303.112C179.47 303.112 179.038 302.957 178.718 302.648C178.409 302.339 178.254 301.907 178.254 301.352V291.32ZM182.8 303V294.648H184.208V303H182.8ZM182.8 293.08V291.32H184.208V293.08H182.8ZM190.184 303.16C189.554 303.16 188.978 303.048 188.456 302.824C187.944 302.589 187.496 302.275 187.112 301.88C186.738 301.475 186.445 301.011 186.232 300.488C186.029 299.965 185.928 299.411 185.928 298.824C185.928 298.035 186.109 297.315 186.472 296.664C186.834 296.013 187.336 295.491 187.976 295.096C188.626 294.701 189.368 294.504 190.2 294.504C191.042 294.504 191.773 294.707 192.392 295.112C193.021 295.507 193.506 296.029 193.848 296.68C194.2 297.32 194.376 298.013 194.376 298.76C194.376 298.867 194.37 298.973 194.36 299.08C194.36 299.176 194.354 299.251 194.344 299.304H187.416C187.458 299.848 187.608 300.333 187.864 300.76C188.13 301.176 188.472 301.507 188.888 301.752C189.304 301.987 189.752 302.104 190.232 302.104C190.744 302.104 191.224 301.976 191.672 301.72C192.13 301.464 192.445 301.128 192.616 300.712L193.832 301.048C193.65 301.453 193.378 301.816 193.016 302.136C192.664 302.456 192.242 302.707 191.752 302.888C191.272 303.069 190.749 303.16 190.184 303.16ZM187.368 298.328H193.064C193.021 297.784 192.866 297.304 192.6 296.888C192.333 296.472 191.992 296.147 191.576 295.912C191.16 295.677 190.701 295.56 190.2 295.56C189.709 295.56 189.256 295.677 188.84 295.912C188.424 296.147 188.082 296.472 187.816 296.888C187.56 297.304 187.41 297.784 187.368 298.328ZM203.189 303H201.781V298.328C201.781 297.443 201.642 296.797 201.365 296.392C201.098 295.976 200.687 295.768 200.133 295.768C199.749 295.768 199.365 295.864 198.981 296.056C198.607 296.248 198.271 296.509 197.973 296.84C197.685 297.16 197.477 297.533 197.349 297.96V303H195.941V294.648H197.221V296.44C197.445 296.045 197.733 295.704 198.085 295.416C198.437 295.128 198.837 294.904 199.285 294.744C199.733 294.584 200.202 294.504 200.693 294.504C201.173 294.504 201.573 294.595 201.893 294.776C202.223 294.947 202.479 295.192 202.661 295.512C202.853 295.821 202.986 296.189 203.061 296.616C203.146 297.043 203.189 297.507 203.189 298.008V303ZM209.62 302.584C209.503 302.637 209.343 302.707 209.14 302.792C208.937 302.877 208.703 302.952 208.436 303.016C208.169 303.08 207.887 303.112 207.588 303.112C207.247 303.112 206.932 303.053 206.644 302.936C206.356 302.808 206.127 302.616 205.956 302.36C205.785 302.093 205.7 301.763 205.7 301.368V295.752H204.564V294.648H205.7V291.864H207.108V294.648H208.98V295.752H207.108V300.936C207.129 301.235 207.231 301.459 207.412 301.608C207.593 301.747 207.807 301.816 208.052 301.816C208.329 301.816 208.585 301.768 208.82 301.672C209.055 301.576 209.209 301.507 209.284 301.464L209.62 302.584ZM221.868 294.024C221.74 293.875 221.569 293.731 221.356 293.592C221.143 293.453 220.903 293.331 220.636 293.224C220.369 293.107 220.076 293.016 219.756 292.952C219.447 292.877 219.121 292.84 218.78 292.84C217.905 292.84 217.26 293.005 216.844 293.336C216.428 293.667 216.22 294.12 216.22 294.696C216.22 295.101 216.327 295.421 216.54 295.656C216.753 295.891 217.079 296.083 217.516 296.232C217.964 296.381 218.529 296.536 219.212 296.696C220.001 296.867 220.684 297.075 221.26 297.32C221.836 297.565 222.279 297.896 222.588 298.312C222.897 298.717 223.052 299.261 223.052 299.944C223.052 300.488 222.945 300.963 222.732 301.368C222.529 301.763 222.241 302.093 221.868 302.36C221.495 302.616 221.057 302.808 220.556 302.936C220.055 303.053 219.511 303.112 218.924 303.112C218.348 303.112 217.783 303.053 217.228 302.936C216.684 302.808 216.167 302.627 215.676 302.392C215.185 302.157 214.727 301.864 214.3 301.512L214.988 300.296C215.159 300.477 215.377 300.659 215.644 300.84C215.921 301.011 216.231 301.171 216.572 301.32C216.924 301.469 217.303 301.592 217.708 301.688C218.113 301.773 218.529 301.816 218.956 301.816C219.767 301.816 220.396 301.672 220.844 301.384C221.292 301.085 221.516 300.653 221.516 300.088C221.516 299.661 221.388 299.32 221.132 299.064C220.887 298.808 220.519 298.595 220.028 298.424C219.537 298.253 218.94 298.083 218.236 297.912C217.468 297.72 216.823 297.512 216.3 297.288C215.777 297.053 215.383 296.749 215.116 296.376C214.86 296.003 214.732 295.517 214.732 294.92C214.732 294.195 214.908 293.581 215.26 293.08C215.612 292.579 216.097 292.2 216.716 291.944C217.335 291.688 218.033 291.56 218.812 291.56C219.324 291.56 219.799 291.613 220.236 291.72C220.684 291.827 221.1 291.976 221.484 292.168C221.868 292.36 222.22 292.589 222.54 292.856L221.868 294.024ZM229.218 303.16C228.535 303.16 227.927 302.989 227.394 302.648C226.861 302.307 226.439 301.875 226.13 301.352V306.408H224.722V294.648H225.97V296.216C226.301 295.704 226.733 295.293 227.266 294.984C227.799 294.664 228.381 294.504 229.01 294.504C229.586 294.504 230.114 294.621 230.594 294.856C231.074 295.091 231.49 295.411 231.842 295.816C232.194 296.221 232.466 296.685 232.658 297.208C232.861 297.72 232.962 298.259 232.962 298.824C232.962 299.613 232.802 300.339 232.482 301C232.173 301.661 231.735 302.189 231.17 302.584C230.605 302.968 229.954 303.16 229.218 303.16ZM228.786 301.944C229.202 301.944 229.575 301.859 229.906 301.688C230.247 301.507 230.535 301.272 230.77 300.984C231.015 300.685 231.202 300.349 231.33 299.976C231.458 299.603 231.522 299.219 231.522 298.824C231.522 298.408 231.447 298.013 231.298 297.64C231.159 297.267 230.957 296.936 230.69 296.648C230.434 296.36 230.13 296.136 229.778 295.976C229.437 295.805 229.063 295.72 228.658 295.72C228.402 295.72 228.135 295.768 227.858 295.864C227.591 295.96 227.335 296.099 227.09 296.28C226.845 296.451 226.637 296.648 226.466 296.872C226.295 297.096 226.183 297.336 226.13 297.592V299.976C226.29 300.339 226.503 300.669 226.77 300.968C227.037 301.267 227.346 301.507 227.698 301.688C228.05 301.859 228.413 301.944 228.786 301.944ZM238.387 303.16C237.757 303.16 237.181 303.048 236.659 302.824C236.147 302.589 235.699 302.275 235.315 301.88C234.941 301.475 234.648 301.011 234.435 300.488C234.232 299.965 234.131 299.411 234.131 298.824C234.131 298.035 234.312 297.315 234.675 296.664C235.037 296.013 235.539 295.491 236.179 295.096C236.829 294.701 237.571 294.504 238.403 294.504C239.245 294.504 239.976 294.707 240.595 295.112C241.224 295.507 241.709 296.029 242.051 296.68C242.403 297.32 242.579 298.013 242.579 298.76C242.579 298.867 242.573 298.973 242.563 299.08C242.563 299.176 242.557 299.251 242.547 299.304H235.619C235.661 299.848 235.811 300.333 236.067 300.76C236.333 301.176 236.675 301.507 237.091 301.752C237.507 301.987 237.955 302.104 238.435 302.104C238.947 302.104 239.427 301.976 239.875 301.72C240.333 301.464 240.648 301.128 240.819 300.712L242.035 301.048C241.853 301.453 241.581 301.816 241.219 302.136C240.867 302.456 240.445 302.707 239.955 302.888C239.475 303.069 238.952 303.16 238.387 303.16ZM235.571 298.328H241.267C241.224 297.784 241.069 297.304 240.803 296.888C240.536 296.472 240.195 296.147 239.779 295.912C239.363 295.677 238.904 295.56 238.403 295.56C237.912 295.56 237.459 295.677 237.043 295.912C236.627 296.147 236.285 296.472 236.019 296.888C235.763 297.304 235.613 297.784 235.571 298.328ZM247.84 303.16C247.21 303.16 246.634 303.048 246.112 302.824C245.6 302.589 245.152 302.269 244.768 301.864C244.394 301.459 244.101 300.995 243.888 300.472C243.685 299.949 243.584 299.395 243.584 298.808C243.584 298.019 243.76 297.299 244.112 296.648C244.464 295.997 244.96 295.48 245.6 295.096C246.24 294.701 246.981 294.504 247.824 294.504C248.645 294.504 249.36 294.691 249.968 295.064C250.586 295.427 251.045 295.917 251.344 296.536L249.968 296.968C249.754 296.573 249.456 296.269 249.072 296.056C248.688 295.832 248.261 295.72 247.792 295.72C247.28 295.72 246.81 295.853 246.384 296.12C245.968 296.387 245.637 296.755 245.392 297.224C245.146 297.683 245.024 298.211 245.024 298.808C245.024 299.395 245.146 299.928 245.392 300.408C245.648 300.877 245.984 301.251 246.4 301.528C246.826 301.805 247.296 301.944 247.808 301.944C248.138 301.944 248.453 301.885 248.752 301.768C249.061 301.651 249.328 301.496 249.552 301.304C249.786 301.101 249.946 300.883 250.032 300.648L251.408 301.064C251.237 301.469 250.976 301.832 250.624 302.152C250.282 302.461 249.872 302.707 249.392 302.888C248.922 303.069 248.405 303.16 247.84 303.16ZM253.003 303V294.648H254.411V303H253.003ZM253.003 293.08V291.32H254.411V293.08H253.003ZM257.139 295.752H256.003V294.648H257.139V294.472C257.139 294.056 257.203 293.656 257.331 293.272C257.459 292.877 257.651 292.52 257.907 292.2C258.163 291.88 258.483 291.629 258.867 291.448C259.251 291.256 259.704 291.16 260.227 291.16C260.621 291.16 260.984 291.203 261.315 291.288C261.645 291.373 261.939 291.48 262.195 291.608C262.461 291.736 262.68 291.864 262.851 291.992L262.243 293.032C262.04 292.851 261.763 292.696 261.411 292.568C261.069 292.44 260.701 292.376 260.307 292.376C259.901 292.376 259.565 292.477 259.299 292.68C259.043 292.883 258.851 293.144 258.723 293.464C258.605 293.773 258.547 294.093 258.547 294.424V294.648H262.819V303H261.411V295.752H258.547V303H257.139V295.752ZM268.793 303.16C268.164 303.16 267.588 303.048 267.065 302.824C266.553 302.589 266.105 302.269 265.721 301.864C265.348 301.459 265.054 300.995 264.841 300.472C264.638 299.949 264.537 299.395 264.537 298.808C264.537 298.019 264.713 297.299 265.065 296.648C265.417 295.997 265.913 295.48 266.553 295.096C267.193 294.701 267.934 294.504 268.777 294.504C269.598 294.504 270.313 294.691 270.921 295.064C271.54 295.427 271.998 295.917 272.297 296.536L270.921 296.968C270.708 296.573 270.409 296.269 270.025 296.056C269.641 295.832 269.214 295.72 268.745 295.72C268.233 295.72 267.764 295.853 267.337 296.12C266.921 296.387 266.59 296.755 266.345 297.224C266.1 297.683 265.977 298.211 265.977 298.808C265.977 299.395 266.1 299.928 266.345 300.408C266.601 300.877 266.937 301.251 267.353 301.528C267.78 301.805 268.249 301.944 268.761 301.944C269.092 301.944 269.406 301.885 269.705 301.768C270.014 301.651 270.281 301.496 270.505 301.304C270.74 301.101 270.9 300.883 270.985 300.648L272.361 301.064C272.19 301.469 271.929 301.832 271.577 302.152C271.236 302.461 270.825 302.707 270.345 302.888C269.876 303.069 269.358 303.16 268.793 303.16ZM187.761 310.64H188.977L193.617 322H192.081L190.737 318.672H185.969L184.641 322H183.105L187.761 310.64ZM190.417 317.552L188.369 312.304L186.257 317.552H190.417ZM199.405 322.16C198.723 322.16 198.115 321.989 197.581 321.648C197.048 321.307 196.627 320.875 196.317 320.352V325.408H194.909V313.648H196.157V315.216C196.488 314.704 196.92 314.293 197.453 313.984C197.987 313.664 198.568 313.504 199.197 313.504C199.773 313.504 200.301 313.621 200.781 313.856C201.261 314.091 201.677 314.411 202.029 314.816C202.381 315.221 202.653 315.685 202.845 316.208C203.048 316.72 203.149 317.259 203.149 317.824C203.149 318.613 202.989 319.339 202.669 320C202.36 320.661 201.923 321.189 201.357 321.584C200.792 321.968 200.141 322.16 199.405 322.16ZM198.973 320.944C199.389 320.944 199.763 320.859 200.093 320.688C200.435 320.507 200.723 320.272 200.957 319.984C201.203 319.685 201.389 319.349 201.517 318.976C201.645 318.603 201.709 318.219 201.709 317.824C201.709 317.408 201.635 317.013 201.485 316.64C201.347 316.267 201.144 315.936 200.877 315.648C200.621 315.36 200.317 315.136 199.965 314.976C199.624 314.805 199.251 314.72 198.845 314.72C198.589 314.72 198.323 314.768 198.045 314.864C197.779 314.96 197.523 315.099 197.277 315.28C197.032 315.451 196.824 315.648 196.653 315.872C196.483 316.096 196.371 316.336 196.317 316.592V318.976C196.477 319.339 196.691 319.669 196.957 319.968C197.224 320.267 197.533 320.507 197.885 320.688C198.237 320.859 198.6 320.944 198.973 320.944ZM209.374 322.16C208.692 322.16 208.084 321.989 207.55 321.648C207.017 321.307 206.596 320.875 206.286 320.352V325.408H204.878V313.648H206.126V315.216C206.457 314.704 206.889 314.293 207.422 313.984C207.956 313.664 208.537 313.504 209.166 313.504C209.742 313.504 210.27 313.621 210.75 313.856C211.23 314.091 211.646 314.411 211.998 314.816C212.35 315.221 212.622 315.685 212.814 316.208C213.017 316.72 213.118 317.259 213.118 317.824C213.118 318.613 212.958 319.339 212.638 320C212.329 320.661 211.892 321.189 211.326 321.584C210.761 321.968 210.11 322.16 209.374 322.16ZM208.942 320.944C209.358 320.944 209.732 320.859 210.062 320.688C210.404 320.507 210.692 320.272 210.926 319.984C211.172 319.685 211.358 319.349 211.486 318.976C211.614 318.603 211.678 318.219 211.678 317.824C211.678 317.408 211.604 317.013 211.454 316.64C211.316 316.267 211.113 315.936 210.846 315.648C210.59 315.36 210.286 315.136 209.934 314.976C209.593 314.805 209.22 314.72 208.814 314.72C208.558 314.72 208.292 314.768 208.014 314.864C207.748 314.96 207.492 315.099 207.246 315.28C207.001 315.451 206.793 315.648 206.622 315.872C206.452 316.096 206.34 316.336 206.286 316.592V318.976C206.446 319.339 206.66 319.669 206.926 319.968C207.193 320.267 207.502 320.507 207.854 320.688C208.206 320.859 208.569 320.944 208.942 320.944ZM219.263 314.88C218.559 314.891 217.935 315.072 217.391 315.424C216.858 315.765 216.479 316.24 216.255 316.848V322H214.847V313.648H216.159V315.584C216.447 315.008 216.826 314.544 217.295 314.192C217.775 313.829 218.276 313.627 218.799 313.584C218.906 313.584 218.996 313.584 219.071 313.584C219.146 313.584 219.21 313.589 219.263 313.6V314.88ZM224.104 322.16C223.475 322.16 222.904 322.048 222.392 321.824C221.88 321.589 221.438 321.275 221.064 320.88C220.691 320.475 220.403 320.011 220.2 319.488C219.998 318.965 219.896 318.416 219.896 317.84C219.896 317.253 219.998 316.699 220.2 316.176C220.403 315.653 220.691 315.195 221.064 314.8C221.438 314.395 221.88 314.08 222.392 313.856C222.915 313.621 223.486 313.504 224.104 313.504C224.734 313.504 225.304 313.621 225.816 313.856C226.328 314.08 226.771 314.395 227.144 314.8C227.528 315.195 227.822 315.653 228.024 316.176C228.227 316.699 228.328 317.253 228.328 317.84C228.328 318.416 228.227 318.965 228.024 319.488C227.822 320.011 227.534 320.475 227.16 320.88C226.787 321.275 226.339 321.589 225.816 321.824C225.304 322.048 224.734 322.16 224.104 322.16ZM221.336 317.856C221.336 318.432 221.459 318.955 221.704 319.424C221.96 319.893 222.296 320.267 222.712 320.544C223.128 320.811 223.592 320.944 224.104 320.944C224.616 320.944 225.08 320.805 225.496 320.528C225.923 320.251 226.259 319.877 226.504 319.408C226.76 318.928 226.888 318.4 226.888 317.824C226.888 317.248 226.76 316.725 226.504 316.256C226.259 315.787 225.923 315.413 225.496 315.136C225.08 314.859 224.616 314.72 224.104 314.72C223.592 314.72 223.128 314.864 222.712 315.152C222.296 315.429 221.96 315.803 221.704 316.272C221.459 316.741 221.336 317.269 221.336 317.856ZM229.378 319.584C229.378 319.051 229.528 318.592 229.826 318.208C230.136 317.813 230.557 317.509 231.09 317.296C231.624 317.083 232.242 316.976 232.946 316.976C233.32 316.976 233.714 317.008 234.13 317.072C234.546 317.125 234.914 317.211 235.234 317.328V316.72C235.234 316.08 235.042 315.579 234.658 315.216C234.274 314.843 233.73 314.656 233.026 314.656C232.568 314.656 232.125 314.741 231.698 314.912C231.282 315.072 230.84 315.307 230.37 315.616L229.858 314.624C230.402 314.251 230.946 313.973 231.49 313.792C232.034 313.6 232.6 313.504 233.186 313.504C234.253 313.504 235.096 313.803 235.714 314.4C236.333 314.987 236.642 315.808 236.642 316.864V320.4C236.642 320.571 236.674 320.699 236.738 320.784C236.813 320.859 236.93 320.901 237.09 320.912V322C236.952 322.021 236.829 322.037 236.722 322.048C236.626 322.059 236.546 322.064 236.482 322.064C236.152 322.064 235.901 321.973 235.73 321.792C235.57 321.611 235.48 321.419 235.458 321.216L235.426 320.688C235.064 321.157 234.589 321.52 234.002 321.776C233.416 322.032 232.834 322.16 232.258 322.16C231.704 322.16 231.208 322.048 230.77 321.824C230.333 321.589 229.992 321.28 229.746 320.896C229.501 320.501 229.378 320.064 229.378 319.584ZM234.818 320.176C234.946 320.027 235.048 319.877 235.122 319.728C235.197 319.568 235.234 319.435 235.234 319.328V318.288C234.904 318.16 234.557 318.064 234.194 318C233.832 317.925 233.474 317.888 233.122 317.888C232.408 317.888 231.826 318.032 231.378 318.32C230.941 318.597 230.722 318.981 230.722 319.472C230.722 319.739 230.792 320 230.93 320.256C231.08 320.501 231.293 320.704 231.57 320.864C231.858 321.024 232.21 321.104 232.626 321.104C233.064 321.104 233.48 321.019 233.874 320.848C234.269 320.667 234.584 320.443 234.818 320.176ZM242.59 322.16C241.96 322.16 241.384 322.048 240.862 321.824C240.35 321.589 239.902 321.269 239.518 320.864C239.144 320.459 238.851 319.995 238.638 319.472C238.435 318.949 238.334 318.395 238.334 317.808C238.334 317.019 238.51 316.299 238.862 315.648C239.214 314.997 239.71 314.48 240.35 314.096C240.99 313.701 241.731 313.504 242.574 313.504C243.395 313.504 244.11 313.691 244.718 314.064C245.336 314.427 245.795 314.917 246.094 315.536L244.718 315.968C244.504 315.573 244.206 315.269 243.822 315.056C243.438 314.832 243.011 314.72 242.542 314.72C242.03 314.72 241.56 314.853 241.134 315.12C240.718 315.387 240.387 315.755 240.142 316.224C239.896 316.683 239.774 317.211 239.774 317.808C239.774 318.395 239.896 318.928 240.142 319.408C240.398 319.877 240.734 320.251 241.15 320.528C241.576 320.805 242.046 320.944 242.558 320.944C242.888 320.944 243.203 320.885 243.502 320.768C243.811 320.651 244.078 320.496 244.302 320.304C244.536 320.101 244.696 319.883 244.782 319.648L246.158 320.064C245.987 320.469 245.726 320.832 245.374 321.152C245.032 321.461 244.622 321.707 244.142 321.888C243.672 322.069 243.155 322.16 242.59 322.16ZM255.001 322H253.593V317.328C253.593 316.475 253.439 315.835 253.129 315.408C252.831 314.981 252.399 314.768 251.833 314.768C251.471 314.768 251.103 314.864 250.729 315.056C250.367 315.248 250.047 315.509 249.769 315.84C249.492 316.16 249.289 316.533 249.161 316.96V322H247.753V310.32H249.161V315.44C249.492 314.843 249.94 314.373 250.505 314.032C251.081 313.68 251.7 313.504 252.361 313.504C252.863 313.504 253.279 313.595 253.609 313.776C253.951 313.947 254.223 314.192 254.425 314.512C254.628 314.832 254.772 315.205 254.857 315.632C254.953 316.048 255.001 316.507 255.001 317.008V322Z" fill="#10842A"/>
<path d="M53.1441 143.64H54.3601L59.0001 155H57.4641L56.1201 151.672H51.3521L50.0241 155H48.4881L53.1441 143.64ZM55.8001 150.552L53.7521 145.304L51.6401 150.552H55.8001ZM59.5139 150.84C59.5139 150.051 59.6739 149.331 59.9939 148.68C60.3245 148.019 60.7725 147.491 61.3379 147.096C61.9139 146.701 62.5699 146.504 63.3059 146.504C63.9779 146.504 64.5805 146.68 65.1139 147.032C65.6472 147.384 66.0632 147.811 66.3619 148.312V143.32H67.7699V153.4C67.7699 153.571 67.8019 153.699 67.8659 153.784C67.9405 153.859 68.0579 153.901 68.2179 153.912V155C67.9512 155.043 67.7432 155.064 67.5939 155.064C67.3165 155.064 67.0712 154.968 66.8579 154.776C66.6552 154.584 66.5539 154.371 66.5539 154.136V153.432C66.2232 153.965 65.7805 154.387 65.2259 154.696C64.6712 155.005 64.0952 155.16 63.4979 155.16C62.9219 155.16 62.3885 155.048 61.8979 154.824C61.4179 154.589 60.9965 154.269 60.6339 153.864C60.2819 153.459 60.0045 153 59.8019 152.488C59.6099 151.965 59.5139 151.416 59.5139 150.84ZM66.3619 152.072V149.672C66.2339 149.309 66.0259 148.984 65.7379 148.696C65.4499 148.397 65.1245 148.163 64.7619 147.992C64.4099 147.811 64.0579 147.72 63.7059 147.72C63.2899 147.72 62.9112 147.811 62.5699 147.992C62.2392 148.163 61.9512 148.397 61.7059 148.696C61.4712 148.984 61.2899 149.315 61.1619 149.688C61.0339 150.061 60.9699 150.451 60.9699 150.856C60.9699 151.272 61.0392 151.667 61.1779 152.04C61.3272 152.413 61.5299 152.744 61.7859 153.032C62.0525 153.32 62.3565 153.544 62.6979 153.704C63.0499 153.864 63.4285 153.944 63.8339 153.944C64.0899 153.944 64.3512 153.896 64.6179 153.8C64.8952 153.704 65.1565 153.571 65.4019 153.4C65.6472 153.229 65.8552 153.032 66.0259 152.808C66.1965 152.573 66.3085 152.328 66.3619 152.072ZM72.5204 155L69.2404 146.648H70.7124L73.3364 153.656L75.9604 146.648H77.3364L74.0564 155H72.5204ZM78.7454 155V146.648H80.1534V155H78.7454ZM78.7454 145.08V143.32H80.1534V145.08H78.7454ZM85.2969 155.16C84.6035 155.16 83.9529 155.048 83.3449 154.824C82.7369 154.589 82.2142 154.243 81.7769 153.784L82.3209 152.792C82.8009 153.24 83.2809 153.56 83.7609 153.752C84.2409 153.944 84.7315 154.04 85.2329 154.04C85.8089 154.04 86.2782 153.933 86.6409 153.72C87.0035 153.496 87.1849 153.171 87.1849 152.744C87.1849 152.435 87.0889 152.205 86.8969 152.056C86.7155 151.907 86.4542 151.784 86.1129 151.688C85.7715 151.581 85.3662 151.464 84.8969 151.336C84.3209 151.165 83.8355 150.984 83.4409 150.792C83.0462 150.6 82.7475 150.36 82.5449 150.072C82.3422 149.784 82.2409 149.421 82.2409 148.984C82.2409 148.451 82.3795 148.003 82.6569 147.64C82.9342 147.267 83.3129 146.984 83.7929 146.792C84.2835 146.6 84.8382 146.504 85.4569 146.504C86.0755 146.504 86.6355 146.6 87.1369 146.792C87.6382 146.984 88.0702 147.267 88.4329 147.64L87.7929 148.616C87.4622 148.275 87.0995 148.024 86.7049 147.864C86.3102 147.693 85.8675 147.608 85.3769 147.608C85.0889 147.608 84.8062 147.645 84.5289 147.72C84.2515 147.784 84.0222 147.907 83.8409 148.088C83.6595 148.259 83.5689 148.504 83.5689 148.824C83.5689 149.091 83.6382 149.304 83.7769 149.464C83.9262 149.613 84.1395 149.741 84.4169 149.848C84.7049 149.955 85.0515 150.072 85.4569 150.2C86.0862 150.381 86.6302 150.563 87.0889 150.744C87.5582 150.925 87.9209 151.16 88.1769 151.448C88.4329 151.736 88.5609 152.136 88.5609 152.648C88.5609 153.437 88.2622 154.056 87.6649 154.504C87.0675 154.941 86.2782 155.16 85.2969 155.16ZM93.8934 155.16C93.264 155.16 92.6934 155.048 92.1814 154.824C91.6694 154.589 91.2267 154.275 90.8534 153.88C90.48 153.475 90.192 153.011 89.9894 152.488C89.7867 151.965 89.6854 151.416 89.6854 150.84C89.6854 150.253 89.7867 149.699 89.9894 149.176C90.192 148.653 90.48 148.195 90.8534 147.8C91.2267 147.395 91.6694 147.08 92.1814 146.856C92.704 146.621 93.2747 146.504 93.8934 146.504C94.5227 146.504 95.0934 146.621 95.6054 146.856C96.1174 147.08 96.56 147.395 96.9334 147.8C97.3174 148.195 97.6107 148.653 97.8134 149.176C98.016 149.699 98.1174 150.253 98.1174 150.84C98.1174 151.416 98.016 151.965 97.8134 152.488C97.6107 153.011 97.3227 153.475 96.9494 153.88C96.576 154.275 96.128 154.589 95.6054 154.824C95.0934 155.048 94.5227 155.16 93.8934 155.16ZM91.1254 150.856C91.1254 151.432 91.248 151.955 91.4934 152.424C91.7494 152.893 92.0854 153.267 92.5014 153.544C92.9174 153.811 93.3814 153.944 93.8934 153.944C94.4054 153.944 94.8694 153.805 95.2854 153.528C95.712 153.251 96.048 152.877 96.2934 152.408C96.5494 151.928 96.6774 151.4 96.6774 150.824C96.6774 150.248 96.5494 149.725 96.2934 149.256C96.048 148.787 95.712 148.413 95.2854 148.136C94.8694 147.859 94.4054 147.72 93.8934 147.72C93.3814 147.72 92.9174 147.864 92.5014 148.152C92.0854 148.429 91.7494 148.803 91.4934 149.272C91.248 149.741 91.1254 150.269 91.1254 150.856ZM104.24 147.88C103.536 147.891 102.912 148.072 102.368 148.424C101.834 148.765 101.456 149.24 101.232 149.848V155H99.8235V146.648H101.136V148.584C101.424 148.008 101.802 147.544 102.272 147.192C102.752 146.829 103.253 146.627 103.776 146.584C103.882 146.584 103.973 146.584 104.048 146.584C104.122 146.584 104.186 146.589 104.24 146.6V147.88ZM106.02 157.272C106.159 157.283 106.297 157.293 106.436 157.304C106.575 157.325 106.681 157.336 106.756 157.336C106.927 157.336 107.076 157.277 107.204 157.16C107.332 157.043 107.471 156.813 107.62 156.472C107.78 156.141 107.983 155.651 108.228 155L104.692 146.648H106.18L108.996 153.576L111.54 146.648H112.932L108.868 157.192C108.772 157.437 108.628 157.667 108.436 157.88C108.255 158.104 108.02 158.28 107.732 158.408C107.444 158.536 107.097 158.6 106.692 158.6C106.596 158.6 106.495 158.595 106.388 158.584C106.292 158.573 106.169 158.552 106.02 158.52V157.272ZM118.412 147.752H117.276V146.648H118.412V146.472C118.412 146.056 118.476 145.656 118.604 145.272C118.732 144.877 118.924 144.52 119.18 144.2C119.436 143.88 119.756 143.629 120.14 143.448C120.524 143.256 120.977 143.16 121.5 143.16C121.895 143.16 122.257 143.203 122.588 143.288C122.919 143.373 123.212 143.48 123.468 143.608C123.735 143.736 123.953 143.864 124.124 143.992L123.516 145.032C123.313 144.851 123.036 144.696 122.684 144.568C122.343 144.44 121.975 144.376 121.58 144.376C121.175 144.376 120.839 144.477 120.572 144.68C120.316 144.883 120.124 145.144 119.996 145.464C119.879 145.773 119.82 146.093 119.82 146.424V146.648H124.092V155H122.684V147.752H119.82V155H118.412V147.752ZM129.234 155.16C128.541 155.16 127.89 155.048 127.282 154.824C126.674 154.589 126.152 154.243 125.714 153.784L126.258 152.792C126.738 153.24 127.218 153.56 127.698 153.752C128.178 153.944 128.669 154.04 129.17 154.04C129.746 154.04 130.216 153.933 130.578 153.72C130.941 153.496 131.122 153.171 131.122 152.744C131.122 152.435 131.026 152.205 130.834 152.056C130.653 151.907 130.392 151.784 130.05 151.688C129.709 151.581 129.304 151.464 128.834 151.336C128.258 151.165 127.773 150.984 127.378 150.792C126.984 150.6 126.685 150.36 126.482 150.072C126.28 149.784 126.178 149.421 126.178 148.984C126.178 148.451 126.317 148.003 126.594 147.64C126.872 147.267 127.25 146.984 127.73 146.792C128.221 146.6 128.776 146.504 129.394 146.504C130.013 146.504 130.573 146.6 131.074 146.792C131.576 146.984 132.008 147.267 132.37 147.64L131.73 148.616C131.4 148.275 131.037 148.024 130.642 147.864C130.248 147.693 129.805 147.608 129.314 147.608C129.026 147.608 128.744 147.645 128.466 147.72C128.189 147.784 127.96 147.907 127.778 148.088C127.597 148.259 127.506 148.504 127.506 148.824C127.506 149.091 127.576 149.304 127.714 149.464C127.864 149.613 128.077 149.741 128.354 149.848C128.642 149.955 128.989 150.072 129.394 150.2C130.024 150.381 130.568 150.563 131.026 150.744C131.496 150.925 131.858 151.16 132.114 151.448C132.37 151.736 132.498 152.136 132.498 152.648C132.498 153.437 132.2 154.056 131.602 154.504C131.005 154.941 130.216 155.16 129.234 155.16ZM138.503 154.584C138.386 154.637 138.226 154.707 138.023 154.792C137.82 154.877 137.586 154.952 137.319 155.016C137.052 155.08 136.77 155.112 136.471 155.112C136.13 155.112 135.815 155.053 135.527 154.936C135.239 154.808 135.01 154.616 134.839 154.36C134.668 154.093 134.583 153.763 134.583 153.368V147.752H133.447V146.648H134.583V143.864H135.991V146.648H137.863V147.752H135.991V152.936C136.012 153.235 136.114 153.459 136.295 153.608C136.476 153.747 136.69 153.816 136.935 153.816C137.212 153.816 137.468 153.768 137.703 153.672C137.938 153.576 138.092 153.507 138.167 153.464L138.503 154.584ZM58.4097 171.584C58.4097 171.051 58.559 170.592 58.8577 170.208C59.167 169.813 59.5884 169.509 60.1217 169.296C60.655 169.083 61.2737 168.976 61.9777 168.976C62.351 168.976 62.7457 169.008 63.1617 169.072C63.5777 169.125 63.9457 169.211 64.2657 169.328V168.72C64.2657 168.08 64.0737 167.579 63.6897 167.216C63.3057 166.843 62.7617 166.656 62.0577 166.656C61.599 166.656 61.1564 166.741 60.7297 166.912C60.3137 167.072 59.871 167.307 59.4017 167.616L58.8897 166.624C59.4337 166.251 59.9777 165.973 60.5217 165.792C61.0657 165.6 61.631 165.504 62.2177 165.504C63.2844 165.504 64.127 165.803 64.7457 166.4C65.3644 166.987 65.6737 167.808 65.6737 168.864V172.4C65.6737 172.571 65.7057 172.699 65.7697 172.784C65.8444 172.859 65.9617 172.901 66.1217 172.912V174C65.983 174.021 65.8604 174.037 65.7537 174.048C65.6577 174.059 65.5777 174.064 65.5137 174.064C65.183 174.064 64.9324 173.973 64.7617 173.792C64.6017 173.611 64.511 173.419 64.4897 173.216L64.4577 172.688C64.095 173.157 63.6204 173.52 63.0337 173.776C62.447 174.032 61.8657 174.16 61.2897 174.16C60.735 174.16 60.239 174.048 59.8017 173.824C59.3644 173.589 59.023 173.28 58.7777 172.896C58.5324 172.501 58.4097 172.064 58.4097 171.584ZM63.8497 172.176C63.9777 172.027 64.079 171.877 64.1537 171.728C64.2284 171.568 64.2657 171.435 64.2657 171.328V170.288C63.935 170.16 63.5884 170.064 63.2257 170C62.863 169.925 62.5057 169.888 62.1537 169.888C61.439 169.888 60.8577 170.032 60.4097 170.32C59.9724 170.597 59.7537 170.981 59.7537 171.472C59.7537 171.739 59.823 172 59.9617 172.256C60.111 172.501 60.3244 172.704 60.6017 172.864C60.8897 173.024 61.2417 173.104 61.6577 173.104C62.095 173.104 62.511 173.019 62.9057 172.848C63.3004 172.667 63.615 172.443 63.8497 172.176ZM72.4211 174.16C71.7384 174.16 71.1304 173.989 70.5971 173.648C70.0637 173.307 69.6424 172.875 69.3331 172.352V177.408H67.9251V165.648H69.1731V167.216C69.5037 166.704 69.9357 166.293 70.4691 165.984C71.0024 165.664 71.5837 165.504 72.2131 165.504C72.7891 165.504 73.3171 165.621 73.7971 165.856C74.2771 166.091 74.6931 166.411 75.0451 166.816C75.3971 167.221 75.6691 167.685 75.8611 168.208C76.0637 168.72 76.1651 169.259 76.1651 169.824C76.1651 170.613 76.0051 171.339 75.6851 172C75.3757 172.661 74.9384 173.189 74.3731 173.584C73.8077 173.968 73.1571 174.16 72.4211 174.16ZM71.9891 172.944C72.4051 172.944 72.7784 172.859 73.1091 172.688C73.4504 172.507 73.7384 172.272 73.9731 171.984C74.2184 171.685 74.4051 171.349 74.5331 170.976C74.6611 170.603 74.7251 170.219 74.7251 169.824C74.7251 169.408 74.6504 169.013 74.5011 168.64C74.3624 168.267 74.1597 167.936 73.8931 167.648C73.6371 167.36 73.3331 167.136 72.9811 166.976C72.6397 166.805 72.2664 166.72 71.8611 166.72C71.6051 166.72 71.3384 166.768 71.0611 166.864C70.7944 166.96 70.5384 167.099 70.2931 167.28C70.0477 167.451 69.8397 167.648 69.6691 167.872C69.4984 168.096 69.3864 168.336 69.3331 168.592V170.976C69.4931 171.339 69.7064 171.669 69.9731 171.968C70.2397 172.267 70.5491 172.507 70.9011 172.688C71.2531 172.859 71.6157 172.944 71.9891 172.944ZM82.3898 174.16C81.7071 174.16 81.0991 173.989 80.5658 173.648C80.0325 173.307 79.6111 172.875 79.3018 172.352V177.408H77.8938V165.648H79.1418V167.216C79.4725 166.704 79.9045 166.293 80.4378 165.984C80.9711 165.664 81.5525 165.504 82.1818 165.504C82.7578 165.504 83.2858 165.621 83.7658 165.856C84.2458 166.091 84.6618 166.411 85.0138 166.816C85.3658 167.221 85.6378 167.685 85.8298 168.208C86.0325 168.72 86.1338 169.259 86.1338 169.824C86.1338 170.613 85.9738 171.339 85.6538 172C85.3445 172.661 84.9071 173.189 84.3418 173.584C83.7765 173.968 83.1258 174.16 82.3898 174.16ZM81.9578 172.944C82.3738 172.944 82.7471 172.859 83.0778 172.688C83.4191 172.507 83.7071 172.272 83.9418 171.984C84.1871 171.685 84.3738 171.349 84.5018 170.976C84.6298 170.603 84.6938 170.219 84.6938 169.824C84.6938 169.408 84.6191 169.013 84.4698 168.64C84.3311 168.267 84.1285 167.936 83.8618 167.648C83.6058 167.36 83.3018 167.136 82.9498 166.976C82.6085 166.805 82.2351 166.72 81.8298 166.72C81.5738 166.72 81.3071 166.768 81.0298 166.864C80.7631 166.96 80.5071 167.099 80.2618 167.28C80.0165 167.451 79.8085 167.648 79.6378 167.872C79.4671 168.096 79.3551 168.336 79.3018 168.592V170.976C79.4618 171.339 79.6751 171.669 79.9418 171.968C80.2085 172.267 80.5178 172.507 80.8698 172.688C81.2218 172.859 81.5845 172.944 81.9578 172.944ZM92.2786 166.88C91.5746 166.891 90.9506 167.072 90.4066 167.424C89.8732 167.765 89.4946 168.24 89.2706 168.848V174H87.8626V165.648H89.1746V167.584C89.4626 167.008 89.8412 166.544 90.3106 166.192C90.7906 165.829 91.2919 165.627 91.8146 165.584C91.9212 165.584 92.0119 165.584 92.0866 165.584C92.1612 165.584 92.2252 165.589 92.2786 165.6V166.88ZM97.1199 174.16C96.4906 174.16 95.9199 174.048 95.4079 173.824C94.8959 173.589 94.4533 173.275 94.0799 172.88C93.7066 172.475 93.4186 172.011 93.2159 171.488C93.0133 170.965 92.9119 170.416 92.9119 169.84C92.9119 169.253 93.0133 168.699 93.2159 168.176C93.4186 167.653 93.7066 167.195 94.0799 166.8C94.4533 166.395 94.8959 166.08 95.4079 165.856C95.9306 165.621 96.5013 165.504 97.1199 165.504C97.7493 165.504 98.3199 165.621 98.8319 165.856C99.3439 166.08 99.7866 166.395 100.16 166.8C100.544 167.195 100.837 167.653 101.04 168.176C101.243 168.699 101.344 169.253 101.344 169.84C101.344 170.416 101.243 170.965 101.04 171.488C100.837 172.011 100.549 172.475 100.176 172.88C99.8026 173.275 99.3546 173.589 98.8319 173.824C98.3199 174.048 97.7493 174.16 97.1199 174.16ZM94.3519 169.856C94.3519 170.432 94.4746 170.955 94.7199 171.424C94.9759 171.893 95.3119 172.267 95.7279 172.544C96.1439 172.811 96.6079 172.944 97.1199 172.944C97.6319 172.944 98.0959 172.805 98.5119 172.528C98.9386 172.251 99.2746 171.877 99.5199 171.408C99.7759 170.928 99.9039 170.4 99.9039 169.824C99.9039 169.248 99.7759 168.725 99.5199 168.256C99.2746 167.787 98.9386 167.413 98.5119 167.136C98.0959 166.859 97.6319 166.72 97.1199 166.72C96.6079 166.72 96.1439 166.864 95.7279 167.152C95.3119 167.429 94.9759 167.803 94.7199 168.272C94.4746 168.741 94.3519 169.269 94.3519 169.856ZM102.394 171.584C102.394 171.051 102.543 170.592 102.842 170.208C103.151 169.813 103.573 169.509 104.106 169.296C104.639 169.083 105.258 168.976 105.962 168.976C106.335 168.976 106.73 169.008 107.146 169.072C107.562 169.125 107.93 169.211 108.25 169.328V168.72C108.25 168.08 108.058 167.579 107.674 167.216C107.29 166.843 106.746 166.656 106.042 166.656C105.583 166.656 105.141 166.741 104.714 166.912C104.298 167.072 103.855 167.307 103.386 167.616L102.874 166.624C103.418 166.251 103.962 165.973 104.506 165.792C105.05 165.6 105.615 165.504 106.202 165.504C107.269 165.504 108.111 165.803 108.73 166.4C109.349 166.987 109.658 167.808 109.658 168.864V172.4C109.658 172.571 109.69 172.699 109.754 172.784C109.829 172.859 109.946 172.901 110.106 172.912V174C109.967 174.021 109.845 174.037 109.738 174.048C109.642 174.059 109.562 174.064 109.498 174.064C109.167 174.064 108.917 173.973 108.746 173.792C108.586 173.611 108.495 173.419 108.474 173.216L108.442 172.688C108.079 173.157 107.605 173.52 107.018 173.776C106.431 174.032 105.85 174.16 105.274 174.16C104.719 174.16 104.223 174.048 103.786 173.824C103.349 173.589 103.007 173.28 102.762 172.896C102.517 172.501 102.394 172.064 102.394 171.584ZM107.834 172.176C107.962 172.027 108.063 171.877 108.138 171.728C108.213 171.568 108.25 171.435 108.25 171.328V170.288C107.919 170.16 107.573 170.064 107.21 170C106.847 169.925 106.49 169.888 106.138 169.888C105.423 169.888 104.842 170.032 104.394 170.32C103.957 170.597 103.738 170.981 103.738 171.472C103.738 171.739 103.807 172 103.946 172.256C104.095 172.501 104.309 172.704 104.586 172.864C104.874 173.024 105.226 173.104 105.642 173.104C106.079 173.104 106.495 173.019 106.89 172.848C107.285 172.667 107.599 172.443 107.834 172.176ZM115.605 174.16C114.976 174.16 114.4 174.048 113.877 173.824C113.365 173.589 112.917 173.269 112.533 172.864C112.16 172.459 111.867 171.995 111.653 171.472C111.451 170.949 111.349 170.395 111.349 169.808C111.349 169.019 111.525 168.299 111.877 167.648C112.229 166.997 112.725 166.48 113.365 166.096C114.005 165.701 114.747 165.504 115.589 165.504C116.411 165.504 117.125 165.691 117.733 166.064C118.352 166.427 118.811 166.917 119.109 167.536L117.733 167.968C117.52 167.573 117.221 167.269 116.837 167.056C116.453 166.832 116.027 166.72 115.557 166.72C115.045 166.72 114.576 166.853 114.149 167.12C113.733 167.387 113.403 167.755 113.157 168.224C112.912 168.683 112.789 169.211 112.789 169.808C112.789 170.395 112.912 170.928 113.157 171.408C113.413 171.877 113.749 172.251 114.165 172.528C114.592 172.805 115.061 172.944 115.573 172.944C115.904 172.944 116.219 172.885 116.517 172.768C116.827 172.651 117.093 172.496 117.317 172.304C117.552 172.101 117.712 171.883 117.797 171.648L119.173 172.064C119.003 172.469 118.741 172.832 118.389 173.152C118.048 173.461 117.637 173.707 117.157 173.888C116.688 174.069 116.171 174.16 115.605 174.16ZM128.017 174H126.609V169.328C126.609 168.475 126.454 167.835 126.145 167.408C125.846 166.981 125.414 166.768 124.849 166.768C124.486 166.768 124.118 166.864 123.745 167.056C123.382 167.248 123.062 167.509 122.785 167.84C122.507 168.16 122.305 168.533 122.177 168.96V174H120.769V162.32H122.177V167.44C122.507 166.843 122.955 166.373 123.521 166.032C124.097 165.68 124.715 165.504 125.377 165.504C125.878 165.504 126.294 165.595 126.625 165.776C126.966 165.947 127.238 166.192 127.441 166.512C127.643 166.832 127.787 167.205 127.873 167.632C127.969 168.048 128.017 168.507 128.017 169.008V174Z" fill="#CC2222"/>
<path d="M454.061 185.061C454.646 184.475 454.646 183.525 454.061 182.939L444.515 173.393C443.929 172.808 442.979 172.808 442.393 173.393C441.808 173.979 441.808 174.929 442.393 175.515L450.879 184L442.393 192.485C441.808 193.071 441.808 194.021 442.393 194.607C442.979 195.192 443.929 195.192 444.515 194.607L454.061 185.061ZM218 185.5H453V182.5H218V185.5Z" fill="#0100F5"/>
<path d="M405.771 274.12V277H388.419V251.44H405.447V254.32H391.659V262.6H403.647V265.3H391.659V274.12H405.771ZM425.844 277H422.676V266.488C422.676 264.496 422.364 263.044 421.74 262.132C421.14 261.196 420.216 260.728 418.968 260.728C418.104 260.728 417.24 260.944 416.376 261.376C415.536 261.808 414.78 262.396 414.108 263.14C413.46 263.86 412.992 264.7 412.704 265.66V277H409.536V258.208H412.416V262.24C412.92 261.352 413.568 260.584 414.36 259.936C415.152 259.288 416.052 258.784 417.06 258.424C418.068 258.064 419.124 257.884 420.228 257.884C421.308 257.884 422.208 258.088 422.928 258.496C423.672 258.88 424.248 259.432 424.656 260.152C425.088 260.848 425.388 261.676 425.556 262.636C425.748 263.596 425.844 264.64 425.844 265.768V277ZM447.079 277H443.911V266.488C443.911 264.568 443.563 263.128 442.867 262.168C442.195 261.208 441.223 260.728 439.951 260.728C439.135 260.728 438.307 260.944 437.467 261.376C436.651 261.808 435.931 262.396 435.307 263.14C434.683 263.86 434.227 264.7 433.939 265.66V277H430.771V250.72H433.939V262.24C434.683 260.896 435.691 259.84 436.963 259.072C438.259 258.28 439.651 257.884 441.139 257.884C442.267 257.884 443.203 258.088 443.947 258.496C444.715 258.88 445.327 259.432 445.783 260.152C446.239 260.872 446.563 261.712 446.755 262.672C446.971 263.608 447.079 264.64 447.079 265.768V277ZM450.529 271.564C450.529 270.364 450.865 269.332 451.537 268.468C452.233 267.58 453.181 266.896 454.381 266.416C455.581 265.936 456.973 265.696 458.557 265.696C459.397 265.696 460.285 265.768 461.221 265.912C462.157 266.032 462.985 266.224 463.705 266.488V265.12C463.705 263.68 463.273 262.552 462.409 261.736C461.545 260.896 460.321 260.476 458.737 260.476C457.705 260.476 456.709 260.668 455.749 261.052C454.813 261.412 453.817 261.94 452.761 262.636L451.609 260.404C452.833 259.564 454.057 258.94 455.281 258.532C456.505 258.1 457.777 257.884 459.097 257.884C461.497 257.884 463.393 258.556 464.785 259.9C466.177 261.22 466.873 263.068 466.873 265.444V273.4C466.873 273.784 466.945 274.072 467.089 274.264C467.257 274.432 467.521 274.528 467.881 274.552V277C467.569 277.048 467.293 277.084 467.053 277.108C466.837 277.132 466.657 277.144 466.513 277.144C465.769 277.144 465.205 276.94 464.821 276.532C464.461 276.124 464.257 275.692 464.209 275.236L464.137 274.048C463.321 275.104 462.253 275.92 460.933 276.496C459.613 277.072 458.305 277.36 457.009 277.36C455.761 277.36 454.645 277.108 453.661 276.604C452.677 276.076 451.909 275.38 451.357 274.516C450.805 273.628 450.529 272.644 450.529 271.564ZM462.769 272.896C463.057 272.56 463.285 272.224 463.453 271.888C463.621 271.528 463.705 271.228 463.705 270.988V268.648C462.961 268.36 462.181 268.144 461.365 268C460.549 267.832 459.745 267.748 458.953 267.748C457.345 267.748 456.037 268.072 455.029 268.72C454.045 269.344 453.553 270.208 453.553 271.312C453.553 271.912 453.709 272.5 454.021 273.076C454.357 273.628 454.837 274.084 455.461 274.444C456.109 274.804 456.901 274.984 457.837 274.984C458.821 274.984 459.757 274.792 460.645 274.408C461.533 274 462.241 273.496 462.769 272.896ZM488.247 277H485.079V266.488C485.079 264.496 484.767 263.044 484.143 262.132C483.543 261.196 482.619 260.728 481.371 260.728C480.507 260.728 479.643 260.944 478.779 261.376C477.939 261.808 477.183 262.396 476.511 263.14C475.863 263.86 475.395 264.7 475.107 265.66V277H471.939V258.208H474.819V262.24C475.323 261.352 475.971 260.584 476.763 259.936C477.555 259.288 478.455 258.784 479.463 258.424C480.471 258.064 481.527 257.884 482.631 257.884C483.711 257.884 484.611 258.088 485.331 258.496C486.075 258.88 486.651 259.432 487.059 260.152C487.491 260.848 487.791 261.676 487.959 262.636C488.151 263.596 488.247 264.64 488.247 265.768V277ZM501.489 277.36C500.073 277.36 498.777 277.108 497.601 276.604C496.449 276.076 495.441 275.356 494.577 274.444C493.737 273.532 493.077 272.488 492.597 271.312C492.141 270.136 491.913 268.888 491.913 267.568C491.913 265.792 492.309 264.172 493.101 262.708C493.893 261.244 495.009 260.08 496.449 259.216C497.889 258.328 499.557 257.884 501.453 257.884C503.301 257.884 504.909 258.304 506.277 259.144C507.669 259.96 508.701 261.064 509.373 262.456L506.277 263.428C505.797 262.54 505.125 261.856 504.261 261.376C503.397 260.872 502.437 260.62 501.381 260.62C500.229 260.62 499.173 260.92 498.213 261.52C497.277 262.12 496.533 262.948 495.981 264.004C495.429 265.036 495.153 266.224 495.153 267.568C495.153 268.888 495.429 270.088 495.981 271.168C496.557 272.224 497.313 273.064 498.249 273.688C499.209 274.312 500.265 274.624 501.417 274.624C502.161 274.624 502.869 274.492 503.541 274.228C504.237 273.964 504.837 273.616 505.341 273.184C505.869 272.728 506.229 272.236 506.421 271.708L509.517 272.644C509.133 273.556 508.545 274.372 507.753 275.092C506.985 275.788 506.061 276.34 504.981 276.748C503.925 277.156 502.761 277.36 501.489 277.36ZM521.247 277.36C519.831 277.36 518.535 277.108 517.359 276.604C516.207 276.076 515.199 275.368 514.335 274.48C513.495 273.568 512.835 272.524 512.355 271.348C511.899 270.172 511.671 268.924 511.671 267.604C511.671 265.828 512.079 264.208 512.895 262.744C513.711 261.28 514.839 260.104 516.279 259.216C517.743 258.328 519.411 257.884 521.283 257.884C523.179 257.884 524.823 258.34 526.215 259.252C527.631 260.14 528.723 261.316 529.491 262.78C530.283 264.22 530.679 265.78 530.679 267.46C530.679 267.7 530.667 267.94 530.643 268.18C530.643 268.396 530.631 268.564 530.607 268.684H515.019C515.115 269.908 515.451 271 516.027 271.96C516.627 272.896 517.395 273.64 518.331 274.192C519.267 274.72 520.275 274.984 521.355 274.984C522.507 274.984 523.587 274.696 524.595 274.12C525.627 273.544 526.335 272.788 526.719 271.852L529.455 272.608C529.047 273.52 528.435 274.336 527.619 275.056C526.827 275.776 525.879 276.34 524.775 276.748C523.695 277.156 522.519 277.36 521.247 277.36ZM514.911 266.488H527.727C527.631 265.264 527.283 264.184 526.683 263.248C526.083 262.312 525.315 261.58 524.379 261.052C523.443 260.524 522.411 260.26 521.283 260.26C520.179 260.26 519.159 260.524 518.223 261.052C517.287 261.58 516.519 262.312 515.919 263.248C515.343 264.184 515.007 265.264 514.911 266.488ZM532.977 267.64C532.977 265.864 533.337 264.244 534.057 262.78C534.801 261.292 535.809 260.104 537.081 259.216C538.377 258.328 539.853 257.884 541.509 257.884C543.021 257.884 544.377 258.28 545.577 259.072C546.777 259.864 547.713 260.824 548.385 261.952V250.72H551.553V273.4C551.553 273.784 551.625 274.072 551.769 274.264C551.937 274.432 552.201 274.528 552.561 274.552V277C551.961 277.096 551.493 277.144 551.157 277.144C550.533 277.144 549.981 276.928 549.501 276.496C549.045 276.064 548.817 275.584 548.817 275.056V273.472C548.073 274.672 547.077 275.62 545.829 276.316C544.581 277.012 543.285 277.36 541.941 277.36C540.645 277.36 539.445 277.108 538.341 276.604C537.261 276.076 536.313 275.356 535.497 274.444C534.705 273.532 534.081 272.5 533.625 271.348C533.193 270.172 532.977 268.936 532.977 267.64ZM548.385 270.412V265.012C548.097 264.196 547.629 263.464 546.981 262.816C546.333 262.144 545.601 261.616 544.785 261.232C543.993 260.824 543.201 260.62 542.409 260.62C541.473 260.62 540.621 260.824 539.853 261.232C539.109 261.616 538.461 262.144 537.909 262.816C537.381 263.464 536.973 264.208 536.685 265.048C536.397 265.888 536.253 266.764 536.253 267.676C536.253 268.612 536.409 269.5 536.721 270.34C537.057 271.18 537.513 271.924 538.089 272.572C538.689 273.22 539.373 273.724 540.141 274.084C540.933 274.444 541.785 274.624 542.697 274.624C543.273 274.624 543.861 274.516 544.461 274.3C545.085 274.084 545.673 273.784 546.225 273.4C546.777 273.016 547.245 272.572 547.629 272.068C548.013 271.54 548.265 270.988 548.385 270.412ZM564.795 264.04C564.795 262.48 565.059 260.956 565.587 259.468C566.139 257.956 566.931 256.588 567.963 255.364C569.019 254.116 570.303 253.132 571.815 252.412C573.327 251.668 575.043 251.296 576.963 251.296C579.243 251.296 581.199 251.824 582.831 252.88C584.463 253.912 585.675 255.244 586.467 256.876L583.911 258.532C583.407 257.452 582.759 256.6 581.967 255.976C581.199 255.328 580.359 254.872 579.447 254.608C578.559 254.344 577.683 254.212 576.819 254.212C575.403 254.212 574.143 254.5 573.039 255.076C571.959 255.652 571.047 256.42 570.303 257.38C569.559 258.34 568.995 259.42 568.611 260.62C568.251 261.796 568.071 262.984 568.071 264.184C568.071 265.504 568.287 266.776 568.719 268C569.175 269.224 569.799 270.304 570.591 271.24C571.383 272.176 572.319 272.92 573.399 273.472C574.479 274.024 575.655 274.3 576.927 274.3C577.815 274.3 578.727 274.144 579.663 273.832C580.599 273.52 581.475 273.04 582.291 272.392C583.107 271.72 583.755 270.856 584.235 269.8L586.935 271.276C586.407 272.548 585.591 273.628 584.487 274.516C583.383 275.404 582.147 276.076 580.779 276.532C579.435 276.988 578.103 277.216 576.783 277.216C575.031 277.216 573.423 276.844 571.959 276.1C570.495 275.332 569.223 274.324 568.143 273.076C567.087 271.804 566.259 270.388 565.659 268.828C565.083 267.244 564.795 265.648 564.795 264.04ZM591.499 251.44L599.203 262.024L606.907 251.44H610.543L601.003 264.4L610.255 277H606.619L599.203 266.776L591.787 277H588.115L597.367 264.4L587.827 251.44H591.499Z" fill="black"/>
<defs>
<filter id="filter0_b_0_1" x="-4" y="-4" width="665" height="404" filterUnits="userSpaceOnUse" color-interpolation-filters="sRGB">
<feFlood flood-opacity="0" result="BackgroundImageFix"/>
<feGaussianBlur in="BackgroundImage" stdDeviation="2"/>
<feComposite in2="SourceAlpha" operator="in" result="effect1_backgroundBlur_0_1"/>
<feBlend mode="normal" in="SourceGraphic" in2="effect1_backgroundBlur_0_1" result="shape"/>
</filter>
</defs>
</svg>
