<svg width="8" height="11" viewBox="0 0 8 11" fill="none" xmlns="http://www.w3.org/2000/svg">
<path d="M5.26732 9.71612L1.28659 5.69694C1.19331 5.60353 1.11945 5.49257 1.06927 5.37047C1.01908 5.24837 0.993574 5.11754 0.994209 4.98553C0.994843 4.85352 1.02161 4.72294 1.07296 4.60133C1.12432 4.47971 1.19924 4.36947 1.29342 4.27696L5.31259 0.296227C5.40628 0.203438 5.51732 0.13001 5.63938 0.0801355C5.76145 0.0302612 5.89214 0.00491708 6.024 0.00555074C6.15585 0.0061844 6.2863 0.0327835 6.40787 0.0838286C6.52945 0.134874 6.63979 0.209365 6.73258 0.303051C6.82536 0.396737 6.89879 0.507781 6.94867 0.629844C6.99854 0.751907 7.02388 0.882598 7.02325 1.01446C7.02262 1.14631 6.99602 1.27676 6.94497 1.39833C6.89393 1.51991 6.81944 1.63025 6.72575 1.72303L3.40998 4.99714L6.69413 8.30296C6.88153 8.49217 6.98609 8.74806 6.98481 9.01436C6.98353 9.28066 6.87651 9.53554 6.68731 9.72294C6.4981 9.91034 6.2422 10.0149 5.9759 10.0136C5.7096 10.0123 5.45472 9.90532 5.26732 9.71612Z" fill="#323232"/>
</svg>
