<svg xmlns="http://www.w3.org/2000/svg" viewBox="0 0 147.21 52.31"><defs><style>.cls-1{fill:#f99d1c;}</style></defs><g id="Layer_2" data-name="Layer 2"><g id="Layer_1-2" data-name="Layer 1"><path class="cls-1" d="M71.49,0A7.52,7.52,0,1,1,64,7.55,7.55,7.55,0,0,1,71.49,0"/><path class="cls-1" d="M18.5,51.87H0v-6H1.37c.9,0,1.21-.51,1.21-1.34V26c0-.84-.31-1.34-1.21-1.34H0V18.54H16.68v5.19c2.38-3.35,5.49-5.89,10.45-5.89,6.57,0,8.77,2.63,9.53,6.52a12.36,12.36,0,0,1,10.88-6.52c8.33,0,9.47,4,9.47,9.94V44.55c0,.83.37,1.34,1.4,1.34h1.06v6H41.29v-6h.49c.84,0,1.21-.51,1.21-1.34V29.31c0-2.75-.94-3.63-2.86-3.63-2.54,0-3.37,2.1-3.37,5.34V44.49c0,.89.38,1.4,1.22,1.4h.75v6H21.05v-6h.51c.81,0,1.19-.51,1.19-1.34V29.31c0-2.75-.94-3.63-2.86-3.63-2.54,0-3.36,2.1-3.36,5.34V44.49c0,.89.32,1.4,1.21,1.4h.76Z"/><path class="cls-1" d="M64.6,26c0-.84-.31-1.34-1.21-1.34H62V18.54H78.55v26c0,.89.32,1.4,1.21,1.4H81v6H62v-6h1.37c.9,0,1.21-.51,1.21-1.34Z"/><path class="cls-1" d="M102.38,51.87H83.88v-6h1.37c.89,0,1.21-.51,1.21-1.34V26c0-.84-.32-1.34-1.21-1.34H83.88V18.54h16.53v5.25a13.25,13.25,0,0,1,11.11-5.95c7.71,0,9.38,4,9.38,9.94V44.55c0,.83.31,1.34,1.33,1.34h1.12v6H104.92v-6h.76c.82,0,1.21-.51,1.21-1.34V29.31c0-2.75-1-3.63-2.86-3.63s-3.62,1.46-3.62,4.7V44.49a1.24,1.24,0,0,0,1.36,1.4h.61Z"/><path class="cls-1" d="M123,18.54l4.92-.19.59-7.58H141v7.77h5.89v6.25H141v15.1c0,3.94.76,5.22,5.09,5.22h1.11v6.76a73.78,73.78,0,0,1-8.27.44c-7.89,0-11.88-2.45-11.88-9V24.79h-4Z"/></g></g></svg>