<svg width="14" height="19" viewBox="0 0 14 19" fill="none" xmlns="http://www.w3.org/2000/svg">
<path d="M7.00004 14.1667C7.91671 14.1667 8.66671 13.4167 8.66671 12.5C8.66671 11.5834 7.91671 10.8334 7.00004 10.8334C6.08337 10.8334 5.33337 11.5834 5.33337 12.5C5.33337 13.4167 6.08337 14.1667 7.00004 14.1667ZM12 6.66671H11.1667V5.00004C11.1667 2.70004 9.30004 0.833374 7.00004 0.833374C4.70004 0.833374 2.83337 2.70004 2.83337 5.00004H4.41671C4.41671 3.57504 5.57504 2.41671 7.00004 2.41671C8.42504 2.41671 9.58337 3.57504 9.58337 5.00004V6.66671H2.00004C1.08337 6.66671 0.333374 7.41671 0.333374 8.33337V16.6667C0.333374 17.5834 1.08337 18.3334 2.00004 18.3334H12C12.9167 18.3334 13.6667 17.5834 13.6667 16.6667V8.33337C13.6667 7.41671 12.9167 6.66671 12 6.66671ZM12 16.6667H2.00004V8.33337H12V16.6667Z" fill="#1982f8"/>
</svg>
