<svg width="426" height="375" viewBox="0 0 426 375" fill="none" xmlns="http://www.w3.org/2000/svg">
<path opacity="0.07" d="M374.418 206.65C374.418 282.276 330.119 317.995 275.504 286.52C220.888 255.046 176.645 168.175 176.645 92.6037C176.645 16.9773 220.944 -18.7413 275.559 12.7329C330.174 44.2072 374.418 131.023 374.418 206.65Z" fill="url(#paint0_linear_427_359)"/>
<path opacity="0.4" d="M230.653 47.6248C217.634 40.1283 204.78 36.2698 192.809 36.2147C180.837 36.1596 169.914 39.963 160.701 47.4043C151.489 54.8457 144.207 65.7046 139.241 79.4298C134.276 93.155 131.684 109.526 131.684 127.496L230.598 184.491L230.653 47.6248Z" fill="url(#paint1_linear_427_359)"/>
<path opacity="0.2" d="M153.751 108.534C153.751 135.598 159.544 165.419 170.411 194.192C181.279 222.966 196.726 249.424 214.766 270.205C232.805 290.985 252.721 305.152 271.919 310.939C291.117 316.727 308.715 313.861 322.562 302.671C336.409 291.481 345.787 272.52 349.649 248.211C353.456 223.848 351.525 195.185 344.022 165.86C336.519 136.535 323.886 107.817 307.612 83.3985C291.338 58.9798 272.25 39.9078 252.665 28.6631V165.584L153.751 108.534Z" fill="url(#paint2_linear_427_359)"/>
<path opacity="0.3" d="M181.61 94.6433L17.4883 0L17.5434 85.4931L167.212 171.813L181.721 193.255L181.61 94.6433Z" fill="url(#paint3_linear_427_359)"/>
<path d="M0 33.2933V10.0872L61.9526 45.8058V69.0119L0 33.2933Z" fill="#F178B6"/>
<path opacity="0.15" d="M139.407 91.1155L103.438 70.3899V77.8864L139.407 98.612V91.1155Z" fill="#0000F5"/>
<path opacity="0.15" d="M139.462 106.164L70.1172 66.2006V73.6971L139.462 113.66V106.164Z" fill="#0000F5"/>
<path opacity="0.15" d="M139.462 121.157L55.4424 72.7601V80.2566L139.462 128.708V121.157Z" fill="#0000F5"/>
<path d="M148.289 104.069C148.289 111.124 152.482 119.227 157.612 122.204C162.743 125.18 166.936 121.873 166.936 114.818C166.936 107.762 162.743 99.6593 157.612 96.6827C152.427 93.7062 148.289 97.0134 148.289 104.069Z" fill="#F178B6"/>
<path opacity="0.3" d="M247.645 226.879L411.822 321.578L411.877 407.071L262.209 320.751L247.755 325.491L247.645 226.879Z" fill="url(#paint4_linear_427_359)"/>
<path d="M364.048 336.626V313.42L426 349.138V372.344L364.048 336.626Z" fill="#F178B6"/>
<path opacity="0.15" d="M289.902 272.079L325.871 292.804V300.301L289.902 279.575V272.079Z" fill="#0000F5"/>
<path opacity="0.15" d="M289.902 287.072L354.834 324.499V331.996L289.902 294.623V287.072Z" fill="#0000F5"/>
<path opacity="0.15" d="M289.902 302.12L373.922 350.571V358.068L289.902 309.616V302.12Z" fill="#0000F5"/>
<path d="M281.02 274.78C281.02 281.835 276.828 285.142 271.697 282.166C266.567 279.189 262.374 271.086 262.374 264.031C262.374 256.975 266.567 253.668 271.697 256.645C276.828 259.621 281.02 267.724 281.02 274.78Z" fill="#F178B6"/>
<path opacity="0.3" d="M132.18 184.546L224.64 237.848V409L132.18 355.698V184.546Z" fill="url(#paint5_linear_427_359)"/>
<path opacity="0.15" d="M141.282 286.135L215.537 328.964V336.46L141.282 293.631V286.135Z" fill="#0000F5"/>
<path opacity="0.15" d="M146.469 303.773L210.297 340.594V348.091L146.469 311.27V303.773Z" fill="#0000F5"/>
<path d="M173.445 334.366L109.12 297.269V316.396L173.445 353.493V334.366Z" fill="#A5A6F6"/>
<path d="M188.947 251.849C188.947 260.117 184.147 264.031 178.244 260.614C172.342 257.196 167.542 247.66 167.542 239.337C167.542 231.068 172.342 227.155 178.244 230.572C184.147 234.045 188.947 243.581 188.947 251.849Z" fill="#A5A6F6"/>
<path d="M178.245 267.283C168.701 261.716 160.812 266.952 159.433 278.914C159.212 281.008 160.757 283.764 162.688 284.867L193.802 303.057C195.733 304.159 197.278 303.277 197.057 300.907C195.678 287.237 187.789 272.85 178.245 267.283Z" fill="#A5A6F6"/>
<path opacity="0.2" d="M80.7091 170.545L57.0977 156.93V148.993L80.7091 162.608C82.64 163.71 85.4535 165.97 87.8257 169.443C90.4185 173.136 92.2391 177.821 92.2391 182.892C92.2391 188.515 90.8047 191.712 88.1015 192.594C85.5638 193.421 82.5297 191.987 80.7091 190.94L70.9997 185.318L70.9446 185.263C70.1171 184.767 68.7931 184.271 67.7449 184.601C66.8622 184.877 65.9244 185.704 65.9244 188.846C65.9244 191.987 66.9174 193.862 67.6897 195.019C68.6827 196.452 70.0067 197.444 70.8342 197.885L70.9446 197.941L100.624 215.083V223.021L71.1652 205.988C69.1241 204.941 66.2002 202.681 63.6625 199.153C60.9042 195.24 59.0285 190.334 59.0285 184.877C59.0285 179.42 60.9042 176.664 63.6074 175.892C66.1451 175.175 69.0689 176.223 71.1101 177.435L80.7091 183.003C82.0883 183.83 83.1365 184.16 83.8537 183.94C84.4053 183.774 85.3983 183.003 85.3983 178.979C85.3983 176.333 84.5708 174.624 83.7433 173.522C82.7503 172.034 81.4815 170.986 80.7091 170.545Z" fill="#0000F5"/>
<path d="M61.4013 155.222C61.4013 162.332 57.2086 165.695 52.0781 162.773C46.9476 159.797 42.7549 151.639 42.7549 144.473C42.7549 137.362 46.9476 134 52.0781 136.921C57.2086 139.898 61.4013 148.111 61.4013 155.222Z" fill="#F178B6"/>
<path d="M112.706 225.777C112.706 232.887 108.513 236.25 103.383 233.328C98.2523 230.352 94.0596 222.194 94.0596 215.028C94.0596 207.917 98.2523 204.555 103.383 207.476C108.513 210.453 112.706 218.666 112.706 225.777Z" fill="#A5A6F6"/>
<defs>
<linearGradient id="paint0_linear_427_359" x1="394.293" y1="90.7536" x2="211.235" y2="181.638" gradientUnits="userSpaceOnUse">
<stop offset="0.916667" stop-color="#C0B5B5"/>
<stop offset="1" stop-color="white" stop-opacity="0"/>
</linearGradient>
<linearGradient id="paint1_linear_427_359" x1="272.687" y1="78.896" x2="161.922" y2="131.097" gradientUnits="userSpaceOnUse">
<stop offset="0.401042" stop-color="#AFA5A5"/>
<stop offset="1" stop-color="white" stop-opacity="0"/>
</linearGradient>
<linearGradient id="paint2_linear_427_359" x1="324.33" y1="117.017" x2="243.345" y2="200.704" gradientUnits="userSpaceOnUse">
<stop stop-color="#938888"/>
<stop offset="1" stop-color="white" stop-opacity="0"/>
</linearGradient>
<linearGradient id="paint3_linear_427_359" x1="145.83" y1="60.4144" x2="61.1196" y2="126.796" gradientUnits="userSpaceOnUse">
<stop stop-color="#838080"/>
<stop offset="1" stop-color="white" stop-opacity="0"/>
</linearGradient>
<linearGradient id="paint4_linear_427_359" x1="318.181" y1="229.665" x2="339.369" y2="401.664" gradientUnits="userSpaceOnUse">
<stop stop-color="#9E9898"/>
<stop offset="1" stop-color="white" stop-opacity="0"/>
</linearGradient>
<linearGradient id="paint5_linear_427_359" x1="234.542" y1="199.631" x2="152.574" y2="341.759" gradientUnits="userSpaceOnUse">
<stop stop-color="#A59F9F"/>
<stop offset="1" stop-color="white" stop-opacity="0"/>
</linearGradient>
</defs>
</svg>
