<svg width="296" height="243" viewBox="0 0 296 243" fill="none" xmlns="http://www.w3.org/2000/svg">
<path d="M45.5596 220.568C102.817 250.477 195.642 250.477 252.9 220.568C310.157 190.658 310.15 142.161 252.9 112.251C195.649 82.3408 102.817 82.3408 45.5596 112.251C-11.6978 142.161 -11.6909 190.678 45.5596 220.568Z" fill="#F5F5F5"/>
<path d="M266.435 168.668C257.832 172.768 243.885 172.768 235.268 168.668C226.651 164.568 226.658 157.912 235.268 153.812C243.878 149.712 257.818 149.712 266.435 153.812C275.052 157.912 275.045 164.561 266.435 168.668Z" fill="#E0E0E0"/>
<path d="M83.1695 92.5364C72.2702 98.83 63.4414 114.13 63.4414 126.704C63.4414 139.277 72.2702 144.382 83.1695 138.095C94.0689 131.808 102.898 116.501 102.898 103.928C102.898 91.3542 94.062 86.2428 83.1695 92.5364ZM81.5022 128.323C80.1579 129.171 78.6199 129.662 77.0331 129.751C73.2064 129.751 72.7895 125.234 72.7895 123.294C72.7895 115.709 78.3383 106.108 84.9052 102.315C86.2461 101.465 87.7824 100.974 89.3675 100.887C93.201 100.887 93.611 105.404 93.611 107.344C93.5769 114.923 88.0349 124.531 81.5022 128.323Z" fill="#455A64"/>
<path d="M89.8805 100.928C89.6993 100.903 89.5167 100.889 89.3338 100.887C88.374 100.92 87.4286 101.13 86.5458 101.509C86.633 102.122 86.6764 102.741 86.6756 103.361C86.6756 110.939 81.1269 120.547 74.5599 124.332C74.0235 124.644 73.4638 124.913 72.8857 125.139C73.0113 126.28 73.4149 127.374 74.0611 128.323C74.3969 128.783 74.8403 129.154 75.3526 129.403C75.8648 129.652 76.4303 129.771 76.9995 129.751C78.5868 129.666 80.1256 129.174 81.4685 128.323C88.0355 124.53 93.5774 114.923 93.5774 107.344C93.5774 105.499 93.2015 101.338 89.8805 100.928Z" fill="#263238"/>
<path d="M97.0895 91.1424L87.3041 85.4911C83.7165 83.3932 78.7691 83.6802 73.3023 86.81C62.3689 93.1036 53.5742 108.404 53.5742 120.977C53.5742 127.196 55.7336 131.576 59.2323 133.667L59.328 133.735H59.3826L69.0314 139.304H69.0793C67.4003 138.258 66.0539 136.755 65.1979 134.972C64.4476 133.437 63.947 131.792 63.715 130.1C63.5369 128.951 63.4455 127.791 63.4417 126.628C63.4417 114.048 72.2705 98.748 83.1698 92.4612C84.1781 91.8832 85.2289 91.3829 86.3132 90.9647C87.8955 90.32 89.57 89.9302 91.2743 89.8098C93.2962 89.6508 95.3203 90.0879 97.0964 91.0672L97.0895 91.1424Z" fill="#37474F"/>
<path d="M81.2288 43.5475L72.0241 38.2311L58.1591 46.233L25.9805 160.509L35.1919 165.825L48.8656 157.926L81.2288 43.5475Z" fill="#37474F"/>
<path d="M48.8661 157.925L35.1924 165.825L67.4189 51.5221L81.2292 43.5475L48.8661 157.925Z" fill="#455A64"/>
<path d="M35.1919 165.825L67.4184 51.5221L58.1591 46.233L25.9805 160.509L35.1919 165.825Z" fill="#263238"/>
<path d="M29.5689 74.1203C18.6765 80.4139 9.84082 95.7139 9.84082 108.287C9.84082 120.861 18.6901 125.972 29.5689 119.686C40.4478 113.399 49.2971 98.092 49.2971 85.5184C49.2971 72.9449 40.5024 67.8335 29.5689 74.1203ZM27.8879 109.907C26.5441 110.756 25.0058 111.247 23.4189 111.335C19.5853 111.335 19.1753 106.818 19.1753 104.878C19.1753 97.2993 24.7172 87.6915 31.2841 83.8989C32.627 83.0482 34.1658 82.5564 35.7532 82.4707C39.5799 82.4707 39.9968 86.9876 39.9968 88.9283C39.9968 96.5066 34.448 106.114 27.8879 109.907Z" fill="#455A64"/>
<path d="M36.2994 82.5117C36.1182 82.4873 35.9356 82.4736 35.7528 82.4707C34.79 82.5033 33.8419 82.7166 32.9579 83.0994C33.045 83.7105 33.0884 84.3271 33.0877 84.9444C33.0877 92.5227 27.5458 102.131 20.9789 105.916C20.446 106.226 19.891 106.495 19.3184 106.723C19.443 107.868 19.8491 108.964 20.5005 109.914C20.8371 110.373 21.2808 110.742 21.793 110.99C22.3052 111.237 22.8703 111.356 23.4389 111.335C25.0259 111.247 26.5642 110.756 27.908 109.907C34.4681 106.114 40.0168 96.5066 40.0168 88.9283C39.9963 87.0833 39.6137 82.9217 36.2994 82.5117Z" fill="#263238"/>
<path d="M43.5085 72.7263L33.723 67.075C30.1491 64.9908 25.2017 65.2778 19.735 68.4417C8.80146 74.7284 0 90.0285 0 102.609C0 108.827 2.1662 113.208 5.65808 115.299L5.75375 115.367H5.80842L15.4436 120.977H15.4982C13.8174 119.934 12.4687 118.434 11.61 116.652C10.8606 115.114 10.3601 113.467 10.1271 111.772C9.94871 110.624 9.85734 109.463 9.85381 108.301C9.85381 95.7208 18.6894 80.4207 29.5819 74.1339C30.5916 73.5586 31.6422 73.0584 32.7253 72.6374C34.31 71.9927 35.9867 71.6029 37.6932 71.4826C39.7129 71.3241 41.7347 71.7612 43.5085 72.7399V72.7263Z" fill="#37474F"/>
<path d="M183.629 201.366L190.086 213.563C195.227 212.749 200.183 211.03 204.724 208.486L189.109 204.98C187.517 205.889 185.631 201.017 183.629 201.366Z" fill="#0000F5"/>
<path opacity="0.2" d="M183.629 201.366L190.086 213.563C195.227 212.749 200.183 211.03 204.724 208.486L189.109 204.98C187.517 205.889 185.631 201.017 183.629 201.366Z" fill="black"/>
<path d="M170.392 194.156C173.515 192.352 177.793 191.648 181.838 192.017L185.289 172.2L181.838 166.05L164.03 168.387L144.896 196.404L145.491 197.259L166.579 198.789C166.921 197.095 168.151 195.461 170.392 194.156Z" fill="#0000F5"/>
<path opacity="0.7" d="M170.392 194.156C173.515 192.352 177.793 191.648 181.838 192.017L185.289 172.2L181.838 166.05L164.03 168.387L144.896 196.404L145.491 197.259L166.579 198.789C166.921 197.095 168.151 195.461 170.392 194.156Z" fill="black"/>
<path d="M185.289 158.732V155.233L181.838 167.793L181.845 171.292L185.289 158.732Z" fill="#0000F5"/>
<path opacity="0.7" d="M185.289 158.732V155.233L181.838 167.793L181.845 171.292L185.289 158.732Z" fill="black"/>
<path d="M170.393 169.932C173.516 168.135 177.794 167.424 181.839 167.793L185.29 155.233C166.033 153.477 147.952 161.055 144.904 172.173C144.815 172.487 144.72 172.918 144.665 173.232L166.587 174.565C166.922 172.87 168.152 171.23 170.393 169.932Z" fill="#0000F5"/>
<path opacity="0.6" d="M170.393 169.932C173.516 168.135 177.794 167.424 181.839 167.793L185.29 155.233C166.033 153.477 147.952 161.055 144.904 172.173C144.815 172.487 144.72 172.918 144.665 173.232L166.587 174.565C166.922 172.87 168.152 171.23 170.393 169.932Z" fill="black"/>
<path d="M166.587 188.854V174.565L144.665 173.232V187.521L166.587 188.854Z" fill="#0000F5"/>
<path opacity="0.8" d="M166.587 188.854V174.565L144.665 173.232V187.521L166.587 188.854Z" fill="black"/>
<path d="M189.129 173.43C191.781 174.968 193.065 176.984 192.99 178.993L215.055 179.218C215.37 168.934 202.885 160.344 185.289 158.718L181.838 171.278C184.393 171.472 186.878 172.206 189.129 173.43V173.43Z" fill="#0000F5"/>
<path opacity="0.8" d="M189.129 173.43C191.781 174.968 193.065 176.984 192.99 178.993L215.055 179.218C215.37 168.934 202.885 160.344 185.289 158.718L181.838 171.278C184.393 171.472 186.878 172.206 189.129 173.43V173.43Z" fill="white"/>
<path d="M192.99 178.993V194.211L215.055 194.436V179.218L192.99 178.993Z" fill="#0000F5"/>
<path opacity="0.6" d="M192.99 178.993V194.211L215.055 194.436V179.218L192.99 178.993Z" fill="white"/>
<path d="M192.998 178.993V194.095C192.998 192.14 191.713 190.179 189.13 188.683C187.08 187.494 184.511 192.298 181.846 192.052V171.292C187.873 171.804 193.107 174.845 192.998 178.993Z" fill="#0000F5"/>
<path opacity="0.6" d="M192.998 178.993V194.095C192.998 192.14 191.713 190.179 189.13 188.683C187.08 187.494 184.511 192.298 181.846 192.052V171.292C187.873 171.804 193.107 174.845 192.998 178.993Z" fill="white"/>
<path d="M193.003 185.772H166.517V203.58H193.003V185.772Z" fill="#E0E0E0"/>
<path d="M170.392 191.273C165.219 188.286 165.219 183.441 170.392 180.455C175.565 177.469 183.957 177.469 189.13 180.455C194.303 183.441 194.296 188.286 189.13 191.273C183.964 194.259 175.565 194.259 170.392 191.273Z" fill="#FAFAFA"/>
<path d="M192.99 194.211C192.921 196.117 191.623 203.518 189.129 204.967L204.743 208.472C211.577 204.536 214.911 199.992 215.075 194.423L192.99 194.211Z" fill="#37474F"/>
<path d="M215.055 182.553V194.436L204.723 208.486V196.609L215.055 182.553Z" fill="#37474F"/>
<path d="M192.99 182.328C192.921 184.234 191.623 186.127 189.129 187.583L204.743 196.596C211.577 192.66 214.911 188.116 215.075 182.546L192.99 182.328Z" fill="#455A64"/>
<path d="M204.722 196.609V208.486L189.107 199.473L189.128 187.583L204.722 196.609Z" fill="#263238"/>
<path d="M204.723 200.361L190.086 205.438V213.563L204.723 208.486V200.361Z" fill="#0000F5"/>
<path opacity="0.2" d="M204.723 200.361L190.086 205.438V213.563L204.723 208.486V200.361Z" fill="black"/>
<path d="M183.629 193.241L190.086 205.438C195.227 204.624 200.183 202.905 204.724 200.361L189.109 191.361C187.403 192.297 185.55 192.932 183.629 193.241V193.241Z" fill="#0000F5"/>
<path d="M183.622 193.241V196.944L190.086 213.563V205.438L183.622 193.241Z" fill="#0000F5"/>
<path opacity="0.4" d="M183.622 193.241V196.944L190.086 213.563V205.438L183.622 193.241Z" fill="black"/>
<path d="M173.515 203.662C170.59 201.967 166.196 201.017 166.586 198.81L144.466 188.198C144.466 188.198 144.466 193.459 144.466 194.19C144.514 204.441 157.976 213.276 176.077 214.37C180.761 214.692 185.467 214.43 190.086 213.591V207.639C185.555 208.404 177.095 205.712 173.515 203.662Z" fill="#0000F5"/>
<path opacity="0.5" d="M173.515 203.662C170.59 201.967 166.196 201.017 166.586 198.81L144.466 188.198C144.466 188.198 144.466 193.459 144.466 194.19C144.514 204.441 157.976 213.276 176.077 214.37C180.761 214.692 185.467 214.43 190.086 213.591V207.639C185.555 208.404 177.095 205.712 173.515 203.662Z" fill="black"/>
<path d="M170.392 193.507C167.467 191.819 166.196 189.53 166.586 187.323L144.664 185.99C142.614 197.184 156.691 207.215 176.098 208.39C180.782 208.709 185.487 208.448 190.106 207.611L183.649 195.414C179.098 196.206 173.973 195.578 170.392 193.507Z" fill="#0000F5"/>
<path opacity="0.3" d="M170.392 193.507C167.467 191.819 166.196 189.53 166.586 187.323L144.664 185.99C142.614 197.184 156.691 207.215 176.098 208.39C180.782 208.709 185.487 208.448 190.106 207.611L183.649 195.414C179.098 196.206 173.973 195.578 170.392 193.507Z" fill="black"/>
<path d="M90.3864 162.661C90.9568 158.425 90.7062 154.119 89.6484 149.978C88.514 145.461 86.2317 142.318 83.5324 140.664C80.8332 139.01 75.92 140.746 79.8424 146.028C83.7648 151.311 87.7487 158.035 88.1723 163.112L90.3864 162.661Z" fill="#37474F"/>
<path d="M89.6274 163.153C89.5826 163.152 89.5383 163.142 89.4972 163.124C89.4561 163.106 89.4189 163.08 89.3878 163.048C89.3567 163.016 89.3323 162.978 89.316 162.936C89.2996 162.894 89.2917 162.849 89.2926 162.805C89.4839 153.463 85.1037 144.067 81.0925 141.908C81.0118 141.865 80.9514 141.792 80.9245 141.705C80.8976 141.618 80.9064 141.524 80.949 141.443C80.9916 141.363 81.0644 141.302 81.1516 141.275C81.2387 141.248 81.333 141.257 81.4136 141.3C85.6299 143.555 90.2014 153.238 90.0033 162.818C90.0036 162.866 89.9938 162.913 89.9745 162.957C89.9552 163 89.9268 163.039 89.8912 163.071C89.8556 163.102 89.8137 163.126 89.7682 163.14C89.7227 163.155 89.6747 163.159 89.6274 163.153Z" fill="white"/>
<path d="M90.721 179.184C86.416 181.685 81.5232 179.389 80.6759 174.585C80.382 172.911 80.0882 171.169 78.537 170.219C77.2387 169.412 75.4893 169.31 74.3755 168.23C72.7901 166.686 73.6921 164.697 74.6898 163.133C75.6191 161.711 76.3708 160.051 75.4961 158.424C74.9596 157.571 74.5348 156.652 74.232 155.691C74.0846 155.211 74.0645 154.701 74.1735 154.211C74.2825 153.721 74.5169 153.268 74.8538 152.896C75.6738 152.117 76.9653 152.151 78.0655 152.418C79.8494 152.895 81.4908 153.798 82.8489 155.049C83.8124 155.875 84.3591 156.716 85.7463 156.969C86.7713 157.153 87.8373 156.969 88.8487 157.208C89.4862 157.381 90.0794 157.688 90.5886 158.108C91.0977 158.529 91.511 159.054 91.8007 159.647C92.8052 161.609 92.4841 163.891 92.3269 166.003C92.1697 168.114 91.9716 170.021 91.7256 172.023C91.5206 173.718 91.2882 175.44 91.0422 177.1C91.0012 177.36 90.9534 179.061 90.721 179.184Z" fill="#455A64"/>
<path d="M91.1321 176.82C91.0503 176.819 90.9716 176.789 90.9102 176.735C90.8487 176.681 90.8087 176.607 90.7972 176.526C89.3007 165.798 80.2669 155.814 76.9049 154.099C76.8649 154.078 76.8295 154.05 76.8005 154.015C76.7715 153.981 76.7495 153.941 76.7359 153.899C76.7222 153.856 76.7172 153.811 76.7209 153.766C76.7247 153.721 76.7373 153.677 76.7579 153.638C76.7786 153.598 76.8069 153.562 76.8412 153.533C76.8756 153.504 76.9153 153.482 76.9581 153.469C77.001 153.455 77.0461 153.45 77.0909 153.454C77.1357 153.457 77.1793 153.47 77.2192 153.491C80.7794 155.308 89.9226 165.306 91.4737 176.437C91.4854 176.527 91.461 176.618 91.4059 176.689C91.3508 176.761 91.2696 176.808 91.1799 176.82H91.1321Z" fill="white"/>
<path d="M77.7791 165.203C77.6885 165.221 77.5944 165.203 77.5175 165.151C77.4406 165.1 77.3872 165.02 77.3691 164.93C77.3509 164.839 77.3696 164.745 77.4208 164.668C77.4721 164.591 77.5518 164.538 77.6424 164.52C80.3525 163.469 83.2705 163.067 86.1637 163.344C86.2084 163.348 86.2519 163.36 86.2917 163.381C86.3315 163.401 86.3668 163.429 86.3954 163.464C86.4241 163.498 86.4456 163.538 86.4586 163.581C86.4716 163.624 86.4759 163.669 86.4712 163.713C86.4669 163.758 86.4538 163.802 86.4326 163.842C86.4113 163.882 86.3824 163.917 86.3474 163.946C86.3125 163.974 86.2722 163.995 86.2289 164.008C86.1857 164.021 86.1403 164.026 86.0954 164.021C83.3081 163.78 80.5028 164.183 77.8952 165.196C77.8569 165.203 77.8179 165.205 77.7791 165.203Z" fill="white"/>
<path d="M91.678 181.713C91.0705 181.303 90.5682 180.756 90.212 180.116C89.8558 179.476 89.6557 178.761 89.6279 178.029V74.7625C89.667 74.0079 89.8843 73.2733 90.262 72.6188C90.6397 71.9644 91.1671 71.4087 91.801 70.9973L213.839 0.544634C214.485 0.202624 215.203 0.0164684 215.933 0.0010437C216.664 -0.0143809 217.389 0.14135 218.049 0.455796C218.656 0.859833 219.159 1.40274 219.516 2.03964C219.872 2.67654 220.072 3.38913 220.099 4.11852V107.42C220.06 108.174 219.842 108.909 219.465 109.563C219.087 110.218 218.56 110.773 217.926 111.185L95.8874 181.637C95.2407 181.979 94.5228 182.164 93.7916 182.177C93.0604 182.19 92.3364 182.031 91.678 181.713V181.713Z" fill="#0000F5"/>
<path d="M101.874 79.2931L90.2572 72.5964C89.8646 73.2451 89.6458 73.9841 89.6217 74.7421V178.029C89.601 178.768 89.7803 179.499 90.1407 180.144C90.5011 180.789 91.0293 181.325 91.6693 181.695C92.3093 182.065 93.0373 182.254 93.7763 182.244C94.5153 182.234 95.2379 182.025 95.8675 181.637L101.854 178.18L101.874 79.2931Z" fill="#0000F5"/>
<path opacity="0.2" d="M101.874 79.2931L90.2572 72.5964C89.8646 73.2451 89.6458 73.9841 89.6217 74.7421V178.029C89.601 178.768 89.7803 179.499 90.1407 180.144C90.5011 180.789 91.0293 181.325 91.6693 181.695C92.3093 182.065 93.0373 182.254 93.7763 182.244C94.5153 182.234 95.2379 182.025 95.8675 181.637L101.854 178.18L101.874 79.2931Z" fill="black"/>
<path d="M95.8869 73.3549L217.912 2.86801C219.114 2.18467 220.085 2.73817 220.085 4.11853V107.42C220.045 108.174 219.828 108.909 219.45 109.563C219.073 110.218 218.545 110.773 217.912 111.185L95.8869 181.637C94.691 182.321 93.7207 181.767 93.7207 180.38V77.1201C93.759 76.3661 93.9752 75.6318 94.3517 74.9774C94.7282 74.323 95.2543 73.767 95.8869 73.3549Z" fill="#0000F5"/>
<g opacity="0.5">
<path opacity="0.5" d="M95.8869 73.3549L217.912 2.86801C219.114 2.18467 220.085 2.73817 220.085 4.11853V107.42C220.045 108.174 219.828 108.909 219.45 109.563C219.073 110.218 218.545 110.773 217.912 111.185L95.8869 181.637C94.691 182.321 93.7207 181.767 93.7207 180.38V77.1201C93.759 76.3661 93.9752 75.6318 94.3517 74.9774C94.7282 74.323 95.2543 73.767 95.8869 73.3549Z" fill="white"/>
</g>
<path opacity="0.4" d="M105.946 156.996C106.071 149.548 106.593 142.112 107.511 134.719C108.461 126.69 110.409 113.139 118.158 108.67C125.907 104.201 128.811 112.278 129.925 116.262C131.38 121.421 138.952 118.155 140.011 109.64C141.07 101.126 141.747 74.0314 150.821 68.7901C159.896 63.5489 162.835 76.1634 163.866 79.6826C165.916 86.5981 171.862 84.6915 173.809 80.1063C175.757 75.5211 181.053 74.4072 183.055 80.8512C185.057 87.2951 186.301 94.6957 192.792 90.8963C198.485 87.5616 195.867 81.4867 201.423 78.5961C203.043 77.7624 206.268 78.2271 206.992 82.9832C207.654 88.0117 207.944 93.0822 207.86 98.1534L105.946 156.996Z" fill="white"/>
<path d="M105.946 157.502C105.813 157.5 105.686 157.446 105.593 157.351C105.5 157.257 105.447 157.129 105.447 156.996C105.572 149.523 106.095 142.062 107.012 134.644C107.777 128.173 109.575 113.023 117.905 108.212C120.371 106.791 122.599 106.47 124.533 107.256C127.109 108.301 129.029 111.198 130.41 116.139C130.82 117.588 131.776 118.339 133.095 118.237C135.747 118.032 138.87 114.745 139.512 109.593C139.683 108.226 139.847 106.354 140.031 104.187C141.043 92.4816 142.765 72.8902 150.575 68.3664C152.974 66.9998 155.174 66.6854 157.129 67.4781C161.427 69.2206 163.279 75.7466 164.16 78.8831C164.228 79.1359 164.29 79.3614 164.351 79.5664C165.11 82.1563 166.511 83.6665 168.294 83.7417C170.256 83.8715 172.36 82.2588 173.344 79.9355C174.438 77.3593 176.57 75.7671 178.702 75.8764C180.834 75.9857 182.61 77.7488 183.533 80.735C183.752 81.4183 183.963 82.1495 184.168 82.8602C185.31 86.7347 186.376 90.3769 188.576 91.2653C189.635 91.6821 190.934 91.4293 192.539 90.4931C195.218 88.9214 195.956 86.7552 196.68 84.4592C197.405 82.1632 198.232 79.7236 201.191 78.1861C201.733 77.9198 202.33 77.7848 202.935 77.7919C203.539 77.799 204.133 77.9481 204.669 78.2271C205.707 78.7533 207.04 80.0038 207.484 82.9422C208.149 88.0002 208.442 93.1003 208.359 98.2012C208.36 98.2676 208.347 98.3335 208.321 98.3947C208.296 98.4559 208.258 98.511 208.209 98.5567C208.161 98.6023 208.104 98.6374 208.041 98.6597C207.979 98.6821 207.912 98.6912 207.846 98.6864C207.713 98.6828 207.587 98.627 207.495 98.5311C207.403 98.4352 207.352 98.3069 207.354 98.1739C207.442 93.1324 207.154 88.0913 206.493 83.0925C206.111 80.571 205.045 79.5391 204.218 79.1223C203.823 78.9158 203.386 78.8046 202.941 78.7974C202.496 78.7903 202.056 78.8875 201.655 79.0813C199.058 80.448 198.368 82.539 197.637 84.7735C196.858 87.1447 196.052 89.5979 193.045 91.361C191.152 92.4611 189.574 92.7276 188.207 92.1946C185.556 91.1423 184.414 87.2541 183.205 83.1403C183 82.457 182.795 81.7258 182.576 81.0288C181.784 78.4731 180.349 76.9629 178.654 76.8741C176.959 76.7852 175.182 78.1793 174.267 80.3318C173.105 83.0652 170.631 84.8829 168.233 84.7462C166.935 84.671 164.584 83.933 163.388 79.8535C163.326 79.6553 163.265 79.423 163.19 79.1701C162.349 76.1907 160.593 69.9791 156.746 68.4211C155.099 67.7378 153.192 68.0316 151.074 69.248C143.694 73.512 141.965 93.534 141.036 104.29C140.844 106.463 140.68 108.342 140.51 109.757C139.826 115.421 136.225 119.043 133.171 119.276C131.373 119.412 129.979 118.353 129.446 116.446C128.155 111.861 126.426 109.183 124.15 108.246C122.524 107.563 120.59 107.884 118.403 109.142C110.511 113.699 108.755 128.501 108.01 134.822C107.097 142.194 106.577 149.61 106.452 157.037C106.441 157.164 106.384 157.282 106.29 157.368C106.196 157.455 106.073 157.502 105.946 157.502V157.502Z" fill="#F5F5F5"/>
<path d="M120.391 108.574C120.306 108.574 120.224 108.541 120.164 108.48C120.104 108.42 120.07 108.338 120.07 108.253V107.625C120.063 107.579 120.066 107.532 120.079 107.488C120.092 107.444 120.114 107.403 120.145 107.368C120.175 107.333 120.212 107.305 120.254 107.286C120.296 107.267 120.341 107.257 120.388 107.257C120.434 107.257 120.479 107.267 120.521 107.286C120.563 107.305 120.6 107.333 120.631 107.368C120.661 107.403 120.683 107.444 120.696 107.488C120.709 107.532 120.712 107.579 120.705 107.625V108.253C120.705 108.337 120.672 108.418 120.614 108.478C120.555 108.538 120.475 108.573 120.391 108.574V108.574Z" fill="#F5F5F5"/>
<path d="M120.391 146.493C120.349 146.493 120.307 146.485 120.268 146.469C120.229 146.453 120.194 146.429 120.164 146.399C120.134 146.369 120.11 146.334 120.094 146.295C120.078 146.256 120.07 146.214 120.07 146.172V144.894C120.081 144.818 120.119 144.748 120.178 144.698C120.236 144.647 120.31 144.62 120.388 144.62C120.465 144.62 120.539 144.647 120.598 144.698C120.656 144.748 120.694 144.818 120.705 144.894V146.158C120.707 146.201 120.7 146.244 120.686 146.284C120.671 146.324 120.648 146.361 120.619 146.392C120.589 146.423 120.554 146.448 120.515 146.465C120.476 146.483 120.434 146.492 120.391 146.493V146.493ZM120.391 143.965C120.306 143.965 120.224 143.931 120.164 143.871C120.104 143.81 120.07 143.729 120.07 143.644V142.379C120.081 142.303 120.119 142.233 120.178 142.183C120.236 142.133 120.31 142.105 120.388 142.105C120.465 142.105 120.539 142.133 120.598 142.183C120.656 142.233 120.694 142.303 120.705 142.379V143.644C120.705 143.728 120.672 143.808 120.614 143.868C120.555 143.928 120.475 143.963 120.391 143.965V143.965ZM120.391 141.436C120.349 141.436 120.307 141.428 120.268 141.412C120.229 141.396 120.194 141.372 120.164 141.342C120.134 141.312 120.11 141.277 120.094 141.238C120.078 141.199 120.07 141.157 120.07 141.115V139.858C120.063 139.812 120.066 139.766 120.079 139.721C120.092 139.677 120.114 139.636 120.145 139.601C120.175 139.566 120.212 139.538 120.254 139.519C120.296 139.5 120.341 139.49 120.388 139.49C120.434 139.49 120.479 139.5 120.521 139.519C120.563 139.538 120.6 139.566 120.631 139.601C120.661 139.636 120.683 139.677 120.696 139.721C120.709 139.766 120.712 139.812 120.705 139.858V141.115C120.705 141.199 120.672 141.28 120.614 141.34C120.555 141.4 120.475 141.435 120.391 141.436V141.436ZM120.391 138.908C120.307 138.908 120.226 138.875 120.166 138.816C120.106 138.758 120.072 138.678 120.07 138.594V137.329C120.063 137.284 120.066 137.237 120.079 137.193C120.092 137.149 120.114 137.108 120.145 137.073C120.175 137.038 120.212 137.01 120.254 136.991C120.296 136.972 120.341 136.962 120.388 136.962C120.434 136.962 120.479 136.972 120.521 136.991C120.563 137.01 120.6 137.038 120.631 137.073C120.661 137.108 120.683 137.149 120.696 137.193C120.709 137.237 120.712 137.284 120.705 137.329V138.594C120.704 138.676 120.67 138.755 120.611 138.814C120.553 138.873 120.474 138.906 120.391 138.908V138.908ZM120.391 136.38C120.307 136.38 120.226 136.347 120.166 136.288C120.106 136.229 120.072 136.149 120.07 136.065V134.801C120.063 134.755 120.066 134.709 120.079 134.665C120.092 134.62 120.114 134.579 120.145 134.544C120.175 134.51 120.212 134.482 120.254 134.462C120.296 134.443 120.341 134.433 120.388 134.433C120.434 134.433 120.479 134.443 120.521 134.462C120.563 134.482 120.6 134.51 120.631 134.544C120.661 134.579 120.683 134.62 120.696 134.665C120.709 134.709 120.712 134.755 120.705 134.801V136.065C120.704 136.148 120.67 136.227 120.611 136.286C120.553 136.344 120.474 136.378 120.391 136.38V136.38ZM120.391 133.851C120.307 133.851 120.226 133.818 120.166 133.76C120.106 133.701 120.072 133.621 120.07 133.537V132.273C120.063 132.227 120.066 132.181 120.079 132.136C120.092 132.092 120.114 132.051 120.145 132.016C120.175 131.981 120.212 131.953 120.254 131.934C120.296 131.915 120.341 131.905 120.388 131.905C120.434 131.905 120.479 131.915 120.521 131.934C120.563 131.953 120.6 131.981 120.631 132.016C120.661 132.051 120.683 132.092 120.696 132.136C120.709 132.181 120.712 132.227 120.705 132.273V133.537C120.704 133.62 120.67 133.699 120.611 133.757C120.553 133.816 120.474 133.85 120.391 133.851V133.851ZM120.391 131.323C120.307 131.323 120.226 131.29 120.166 131.231C120.106 131.172 120.072 131.093 120.07 131.009V129.744C120.063 129.699 120.066 129.652 120.079 129.608C120.092 129.564 120.114 129.523 120.145 129.488C120.175 129.453 120.212 129.425 120.254 129.406C120.296 129.386 120.341 129.376 120.388 129.376C120.434 129.376 120.479 129.386 120.521 129.406C120.563 129.425 120.6 129.453 120.631 129.488C120.661 129.523 120.683 129.564 120.696 129.608C120.709 129.652 120.712 129.699 120.705 129.744V131.009C120.704 131.091 120.67 131.17 120.611 131.229C120.553 131.287 120.474 131.321 120.391 131.323V131.323ZM120.391 128.795C120.349 128.795 120.308 128.788 120.269 128.773C120.23 128.757 120.194 128.734 120.164 128.705C120.134 128.676 120.111 128.641 120.094 128.602C120.078 128.563 120.07 128.522 120.07 128.48V127.216C120.063 127.17 120.066 127.124 120.079 127.08C120.092 127.035 120.114 126.994 120.145 126.959C120.175 126.924 120.212 126.896 120.254 126.877C120.296 126.858 120.341 126.848 120.388 126.848C120.434 126.848 120.479 126.858 120.521 126.877C120.563 126.896 120.6 126.924 120.631 126.959C120.661 126.994 120.683 127.035 120.696 127.08C120.709 127.124 120.712 127.17 120.705 127.216V128.494C120.702 128.575 120.667 128.651 120.609 128.707C120.55 128.763 120.472 128.795 120.391 128.795V128.795ZM120.391 126.266C120.349 126.267 120.308 126.26 120.269 126.244C120.23 126.229 120.194 126.206 120.164 126.177C120.134 126.147 120.111 126.112 120.094 126.074C120.078 126.035 120.07 125.994 120.07 125.952V124.688C120.063 124.642 120.066 124.595 120.079 124.551C120.092 124.507 120.114 124.466 120.145 124.431C120.175 124.396 120.212 124.368 120.254 124.349C120.296 124.33 120.341 124.32 120.388 124.32C120.434 124.32 120.479 124.33 120.521 124.349C120.563 124.368 120.6 124.396 120.631 124.431C120.661 124.466 120.683 124.507 120.696 124.551C120.709 124.595 120.712 124.642 120.705 124.688V125.952C120.705 125.993 120.697 126.034 120.681 126.072C120.666 126.11 120.642 126.145 120.613 126.174C120.584 126.203 120.549 126.226 120.511 126.242C120.473 126.258 120.432 126.266 120.391 126.266V126.266ZM120.391 123.738C120.349 123.739 120.308 123.731 120.269 123.716C120.23 123.7 120.194 123.677 120.164 123.648C120.134 123.619 120.111 123.584 120.094 123.545C120.078 123.507 120.07 123.465 120.07 123.423V122.159C120.081 122.083 120.119 122.013 120.178 121.963C120.236 121.913 120.31 121.885 120.388 121.885C120.465 121.885 120.539 121.913 120.598 121.963C120.656 122.013 120.694 122.083 120.705 122.159V123.423C120.698 123.502 120.662 123.575 120.604 123.628C120.546 123.681 120.47 123.711 120.391 123.71V123.738ZM120.391 121.216C120.306 121.216 120.224 121.182 120.164 121.122C120.104 121.062 120.07 120.98 120.07 120.895V119.61C120.081 119.534 120.119 119.464 120.178 119.414C120.236 119.364 120.31 119.336 120.388 119.336C120.465 119.336 120.539 119.364 120.598 119.414C120.656 119.464 120.694 119.534 120.705 119.61V120.875C120.708 120.918 120.702 120.961 120.688 121.002C120.673 121.043 120.651 121.081 120.621 121.113C120.592 121.145 120.556 121.17 120.517 121.188C120.477 121.206 120.434 121.215 120.391 121.216V121.216ZM120.391 118.688C120.306 118.688 120.224 118.654 120.164 118.594C120.104 118.534 120.07 118.452 120.07 118.367V117.103C120.081 117.026 120.119 116.957 120.178 116.906C120.236 116.856 120.31 116.828 120.388 116.828C120.465 116.828 120.539 116.856 120.598 116.906C120.656 116.957 120.694 117.026 120.705 117.103V118.367C120.705 118.451 120.672 118.531 120.614 118.591C120.555 118.651 120.475 118.686 120.391 118.688V118.688ZM120.391 116.159C120.306 116.159 120.224 116.126 120.164 116.065C120.104 116.005 120.07 115.924 120.07 115.838V114.574C120.081 114.498 120.119 114.428 120.178 114.378C120.236 114.327 120.31 114.3 120.388 114.3C120.465 114.3 120.539 114.327 120.598 114.378C120.656 114.428 120.694 114.498 120.705 114.574V115.838C120.71 115.883 120.706 115.928 120.692 115.97C120.678 116.013 120.656 116.052 120.627 116.085C120.597 116.119 120.561 116.146 120.52 116.164C120.48 116.183 120.436 116.193 120.391 116.194V116.159ZM120.391 113.631C120.306 113.631 120.224 113.597 120.164 113.537C120.104 113.477 120.07 113.395 120.07 113.31V112.046C120.081 111.97 120.119 111.9 120.178 111.849C120.236 111.799 120.31 111.771 120.388 111.771C120.465 111.771 120.539 111.799 120.598 111.849C120.656 111.9 120.694 111.97 120.705 112.046V113.31C120.705 113.394 120.672 113.475 120.614 113.535C120.555 113.595 120.475 113.629 120.391 113.631V113.631ZM120.391 111.103C120.306 111.103 120.224 111.069 120.164 111.009C120.104 110.948 120.07 110.867 120.07 110.782V109.517C120.081 109.441 120.119 109.371 120.178 109.321C120.236 109.271 120.31 109.243 120.388 109.243C120.465 109.243 120.539 109.271 120.598 109.321C120.656 109.371 120.694 109.441 120.705 109.517V110.782C120.705 110.866 120.672 110.946 120.614 111.006C120.555 111.066 120.475 111.101 120.391 111.103V111.103Z" fill="#F5F5F5"/>
<path d="M120.391 148.393C120.349 148.393 120.308 148.385 120.269 148.368C120.23 148.352 120.194 148.329 120.164 148.299C120.135 148.269 120.111 148.234 120.095 148.195C120.079 148.156 120.07 148.114 120.07 148.072V147.436C120.082 147.36 120.12 147.29 120.178 147.24C120.236 147.189 120.311 147.162 120.388 147.162C120.465 147.162 120.54 147.189 120.598 147.24C120.656 147.29 120.695 147.36 120.706 147.436V148.072C120.706 148.156 120.673 148.236 120.614 148.296C120.555 148.356 120.475 148.391 120.391 148.393V148.393Z" fill="#F5F5F5"/>
<path d="M153.178 68.8858C153.095 68.8841 153.016 68.8504 152.958 68.7918C152.899 68.7332 152.866 68.6543 152.864 68.5715V67.9359C152.857 67.8903 152.86 67.8438 152.873 67.7995C152.886 67.7552 152.908 67.7142 152.938 67.6793C152.969 67.6444 153.006 67.6164 153.048 67.5972C153.09 67.578 153.135 67.5681 153.182 67.5681C153.228 67.5681 153.273 67.578 153.315 67.5972C153.357 67.6164 153.394 67.6444 153.425 67.6793C153.455 67.7142 153.477 67.7552 153.49 67.7995C153.503 67.8438 153.506 67.8903 153.499 67.9359V68.5715C153.497 68.6554 153.463 68.7354 153.403 68.7942C153.343 68.8529 153.262 68.8858 153.178 68.8858V68.8858Z" fill="#F5F5F5"/>
<path d="M153.178 128.159C153.094 128.157 153.014 128.123 152.955 128.063C152.897 128.003 152.864 127.922 152.864 127.838V126.553C152.857 126.508 152.86 126.461 152.873 126.417C152.886 126.372 152.908 126.331 152.938 126.296C152.969 126.262 153.006 126.234 153.048 126.214C153.09 126.195 153.135 126.185 153.182 126.185C153.228 126.185 153.273 126.195 153.315 126.214C153.357 126.234 153.394 126.262 153.425 126.296C153.455 126.331 153.477 126.372 153.49 126.417C153.503 126.461 153.506 126.508 153.499 126.553V127.81C153.503 127.855 153.498 127.9 153.483 127.942C153.469 127.984 153.446 128.023 153.415 128.055C153.385 128.088 153.349 128.114 153.308 128.132C153.267 128.15 153.223 128.159 153.178 128.159V128.159ZM153.178 125.583C153.094 125.581 153.014 125.546 152.955 125.486C152.897 125.426 152.864 125.346 152.864 125.262V123.97C152.875 123.894 152.913 123.824 152.972 123.774C153.03 123.723 153.104 123.696 153.182 123.696C153.259 123.696 153.333 123.723 153.391 123.774C153.45 123.824 153.488 123.894 153.499 123.97V125.262C153.499 125.304 153.491 125.346 153.475 125.385C153.459 125.423 153.435 125.459 153.405 125.489C153.375 125.519 153.34 125.542 153.301 125.558C153.262 125.574 153.22 125.583 153.178 125.583V125.583ZM153.178 123C153.095 123 153.015 122.967 152.956 122.908C152.897 122.849 152.864 122.769 152.864 122.685V121.394C152.875 121.318 152.913 121.248 152.972 121.198C153.03 121.147 153.104 121.119 153.182 121.119C153.259 121.119 153.333 121.147 153.391 121.198C153.45 121.248 153.488 121.318 153.499 121.394V122.685C153.503 122.73 153.498 122.774 153.483 122.816C153.469 122.858 153.446 122.896 153.415 122.928C153.385 122.96 153.348 122.986 153.307 123.003C153.266 123.02 153.222 123.028 153.178 123.027V123ZM153.178 120.424C153.095 120.422 153.016 120.388 152.958 120.33C152.899 120.271 152.866 120.192 152.864 120.109V118.818C152.875 118.741 152.913 118.672 152.972 118.621C153.03 118.571 153.104 118.543 153.182 118.543C153.259 118.543 153.333 118.571 153.391 118.621C153.45 118.672 153.488 118.741 153.499 118.818V120.109C153.497 120.193 153.463 120.273 153.403 120.332C153.343 120.391 153.262 120.424 153.178 120.424V120.424ZM153.178 117.847C153.095 117.846 153.016 117.812 152.958 117.753C152.899 117.695 152.866 117.616 152.864 117.533V116.241C152.875 116.165 152.913 116.096 152.972 116.045C153.03 115.995 153.104 115.967 153.182 115.967C153.259 115.967 153.333 115.995 153.391 116.045C153.45 116.096 153.488 116.165 153.499 116.241V117.56C153.491 117.639 153.453 117.713 153.394 117.766C153.335 117.819 153.258 117.848 153.178 117.847V117.847ZM153.178 115.271C153.095 115.269 153.016 115.236 152.958 115.177C152.899 115.119 152.866 115.04 152.864 114.957V113.665C152.875 113.589 152.913 113.519 152.972 113.469C153.03 113.419 153.104 113.391 153.182 113.391C153.259 113.391 153.333 113.419 153.391 113.469C153.45 113.519 153.488 113.589 153.499 113.665V114.957C153.497 115.041 153.463 115.121 153.403 115.18C153.343 115.238 153.262 115.271 153.178 115.271V115.271ZM153.178 112.695C153.094 112.693 153.014 112.659 152.955 112.598C152.897 112.538 152.864 112.458 152.864 112.374V111.089C152.857 111.043 152.86 110.997 152.873 110.953C152.886 110.908 152.908 110.867 152.938 110.832C152.969 110.798 153.006 110.77 153.048 110.75C153.09 110.731 153.135 110.721 153.182 110.721C153.228 110.721 153.273 110.731 153.315 110.75C153.357 110.77 153.394 110.798 153.425 110.832C153.455 110.867 153.477 110.908 153.49 110.953C153.503 110.997 153.506 111.043 153.499 111.089V112.374C153.499 112.416 153.491 112.458 153.475 112.497C153.459 112.536 153.435 112.571 153.405 112.601C153.375 112.631 153.34 112.654 153.301 112.67C153.262 112.687 153.22 112.695 153.178 112.695V112.695ZM153.178 110.119C153.094 110.117 153.014 110.082 152.955 110.022C152.897 109.962 152.864 109.882 152.864 109.798V108.513C152.857 108.467 152.86 108.421 152.873 108.376C152.886 108.332 152.908 108.291 152.938 108.256C152.969 108.221 153.006 108.193 153.048 108.174C153.09 108.155 153.135 108.145 153.182 108.145C153.228 108.145 153.273 108.155 153.315 108.174C153.357 108.193 153.394 108.221 153.425 108.256C153.455 108.291 153.477 108.332 153.49 108.376C153.503 108.421 153.506 108.467 153.499 108.513V109.798C153.499 109.84 153.491 109.882 153.475 109.92C153.459 109.959 153.435 109.995 153.405 110.025C153.375 110.054 153.34 110.078 153.301 110.094C153.262 110.11 153.22 110.119 153.178 110.119V110.119ZM153.178 107.543C153.094 107.541 153.014 107.506 152.955 107.446C152.897 107.386 152.864 107.305 152.864 107.221V105.944C152.857 105.898 152.86 105.851 152.873 105.807C152.886 105.763 152.908 105.722 152.938 105.687C152.969 105.652 153.006 105.624 153.048 105.605C153.09 105.586 153.135 105.576 153.182 105.576C153.228 105.576 153.273 105.586 153.315 105.605C153.357 105.624 153.394 105.652 153.425 105.687C153.455 105.722 153.477 105.763 153.49 105.807C153.503 105.851 153.506 105.898 153.499 105.944V107.228C153.497 107.312 153.463 107.392 153.403 107.451C153.343 107.51 153.262 107.543 153.178 107.543V107.543ZM153.178 104.966C153.094 104.965 153.014 104.93 152.955 104.87C152.897 104.81 152.864 104.729 152.864 104.645V103.36C152.857 103.315 152.86 103.268 152.873 103.224C152.886 103.18 152.908 103.139 152.938 103.104C152.969 103.069 153.006 103.041 153.048 103.022C153.09 103.003 153.135 102.993 153.182 102.993C153.228 102.993 153.273 103.003 153.315 103.022C153.357 103.041 153.394 103.069 153.425 103.104C153.455 103.139 153.477 103.18 153.49 103.224C153.503 103.268 153.506 103.315 153.499 103.36V104.645C153.499 104.687 153.491 104.729 153.475 104.768C153.459 104.807 153.435 104.842 153.405 104.872C153.375 104.902 153.34 104.926 153.301 104.942C153.262 104.958 153.22 104.966 153.178 104.966V104.966ZM153.178 102.39C153.094 102.388 153.014 102.354 152.955 102.294C152.897 102.234 152.864 102.153 152.864 102.069V100.784C152.857 100.739 152.86 100.692 152.873 100.648C152.886 100.604 152.908 100.563 152.938 100.528C152.969 100.493 153.006 100.465 153.048 100.446C153.09 100.426 153.135 100.416 153.182 100.416C153.228 100.416 153.273 100.426 153.315 100.446C153.357 100.465 153.394 100.493 153.425 100.528C153.455 100.563 153.477 100.604 153.49 100.648C153.503 100.692 153.506 100.739 153.499 100.784V102.069C153.499 102.111 153.491 102.153 153.475 102.192C153.459 102.231 153.435 102.266 153.405 102.296C153.375 102.326 153.34 102.35 153.301 102.366C153.262 102.382 153.22 102.39 153.178 102.39V102.39ZM153.178 99.8071C153.095 99.8071 153.015 99.774 152.956 99.715C152.897 99.6561 152.864 99.5761 152.864 99.4927V98.2012C152.875 98.125 152.913 98.0553 152.972 98.0049C153.03 97.9545 153.104 97.9268 153.182 97.9268C153.259 97.9268 153.333 97.9545 153.391 98.0049C153.45 98.0553 153.488 98.125 153.499 98.2012V99.4927C153.496 99.5749 153.46 99.6524 153.4 99.7086C153.34 99.7648 153.26 99.7953 153.178 99.7934V99.8071ZM153.178 97.2309C153.095 97.2309 153.015 97.1978 152.956 97.1388C152.897 97.0799 152.864 96.9999 152.864 96.9165V95.625C152.875 95.5488 152.913 95.4791 152.972 95.4287C153.03 95.3783 153.104 95.3506 153.182 95.3506C153.259 95.3506 153.333 95.3783 153.391 95.4287C153.45 95.4791 153.488 95.5488 153.499 95.625V96.9165C153.499 96.9584 153.491 96.9998 153.475 97.0384C153.459 97.077 153.435 97.112 153.405 97.1413C153.375 97.1705 153.339 97.1936 153.3 97.2089C153.262 97.2243 153.22 97.2318 153.178 97.2309V97.2309ZM153.178 94.6547C153.095 94.6529 153.016 94.6192 152.958 94.5607C152.899 94.5021 152.866 94.4232 152.864 94.3403V93.0488C152.875 92.9726 152.913 92.9029 152.972 92.8525C153.03 92.8021 153.104 92.7744 153.182 92.7744C153.259 92.7744 153.333 92.8021 153.391 92.8525C153.45 92.9029 153.488 92.9726 153.499 93.0488V94.3267C153.5 94.3694 153.493 94.4119 153.477 94.4517C153.461 94.4914 153.438 94.5277 153.408 94.5582C153.378 94.5888 153.342 94.613 153.303 94.6296C153.263 94.6462 153.221 94.6547 153.178 94.6547V94.6547ZM153.178 92.0785C153.095 92.0767 153.016 92.0431 152.958 91.9845C152.899 91.9259 152.866 91.847 152.864 91.7641V90.4726C152.875 90.3963 152.913 90.3267 152.972 90.2763C153.03 90.2259 153.104 90.1982 153.182 90.1982C153.259 90.1982 153.333 90.2259 153.391 90.2763C153.45 90.3267 153.488 90.3963 153.499 90.4726V91.7641C153.497 91.8481 153.463 91.9281 153.403 91.9868C153.343 92.0456 153.262 92.0785 153.178 92.0785V92.0785ZM153.178 89.5023C153.095 89.5005 153.016 89.4668 152.958 89.4083C152.899 89.3497 152.866 89.2707 152.864 89.1879V87.8964C152.875 87.8201 152.913 87.7505 152.972 87.7001C153.03 87.6497 153.104 87.622 153.182 87.622C153.259 87.622 153.333 87.6497 153.391 87.7001C153.45 87.7505 153.488 87.8201 153.499 87.8964V89.1879C153.497 89.2719 153.463 89.3519 153.403 89.4106C153.343 89.4694 153.262 89.5023 153.178 89.5023V89.5023ZM153.178 86.9261C153.094 86.9243 153.014 86.8896 152.955 86.8296C152.897 86.7696 152.864 86.6889 152.864 86.6049V85.3202C152.857 85.2746 152.86 85.228 152.873 85.1837C152.886 85.1395 152.908 85.0985 152.938 85.0635C152.969 85.0286 153.006 85.0006 153.048 84.9814C153.09 84.9622 153.135 84.9523 153.182 84.9523C153.228 84.9523 153.273 84.9622 153.315 84.9814C153.357 85.0006 153.394 85.0286 153.425 85.0635C153.455 85.0985 153.477 85.1395 153.49 85.1837C153.503 85.228 153.506 85.2746 153.499 85.3202V86.6049C153.499 86.6471 153.491 86.6888 153.475 86.7278C153.459 86.7668 153.435 86.8022 153.405 86.832C153.375 86.8618 153.34 86.8855 153.301 86.9016C153.262 86.9177 153.22 86.9261 153.178 86.9261V86.9261ZM153.178 84.3499C153.094 84.3481 153.014 84.3134 152.955 84.2534C152.897 84.1934 152.864 84.1127 152.864 84.0287V82.744C152.857 82.6984 152.86 82.6518 152.873 82.6075C152.886 82.5632 152.908 82.5222 152.938 82.4873C152.969 82.4524 153.006 82.4244 153.048 82.4052C153.09 82.386 153.135 82.3761 153.182 82.3761C153.228 82.3761 153.273 82.386 153.315 82.4052C153.357 82.4244 153.394 82.4524 153.425 82.4873C153.455 82.5222 153.477 82.5632 153.49 82.6075C153.503 82.6518 153.506 82.6984 153.499 82.744V84.0287C153.499 84.0709 153.491 84.1126 153.475 84.1516C153.459 84.1906 153.435 84.226 153.405 84.2558C153.375 84.2856 153.34 84.3093 153.301 84.3254C153.262 84.3416 153.22 84.3499 153.178 84.3499V84.3499ZM153.178 81.7737C153.094 81.7719 153.014 81.7372 152.955 81.6772C152.897 81.6172 152.864 81.5365 152.864 81.4525V80.1678C152.857 80.1222 152.86 80.0756 152.873 80.0313C152.886 79.987 152.908 79.946 152.938 79.9111C152.969 79.8762 153.006 79.8482 153.048 79.829C153.09 79.8098 153.135 79.7999 153.182 79.7999C153.228 79.7999 153.273 79.8098 153.315 79.829C153.357 79.8482 153.394 79.8762 153.425 79.9111C153.455 79.946 153.477 79.987 153.49 80.0313C153.503 80.0756 153.506 80.1222 153.499 80.1678V81.4525C153.499 81.4947 153.491 81.5364 153.475 81.5754C153.459 81.6144 153.435 81.6498 153.405 81.6796C153.375 81.7094 153.34 81.7331 153.301 81.7492C153.262 81.7653 153.22 81.7737 153.178 81.7737V81.7737ZM153.178 79.1974C153.094 79.1957 153.014 79.161 152.955 79.101C152.897 79.041 152.864 78.9603 152.864 78.8763V77.5916C152.857 77.546 152.86 77.4994 152.873 77.4551C152.886 77.4108 152.908 77.3698 152.938 77.3349C152.969 77.3 153.006 77.272 153.048 77.2528C153.09 77.2336 153.135 77.2237 153.182 77.2237C153.228 77.2237 153.273 77.2336 153.315 77.2528C153.357 77.272 153.394 77.3 153.425 77.3349C153.455 77.3698 153.477 77.4108 153.49 77.4551C153.503 77.4994 153.506 77.546 153.499 77.5916V78.8763C153.499 78.9185 153.491 78.9602 153.475 78.9992C153.459 79.0381 153.435 79.0736 153.405 79.1034C153.375 79.1332 153.34 79.1569 153.301 79.173C153.262 79.1891 153.22 79.1974 153.178 79.1974V79.1974ZM153.178 76.6212C153.094 76.6195 153.014 76.5848 152.955 76.5248C152.897 76.4648 152.864 76.3841 152.864 76.3001V75.0085C152.875 74.9323 152.913 74.8626 152.972 74.8122C153.03 74.7618 153.104 74.7341 153.182 74.7341C153.259 74.7341 153.333 74.7618 153.391 74.8122C153.45 74.8626 153.488 74.9323 153.499 75.0085V76.3001C153.499 76.3422 153.491 76.384 153.475 76.423C153.459 76.4619 153.435 76.4974 153.405 76.5272C153.375 76.557 153.34 76.5807 153.301 76.5968C153.262 76.6129 153.22 76.6212 153.178 76.6212V76.6212ZM153.178 74.0382C153.095 74.0382 153.015 74.0051 152.956 73.9461C152.897 73.8872 152.864 73.8072 152.864 73.7239V72.4597C152.875 72.3834 152.913 72.3137 152.972 72.2633C153.03 72.213 153.104 72.1852 153.182 72.1852C153.259 72.1852 153.333 72.213 153.391 72.2633C153.45 72.3137 153.488 72.3834 153.499 72.4597V73.7512C153.492 73.8309 153.455 73.905 153.396 73.9584C153.336 74.0117 153.258 74.0402 153.178 74.0382V74.0382ZM153.178 71.462C153.095 71.462 153.015 71.4289 152.956 71.3699C152.897 71.311 152.864 71.231 152.864 71.1477V69.8561C152.875 69.7799 152.913 69.7102 152.972 69.6598C153.03 69.6094 153.104 69.5817 153.182 69.5817C153.259 69.5817 153.333 69.6094 153.391 69.6598C153.45 69.7102 153.488 69.7799 153.499 69.8561V71.1477C153.499 71.1895 153.491 71.231 153.475 71.2696C153.459 71.3081 153.435 71.3431 153.405 71.3724C153.375 71.4017 153.339 71.4247 153.3 71.4401C153.262 71.4555 153.22 71.4629 153.178 71.462V71.462Z" fill="#F5F5F5"/>
<path d="M153.178 130.079C153.095 130.077 153.016 130.044 152.958 129.985C152.899 129.927 152.866 129.848 152.864 129.765V129.129C152.857 129.084 152.86 129.037 152.873 128.993C152.886 128.949 152.908 128.908 152.938 128.873C152.969 128.838 153.006 128.81 153.048 128.791C153.09 128.771 153.135 128.761 153.182 128.761C153.228 128.761 153.273 128.771 153.315 128.791C153.357 128.81 153.394 128.838 153.425 128.873C153.455 128.908 153.477 128.949 153.49 128.993C153.503 129.037 153.506 129.084 153.499 129.129V129.765C153.497 129.849 153.463 129.929 153.403 129.988C153.343 130.046 153.262 130.079 153.178 130.079V130.079Z" fill="#F5F5F5"/>
<path d="M178.237 77.5301C178.153 77.5283 178.073 77.4937 178.014 77.4337C177.956 77.3736 177.923 77.293 177.923 77.209V76.5598C177.934 76.4835 177.972 76.4138 178.031 76.3634C178.089 76.3131 178.164 76.2853 178.241 76.2853C178.318 76.2853 178.392 76.3131 178.451 76.3634C178.509 76.4138 178.547 76.4835 178.558 76.5598V77.2431C178.55 77.3223 178.512 77.3954 178.453 77.4484C178.394 77.5015 178.317 77.5306 178.237 77.5301Z" fill="#F5F5F5"/>
<path d="M178.238 113.788C178.155 113.787 178.076 113.753 178.017 113.694C177.959 113.636 177.925 113.557 177.923 113.474V112.176C177.935 112.099 177.973 112.03 178.031 111.979C178.089 111.929 178.164 111.901 178.241 111.901C178.318 111.901 178.393 111.929 178.451 111.979C178.509 112.03 178.548 112.099 178.559 112.176V113.46C178.56 113.503 178.552 113.546 178.536 113.585C178.521 113.625 178.497 113.661 178.467 113.692C178.437 113.722 178.402 113.747 178.362 113.763C178.323 113.78 178.28 113.788 178.238 113.788V113.788ZM178.238 111.198C178.155 111.197 178.076 111.163 178.017 111.104C177.959 111.046 177.925 110.967 177.923 110.884V109.586C177.935 109.509 177.973 109.44 178.031 109.389C178.089 109.339 178.164 109.311 178.241 109.311C178.318 109.311 178.393 109.339 178.451 109.389C178.509 109.44 178.548 109.509 178.559 109.586V110.884C178.557 110.968 178.522 111.048 178.462 111.107C178.402 111.166 178.322 111.198 178.238 111.198V111.198ZM178.238 108.609C178.155 108.607 178.076 108.573 178.017 108.515C177.959 108.456 177.925 108.377 177.923 108.294V106.996C177.935 106.92 177.973 106.85 178.031 106.8C178.089 106.749 178.164 106.721 178.241 106.721C178.318 106.721 178.393 106.749 178.451 106.8C178.509 106.85 178.548 106.92 178.559 106.996V108.294C178.557 108.378 178.522 108.458 178.462 108.517C178.402 108.576 178.322 108.609 178.238 108.609V108.609ZM178.238 106.019C178.155 106.017 178.076 105.983 178.017 105.925C177.959 105.866 177.925 105.787 177.923 105.704V104.406C177.935 104.33 177.973 104.26 178.031 104.21C178.089 104.159 178.164 104.132 178.241 104.132C178.318 104.132 178.393 104.159 178.451 104.21C178.509 104.26 178.548 104.33 178.559 104.406V105.704C178.557 105.788 178.522 105.868 178.462 105.927C178.402 105.986 178.322 106.019 178.238 106.019V106.019ZM178.238 103.429C178.155 103.427 178.076 103.393 178.017 103.335C177.959 103.276 177.925 103.197 177.923 103.114V101.843C177.935 101.767 177.973 101.697 178.031 101.647C178.089 101.597 178.164 101.569 178.241 101.569C178.318 101.569 178.393 101.597 178.451 101.647C178.509 101.697 178.548 101.767 178.559 101.843V103.142C178.55 103.221 178.513 103.294 178.454 103.347C178.394 103.4 178.317 103.429 178.238 103.429V103.429ZM178.238 100.839C178.155 100.837 178.076 100.804 178.017 100.745C177.959 100.686 177.925 100.607 177.923 100.525V99.2262C177.935 99.15 177.973 99.0803 178.031 99.0299C178.089 98.9795 178.164 98.9518 178.241 98.9518C178.318 98.9518 178.393 98.9795 178.451 99.0299C178.509 99.0803 178.548 99.15 178.559 99.2262V100.525C178.557 100.609 178.522 100.689 178.462 100.747C178.402 100.806 178.322 100.839 178.238 100.839V100.839ZM178.238 98.2491C178.155 98.2473 178.076 98.2136 178.017 98.1551C177.959 98.0965 177.925 98.0175 177.923 97.9347V96.6364C177.935 96.5601 177.973 96.4904 178.031 96.44C178.089 96.3896 178.164 96.3619 178.241 96.3619C178.318 96.3619 178.393 96.3896 178.451 96.44C178.509 96.4904 178.548 96.5601 178.559 96.6364V97.9347C178.557 98.0187 178.522 98.0987 178.462 98.1574C178.402 98.2162 178.322 98.2491 178.238 98.2491V98.2491ZM178.238 95.6592C178.155 95.6574 178.076 95.6238 178.017 95.5652C177.959 95.5066 177.925 95.4277 177.923 95.3449V94.0465C177.935 93.9702 177.973 93.9005 178.031 93.8502C178.089 93.7998 178.164 93.772 178.241 93.772C178.318 93.772 178.393 93.7998 178.451 93.8502C178.509 93.9005 178.548 93.9702 178.559 94.0465V95.3449C178.563 95.3893 178.557 95.434 178.543 95.4762C178.528 95.5183 178.505 95.5571 178.475 95.5898C178.445 95.6226 178.408 95.6488 178.367 95.6666C178.326 95.6844 178.282 95.6935 178.238 95.6934V95.6592ZM178.238 93.0693C178.155 93.0676 178.076 93.0339 178.017 92.9753C177.959 92.9167 177.925 92.8378 177.923 92.755V91.4566C177.935 91.3804 177.973 91.3107 178.031 91.2603C178.089 91.2099 178.164 91.1822 178.241 91.1822C178.318 91.1822 178.393 91.2099 178.451 91.2603C178.509 91.3107 178.548 91.3804 178.559 91.4566V92.755C178.557 92.839 178.522 92.9189 178.462 92.9777C178.402 93.0364 178.322 93.0693 178.238 93.0693V93.0693ZM178.238 90.4794C178.155 90.4777 178.076 90.444 178.017 90.3854C177.959 90.3269 177.925 90.2479 177.923 90.1651V88.8599C177.935 88.7837 177.973 88.714 178.031 88.6636C178.089 88.6132 178.164 88.5855 178.241 88.5855C178.318 88.5855 178.393 88.6132 178.451 88.6636C178.509 88.714 178.548 88.7837 178.559 88.8599V90.1583C178.559 90.2004 178.551 90.2422 178.534 90.2812C178.518 90.3201 178.495 90.3556 178.465 90.3854C178.435 90.4152 178.4 90.4389 178.361 90.455C178.322 90.4711 178.28 90.4794 178.238 90.4794V90.4794ZM178.238 87.8896C178.155 87.8878 178.076 87.8541 178.017 87.7956C177.959 87.737 177.925 87.6581 177.923 87.5752V86.2769C177.935 86.2006 177.973 86.1309 178.031 86.0805C178.089 86.0302 178.164 86.0024 178.241 86.0024C178.318 86.0024 178.393 86.0302 178.451 86.0805C178.509 86.1309 178.548 86.2006 178.559 86.2769V87.5752C178.557 87.6592 178.522 87.7392 178.462 87.7979C178.402 87.8567 178.322 87.8896 178.238 87.8896V87.8896ZM178.238 85.2997C178.154 85.2979 178.074 85.2633 178.015 85.2032C177.956 85.1432 177.923 85.0625 177.923 84.9785V83.687C177.917 83.6414 177.92 83.5948 177.933 83.5505C177.946 83.5062 177.968 83.4653 177.998 83.4304C178.028 83.3954 178.065 83.3674 178.107 83.3482C178.149 83.329 178.195 83.3191 178.241 83.3191C178.287 83.3191 178.333 83.329 178.375 83.3482C178.417 83.3674 178.454 83.3954 178.484 83.4304C178.514 83.4653 178.537 83.5062 178.549 83.5505C178.562 83.5948 178.566 83.6414 178.559 83.687V84.9785C178.559 85.0637 178.525 85.1454 178.465 85.2056C178.405 85.2659 178.323 85.2997 178.238 85.2997V85.2997ZM178.238 82.7098C178.154 82.708 178.074 82.6734 178.015 82.6134C177.956 82.5533 177.923 82.4727 177.923 82.3887V81.0971C177.917 81.0515 177.92 81.005 177.933 80.9607C177.946 80.9164 177.968 80.8754 177.998 80.8405C178.028 80.8056 178.065 80.7776 178.107 80.7584C178.149 80.7392 178.195 80.7292 178.241 80.7292C178.287 80.7292 178.333 80.7392 178.375 80.7584C178.417 80.7776 178.454 80.8056 178.484 80.8405C178.514 80.8754 178.537 80.9164 178.549 80.9607C178.562 81.005 178.566 81.0515 178.559 81.0971V82.3887C178.559 82.4738 178.525 82.5555 178.465 82.6158C178.405 82.676 178.323 82.7098 178.238 82.7098V82.7098ZM178.238 80.12C178.154 80.1182 178.074 80.0835 178.015 80.0235C177.956 79.9635 177.923 79.8828 177.923 79.7988V78.5073C177.917 78.4616 177.92 78.4151 177.933 78.3708C177.946 78.3265 177.968 78.2855 177.998 78.2506C178.028 78.2157 178.065 78.1877 178.107 78.1685C178.149 78.1493 178.195 78.1394 178.241 78.1394C178.287 78.1394 178.333 78.1493 178.375 78.1685C178.417 78.1877 178.454 78.2157 178.484 78.2506C178.514 78.2855 178.537 78.3265 178.549 78.3708C178.562 78.4151 178.566 78.4616 178.559 78.5073V79.7988C178.559 79.884 178.525 79.9657 178.465 80.0259C178.405 80.0861 178.323 80.12 178.238 80.12V80.12Z" fill="#F5F5F5"/>
<path d="M178.237 115.722C178.153 115.72 178.073 115.686 178.014 115.626C177.956 115.566 177.923 115.485 177.923 115.401V114.765C177.934 114.689 177.972 114.62 178.031 114.569C178.089 114.519 178.164 114.491 178.241 114.491C178.318 114.491 178.392 114.519 178.451 114.569C178.509 114.62 178.547 114.689 178.558 114.765V115.401C178.558 115.443 178.55 115.485 178.534 115.524C178.518 115.563 178.494 115.598 178.464 115.628C178.434 115.658 178.399 115.682 178.36 115.698C178.321 115.714 178.279 115.722 178.237 115.722V115.722Z" fill="#F5F5F5"/>
<path d="M202.926 79.2248C202.84 79.2248 202.759 79.191 202.699 79.1307C202.638 79.0705 202.604 78.9888 202.604 78.9036V78.2681C202.616 78.1919 202.654 78.1222 202.712 78.0718C202.771 78.0214 202.845 77.9937 202.922 77.9937C202.999 77.9937 203.074 78.0214 203.132 78.0718C203.191 78.1222 203.229 78.1919 203.24 78.2681V78.9036C203.24 78.9876 203.207 79.0683 203.148 79.1284C203.09 79.1884 203.01 79.223 202.926 79.2248V79.2248Z" fill="#F5F5F5"/>
<path d="M202.926 99.5132C202.841 99.5132 202.759 99.4794 202.699 99.4192C202.639 99.359 202.605 99.2773 202.605 99.1921V97.9279C202.598 97.8823 202.601 97.8357 202.614 97.7914C202.627 97.7471 202.65 97.7061 202.68 97.6712C202.71 97.6363 202.747 97.6083 202.789 97.5891C202.831 97.5699 202.877 97.56 202.923 97.56C202.969 97.56 203.014 97.5699 203.056 97.5891C203.098 97.6083 203.136 97.6363 203.166 97.6712C203.196 97.7061 203.218 97.7471 203.231 97.7914C203.244 97.8357 203.247 97.8823 203.24 97.9279V99.1921C203.241 99.2761 203.208 99.3568 203.149 99.4168C203.09 99.4768 203.01 99.5115 202.926 99.5132V99.5132ZM202.926 96.978C202.841 96.978 202.759 96.9442 202.699 96.884C202.639 96.8237 202.605 96.7421 202.605 96.6569V95.3927C202.598 95.3471 202.601 95.3005 202.614 95.2562C202.627 95.2119 202.65 95.1709 202.68 95.136C202.71 95.1011 202.747 95.0731 202.789 95.0539C202.831 95.0347 202.877 95.0248 202.923 95.0248C202.969 95.0248 203.014 95.0347 203.056 95.0539C203.098 95.0731 203.136 95.1011 203.166 95.136C203.196 95.1709 203.218 95.2119 203.231 95.2562C203.244 95.3005 203.247 95.3471 203.24 95.3927V96.6569C203.241 96.7409 203.208 96.8216 203.149 96.8816C203.09 96.9416 203.01 96.9763 202.926 96.978V96.978ZM202.926 94.4428C202.841 94.4428 202.759 94.409 202.699 94.3488C202.639 94.2885 202.605 94.2068 202.605 94.1217V92.8575C202.598 92.8119 202.601 92.7653 202.614 92.721C202.627 92.6767 202.65 92.6357 202.68 92.6008C202.71 92.5659 202.747 92.5379 202.789 92.5187C202.831 92.4995 202.877 92.4896 202.923 92.4896C202.969 92.4896 203.014 92.4995 203.056 92.5187C203.098 92.5379 203.136 92.5659 203.166 92.6008C203.196 92.6357 203.218 92.6767 203.231 92.721C203.244 92.7653 203.247 92.8119 203.24 92.8575V94.1217C203.241 94.2057 203.208 94.2864 203.149 94.3464C203.09 94.4064 203.01 94.4411 202.926 94.4428V94.4428ZM202.926 91.9076C202.841 91.9076 202.759 91.8738 202.699 91.8136C202.639 91.7533 202.605 91.6716 202.605 91.5865V90.3155C202.616 90.2392 202.654 90.1695 202.713 90.1191C202.771 90.0687 202.846 90.041 202.923 90.041C203 90.041 203.074 90.0687 203.133 90.1191C203.191 90.1695 203.229 90.2392 203.24 90.3155V91.5933C203.239 91.6761 203.205 91.7551 203.146 91.8136C203.088 91.8722 203.009 91.9059 202.926 91.9076V91.9076ZM202.926 89.3656C202.884 89.3665 202.843 89.3591 202.804 89.3437C202.765 89.3283 202.729 89.3053 202.699 89.276C202.67 89.2467 202.646 89.2117 202.63 89.1732C202.613 89.1346 202.605 89.0931 202.605 89.0513V87.7802C202.616 87.704 202.654 87.6343 202.713 87.5839C202.771 87.5335 202.846 87.5058 202.923 87.5058C203 87.5058 203.074 87.5335 203.133 87.5839C203.191 87.6343 203.229 87.704 203.24 87.7802V89.0513C203.24 89.1346 203.207 89.2146 203.148 89.2735C203.089 89.3325 203.01 89.3656 202.926 89.3656V89.3656ZM202.926 86.8304C202.842 86.8304 202.761 86.7975 202.701 86.7388C202.641 86.68 202.607 86.6001 202.605 86.5161V85.245C202.616 85.1688 202.654 85.0991 202.713 85.0487C202.771 84.9983 202.846 84.9706 202.923 84.9706C203 84.9706 203.074 84.9983 203.133 85.0487C203.191 85.0991 203.229 85.1688 203.24 85.245V86.5161C203.234 86.5953 203.198 86.6691 203.14 86.7234C203.082 86.7777 203.006 86.8085 202.926 86.8099V86.8304ZM202.926 84.2952C202.842 84.2952 202.761 84.2623 202.701 84.2036C202.641 84.1448 202.607 84.0648 202.605 83.9809V82.7098C202.616 82.6336 202.654 82.5639 202.713 82.5135C202.771 82.4631 202.846 82.4354 202.923 82.4354C203 82.4354 203.074 82.4631 203.133 82.5135C203.191 82.5639 203.229 82.6336 203.24 82.7098V83.9809C203.239 84.0637 203.205 84.1426 203.146 84.2012C203.088 84.2598 203.009 84.2935 202.926 84.2952V84.2952ZM202.926 81.76C202.842 81.76 202.761 81.7271 202.701 81.6683C202.641 81.6096 202.607 81.5296 202.605 81.4456V80.1746C202.616 80.0984 202.654 80.0287 202.713 79.9783C202.771 79.9279 202.846 79.9002 202.923 79.9002C203 79.9002 203.074 79.9279 203.133 79.9783C203.191 80.0287 203.229 80.0984 203.24 80.1746V81.4456C203.239 81.5285 203.205 81.6074 203.146 81.666C203.088 81.7246 203.009 81.7582 202.926 81.76V81.76Z" fill="#F5F5F5"/>
<path d="M202.926 101.413C202.884 101.414 202.843 101.406 202.804 101.391C202.765 101.376 202.729 101.353 202.699 101.323C202.67 101.294 202.646 101.259 202.63 101.22C202.613 101.182 202.605 101.14 202.605 101.099V100.477C202.598 100.431 202.601 100.385 202.614 100.34C202.627 100.296 202.65 100.255 202.68 100.22C202.71 100.185 202.747 100.157 202.789 100.138C202.831 100.119 202.877 100.109 202.923 100.109C202.969 100.109 203.014 100.119 203.056 100.138C203.098 100.157 203.136 100.185 203.166 100.22C203.196 100.255 203.218 100.296 203.231 100.34C203.244 100.385 203.247 100.431 203.24 100.477V101.112C203.237 101.193 203.202 101.27 203.144 101.326C203.085 101.382 203.007 101.413 202.926 101.413V101.413Z" fill="#F5F5F5"/>
<path d="M183.396 56.9136C183.396 56.2918 182.959 56.039 182.419 56.3533L173.42 61.5262C173.135 61.7133 172.898 61.9648 172.728 62.2604C172.558 62.556 172.46 62.8874 172.442 63.2277V70.5122C172.442 71.134 172.88 71.3869 173.42 71.0725L176.761 69.1455L178.162 71.5782C178.183 71.613 178.213 71.6411 178.249 71.6592C178.285 71.6772 178.326 71.6846 178.366 71.6803C178.407 71.6759 178.445 71.6602 178.476 71.6348C178.508 71.6095 178.532 71.5756 178.545 71.5372L180.027 67.2595L182.419 65.8928C182.705 65.708 182.942 65.4579 183.112 65.1633C183.282 64.8686 183.379 64.5378 183.396 64.1981V56.9136Z" fill="#F5F5F5"/>
<path d="M175.565 64.5466C175.475 64.5537 175.384 64.5401 175.3 64.507C175.216 64.4738 175.141 64.4219 175.08 64.3552C174.949 64.186 174.885 63.9741 174.902 63.7607C174.903 63.4823 174.963 63.2073 175.08 62.9544C175.2 62.6771 175.363 62.421 175.565 62.1959C175.759 61.9677 175.99 61.7737 176.248 61.6219C176.454 61.4936 176.689 61.4206 176.932 61.41C177.022 61.4048 177.113 61.4199 177.197 61.4542C177.281 61.4885 177.356 61.5411 177.417 61.6082C177.55 61.7764 177.616 61.9885 177.601 62.2027C177.597 62.4792 177.534 62.7517 177.417 63.0022C177.293 63.2794 177.129 63.5372 176.932 63.7676C176.736 63.9902 176.505 64.1794 176.248 64.3279C176.044 64.4604 175.808 64.5359 175.565 64.5466ZM175.346 68.2298C175.348 68.1867 175.36 68.1446 175.38 68.1068L179.289 60.1595L179.392 59.9819C179.434 59.9368 179.482 59.8977 179.535 59.8657L180.335 59.4078C180.35 59.4014 180.366 59.3982 180.382 59.3982C180.399 59.3982 180.415 59.4014 180.43 59.4078C180.444 59.4111 180.455 59.4192 180.463 59.4306C180.47 59.442 180.473 59.4558 180.471 59.4693C180.47 59.5157 180.456 59.5608 180.43 59.5992L176.487 67.5533C176.487 67.6216 176.419 67.6695 176.399 67.7036C176.362 67.7435 176.318 67.776 176.269 67.7993L175.462 68.2708C175.394 68.3596 175.346 68.3118 175.346 68.2298V68.2298ZM176.713 63.1867C176.835 63.0095 176.904 62.8007 176.911 62.5854C176.923 62.5079 176.91 62.4287 176.874 62.3589C176.839 62.289 176.782 62.232 176.713 62.1959C176.63 62.171 176.542 62.1662 176.456 62.1816C176.371 62.197 176.29 62.2323 176.221 62.2847C176.02 62.4018 175.852 62.566 175.729 62.7631C175.605 62.9449 175.537 63.1583 175.531 63.3781C175.52 63.4536 175.533 63.5306 175.569 63.5981C175.605 63.6656 175.66 63.7201 175.729 63.7539C175.812 63.7786 175.899 63.7841 175.984 63.7699C176.07 63.7557 176.151 63.7222 176.221 63.6719C176.432 63.5558 176.61 63.3891 176.74 63.1867H176.713ZM178.886 66.2481C178.794 66.2549 178.702 66.2406 178.617 66.2062C178.532 66.1719 178.455 66.1184 178.394 66.0499C178.26 65.8845 178.194 65.6744 178.209 65.4623C178.214 65.1879 178.277 64.9177 178.394 64.6696C178.517 64.3904 178.683 64.1321 178.886 63.9042C179.08 63.6777 179.311 63.4859 179.569 63.3371C179.774 63.2046 180.009 63.1291 180.253 63.1184C180.344 63.1136 180.434 63.1282 180.519 63.1612C180.604 63.1942 180.681 63.2448 180.745 63.3097C180.879 63.4773 180.945 63.6898 180.929 63.9042C180.925 64.1808 180.862 64.4534 180.745 64.7038C180.618 64.9812 180.453 65.239 180.253 65.4691C180.057 65.6937 179.826 65.8852 179.569 66.0363C179.371 66.1594 179.146 66.2321 178.913 66.2481H178.886ZM180.054 64.8814C180.18 64.7032 180.249 64.4913 180.253 64.2733C180.253 64.0751 180.191 63.9521 180.054 63.8974C179.971 63.872 179.883 63.8668 179.798 63.8823C179.712 63.8977 179.631 63.9334 179.562 63.9862C179.36 64.1013 179.191 64.2659 179.07 64.4646C178.949 64.6423 178.88 64.8508 178.872 65.0659C178.872 65.2709 178.941 65.4008 179.07 65.4486C179.154 65.4704 179.241 65.4738 179.326 65.4584C179.411 65.4431 179.492 65.4094 179.562 65.3598C179.77 65.2481 179.948 65.0889 180.082 64.8951L180.054 64.8814Z" fill="#0000F5"/>
<path opacity="0.4" d="M175.565 64.5466C175.475 64.5537 175.384 64.5401 175.3 64.507C175.216 64.4738 175.141 64.4219 175.08 64.3552C174.949 64.186 174.885 63.9741 174.902 63.7607C174.903 63.4823 174.963 63.2073 175.08 62.9544C175.2 62.6771 175.363 62.421 175.565 62.1959C175.759 61.9677 175.99 61.7737 176.248 61.6219C176.454 61.4936 176.689 61.4206 176.932 61.41C177.022 61.4048 177.113 61.4199 177.197 61.4542C177.281 61.4885 177.356 61.5411 177.417 61.6082C177.55 61.7764 177.616 61.9885 177.601 62.2027C177.597 62.4792 177.534 62.7517 177.417 63.0022C177.293 63.2794 177.129 63.5372 176.932 63.7676C176.736 63.9902 176.505 64.1794 176.248 64.3279C176.044 64.4604 175.808 64.5359 175.565 64.5466ZM175.346 68.2298C175.348 68.1867 175.36 68.1446 175.38 68.1068L179.289 60.1595L179.392 59.9819C179.434 59.9368 179.482 59.8977 179.535 59.8657L180.335 59.4078C180.35 59.4014 180.366 59.3982 180.382 59.3982C180.399 59.3982 180.415 59.4014 180.43 59.4078C180.444 59.4111 180.455 59.4192 180.463 59.4306C180.47 59.442 180.473 59.4558 180.471 59.4693C180.47 59.5157 180.456 59.5608 180.43 59.5992L176.487 67.5533C176.487 67.6216 176.419 67.6695 176.399 67.7036C176.362 67.7435 176.318 67.776 176.269 67.7993L175.462 68.2708C175.394 68.3596 175.346 68.3118 175.346 68.2298V68.2298ZM176.713 63.1867C176.835 63.0095 176.904 62.8007 176.911 62.5854C176.923 62.5079 176.91 62.4287 176.874 62.3589C176.839 62.289 176.782 62.232 176.713 62.1959C176.63 62.171 176.542 62.1662 176.456 62.1816C176.371 62.197 176.29 62.2323 176.221 62.2847C176.02 62.4018 175.852 62.566 175.729 62.7631C175.605 62.9449 175.537 63.1583 175.531 63.3781C175.52 63.4536 175.533 63.5306 175.569 63.5981C175.605 63.6656 175.66 63.7201 175.729 63.7539C175.812 63.7786 175.899 63.7841 175.984 63.7699C176.07 63.7557 176.151 63.7222 176.221 63.6719C176.432 63.5558 176.61 63.3891 176.74 63.1867H176.713ZM178.886 66.2481C178.794 66.2549 178.702 66.2406 178.617 66.2062C178.532 66.1719 178.455 66.1184 178.394 66.0499C178.26 65.8845 178.194 65.6744 178.209 65.4623C178.214 65.1879 178.277 64.9177 178.394 64.6696C178.517 64.3904 178.683 64.1321 178.886 63.9042C179.08 63.6777 179.311 63.4859 179.569 63.3371C179.774 63.2046 180.009 63.1291 180.253 63.1184C180.344 63.1136 180.434 63.1282 180.519 63.1612C180.604 63.1942 180.681 63.2448 180.745 63.3097C180.879 63.4773 180.945 63.6898 180.929 63.9042C180.925 64.1808 180.862 64.4534 180.745 64.7038C180.618 64.9812 180.453 65.239 180.253 65.4691C180.057 65.6937 179.826 65.8852 179.569 66.0363C179.371 66.1594 179.146 66.2321 178.913 66.2481H178.886ZM180.054 64.8814C180.18 64.7032 180.249 64.4913 180.253 64.2733C180.253 64.0751 180.191 63.9521 180.054 63.8974C179.971 63.872 179.883 63.8668 179.798 63.8823C179.712 63.8977 179.631 63.9334 179.562 63.9862C179.36 64.1013 179.191 64.2659 179.07 64.4646C178.949 64.6423 178.88 64.8508 178.872 65.0659C178.872 65.2709 178.941 65.4008 179.07 65.4486C179.154 65.4704 179.241 65.4738 179.326 65.4584C179.411 65.4431 179.492 65.4094 179.562 65.3598C179.77 65.2481 179.948 65.0889 180.082 64.8951L180.054 64.8814Z" fill="black"/>
<path d="M207.696 58.1642C207.696 57.5423 207.259 57.2895 206.719 57.597L197.719 62.8041C197.435 62.9905 197.199 63.2409 197.029 63.5352C196.86 63.8295 196.761 64.1596 196.742 64.4988V71.7764C196.742 72.405 197.18 72.6579 197.719 72.3435L201.088 70.4097L202.496 72.8424C202.512 72.8789 202.538 72.9101 202.572 72.9319C202.605 72.9538 202.644 72.9654 202.684 72.9654C202.724 72.9654 202.763 72.9538 202.796 72.9319C202.83 72.9101 202.856 72.8789 202.872 72.8424L204.355 68.5578L206.753 67.1911C207.037 67.0047 207.274 66.7543 207.443 66.46C207.613 66.1656 207.711 65.8356 207.73 65.4964L207.696 58.1642Z" fill="#F5F5F5"/>
<path d="M199.864 65.7971C199.773 65.8029 199.681 65.7881 199.596 65.7538C199.511 65.7195 199.434 65.6666 199.372 65.5989C199.243 65.4315 199.18 65.2223 199.195 65.0113C199.198 64.7332 199.259 64.4589 199.372 64.2049C199.494 63.9252 199.66 63.6668 199.864 63.4396C200.06 63.215 200.291 63.0234 200.548 62.8724C200.752 62.7424 200.988 62.6692 201.231 62.6606C201.323 62.6538 201.415 62.6681 201.5 62.7025C201.585 62.7368 201.662 62.7903 201.723 62.8587C201.858 63.026 201.924 63.2388 201.907 63.4532C201.903 63.7276 201.84 63.9978 201.723 64.2459C201.6 64.5251 201.434 64.7834 201.231 65.0113C201.037 65.2378 200.806 65.4296 200.548 65.5784C200.343 65.7109 200.107 65.7864 199.864 65.7971ZM199.639 69.4803C199.641 69.4342 199.655 69.3894 199.68 69.3505L203.588 61.4032C203.615 61.3399 203.649 61.2802 203.691 61.2255C203.729 61.1784 203.775 61.139 203.828 61.1094L204.634 60.6447C204.675 60.6447 204.702 60.6105 204.73 60.6447C204.757 60.6789 204.764 60.6447 204.764 60.7062C204.765 60.7518 204.753 60.7968 204.73 60.836L200.8 68.8243C200.776 68.8773 200.746 68.9277 200.712 68.9746C200.677 69.0142 200.635 69.0467 200.589 69.0703L199.775 69.5418C199.721 69.5692 199.639 69.5555 199.639 69.4803ZM201.005 64.4372C201.127 64.2595 201.196 64.051 201.204 63.8359C201.215 63.7584 201.202 63.6792 201.167 63.6094C201.131 63.5396 201.075 63.4826 201.005 63.4464C200.922 63.4216 200.834 63.4167 200.749 63.4321C200.663 63.4475 200.583 63.4829 200.513 63.5352C200.315 63.6526 200.148 63.8168 200.028 64.0136C199.902 64.1939 199.833 64.4083 199.83 64.6286C199.818 64.7042 199.831 64.7817 199.867 64.8494C199.902 64.9171 199.959 64.9715 200.028 65.0044C200.11 65.0292 200.197 65.0341 200.282 65.0187C200.366 65.0032 200.445 64.9679 200.513 64.9156C200.725 64.8044 200.905 64.6394 201.033 64.4372H201.005ZM203.178 67.4986C203.087 67.5039 202.995 67.4889 202.91 67.4546C202.825 67.4204 202.749 67.3677 202.686 67.3005C202.559 67.1319 202.496 66.9236 202.509 66.7128C202.514 66.437 202.574 66.1651 202.686 65.9133C202.813 65.6358 202.978 65.3781 203.178 65.1479C203.374 64.9253 203.605 64.7361 203.862 64.5876C204.067 64.4572 204.302 64.3819 204.545 64.3689C204.636 64.3628 204.727 64.3767 204.812 64.4098C204.897 64.4429 204.974 64.4942 205.037 64.5603C205.171 64.7254 205.237 64.9357 205.222 65.1479C205.219 65.4268 205.156 65.7018 205.037 65.9543C204.912 66.2305 204.746 66.4862 204.545 66.7128C204.35 66.9385 204.12 67.1302 203.862 67.28C203.664 67.4047 203.439 67.4798 203.206 67.4986H203.178ZM204.354 66.1319C204.477 65.9501 204.546 65.7367 204.552 65.5169C204.562 65.4415 204.548 65.3649 204.512 65.2976C204.477 65.2304 204.422 65.1757 204.354 65.1411C204.269 65.1192 204.18 65.1164 204.094 65.133C204.007 65.1495 203.926 65.185 203.855 65.2368C203.656 65.3508 203.489 65.5129 203.37 65.7083C203.243 65.8865 203.172 66.098 203.165 66.3164C203.165 66.5214 203.233 66.6445 203.37 66.6991C203.452 66.7208 203.538 66.7241 203.622 66.7088C203.706 66.6934 203.786 66.6598 203.855 66.6103C204.064 66.4989 204.245 66.3397 204.381 66.1456L204.354 66.1319Z" fill="#0000F5"/>
<path opacity="0.4" d="M199.864 65.7971C199.773 65.8029 199.681 65.7881 199.596 65.7538C199.511 65.7195 199.434 65.6666 199.372 65.5989C199.243 65.4315 199.18 65.2223 199.195 65.0113C199.198 64.7332 199.259 64.4589 199.372 64.2049C199.494 63.9252 199.66 63.6668 199.864 63.4396C200.06 63.215 200.291 63.0234 200.548 62.8724C200.752 62.7424 200.988 62.6692 201.231 62.6606C201.323 62.6538 201.415 62.6681 201.5 62.7025C201.585 62.7368 201.662 62.7903 201.723 62.8587C201.858 63.026 201.924 63.2388 201.907 63.4532C201.903 63.7276 201.84 63.9978 201.723 64.2459C201.6 64.5251 201.434 64.7834 201.231 65.0113C201.037 65.2378 200.806 65.4296 200.548 65.5784C200.343 65.7109 200.107 65.7864 199.864 65.7971ZM199.639 69.4803C199.641 69.4342 199.655 69.3894 199.68 69.3505L203.588 61.4032C203.615 61.3399 203.649 61.2802 203.691 61.2255C203.729 61.1784 203.775 61.139 203.828 61.1094L204.634 60.6447C204.675 60.6447 204.702 60.6105 204.73 60.6447C204.757 60.6789 204.764 60.6447 204.764 60.7062C204.765 60.7518 204.753 60.7968 204.73 60.836L200.8 68.8243C200.776 68.8773 200.746 68.9277 200.712 68.9746C200.677 69.0142 200.635 69.0467 200.589 69.0703L199.775 69.5418C199.721 69.5692 199.639 69.5555 199.639 69.4803ZM201.005 64.4372C201.127 64.2595 201.196 64.051 201.204 63.8359C201.215 63.7584 201.202 63.6792 201.167 63.6094C201.131 63.5396 201.075 63.4826 201.005 63.4464C200.922 63.4216 200.834 63.4167 200.749 63.4321C200.663 63.4475 200.583 63.4829 200.513 63.5352C200.315 63.6526 200.148 63.8168 200.028 64.0136C199.902 64.1939 199.833 64.4083 199.83 64.6286C199.818 64.7042 199.831 64.7817 199.867 64.8494C199.902 64.9171 199.959 64.9715 200.028 65.0044C200.11 65.0292 200.197 65.0341 200.282 65.0187C200.366 65.0032 200.445 64.9679 200.513 64.9156C200.725 64.8044 200.905 64.6394 201.033 64.4372H201.005ZM203.178 67.4986C203.087 67.5039 202.995 67.4889 202.91 67.4546C202.825 67.4204 202.749 67.3677 202.686 67.3005C202.559 67.1319 202.496 66.9236 202.509 66.7128C202.514 66.437 202.574 66.1651 202.686 65.9133C202.813 65.6358 202.978 65.3781 203.178 65.1479C203.374 64.9253 203.605 64.7361 203.862 64.5876C204.067 64.4572 204.302 64.3819 204.545 64.3689C204.636 64.3628 204.727 64.3767 204.812 64.4098C204.897 64.4429 204.974 64.4942 205.037 64.5603C205.171 64.7254 205.237 64.9357 205.222 65.1479C205.219 65.4268 205.156 65.7018 205.037 65.9543C204.912 66.2305 204.746 66.4862 204.545 66.7128C204.35 66.9385 204.12 67.1302 203.862 67.28C203.664 67.4047 203.439 67.4798 203.206 67.4986H203.178ZM204.354 66.1319C204.477 65.9501 204.546 65.7367 204.552 65.5169C204.562 65.4415 204.548 65.3649 204.512 65.2976C204.477 65.2304 204.422 65.1757 204.354 65.1411C204.269 65.1192 204.18 65.1164 204.094 65.133C204.007 65.1495 203.926 65.185 203.855 65.2368C203.656 65.3508 203.489 65.5129 203.37 65.7083C203.243 65.8865 203.172 66.098 203.165 66.3164C203.165 66.5214 203.233 66.6445 203.37 66.6991C203.452 66.7208 203.538 66.7241 203.622 66.7088C203.706 66.6934 203.786 66.6598 203.855 66.6103C204.064 66.4989 204.245 66.3397 204.381 66.1456L204.354 66.1319Z" fill="black"/>
<path d="M157.846 48.447C157.846 47.8252 157.408 47.5723 156.868 47.8867L147.869 53.0869C147.584 53.274 147.347 53.5255 147.177 53.8211C147.007 54.1167 146.91 54.4481 146.892 54.7885V62.0729C146.892 62.6947 147.329 62.9476 147.869 62.6332L151.203 60.7062L152.611 63.1321C152.627 63.1687 152.653 63.1998 152.687 63.2216C152.72 63.2435 152.759 63.2551 152.799 63.2551C152.839 63.2551 152.878 63.2435 152.911 63.2216C152.945 63.1998 152.971 63.1687 152.987 63.1321L154.47 58.8543L156.868 57.4877C157.154 57.3028 157.391 57.0528 157.561 56.7582C157.731 56.4635 157.829 56.1327 157.846 55.793V48.447Z" fill="#F5F5F5"/>
<path d="M150.007 56.0594C149.917 56.0655 149.827 56.0515 149.743 56.0184C149.659 55.9853 149.584 55.934 149.522 55.8681C149.394 55.6975 149.331 55.4866 149.345 55.2736C149.349 54.9956 149.409 54.7212 149.522 54.4672C149.645 54.1913 149.808 53.9355 150.007 53.7087C150.203 53.4821 150.434 53.2883 150.691 53.1347C150.897 53.0073 151.132 52.9344 151.374 52.9229C151.466 52.9161 151.558 52.9304 151.643 52.9648C151.728 52.9992 151.805 53.0526 151.866 53.1211C152 53.2893 152.065 53.5013 152.051 53.7156C152.046 53.9921 151.983 54.2645 151.866 54.5151C151.74 54.7925 151.574 55.0503 151.374 55.2804C151.178 55.503 150.947 55.6923 150.691 55.8408C150.487 55.9732 150.251 56.0487 150.007 56.0594ZM149.789 59.7427C149.79 59.6985 149.804 59.6556 149.83 59.6197L153.738 51.6655C153.767 51.603 153.801 51.5435 153.841 51.4879C153.879 51.4408 153.925 51.4013 153.978 51.3717L154.784 50.9139C154.799 50.9071 154.815 50.9036 154.832 50.9036C154.848 50.9036 154.865 50.9071 154.88 50.9139C154.88 50.9139 154.914 50.9139 154.914 50.9754C154.915 51.0211 154.904 51.0662 154.88 51.1052L150.95 59.0935C150.926 59.1465 150.896 59.1968 150.862 59.2438C150.829 59.2853 150.787 59.3182 150.739 59.3395L149.925 59.811C149.837 59.8588 149.789 59.8452 149.789 59.7632V59.7427ZM151.155 54.6996C151.278 54.5224 151.347 54.3136 151.354 54.0982C151.365 54.0208 151.352 53.9416 151.317 53.8717C151.281 53.8019 151.225 53.7449 151.155 53.7087C151.072 53.6839 150.984 53.679 150.899 53.6944C150.813 53.7099 150.733 53.7452 150.663 53.7976C150.465 53.9151 150.299 54.0793 150.178 54.2759C150.052 54.4563 149.983 54.6706 149.98 54.8909C149.98 55.0891 150.042 55.2121 150.178 55.2668C150.26 55.2916 150.347 55.2964 150.432 55.281C150.516 55.2655 150.595 55.2302 150.663 55.1779C150.884 55.0678 151.07 54.9002 151.203 54.6928L151.155 54.6996ZM153.328 57.761C153.237 57.7678 153.145 57.7534 153.059 57.7191C152.974 57.6847 152.898 57.6312 152.836 57.5628C152.708 57.3948 152.645 57.186 152.659 56.9751C152.665 56.7017 152.725 56.4322 152.836 56.1824C152.96 55.9032 153.126 55.645 153.328 55.4171C153.522 55.1906 153.753 54.9988 154.012 54.8499C154.216 54.7175 154.452 54.642 154.695 54.6313C154.786 54.6265 154.877 54.6411 154.962 54.674C155.047 54.707 155.123 54.7577 155.187 54.8226C155.319 54.9912 155.383 55.2036 155.365 55.4171C155.364 55.6933 155.303 55.9659 155.187 56.2166C155.061 56.494 154.895 56.7518 154.695 56.982C154.499 57.2062 154.268 57.3977 154.012 57.5491C153.816 57.6795 153.59 57.7593 153.356 57.7815L153.328 57.761ZM154.504 56.3943C154.626 56.2146 154.695 56.0036 154.702 55.7861C154.713 55.7106 154.699 55.6336 154.664 55.5661C154.628 55.4986 154.572 55.4441 154.504 55.4103C154.42 55.3848 154.33 55.3796 154.244 55.3951C154.157 55.4105 154.075 55.4461 154.005 55.4991C153.805 55.615 153.639 55.7796 153.52 55.9774C153.393 56.1532 153.322 56.3625 153.315 56.5788C153.315 56.7838 153.383 56.9136 153.52 56.9615C153.602 56.9832 153.688 56.9864 153.772 56.9711C153.856 56.9557 153.936 56.9221 154.005 56.8726C154.212 56.7671 154.392 56.615 154.531 56.4284L154.504 56.3943Z" fill="#0000F5"/>
<path opacity="0.4" d="M150.007 56.0594C149.917 56.0655 149.827 56.0515 149.743 56.0184C149.659 55.9853 149.584 55.934 149.522 55.8681C149.394 55.6975 149.331 55.4866 149.345 55.2736C149.349 54.9956 149.409 54.7212 149.522 54.4672C149.645 54.1913 149.808 53.9355 150.007 53.7087C150.203 53.4821 150.434 53.2883 150.691 53.1347C150.897 53.0073 151.132 52.9344 151.374 52.9229C151.466 52.9161 151.558 52.9304 151.643 52.9648C151.728 52.9992 151.805 53.0526 151.866 53.1211C152 53.2893 152.065 53.5013 152.051 53.7156C152.046 53.9921 151.983 54.2645 151.866 54.5151C151.74 54.7925 151.574 55.0503 151.374 55.2804C151.178 55.503 150.947 55.6923 150.691 55.8408C150.487 55.9732 150.251 56.0487 150.007 56.0594ZM149.789 59.7427C149.79 59.6985 149.804 59.6556 149.83 59.6197L153.738 51.6655C153.767 51.603 153.801 51.5435 153.841 51.4879C153.879 51.4408 153.925 51.4013 153.978 51.3717L154.784 50.9139C154.799 50.9071 154.815 50.9036 154.832 50.9036C154.848 50.9036 154.865 50.9071 154.88 50.9139C154.88 50.9139 154.914 50.9139 154.914 50.9754C154.915 51.0211 154.904 51.0662 154.88 51.1052L150.95 59.0935C150.926 59.1465 150.896 59.1968 150.862 59.2438C150.829 59.2853 150.787 59.3182 150.739 59.3395L149.925 59.811C149.837 59.8588 149.789 59.8452 149.789 59.7632V59.7427ZM151.155 54.6996C151.278 54.5224 151.347 54.3136 151.354 54.0982C151.365 54.0208 151.352 53.9416 151.317 53.8717C151.281 53.8019 151.225 53.7449 151.155 53.7087C151.072 53.6839 150.984 53.679 150.899 53.6944C150.813 53.7099 150.733 53.7452 150.663 53.7976C150.465 53.9151 150.299 54.0793 150.178 54.2759C150.052 54.4563 149.983 54.6706 149.98 54.8909C149.98 55.0891 150.042 55.2121 150.178 55.2668C150.26 55.2916 150.347 55.2964 150.432 55.281C150.516 55.2655 150.595 55.2302 150.663 55.1779C150.884 55.0678 151.07 54.9002 151.203 54.6928L151.155 54.6996ZM153.328 57.761C153.237 57.7678 153.145 57.7534 153.059 57.7191C152.974 57.6847 152.898 57.6312 152.836 57.5628C152.708 57.3948 152.645 57.186 152.659 56.9751C152.665 56.7017 152.725 56.4322 152.836 56.1824C152.96 55.9032 153.126 55.645 153.328 55.4171C153.522 55.1906 153.753 54.9988 154.012 54.8499C154.216 54.7175 154.452 54.642 154.695 54.6313C154.786 54.6265 154.877 54.6411 154.962 54.674C155.047 54.707 155.123 54.7577 155.187 54.8226C155.319 54.9912 155.383 55.2036 155.365 55.4171C155.364 55.6933 155.303 55.9659 155.187 56.2166C155.061 56.494 154.895 56.7518 154.695 56.982C154.499 57.2062 154.268 57.3977 154.012 57.5491C153.816 57.6795 153.59 57.7593 153.356 57.7815L153.328 57.761ZM154.504 56.3943C154.626 56.2146 154.695 56.0036 154.702 55.7861C154.713 55.7106 154.699 55.6336 154.664 55.5661C154.628 55.4986 154.572 55.4441 154.504 55.4103C154.42 55.3848 154.33 55.3796 154.244 55.3951C154.157 55.4105 154.075 55.4461 154.005 55.4991C153.805 55.615 153.639 55.7796 153.52 55.9774C153.393 56.1532 153.322 56.3625 153.315 56.5788C153.315 56.7838 153.383 56.9136 153.52 56.9615C153.602 56.9832 153.688 56.9864 153.772 56.9711C153.856 56.9557 153.936 56.9221 154.005 56.8726C154.212 56.7671 154.392 56.615 154.531 56.4284L154.504 56.3943Z" fill="black"/>
<path d="M125.175 87.2336C125.175 86.6117 124.737 86.3589 124.198 86.6664L115.198 91.8735C114.913 92.0606 114.676 92.3121 114.506 92.6077C114.337 92.9033 114.239 93.2346 114.221 93.575V100.853C114.221 101.481 114.658 101.734 115.198 101.42L118.539 99.4928L119.94 101.919C119.96 101.954 119.99 101.982 120.026 102.001C120.062 102.019 120.102 102.027 120.143 102.024C120.183 102.02 120.221 102.005 120.253 101.98C120.285 101.956 120.309 101.922 120.323 101.884L121.806 97.5999L124.198 96.2332C124.482 96.0476 124.719 95.7974 124.889 95.5029C125.059 95.2084 125.157 94.878 125.175 94.5385V87.2336Z" fill="#F5F5F5"/>
<path d="M117.345 94.8665C117.254 94.8738 117.163 94.8597 117.078 94.8253C116.994 94.7908 116.919 94.7371 116.859 94.6683C116.727 94.5025 116.663 94.2921 116.682 94.0807C116.682 93.8022 116.743 93.5272 116.859 93.2743C116.981 92.9958 117.145 92.7376 117.345 92.509C117.539 92.2832 117.77 92.0915 118.028 91.9418C118.233 91.8118 118.469 91.7387 118.711 91.73C118.803 91.7232 118.895 91.7375 118.98 91.7719C119.066 91.8062 119.142 91.8597 119.203 91.9281C119.338 92.0957 119.404 92.3083 119.388 92.5227C119.383 92.797 119.32 93.0672 119.203 93.3153C119.079 93.5958 118.913 93.856 118.711 94.0875C118.515 94.3101 118.285 94.4994 118.028 94.6478C117.823 94.7783 117.587 94.8536 117.345 94.8665ZM117.126 98.5497C117.129 98.5046 117.14 98.4604 117.16 98.4199L121.069 90.4726C121.095 90.4093 121.13 90.3496 121.171 90.295C121.211 90.2494 121.257 90.2102 121.308 90.1788L122.114 89.7141C122.145 89.7032 122.179 89.7032 122.21 89.7141C122.223 89.7174 122.235 89.7255 122.243 89.7369C122.25 89.7483 122.253 89.7621 122.251 89.7756C122.249 89.8218 122.235 89.8666 122.21 89.9054L118.288 97.8937C118.254 97.9621 118.219 98.0099 118.199 98.0441C118.16 98.0819 118.117 98.1141 118.069 98.1397L117.256 98.6112C117.167 98.6386 117.126 98.6317 117.126 98.5497V98.5497ZM118.493 93.5067C118.612 93.3285 118.679 93.1199 118.684 92.9053C118.684 92.7003 118.623 92.5705 118.493 92.5158C118.409 92.491 118.322 92.4861 118.236 92.5015C118.151 92.5169 118.07 92.5523 118.001 92.6046C117.799 92.7197 117.629 92.8843 117.509 93.083C117.385 93.2648 117.316 93.4783 117.31 93.698C117.3 93.7735 117.313 93.8505 117.349 93.918C117.384 93.9855 117.44 94.0401 117.509 94.0738C117.592 94.0987 117.68 94.1036 117.765 94.0881C117.851 94.0727 117.931 94.0374 118.001 93.985C118.211 93.8715 118.39 93.7071 118.52 93.5067H118.493ZM120.666 96.568C120.574 96.5733 120.483 96.5583 120.398 96.5241C120.312 96.4898 120.236 96.4371 120.174 96.3699C120.041 96.2037 119.975 95.9942 119.989 95.7822C119.994 95.5079 120.057 95.2377 120.174 94.9895C120.298 94.7091 120.464 94.4488 120.666 94.2173C120.863 93.996 121.093 93.8069 121.349 93.657C121.554 93.5266 121.79 93.4513 122.032 93.4383C122.123 93.4322 122.215 93.4461 122.3 93.4792C122.385 93.5123 122.461 93.5636 122.524 93.6297C122.66 93.7969 122.726 94.0097 122.709 94.2242C122.705 94.5008 122.642 94.7734 122.524 95.0237C122.4 95.2999 122.234 95.5556 122.032 95.7822C121.84 96.0099 121.608 96.2019 121.349 96.3494C121.153 96.4773 120.927 96.5526 120.693 96.568H120.666ZM121.834 95.2014C121.958 95.0196 122.027 94.8061 122.032 94.5864C122.042 94.5109 122.028 94.4343 121.993 94.367C121.957 94.2998 121.902 94.2451 121.834 94.2105C121.749 94.1886 121.66 94.1858 121.574 94.2024C121.488 94.2189 121.406 94.2544 121.335 94.3062C121.139 94.4229 120.972 94.5844 120.85 94.7777C120.726 94.9569 120.658 95.1682 120.652 95.3859C120.652 95.5909 120.714 95.7139 120.85 95.7685C120.933 95.7902 121.019 95.7935 121.103 95.7782C121.187 95.7628 121.266 95.7292 121.335 95.6797C121.545 95.5683 121.725 95.4091 121.862 95.215L121.834 95.2014Z" fill="#0000F5"/>
<path opacity="0.4" d="M117.345 94.8665C117.254 94.8738 117.163 94.8597 117.078 94.8253C116.994 94.7908 116.919 94.7371 116.859 94.6683C116.727 94.5025 116.663 94.2921 116.682 94.0807C116.682 93.8022 116.743 93.5272 116.859 93.2743C116.981 92.9958 117.145 92.7376 117.345 92.509C117.539 92.2832 117.77 92.0915 118.028 91.9418C118.233 91.8118 118.469 91.7387 118.711 91.73C118.803 91.7232 118.895 91.7375 118.98 91.7719C119.066 91.8062 119.142 91.8597 119.203 91.9281C119.338 92.0957 119.404 92.3083 119.388 92.5227C119.383 92.797 119.32 93.0672 119.203 93.3153C119.079 93.5958 118.913 93.856 118.711 94.0875C118.515 94.3101 118.285 94.4994 118.028 94.6478C117.823 94.7783 117.587 94.8536 117.345 94.8665ZM117.126 98.5497C117.129 98.5046 117.14 98.4604 117.16 98.4199L121.069 90.4726C121.095 90.4093 121.13 90.3496 121.171 90.295C121.211 90.2494 121.257 90.2102 121.308 90.1788L122.114 89.7141C122.145 89.7032 122.179 89.7032 122.21 89.7141C122.223 89.7174 122.235 89.7255 122.243 89.7369C122.25 89.7483 122.253 89.7621 122.251 89.7756C122.249 89.8218 122.235 89.8666 122.21 89.9054L118.288 97.8937C118.254 97.9621 118.219 98.0099 118.199 98.0441C118.16 98.0819 118.117 98.1141 118.069 98.1397L117.256 98.6112C117.167 98.6386 117.126 98.6317 117.126 98.5497V98.5497ZM118.493 93.5067C118.612 93.3285 118.679 93.1199 118.684 92.9053C118.684 92.7003 118.623 92.5705 118.493 92.5158C118.409 92.491 118.322 92.4861 118.236 92.5015C118.151 92.5169 118.07 92.5523 118.001 92.6046C117.799 92.7197 117.629 92.8843 117.509 93.083C117.385 93.2648 117.316 93.4783 117.31 93.698C117.3 93.7735 117.313 93.8505 117.349 93.918C117.384 93.9855 117.44 94.0401 117.509 94.0738C117.592 94.0987 117.68 94.1036 117.765 94.0881C117.851 94.0727 117.931 94.0374 118.001 93.985C118.211 93.8715 118.39 93.7071 118.52 93.5067H118.493ZM120.666 96.568C120.574 96.5733 120.483 96.5583 120.398 96.5241C120.312 96.4898 120.236 96.4371 120.174 96.3699C120.041 96.2037 119.975 95.9942 119.989 95.7822C119.994 95.5079 120.057 95.2377 120.174 94.9895C120.298 94.7091 120.464 94.4488 120.666 94.2173C120.863 93.996 121.093 93.8069 121.349 93.657C121.554 93.5266 121.79 93.4513 122.032 93.4383C122.123 93.4322 122.215 93.4461 122.3 93.4792C122.385 93.5123 122.461 93.5636 122.524 93.6297C122.66 93.7969 122.726 94.0097 122.709 94.2242C122.705 94.5008 122.642 94.7734 122.524 95.0237C122.4 95.2999 122.234 95.5556 122.032 95.7822C121.84 96.0099 121.608 96.2019 121.349 96.3494C121.153 96.4773 120.927 96.5526 120.693 96.568H120.666ZM121.834 95.2014C121.958 95.0196 122.027 94.8061 122.032 94.5864C122.042 94.5109 122.028 94.4343 121.993 94.367C121.957 94.2998 121.902 94.2451 121.834 94.2105C121.749 94.1886 121.66 94.1858 121.574 94.2024C121.488 94.2189 121.406 94.2544 121.335 94.3062C121.139 94.4229 120.972 94.5844 120.85 94.7777C120.726 94.9569 120.658 95.1682 120.652 95.3859C120.652 95.5909 120.714 95.7139 120.85 95.7685C120.933 95.7902 121.019 95.7935 121.103 95.7782C121.187 95.7628 121.266 95.7292 121.335 95.6797C121.545 95.5683 121.725 95.4091 121.862 95.215L121.834 95.2014Z" fill="black"/>
<path d="M117.091 155.267L123.685 151.461C124.649 150.908 125.421 151.147 125.421 151.994C125.35 152.523 125.156 153.027 124.854 153.468C124.553 153.908 124.153 154.272 123.685 154.529L117.098 158.335C116.134 158.889 115.355 158.65 115.355 157.802C115.43 157.275 115.625 156.771 115.926 156.331C116.227 155.892 116.626 155.527 117.091 155.267V155.267Z" fill="#F5F5F5"/>
<path d="M149.885 136.332L156.479 132.526C157.436 131.972 158.215 132.211 158.215 133.059C158.141 133.586 157.945 134.09 157.644 134.53C157.343 134.969 156.945 135.334 156.479 135.594L149.885 139.427C148.928 139.981 148.149 139.742 148.149 138.894C148.221 138.362 148.415 137.854 148.716 137.409C149.017 136.964 149.417 136.596 149.885 136.332Z" fill="#F5F5F5"/>
<path d="M174.944 121.886L181.538 118.08C182.495 117.526 183.274 117.765 183.274 118.613C183.199 119.14 183.004 119.644 182.703 120.084C182.402 120.523 182.003 120.888 181.538 121.148L174.944 124.954C173.987 125.508 173.208 125.275 173.208 124.428C173.282 123.899 173.477 123.395 173.778 122.954C174.079 122.513 174.478 122.147 174.944 121.886V121.886Z" fill="#F5F5F5"/>
<path d="M199.625 107.618L206.22 103.811C207.183 103.258 207.962 103.49 207.955 104.338C207.885 104.868 207.691 105.374 207.39 105.815C207.088 106.257 206.688 106.621 206.22 106.88L199.632 110.686C198.669 111.239 197.89 111 197.89 110.153C197.964 109.625 198.159 109.122 198.46 108.682C198.762 108.242 199.16 107.878 199.625 107.618V107.618Z" fill="#F5F5F5"/>
<path d="M245.505 70.1842C243.817 70.0612 241.474 70.0544 239.157 73.8401C236.84 77.6258 230.547 88.0399 230.547 88.0399L234.647 90.8143L241.822 80.735C241.822 80.735 242.505 72.6784 243.831 71.5509C245.157 70.4234 245.505 70.1842 245.505 70.1842Z" fill="#F28F8F"/>
<path d="M251.191 146.41L247.343 147.657L249.155 153.254L253.004 152.008L251.191 146.41Z" fill="#FFA8A7"/>
<path d="M248.381 150.819C248.405 151.278 248.289 151.733 248.046 152.124C247.434 153.142 246.712 154.091 245.894 154.953C244.739 156.19 243.01 157.686 241.794 158.732C241.111 159.333 241.076 160.242 242.06 160.556C243.892 161.006 245.826 160.737 247.466 159.805C248.696 159.121 250.445 156.101 251.463 155.636C252.639 155.11 253.301 154.844 253.698 154.27C253.998 153.961 254.185 153.56 254.228 153.132C254.271 152.704 254.169 152.274 253.937 151.912C253.383 150.88 252.57 149.295 252.208 149.473L252.311 149.794C252.044 150.634 249.755 151.611 248.579 151.379L248.381 150.819Z" fill="#263238"/>
<path d="M252.298 149.828C251.212 149.493 250.884 150.067 249.708 149.828L248.382 150.819C248.41 151.278 248.293 151.735 248.048 152.124C247.435 153.142 246.713 154.091 245.895 154.953C245.328 155.554 244.631 156.21 243.927 156.853C243.36 157.741 245.253 158.001 246.298 157.7C247.445 157.289 248.435 156.529 249.127 155.527C249.886 154.529 251.95 152.213 252.257 151.427C252.478 150.92 252.493 150.346 252.298 149.828V149.828Z" fill="#FFA8A7"/>
<path d="M265.227 93.2334C264.667 89.1333 263.409 84.3499 261.756 76.9903C261.161 74.3321 260.389 71.9335 258.489 71.1955C258.489 71.1955 253.275 73.3412 253.275 77.1953C253.275 81.0493 257.492 83.0242 257.492 83.0242L259.897 91.32L263.71 95.9462C264.262 95.7735 264.726 95.3961 265.008 94.8916C265.29 94.3871 265.369 93.7938 265.227 93.2334V93.2334Z" fill="#FFA8A7"/>
<path d="M257.082 155.541H253.152V161.26H257.082V155.541Z" fill="#FFA8A7"/>
<path d="M260.039 97.2377C261.597 103.907 260.08 112.907 259.547 118.517C259.028 123.984 258.386 130.373 258.386 130.373C258.386 130.373 260.06 136.147 259.978 140.623C259.896 145.352 257.128 156.736 257.128 156.736C256.527 157.123 255.827 157.329 255.112 157.329C254.397 157.329 253.698 157.123 253.097 156.736C253.097 156.736 252.413 147.17 251.73 141.758C251.046 136.086 250.828 131.958 250.247 128.644C249.516 124.544 248.293 107.064 248.293 107.064L246.188 124.394C247.45 126.47 248.434 128.703 249.113 131.036C249.974 134.391 251.846 147.709 251.846 147.709C250.675 148.759 249.168 149.357 247.596 149.397C247.596 149.397 239.177 129.396 238.029 127.4C236.799 125.275 236.614 102.001 238.575 96.1717L260.039 97.2377Z" fill="#455A64"/>
<path d="M252.844 70.273C252.844 70.273 257.819 70.8948 258.489 71.1955C253.275 74.8651 257.491 83.0242 257.491 83.0242L254.97 89.9738L260.033 97.2172C258.578 98.8983 249.318 104.734 239.382 98.3379C239.583 94.9635 239.973 91.603 240.551 88.2723C239.116 81.4388 238.966 79.259 239.382 77.6531C240.551 73.1362 243.223 70.2525 246.291 70.0817L252.844 70.273Z" fill="#0000F5"/>
<path opacity="0.7" d="M252.844 70.273C252.844 70.273 257.819 70.8948 258.489 71.1955C253.275 74.8651 257.491 83.0242 257.491 83.0242L254.97 89.9738L260.033 97.2172C258.578 98.8983 249.318 104.734 239.382 98.3379C239.583 94.9635 239.973 91.603 240.551 88.2723C239.116 81.4388 238.966 79.259 239.382 77.6531C240.551 73.1362 243.223 70.2525 246.291 70.0817L252.844 70.273Z" fill="white"/>
<path d="M227.643 82.498L244.59 86.9671L249.592 108L233.478 103.319L227.643 82.498Z" fill="#0000F5"/>
<path d="M235.029 96.4177C234.872 96.8482 233.949 98.0373 231.975 97.9484L231.729 97.0737L235.029 96.4177Z" fill="#0000F5"/>
<path opacity="0.2" d="M235.029 96.4177C234.872 96.8482 233.949 98.0373 231.975 97.9484L231.729 97.0737L235.029 96.4177Z" fill="black"/>
<path d="M238.821 97.0601C238.89 97.6204 240.044 98.6591 241.992 99.3083C244.213 100.053 247.609 99.6568 247.609 99.6568L247.308 98.6113L238.821 97.0601Z" fill="#0000F5"/>
<path opacity="0.2" d="M238.821 97.0601C238.89 97.6204 240.044 98.6591 241.992 99.3083C244.213 100.053 247.609 99.6568 247.609 99.6568L247.308 98.6113L238.821 97.0601Z" fill="black"/>
<path d="M232.603 85.5457L232.467 84.9034C232.385 84.5412 233.382 84.5275 234.687 84.8624L237.182 85.5116C238.487 85.8532 239.608 86.4136 239.683 86.7689L239.826 87.4181L232.603 85.5457Z" fill="#0000F5"/>
<path opacity="0.3" d="M232.603 85.5457L232.467 84.9034C232.385 84.5412 233.382 84.5275 234.687 84.8624L237.182 85.5116C238.487 85.8532 239.608 86.4136 239.683 86.7689L239.826 87.4181L232.603 85.5457Z" fill="black"/>
<path d="M231.428 83.1062C231.38 82.8875 231.783 82.826 232.33 82.9763L233.321 83.2497C233.321 83.2497 233.02 81.883 235.22 82.3408C235.805 82.4227 236.358 82.6545 236.826 83.0138C237.295 83.3731 237.662 83.8475 237.892 84.3909L238.944 84.6915C239.532 84.8555 240.058 85.1699 240.127 85.3749L240.25 85.778L231.523 83.482C231.523 83.482 231.476 83.3317 231.428 83.1062Z" fill="#455A64"/>
<path d="M232.631 83.8032C233.43 84.0014 233.765 84.1039 233.881 84.6574C233.997 85.2109 234.073 85.7439 234.073 85.7439L237.94 86.7689C237.94 86.7689 237.756 85.9694 237.694 85.6619C237.633 85.3544 237.763 85.163 238.378 85.327L238.432 85.081L232.378 83.5367L232.631 83.8032Z" fill="#455A64"/>
<path d="M232.521 85.6072C232.521 85.6072 232.46 85.3202 232.378 84.9239C232.296 84.5275 233.293 84.5549 234.599 84.9239L237.1 85.573C238.405 85.9147 239.519 86.4751 239.601 86.8304L239.737 87.4796L232.521 85.6072Z" fill="#455A64"/>
<path d="M263.71 95.9462L259.897 91.3199C259.897 91.3199 251.314 94.9212 249.961 95.0237C248.608 95.1262 247.562 93.8005 247.043 92.4816C246.524 91.1628 245.499 91.3268 245.499 91.3268C245.499 91.3268 245.902 93.001 246.025 93.5408C246.148 94.0807 243.052 94.5112 241.241 93.903C239.43 93.2948 236.854 94.1763 238.467 96.6364C240.08 99.0964 243.196 99.3697 245.369 99.3697C246.283 99.3629 247.195 99.3013 248.102 99.1852C248.785 99.0964 249.469 99.0212 250.214 98.9734C254.649 98.6317 261.687 96.5748 263.71 95.9462Z" fill="#FFA8A7"/>
<path d="M229.364 88.6481L230.116 91.3337C230.266 91.8462 232.234 92.7892 233.478 93.1309C234.721 93.4725 236.088 93.8757 235.528 95.6182C234.981 97.2241 232.931 97.5931 231.885 97.5453C230.84 97.4974 229.419 96.5066 228.851 94.8939C228.168 92.8439 228.523 90.6572 228.236 89.4271C227.949 88.1971 228.742 87.9374 229.364 88.6481Z" fill="#FFA8A7"/>
<path d="M253.152 159.326V158.759C252.666 160.618 251.697 162.316 250.343 163.679C249.099 164.814 247.412 166.119 246.981 167.376C246.551 168.633 248.976 169.207 250.582 169.05C252.136 168.854 253.568 168.105 254.614 166.939C255.632 165.77 255.612 164.971 256.09 164.328C256.568 163.686 257.662 162.962 257.921 162.217C257.998 161.525 257.921 160.825 257.696 160.167C257.511 159.483 257.313 158.711 257.081 158.8V159.231C256.522 159.676 255.828 159.917 255.113 159.914C254.539 159.88 253.145 159.764 253.152 159.326Z" fill="#263238"/>
<path d="M257.081 159.19C256.794 159.504 256.65 158.732 255.762 158.759C255.188 158.759 254.224 159.196 254.224 158.759H253.151C252.665 160.618 251.697 162.316 250.343 163.679C250.042 163.953 249.721 164.233 249.393 164.52C248.71 165.258 248.921 165.886 250.473 166.03C252.024 166.173 253.384 165.23 254.573 163.789C255.565 162.346 256.405 160.805 257.081 159.19V159.19Z" fill="#FFA8A7"/>
<path d="M249.441 66.9109H248.511C246.137 66.9109 243.86 65.9678 242.182 64.289C240.503 62.6102 239.56 60.3333 239.56 57.9592V57.0503C239.56 55.0332 240.361 53.0987 241.787 51.6723C243.214 50.246 245.148 49.4447 247.165 49.4447H250.828C252.845 49.4447 254.78 50.246 256.206 51.6723C257.632 53.0987 258.434 55.0332 258.434 57.0503V57.9113C258.434 60.297 257.486 62.585 255.8 64.2726C254.114 65.9602 251.826 66.9091 249.441 66.9109V66.9109Z" fill="#263238"/>
<path d="M242.662 53.2646C241.664 53.8523 240.434 56.3601 240.557 61.615C240.66 66.0704 242.102 67.1706 242.826 67.4918C243.55 67.813 244.951 67.6148 246.311 67.3893V70.0612C246.311 70.0612 244.432 72.2479 244.555 73.4779C244.678 74.7079 247.288 74.9949 249.024 73.7922C250.295 72.8082 251.39 71.616 252.263 70.2662L252.229 64.1161C252.229 64.1161 253.028 64.8951 254.388 63.7061C255.509 62.7289 255.885 61.0752 255.01 60.1937C254.784 59.9826 254.512 59.8283 254.215 59.7435C253.917 59.6587 253.604 59.6458 253.301 59.7059C252.998 59.7659 252.714 59.8973 252.471 60.0891C252.229 60.2808 252.036 60.5275 251.908 60.8087C250.123 60.7363 248.385 60.2195 246.851 59.3053C245.728 58.6968 244.765 57.8332 244.037 56.7839C243.309 55.7347 242.838 54.5292 242.662 53.2646V53.2646Z" fill="#FFA8A7"/>
<path d="M245.505 60.5012C245.5 60.5757 245.509 60.6506 245.533 60.7216C245.556 60.7925 245.593 60.8581 245.642 60.9147C245.691 60.9712 245.751 61.0175 245.817 61.0509C245.884 61.0843 245.957 61.1042 246.032 61.1094C246.185 61.1131 246.333 61.0563 246.444 60.9514C246.555 60.8465 246.621 60.7019 246.626 60.549C246.633 60.4004 246.58 60.2554 246.479 60.1458C246.429 60.0916 246.369 60.0476 246.302 60.0166C246.236 59.9855 246.163 59.9679 246.09 59.9648C245.941 59.9584 245.796 60.0114 245.687 60.112C245.577 60.2126 245.512 60.3526 245.505 60.5012V60.5012Z" fill="#263238"/>
<path d="M245.381 64.2596L244.083 64.6764C244.134 64.8489 244.251 64.9943 244.408 65.0813C244.565 65.1683 244.75 65.1898 244.924 65.1411C245.013 65.1156 245.096 65.0721 245.168 65.0132C245.24 64.9544 245.299 64.8815 245.342 64.799C245.385 64.7164 245.411 64.626 245.417 64.5333C245.424 64.4406 245.412 64.3474 245.381 64.2596V64.2596Z" fill="#F28F8F"/>
<path d="M240.941 58.7928L242.075 58.007C241.975 57.8572 241.82 57.753 241.643 57.7172C241.466 57.6814 241.283 57.7168 241.132 57.8157C241.053 57.8653 240.985 57.9306 240.932 58.0075C240.88 58.0844 240.843 58.1713 240.825 58.2629C240.807 58.3544 240.808 58.4487 240.828 58.5398C240.848 58.631 240.886 58.7171 240.941 58.7928V58.7928Z" fill="#263238"/>
<path d="M241.199 60.0912C241.198 60.2011 241.229 60.3089 241.289 60.4013C241.348 60.4936 241.434 60.5664 241.535 60.6105C241.635 60.6547 241.747 60.6682 241.855 60.6495C241.963 60.6308 242.064 60.5806 242.144 60.5052C242.224 60.4299 242.28 60.3326 242.305 60.2256C242.33 60.1186 242.323 60.0066 242.285 59.9035C242.247 59.8003 242.18 59.7107 242.091 59.6456C242.003 59.5806 241.897 59.543 241.787 59.5377C241.712 59.5349 241.637 59.5471 241.567 59.5736C241.496 59.6 241.432 59.6401 241.377 59.6916C241.323 59.7431 241.279 59.8049 241.248 59.8735C241.218 59.9421 241.201 60.0161 241.199 60.0912V60.0912Z" fill="#263238"/>
<path d="M243.844 59.7769L243.755 63.1457L241.979 62.5922L243.844 59.7769Z" fill="#F28F8F"/>
<path d="M246.312 67.3893C247.747 67.198 250.692 66.3506 251.15 65.189C250.967 65.7796 250.606 66.2997 250.118 66.6786C249.236 67.4303 246.312 68.2777 246.312 68.2777V67.3893Z" fill="#F28F8F"/>
<path d="M256.459 85.8669L252.537 91.1833L254.97 89.9738L256.459 85.8669Z" fill="#0000F5"/>
<path opacity="0.3" d="M256.459 85.8669L252.537 91.1833L254.97 89.9738L256.459 85.8669Z" fill="white"/>
</svg>
