<svg width="24" height="24" viewBox="0 0 24 24" fill="none" xmlns="http://www.w3.org/2000/svg">
<path d="M22 13.2C22 13.4652 21.8946 13.7195 21.7071 13.9071C21.5196 14.0946 21.2652 14.2 21 14.2H18.87C18.8206 14.2759 18.7866 14.3609 18.77 14.45L18.11 17.81C18.0274 18.2962 17.805 18.748 17.47 19.11C17.2955 19.2893 17.085 19.4299 16.8525 19.5225C16.6199 19.615 16.3705 19.6575 16.1204 19.6471C15.8703 19.6367 15.6253 19.5737 15.4012 19.4622C15.1771 19.3507 14.9791 19.1932 14.82 19C14.4793 18.6011 14.2637 18.1107 14.2 17.59L12.85 7.80996L11.67 14.08C11.592 14.5677 11.369 15.0207 11.03 15.38C10.8661 15.568 10.6652 15.7201 10.4398 15.8268C10.2143 15.9335 9.96929 15.9924 9.72 16C9.29406 15.992 8.88407 15.8365 8.56 15.56C8.25136 15.2904 8.01719 14.9461 7.88 14.56L6.88 11.56L6.21 13C6.06098 13.3319 5.83467 13.6233 5.55 13.85C5.23972 14.0956 4.85572 14.2294 4.46 14.23H3C2.73478 14.23 2.48043 14.1246 2.29289 13.9371C2.10536 13.7495 2 13.4952 2 13.23C2 12.9647 2.10536 12.7104 2.29289 12.5229C2.48043 12.3353 2.73478 12.23 3 12.23H4.35V12.17L5.1 10.54C5.24978 10.1973 5.48368 9.89806 5.78 9.66996C6.08542 9.43908 6.45715 9.31284 6.84 9.30996C7.26483 9.3045 7.67714 9.45379 8 9.72996C8.31073 9.99764 8.54529 10.3426 8.68 10.73L9.68 13.63L10.9 7.33996C10.9807 6.84126 11.2028 6.37619 11.54 5.99996C11.7105 5.81531 11.9182 5.66886 12.1493 5.57024C12.3805 5.47162 12.6299 5.42308 12.8812 5.4278C13.1325 5.43253 13.3799 5.49041 13.6072 5.59764C13.8345 5.70488 14.0366 5.85903 14.2 6.04996C14.5443 6.44655 14.7605 6.93813 14.82 7.45996L16.17 17.28L16.81 14.04C16.8934 13.5797 17.1009 13.151 17.41 12.8C17.5788 12.6102 17.7849 12.4572 18.0155 12.3505C18.246 12.2438 18.496 12.1858 18.75 12.18H21C21.133 12.1799 21.2647 12.2064 21.3874 12.2579C21.51 12.3094 21.6211 12.3849 21.7143 12.4799C21.8074 12.5749 21.8806 12.6875 21.9297 12.8111C21.9788 12.9348 22.0027 13.067 22 13.2Z" fill="#EB4E2B"/>
</svg>
