<svg width="13" height="12" viewBox="0 0 13 12" fill="none" xmlns="http://www.w3.org/2000/svg">
<path d="M2.61444 5.19333C3.65444 7.08 5.33 8.62 7.37389 9.58667L8.96278 8.12C9.15778 7.94 9.44667 7.88 9.69944 7.96C10.5083 8.20667 11.3822 8.34 12.2778 8.34C12.675 8.34 13 8.64 13 9.00667V11.3333C13 11.7 12.675 12 12.2778 12C5.49611 12 0 6.92667 0 0.666667C0 0.3 0.325 0 0.722222 0H3.25C3.64722 0 3.97222 0.3 3.97222 0.666667C3.97222 1.5 4.11667 2.3 4.38389 3.04667C4.46333 3.28 4.40556 3.54 4.20333 3.72667L2.61444 5.19333Z" fill="#939393"/>
</svg>
