<svg width="115" height="22" viewBox="0 0 115 22" fill="none" xmlns="http://www.w3.org/2000/svg">
<rect width="115" height="22" fill="#E5E5E5"/>
<g clip-path="url(#clip0_518_1225)">
<rect width="1440" height="1024" transform="translate(-398 -383)" fill="white"/>
<rect x="-157" y="-321" width="1199" height="1422" fill="#F8F5FF"/>
<g filter="url(#filter0_d_518_1225)">
<rect x="-131" y="-169" width="1118" height="224" rx="6" fill="white"/>
</g>
<path d="M0 4C0 1.79086 1.79086 0 4 0H111C113.209 0 115 1.79086 115 4V18C115 20.2091 113.209 22 111 22H4C1.79086 22 0 20.2091 0 18V4Z" fill="#D6F0CD"/>
<path d="M14.792 12.256V13H9.068V4.48H14.684V5.224H9.908V8.296H14.072V9.004H9.908V12.256H14.792ZM18.557 13.12C18.133 13.12 17.745 13.032 17.393 12.856C17.049 12.68 16.753 12.44 16.505 12.136C16.257 11.832 16.065 11.488 15.929 11.104C15.793 10.712 15.725 10.304 15.725 9.88C15.725 9.44 15.801 9.028 15.953 8.644C16.105 8.252 16.313 7.908 16.577 7.612C16.849 7.308 17.165 7.072 17.525 6.904C17.893 6.728 18.285 6.64 18.701 6.64C19.189 6.64 19.637 6.768 20.045 7.024C20.461 7.272 20.785 7.588 21.017 7.972V6.748H21.749V15.556H20.933V11.704C20.317 12.648 19.525 13.12 18.557 13.12ZM18.809 12.4C19.137 12.4 19.433 12.336 19.697 12.208C19.969 12.072 20.205 11.892 20.405 11.668C20.613 11.444 20.789 11.196 20.933 10.924V8.992C20.909 8.776 20.829 8.572 20.693 8.38C20.557 8.18 20.389 8.004 20.189 7.852C19.989 7.692 19.773 7.572 19.541 7.492C19.309 7.404 19.081 7.36 18.857 7.36C18.513 7.36 18.201 7.432 17.921 7.576C17.649 7.72 17.409 7.912 17.201 8.152C16.993 8.392 16.833 8.664 16.721 8.968C16.609 9.272 16.553 9.58 16.553 9.892C16.553 10.34 16.649 10.756 16.841 11.14C17.041 11.524 17.309 11.832 17.645 12.064C17.981 12.288 18.369 12.4 18.809 12.4ZM23.6112 10.42V6.748H24.4272V10.276C24.4272 10.988 24.5472 11.52 24.7872 11.872C25.0352 12.224 25.3992 12.4 25.8792 12.4C26.1992 12.4 26.5073 12.332 26.8033 12.196C27.1072 12.052 27.3752 11.852 27.6073 11.596C27.8392 11.332 28.0152 11.028 28.1353 10.684V6.748H28.9513V12.016C28.9513 12.128 28.9753 12.212 29.0233 12.268C29.0712 12.316 29.1432 12.344 29.2393 12.352V13C29.1432 13.008 29.0673 13.012 29.0113 13.012C28.9553 13.02 28.9032 13.024 28.8553 13.024C28.6953 13.008 28.5553 12.944 28.4353 12.832C28.3233 12.72 28.2633 12.584 28.2552 12.424L28.2312 11.584C27.9593 12.064 27.5873 12.44 27.1152 12.712C26.6513 12.984 26.1472 13.12 25.6032 13.12C24.9472 13.12 24.4512 12.892 24.1152 12.436C23.7792 11.98 23.6112 11.308 23.6112 10.42ZM30.9163 13V6.748H31.7323V13H30.9163ZM30.9163 5.44V4.24H31.7323V5.44H30.9163ZM36.6495 12.7C36.5855 12.724 36.4855 12.768 36.3495 12.832C36.2135 12.896 36.0495 12.952 35.8575 13C35.6655 13.048 35.4575 13.072 35.2335 13.072C35.0015 13.072 34.7815 13.028 34.5735 12.94C34.3735 12.852 34.2135 12.72 34.0935 12.544C33.9735 12.36 33.9135 12.136 33.9135 11.872V7.396H33.0495V6.748H33.9135V4.636H34.7295V6.748H36.1695V7.396H34.7295V11.644C34.7455 11.868 34.8255 12.036 34.9695 12.148C35.1215 12.26 35.2935 12.316 35.4855 12.316C35.7095 12.316 35.9135 12.28 36.0975 12.208C36.2815 12.128 36.3935 12.072 36.4335 12.04L36.6495 12.7ZM38.1491 14.92C38.2611 14.928 38.3691 14.932 38.4731 14.932C38.5771 14.94 38.6531 14.936 38.7011 14.92C38.7971 14.904 38.8891 14.848 38.9771 14.752C39.0651 14.656 39.1691 14.472 39.2891 14.2C39.4091 13.928 39.5771 13.528 39.7931 13L37.0691 6.748H37.9331L40.2251 12.16L42.3371 6.748H43.1531L39.9131 14.812C39.8571 14.964 39.7731 15.104 39.6611 15.232C39.5491 15.368 39.4091 15.472 39.2411 15.544C39.0811 15.624 38.8811 15.668 38.6411 15.676C38.5691 15.684 38.4931 15.684 38.4131 15.676C38.3411 15.676 38.2531 15.668 38.1491 15.652V14.92ZM54.9794 13V6.064L51.8954 11.452H51.3674L48.2714 6.064V13H47.4314V4.48H48.2954L51.6194 10.312L54.9674 4.48H55.8194V13H54.9794ZM57.3443 11.2C57.3443 10.808 57.4563 10.472 57.6803 10.192C57.9043 9.904 58.2123 9.684 58.6043 9.532C59.0043 9.372 59.4643 9.292 59.9843 9.292C60.2883 9.292 60.6043 9.316 60.9323 9.364C61.2603 9.412 61.5523 9.484 61.8083 9.58V9.052C61.8083 8.524 61.6523 8.104 61.3403 7.792C61.0283 7.48 60.5963 7.324 60.0443 7.324C59.7083 7.324 59.3763 7.388 59.0483 7.516C58.7283 7.636 58.3923 7.816 58.0403 8.056L57.7283 7.48C58.1363 7.2 58.5363 6.992 58.9283 6.856C59.3203 6.712 59.7203 6.64 60.1283 6.64C60.8963 6.64 61.5043 6.86 61.9523 7.3C62.4003 7.74 62.6243 8.348 62.6243 9.124V12.016C62.6243 12.128 62.6483 12.212 62.6963 12.268C62.7443 12.316 62.8203 12.344 62.9243 12.352V13C62.8363 13.008 62.7603 13.016 62.6963 13.024C62.6323 13.032 62.5843 13.032 62.5523 13.024C62.3523 13.016 62.2003 12.952 62.0963 12.832C61.9923 12.712 61.9363 12.584 61.9283 12.448L61.9163 11.992C61.6363 12.352 61.2723 12.632 60.8243 12.832C60.3763 13.024 59.9203 13.12 59.4563 13.12C59.0563 13.12 58.6923 13.036 58.3643 12.868C58.0443 12.692 57.7923 12.46 57.6083 12.172C57.4323 11.876 57.3443 11.552 57.3443 11.2ZM61.5323 11.68C61.6203 11.568 61.6883 11.46 61.7363 11.356C61.7843 11.252 61.8083 11.16 61.8083 11.08V10.168C61.5363 10.064 61.2523 9.984 60.9563 9.928C60.6683 9.872 60.3763 9.844 60.0803 9.844C59.4963 9.844 59.0243 9.96 58.6643 10.192C58.3043 10.424 58.1243 10.74 58.1243 11.14C58.1243 11.372 58.1843 11.592 58.3043 11.8C58.4243 12 58.6003 12.168 58.8323 12.304C59.0643 12.432 59.3363 12.496 59.6483 12.496C60.0403 12.496 60.4043 12.42 60.7403 12.268C61.0843 12.116 61.3483 11.92 61.5323 11.68ZM67.6273 7.468C67.0833 7.484 66.6033 7.636 66.1873 7.924C65.7793 8.212 65.4913 8.608 65.3233 9.112V13H64.5073V6.748H65.2753V8.248C65.4913 7.808 65.7753 7.452 66.1273 7.18C66.4873 6.908 66.8673 6.756 67.2673 6.724C67.3473 6.716 67.4153 6.712 67.4713 6.712C67.5353 6.712 67.5873 6.716 67.6273 6.724V7.468ZM73.2984 13L70.9824 9.796L69.6504 11.044V13H68.8344V4.24H69.6504V10.168L73.1904 6.76H74.0904L71.5344 9.316L74.1864 13H73.2984ZM77.6895 13.12C77.2415 13.12 76.8255 13.036 76.4415 12.868C76.0575 12.692 75.7255 12.456 75.4455 12.16C75.1655 11.856 74.9455 11.508 74.7855 11.116C74.6335 10.724 74.5575 10.304 74.5575 9.856C74.5575 9.272 74.6895 8.736 74.9535 8.248C75.2255 7.76 75.5975 7.372 76.0695 7.084C76.5415 6.788 77.0775 6.64 77.6775 6.64C78.2935 6.64 78.8295 6.788 79.2855 7.084C79.7495 7.38 80.1135 7.772 80.3775 8.26C80.6415 8.74 80.7735 9.268 80.7735 9.844C80.7735 9.908 80.7735 9.972 80.7735 10.036C80.7735 10.092 80.7695 10.136 80.7615 10.168H75.4095C75.4495 10.616 75.5735 11.016 75.7815 11.368C75.9975 11.712 76.2735 11.988 76.6095 12.196C76.9535 12.396 77.3255 12.496 77.7255 12.496C78.1335 12.496 78.5175 12.392 78.8775 12.184C79.2455 11.976 79.5015 11.704 79.6455 11.368L80.3535 11.56C80.2255 11.856 80.0295 12.124 79.7655 12.364C79.5015 12.604 79.1895 12.792 78.8295 12.928C78.4775 13.056 78.0975 13.12 77.6895 13.12ZM75.3855 9.58H80.0055C79.9735 9.124 79.8495 8.724 79.6335 8.38C79.4255 8.036 79.1495 7.768 78.8055 7.576C78.4695 7.376 78.0975 7.276 77.6895 7.276C77.2815 7.276 76.9095 7.376 76.5735 7.576C76.2375 7.768 75.9615 8.04 75.7455 8.392C75.5375 8.736 75.4175 9.132 75.3855 9.58ZM85.0939 12.7C85.0299 12.724 84.9299 12.768 84.7939 12.832C84.6579 12.896 84.4939 12.952 84.3019 13C84.1099 13.048 83.9019 13.072 83.6779 13.072C83.4459 13.072 83.2259 13.028 83.0179 12.94C82.8179 12.852 82.6579 12.72 82.5379 12.544C82.4179 12.36 82.3579 12.136 82.3579 11.872V7.396H81.4939V6.748H82.3579V4.636H83.1739V6.748H84.6139V7.396H83.1739V11.644C83.1899 11.868 83.2699 12.036 83.4139 12.148C83.5659 12.26 83.7379 12.316 83.9299 12.316C84.1539 12.316 84.3579 12.28 84.5419 12.208C84.7259 12.128 84.8379 12.072 84.8779 12.04L85.0939 12.7ZM88.2854 13.12C87.7734 13.12 87.2974 13.036 86.8574 12.868C86.4174 12.7 86.0374 12.444 85.7174 12.1L86.0534 11.524C86.4054 11.852 86.7574 12.092 87.1094 12.244C87.4694 12.388 87.8494 12.46 88.2494 12.46C88.7374 12.46 89.1334 12.364 89.4374 12.172C89.7414 11.972 89.8934 11.688 89.8934 11.32C89.8934 11.072 89.8174 10.884 89.6654 10.756C89.5214 10.62 89.3094 10.512 89.0294 10.432C88.7574 10.344 88.4294 10.252 88.0454 10.156C87.6134 10.036 87.2494 9.912 86.9534 9.784C86.6654 9.648 86.4454 9.48 86.2934 9.28C86.1494 9.072 86.0774 8.804 86.0774 8.476C86.0774 8.068 86.1774 7.732 86.3774 7.468C86.5854 7.196 86.8654 6.992 87.2174 6.856C87.5774 6.712 87.9774 6.64 88.4174 6.64C88.8974 6.64 89.3214 6.716 89.6894 6.868C90.0574 7.02 90.3574 7.232 90.5894 7.504L90.1934 8.056C89.9694 7.8 89.7014 7.612 89.3894 7.492C89.0854 7.364 88.7454 7.3 88.3694 7.3C88.1134 7.3 87.8694 7.336 87.6374 7.408C87.4054 7.472 87.2134 7.584 87.0614 7.744C86.9174 7.896 86.8454 8.108 86.8454 8.38C86.8454 8.604 86.9014 8.78 87.0134 8.908C87.1254 9.028 87.2934 9.132 87.5174 9.22C87.7414 9.3 88.0174 9.388 88.3454 9.484C88.8174 9.612 89.2294 9.744 89.5814 9.88C89.9334 10.008 90.2054 10.176 90.3974 10.384C90.5894 10.592 90.6854 10.884 90.6854 11.26C90.6854 11.844 90.4654 12.3 90.0254 12.628C89.5854 12.956 89.0054 13.12 88.2854 13.12Z" fill="#2E8B02"/>
<path d="M106.8 6L108.403 7.603L104.987 11.019L102.187 8.219L97 13.413L97.987 14.4L102.187 10.2L104.987 13L109.397 8.597L111 10.2V6H106.8Z" fill="#2E8B02"/>
</g>
<defs>
<filter id="filter0_d_518_1225" x="-141" y="-179" width="1138" height="244" filterUnits="userSpaceOnUse" color-interpolation-filters="sRGB">
<feFlood flood-opacity="0" result="BackgroundImageFix"/>
<feColorMatrix in="SourceAlpha" type="matrix" values="0 0 0 0 0 0 0 0 0 0 0 0 0 0 0 0 0 0 127 0" result="hardAlpha"/>
<feOffset/>
<feGaussianBlur stdDeviation="5"/>
<feComposite in2="hardAlpha" operator="out"/>
<feColorMatrix type="matrix" values="0 0 0 0 0 0 0 0 0 0 0 0 0 0 0 0 0 0 0.06 0"/>
<feBlend mode="normal" in2="BackgroundImageFix" result="effect1_dropShadow_518_1225"/>
<feBlend mode="normal" in="SourceGraphic" in2="effect1_dropShadow_518_1225" result="shape"/>
</filter>
<clipPath id="clip0_518_1225">
<rect width="1440" height="1024" fill="white" transform="translate(-398 -383)"/>
</clipPath>
</defs>
</svg>
