<svg width="109" height="22" viewBox="0 0 109 22" fill="none" xmlns="http://www.w3.org/2000/svg">
<rect width="109" height="22" fill="#E5E5E5"/>
<g clip-path="url(#clip0_518_1225)">
<rect width="1440" height="1024" transform="translate(-522 -383)" fill="white"/>
<rect x="-281" y="-321" width="1199" height="1422" fill="#F8F5FF"/>
<g filter="url(#filter0_d_518_1225)">
<rect x="-255" y="-169" width="1118" height="224" rx="6" fill="white"/>
</g>
<path d="M0 4C0 1.79086 1.79086 0 4 0H105C107.209 0 109 1.79086 109 4V18C109 20.2091 107.209 22 105 22H4C1.79086 22 0 20.2091 0 18V4Z" fill="#F9F3C0"/>
<path d="M9.068 14V5.48H11.96C12.864 5.48 13.616 5.672 14.216 6.056C14.824 6.432 15.28 6.944 15.584 7.592C15.888 8.232 16.04 8.944 16.04 9.728C16.04 10.592 15.872 11.344 15.536 11.984C15.208 12.624 14.736 13.12 14.12 13.472C13.512 13.824 12.792 14 11.96 14H9.068ZM15.2 9.728C15.2 9.048 15.072 8.444 14.816 7.916C14.568 7.388 14.204 6.976 13.724 6.68C13.244 6.376 12.656 6.224 11.96 6.224H9.908V13.256H11.96C12.664 13.256 13.256 13.1 13.736 12.788C14.216 12.476 14.58 12.056 14.828 11.528C15.076 10.992 15.2 10.392 15.2 9.728ZM20.2981 14.12C19.8501 14.12 19.4341 14.036 19.0501 13.868C18.6661 13.692 18.3341 13.456 18.0541 13.16C17.7741 12.856 17.5541 12.508 17.3941 12.116C17.2421 11.724 17.1661 11.304 17.1661 10.856C17.1661 10.272 17.2981 9.736 17.5621 9.248C17.8341 8.76 18.2061 8.372 18.6781 8.084C19.1501 7.788 19.6861 7.64 20.2861 7.64C20.9021 7.64 21.4381 7.788 21.8941 8.084C22.3581 8.38 22.7221 8.772 22.9861 9.26C23.2501 9.74 23.3821 10.268 23.3821 10.844C23.3821 10.908 23.3821 10.972 23.3821 11.036C23.3821 11.092 23.3781 11.136 23.3701 11.168H18.0181C18.0581 11.616 18.1821 12.016 18.3901 12.368C18.6061 12.712 18.8821 12.988 19.2181 13.196C19.5621 13.396 19.9341 13.496 20.3341 13.496C20.7421 13.496 21.1261 13.392 21.4861 13.184C21.8541 12.976 22.1101 12.704 22.2541 12.368L22.9621 12.56C22.8341 12.856 22.6381 13.124 22.3741 13.364C22.1101 13.604 21.7981 13.792 21.4381 13.928C21.0861 14.056 20.7061 14.12 20.2981 14.12ZM17.9941 10.58H22.6141C22.5821 10.124 22.4581 9.724 22.2421 9.38C22.0341 9.036 21.7581 8.768 21.4141 8.576C21.0781 8.376 20.7061 8.276 20.2981 8.276C19.8901 8.276 19.5181 8.376 19.1821 8.576C18.8461 8.768 18.5701 9.04 18.3541 9.392C18.1461 9.736 18.0261 10.132 17.9941 10.58ZM27.8211 14.12C27.3331 14.12 26.8811 13.996 26.4651 13.748C26.0491 13.492 25.7251 13.172 25.4931 12.788V14H24.7611V5.24H25.5771V9.056C25.8571 8.632 26.1931 8.292 26.5851 8.036C26.9771 7.772 27.4331 7.64 27.9531 7.64C28.3931 7.64 28.7851 7.732 29.1291 7.916C29.4811 8.1 29.7811 8.348 30.0291 8.66C30.2771 8.964 30.4651 9.312 30.5931 9.704C30.7211 10.088 30.7851 10.484 30.7851 10.892C30.7851 11.332 30.7091 11.744 30.5571 12.128C30.4131 12.512 30.2051 12.856 29.9331 13.16C29.6611 13.456 29.3451 13.692 28.9851 13.868C28.6331 14.036 28.2451 14.12 27.8211 14.12ZM27.6291 13.4C27.9651 13.4 28.2771 13.332 28.5651 13.196C28.8531 13.06 29.1011 12.872 29.3091 12.632C29.5171 12.392 29.6771 12.124 29.7891 11.828C29.9011 11.524 29.9571 11.212 29.9571 10.892C29.9571 10.452 29.8611 10.04 29.6691 9.656C29.4851 9.264 29.2251 8.952 28.8891 8.72C28.5611 8.48 28.1731 8.36 27.7251 8.36C27.4051 8.36 27.1051 8.432 26.8251 8.576C26.5531 8.72 26.3091 8.912 26.0931 9.152C25.8851 9.384 25.7131 9.64 25.5771 9.92V11.864C25.6091 12.08 25.6931 12.284 25.8291 12.476C25.9651 12.66 26.1331 12.82 26.3331 12.956C26.5411 13.092 26.7571 13.2 26.9811 13.28C27.2051 13.36 27.4211 13.4 27.6291 13.4ZM35.1936 13.7C35.1296 13.724 35.0296 13.768 34.8936 13.832C34.7576 13.896 34.5936 13.952 34.4016 14C34.2096 14.048 34.0016 14.072 33.7776 14.072C33.5456 14.072 33.3256 14.028 33.1176 13.94C32.9176 13.852 32.7576 13.72 32.6376 13.544C32.5176 13.36 32.4576 13.136 32.4576 12.872V8.396H31.5936V7.748H32.4576V5.636H33.2736V7.748H34.7136V8.396H33.2736V12.644C33.2896 12.868 33.3696 13.036 33.5136 13.148C33.6656 13.26 33.8376 13.316 34.0296 13.316C34.2536 13.316 34.4576 13.28 34.6416 13.208C34.8256 13.128 34.9376 13.072 34.9776 13.04L35.1936 13.7ZM47.2277 14V7.064L44.1437 12.452H43.6157L40.5197 7.064V14H39.6797V5.48H40.5437L43.8677 11.312L47.2157 5.48H48.0677V14H47.2277ZM49.5926 12.2C49.5926 11.808 49.7046 11.472 49.9286 11.192C50.1526 10.904 50.4606 10.684 50.8526 10.532C51.2526 10.372 51.7126 10.292 52.2326 10.292C52.5366 10.292 52.8526 10.316 53.1806 10.364C53.5086 10.412 53.8006 10.484 54.0566 10.58V10.052C54.0566 9.524 53.9006 9.104 53.5886 8.792C53.2766 8.48 52.8446 8.324 52.2926 8.324C51.9566 8.324 51.6246 8.388 51.2966 8.516C50.9766 8.636 50.6406 8.816 50.2886 9.056L49.9766 8.48C50.3846 8.2 50.7846 7.992 51.1766 7.856C51.5686 7.712 51.9686 7.64 52.3766 7.64C53.1446 7.64 53.7526 7.86 54.2006 8.3C54.6486 8.74 54.8726 9.348 54.8726 10.124V13.016C54.8726 13.128 54.8966 13.212 54.9446 13.268C54.9926 13.316 55.0686 13.344 55.1726 13.352V14C55.0846 14.008 55.0086 14.016 54.9446 14.024C54.8806 14.032 54.8326 14.032 54.8006 14.024C54.6006 14.016 54.4486 13.952 54.3446 13.832C54.2406 13.712 54.1846 13.584 54.1766 13.448L54.1646 12.992C53.8846 13.352 53.5206 13.632 53.0726 13.832C52.6246 14.024 52.1686 14.12 51.7046 14.12C51.3046 14.12 50.9406 14.036 50.6126 13.868C50.2926 13.692 50.0406 13.46 49.8566 13.172C49.6806 12.876 49.5926 12.552 49.5926 12.2ZM53.7806 12.68C53.8686 12.568 53.9366 12.46 53.9846 12.356C54.0326 12.252 54.0566 12.16 54.0566 12.08V11.168C53.7846 11.064 53.5006 10.984 53.2046 10.928C52.9166 10.872 52.6246 10.844 52.3286 10.844C51.7446 10.844 51.2726 10.96 50.9126 11.192C50.5526 11.424 50.3726 11.74 50.3726 12.14C50.3726 12.372 50.4326 12.592 50.5526 12.8C50.6726 13 50.8486 13.168 51.0806 13.304C51.3126 13.432 51.5846 13.496 51.8966 13.496C52.2886 13.496 52.6526 13.42 52.9886 13.268C53.3326 13.116 53.5966 12.92 53.7806 12.68ZM59.8756 8.468C59.3316 8.484 58.8516 8.636 58.4356 8.924C58.0276 9.212 57.7396 9.608 57.5716 10.112V14H56.7556V7.748H57.5236V9.248C57.7396 8.808 58.0236 8.452 58.3756 8.18C58.7356 7.908 59.1156 7.756 59.5156 7.724C59.5956 7.716 59.6636 7.712 59.7196 7.712C59.7836 7.712 59.8356 7.716 59.8756 7.724V8.468ZM65.5467 14L63.2307 10.796L61.8987 12.044V14H61.0827V5.24H61.8987V11.168L65.4387 7.76H66.3387L63.7827 10.316L66.4347 14H65.5467ZM69.9378 14.12C69.4898 14.12 69.0738 14.036 68.6898 13.868C68.3058 13.692 67.9738 13.456 67.6938 13.16C67.4138 12.856 67.1938 12.508 67.0338 12.116C66.8818 11.724 66.8058 11.304 66.8058 10.856C66.8058 10.272 66.9378 9.736 67.2018 9.248C67.4738 8.76 67.8458 8.372 68.3178 8.084C68.7898 7.788 69.3258 7.64 69.9258 7.64C70.5418 7.64 71.0778 7.788 71.5338 8.084C71.9978 8.38 72.3618 8.772 72.6258 9.26C72.8898 9.74 73.0218 10.268 73.0218 10.844C73.0218 10.908 73.0218 10.972 73.0218 11.036C73.0218 11.092 73.0178 11.136 73.0098 11.168H67.6578C67.6978 11.616 67.8218 12.016 68.0298 12.368C68.2458 12.712 68.5218 12.988 68.8578 13.196C69.2018 13.396 69.5738 13.496 69.9738 13.496C70.3818 13.496 70.7658 13.392 71.1258 13.184C71.4938 12.976 71.7498 12.704 71.8938 12.368L72.6018 12.56C72.4738 12.856 72.2778 13.124 72.0138 13.364C71.7498 13.604 71.4378 13.792 71.0778 13.928C70.7258 14.056 70.3458 14.12 69.9378 14.12ZM67.6338 10.58H72.2538C72.2218 10.124 72.0978 9.724 71.8818 9.38C71.6738 9.036 71.3978 8.768 71.0538 8.576C70.7178 8.376 70.3458 8.276 69.9378 8.276C69.5298 8.276 69.1578 8.376 68.8218 8.576C68.4858 8.768 68.2098 9.04 67.9938 9.392C67.7858 9.736 67.6658 10.132 67.6338 10.58ZM77.3422 13.7C77.2782 13.724 77.1782 13.768 77.0422 13.832C76.9062 13.896 76.7422 13.952 76.5502 14C76.3582 14.048 76.1502 14.072 75.9262 14.072C75.6942 14.072 75.4742 14.028 75.2662 13.94C75.0662 13.852 74.9062 13.72 74.7862 13.544C74.6662 13.36 74.6062 13.136 74.6062 12.872V8.396H73.7422V7.748H74.6062V5.636H75.4222V7.748H76.8622V8.396H75.4222V12.644C75.4382 12.868 75.5182 13.036 75.6622 13.148C75.8142 13.26 75.9862 13.316 76.1782 13.316C76.4022 13.316 76.6062 13.28 76.7902 13.208C76.9742 13.128 77.0862 13.072 77.1262 13.04L77.3422 13.7ZM80.5337 14.12C80.0217 14.12 79.5457 14.036 79.1057 13.868C78.6657 13.7 78.2857 13.444 77.9657 13.1L78.3017 12.524C78.6537 12.852 79.0057 13.092 79.3577 13.244C79.7177 13.388 80.0977 13.46 80.4977 13.46C80.9857 13.46 81.3817 13.364 81.6857 13.172C81.9897 12.972 82.1417 12.688 82.1417 12.32C82.1417 12.072 82.0657 11.884 81.9137 11.756C81.7697 11.62 81.5577 11.512 81.2777 11.432C81.0057 11.344 80.6777 11.252 80.2937 11.156C79.8617 11.036 79.4977 10.912 79.2017 10.784C78.9137 10.648 78.6937 10.48 78.5417 10.28C78.3977 10.072 78.3257 9.804 78.3257 9.476C78.3257 9.068 78.4257 8.732 78.6257 8.468C78.8337 8.196 79.1137 7.992 79.4657 7.856C79.8257 7.712 80.2257 7.64 80.6657 7.64C81.1457 7.64 81.5697 7.716 81.9377 7.868C82.3057 8.02 82.6057 8.232 82.8377 8.504L82.4417 9.056C82.2177 8.8 81.9497 8.612 81.6377 8.492C81.3337 8.364 80.9937 8.3 80.6177 8.3C80.3617 8.3 80.1177 8.336 79.8857 8.408C79.6537 8.472 79.4617 8.584 79.3097 8.744C79.1657 8.896 79.0937 9.108 79.0937 9.38C79.0937 9.604 79.1497 9.78 79.2617 9.908C79.3737 10.028 79.5417 10.132 79.7657 10.22C79.9897 10.3 80.2657 10.388 80.5937 10.484C81.0657 10.612 81.4777 10.744 81.8297 10.88C82.1817 11.008 82.4537 11.176 82.6457 11.384C82.8377 11.592 82.9337 11.884 82.9337 12.26C82.9337 12.844 82.7137 13.3 82.2737 13.628C81.8337 13.956 81.2537 14.12 80.5337 14.12Z" fill="#AB9B07"/>
<path d="M102.417 12.375H89.5833V10.625H102.417V12.375Z" fill="#AB9B07"/>
</g>
<defs>
<filter id="filter0_d_518_1225" x="-265" y="-179" width="1138" height="244" filterUnits="userSpaceOnUse" color-interpolation-filters="sRGB">
<feFlood flood-opacity="0" result="BackgroundImageFix"/>
<feColorMatrix in="SourceAlpha" type="matrix" values="0 0 0 0 0 0 0 0 0 0 0 0 0 0 0 0 0 0 127 0" result="hardAlpha"/>
<feOffset/>
<feGaussianBlur stdDeviation="5"/>
<feComposite in2="hardAlpha" operator="out"/>
<feColorMatrix type="matrix" values="0 0 0 0 0 0 0 0 0 0 0 0 0 0 0 0 0 0 0.06 0"/>
<feBlend mode="normal" in2="BackgroundImageFix" result="effect1_dropShadow_518_1225"/>
<feBlend mode="normal" in="SourceGraphic" in2="effect1_dropShadow_518_1225" result="shape"/>
</filter>
<clipPath id="clip0_518_1225">
<rect width="1440" height="1024" fill="white" transform="translate(-522 -383)"/>
</clipPath>
</defs>
</svg>
