<svg width="86" height="22" viewBox="0 0 86 22" fill="none" xmlns="http://www.w3.org/2000/svg">
<rect width="86" height="22" fill="#E5E5E5"/>
<g clip-path="url(#clip0_518_1225)">
<rect width="1440" height="1024" transform="translate(-307 -383)" fill="white"/>
<rect x="-66" y="-321" width="1199" height="1422" fill="#F8F5FF"/>
<g filter="url(#filter0_d_518_1225)">
<rect x="-40" y="-169" width="1118" height="224" rx="6" fill="white"/>
</g>
<path d="M0 4C0 1.79086 1.79086 0 4 0H82C84.2091 0 86 1.79086 86 4V18C86 20.2091 84.2091 22 82 22H4C1.79086 22 0 20.2091 0 18V4Z" fill="#F0D8CD"/>
<path d="M14.792 13.256V14H9.068V5.48H14.684V6.224H9.908V9.296H14.072V10.004H9.908V13.256H14.792ZM18.857 14.12C18.401 14.12 17.981 14.036 17.597 13.868C17.221 13.692 16.889 13.452 16.601 13.148C16.321 12.844 16.101 12.496 15.941 12.104C15.789 11.712 15.713 11.296 15.713 10.856C15.713 10.264 15.845 9.724 16.109 9.236C16.373 8.748 16.741 8.36 17.213 8.072C17.685 7.784 18.229 7.64 18.845 7.64C19.429 7.64 19.945 7.776 20.393 8.048C20.841 8.312 21.173 8.672 21.389 9.128L20.597 9.38C20.421 9.06 20.173 8.812 19.853 8.636C19.541 8.452 19.193 8.36 18.809 8.36C18.393 8.36 18.013 8.468 17.669 8.684C17.325 8.9 17.049 9.196 16.841 9.572C16.641 9.948 16.541 10.376 16.541 10.856C16.541 11.328 16.645 11.756 16.853 12.14C17.061 12.524 17.337 12.832 17.681 13.064C18.025 13.288 18.405 13.4 18.821 13.4C19.093 13.4 19.353 13.352 19.601 13.256C19.857 13.16 20.077 13.032 20.261 12.872C20.453 12.704 20.581 12.524 20.645 12.332L21.449 12.572C21.337 12.868 21.149 13.136 20.885 13.376C20.629 13.608 20.325 13.792 19.973 13.928C19.629 14.056 19.257 14.12 18.857 14.12ZM25.4563 14.12C25.0083 14.12 24.5923 14.036 24.2083 13.868C23.8323 13.692 23.5043 13.456 23.2243 13.16C22.9523 12.856 22.7403 12.512 22.5883 12.128C22.4363 11.736 22.3603 11.324 22.3603 10.892C22.3603 10.444 22.4363 10.028 22.5883 9.644C22.7403 9.252 22.9563 8.908 23.2363 8.612C23.5163 8.308 23.8443 8.072 24.2203 7.904C24.6043 7.728 25.0203 7.64 25.4683 7.64C25.9163 7.64 26.3283 7.728 26.7043 7.904C27.0803 8.072 27.4083 8.308 27.6883 8.612C27.9683 8.908 28.1843 9.252 28.3363 9.644C28.4883 10.028 28.5643 10.444 28.5643 10.892C28.5643 11.324 28.4883 11.736 28.3363 12.128C28.1843 12.512 27.9683 12.856 27.6883 13.16C27.4163 13.456 27.0883 13.692 26.7043 13.868C26.3283 14.036 25.9123 14.12 25.4563 14.12ZM23.1883 10.904C23.1883 11.368 23.2883 11.792 23.4883 12.176C23.6963 12.552 23.9723 12.852 24.3163 13.076C24.6603 13.292 25.0403 13.4 25.4563 13.4C25.8723 13.4 26.2523 13.288 26.5963 13.064C26.9403 12.84 27.2163 12.536 27.4243 12.152C27.6323 11.76 27.7363 11.336 27.7363 10.88C27.7363 10.416 27.6323 9.992 27.4243 9.608C27.2163 9.224 26.9403 8.92 26.5963 8.696C26.2523 8.472 25.8723 8.36 25.4563 8.36C25.0403 8.36 24.6603 8.476 24.3163 8.708C23.9803 8.94 23.7083 9.248 23.5003 9.632C23.2923 10.008 23.1883 10.432 23.1883 10.904ZM35.3051 14H34.4891V10.508C34.4891 9.772 34.3811 9.236 34.1651 8.9C33.9491 8.556 33.6091 8.384 33.1451 8.384C32.8251 8.384 32.5091 8.464 32.1971 8.624C31.8851 8.776 31.6091 8.988 31.3691 9.26C31.1371 9.524 30.9691 9.828 30.8651 10.172V14H30.0491V7.748H30.7931V9.164C30.9611 8.86 31.1811 8.596 31.4531 8.372C31.7251 8.14 32.0331 7.96 32.3771 7.832C32.7211 7.704 33.0771 7.64 33.4451 7.64C33.7891 7.64 34.0811 7.704 34.3211 7.832C34.5611 7.96 34.7531 8.144 34.8971 8.384C35.0411 8.616 35.1451 8.9 35.2091 9.236C35.2731 9.564 35.3051 9.932 35.3051 10.34V14ZM39.8292 14.12C39.3812 14.12 38.9652 14.036 38.5812 13.868C38.2052 13.692 37.8772 13.456 37.5972 13.16C37.3252 12.856 37.1132 12.512 36.9612 12.128C36.8092 11.736 36.7332 11.324 36.7332 10.892C36.7332 10.444 36.8092 10.028 36.9612 9.644C37.1132 9.252 37.3292 8.908 37.6092 8.612C37.8892 8.308 38.2172 8.072 38.5932 7.904C38.9772 7.728 39.3932 7.64 39.8412 7.64C40.2892 7.64 40.7012 7.728 41.0772 7.904C41.4532 8.072 41.7812 8.308 42.0612 8.612C42.3412 8.908 42.5572 9.252 42.7092 9.644C42.8612 10.028 42.9372 10.444 42.9372 10.892C42.9372 11.324 42.8612 11.736 42.7092 12.128C42.5572 12.512 42.3412 12.856 42.0612 13.16C41.7892 13.456 41.4612 13.692 41.0772 13.868C40.7012 14.036 40.2852 14.12 39.8292 14.12ZM37.5612 10.904C37.5612 11.368 37.6612 11.792 37.8612 12.176C38.0692 12.552 38.3452 12.852 38.6892 13.076C39.0332 13.292 39.4132 13.4 39.8292 13.4C40.2452 13.4 40.6252 13.288 40.9692 13.064C41.3132 12.84 41.5892 12.536 41.7972 12.152C42.0052 11.76 42.1092 11.336 42.1092 10.88C42.1092 10.416 42.0052 9.992 41.7972 9.608C41.5892 9.224 41.3132 8.92 40.9692 8.696C40.6252 8.472 40.2452 8.36 39.8292 8.36C39.4132 8.36 39.0332 8.476 38.6892 8.708C38.3532 8.94 38.0812 9.248 37.8732 9.632C37.6652 10.008 37.5612 10.432 37.5612 10.904ZM53.7219 14H52.9059V10.508C52.9059 9.78 52.7899 9.244 52.5579 8.9C52.3259 8.556 51.9819 8.384 51.5259 8.384C51.0539 8.384 50.6299 8.552 50.2539 8.888C49.8859 9.224 49.6259 9.656 49.4739 10.184V14H48.6579V10.508C48.6579 9.772 48.5459 9.236 48.3219 8.9C48.0979 8.556 47.7539 8.384 47.2899 8.384C46.8259 8.384 46.4059 8.548 46.0299 8.876C45.6539 9.204 45.3899 9.636 45.2379 10.172V14H44.4219V7.748H45.1659V9.164C45.4299 8.676 45.7659 8.3 46.1739 8.036C46.5899 7.772 47.0499 7.64 47.5539 7.64C48.0739 7.64 48.4939 7.788 48.8139 8.084C49.1339 8.38 49.3299 8.768 49.4019 9.248C49.6899 8.72 50.0339 8.32 50.4339 8.048C50.8419 7.776 51.3019 7.64 51.8139 7.64C52.1659 7.64 52.4619 7.704 52.7019 7.832C52.9499 7.96 53.1459 8.144 53.2899 8.384C53.4419 8.616 53.5499 8.9 53.6139 9.236C53.6859 9.564 53.7219 9.932 53.7219 10.34V14ZM55.8003 15.92C55.9123 15.928 56.0203 15.932 56.1243 15.932C56.2283 15.94 56.3043 15.936 56.3523 15.92C56.4483 15.904 56.5403 15.848 56.6283 15.752C56.7163 15.656 56.8203 15.472 56.9403 15.2C57.0603 14.928 57.2283 14.528 57.4443 14L54.7203 7.748H55.5843L57.8763 13.16L59.9883 7.748H60.8043L57.5643 15.812C57.5083 15.964 57.4243 16.104 57.3123 16.232C57.2003 16.368 57.0603 16.472 56.8923 16.544C56.7323 16.624 56.5323 16.668 56.2923 16.676C56.2203 16.684 56.1443 16.684 56.0643 16.676C55.9923 16.676 55.9043 16.668 55.8003 16.652V15.92Z" fill="#C50202"/>
<path d="M75.8 14.4L77.403 12.797L73.987 9.381L71.187 12.181L66 6.987L66.987 6L71.187 10.2L73.987 7.4L78.397 11.803L80 10.2V14.4H75.8Z" fill="#C50202"/>
</g>
<defs>
<filter id="filter0_d_518_1225" x="-50" y="-179" width="1138" height="244" filterUnits="userSpaceOnUse" color-interpolation-filters="sRGB">
<feFlood flood-opacity="0" result="BackgroundImageFix"/>
<feColorMatrix in="SourceAlpha" type="matrix" values="0 0 0 0 0 0 0 0 0 0 0 0 0 0 0 0 0 0 127 0" result="hardAlpha"/>
<feOffset/>
<feGaussianBlur stdDeviation="5"/>
<feComposite in2="hardAlpha" operator="out"/>
<feColorMatrix type="matrix" values="0 0 0 0 0 0 0 0 0 0 0 0 0 0 0 0 0 0 0.06 0"/>
<feBlend mode="normal" in2="BackgroundImageFix" result="effect1_dropShadow_518_1225"/>
<feBlend mode="normal" in="SourceGraphic" in2="effect1_dropShadow_518_1225" result="shape"/>
</filter>
<clipPath id="clip0_518_1225">
<rect width="1440" height="1024" fill="white" transform="translate(-307 -383)"/>
</clipPath>
</defs>
</svg>
