<svg width="20" height="15" viewBox="0 0 20 15" fill="none" xmlns="http://www.w3.org/2000/svg">
<path d="M20 8.19999C20 8.46521 19.8946 8.71956 19.7071 8.9071C19.5196 9.09463 19.2652 9.19999 19 9.19999H16.87C16.8206 9.27595 16.7866 9.3609 16.77 9.44999L16.11 12.81C16.0274 13.2963 15.805 13.748 15.47 14.11C15.2955 14.2894 15.085 14.4299 14.8525 14.5225C14.6199 14.6151 14.3705 14.6575 14.1204 14.6472C13.8703 14.6368 13.6253 14.5738 13.4012 14.4623C13.1771 14.3507 12.9791 14.1932 12.82 14C12.4793 13.6011 12.2637 13.1107 12.2 12.59L10.85 2.80999L9.67 9.07999C9.59202 9.56775 9.36901 10.0207 9.03 10.38C8.86614 10.568 8.66519 10.7201 8.43976 10.8268C8.21434 10.9335 7.96929 10.9925 7.72 11C7.29406 10.992 6.88407 10.8365 6.56 10.56C6.25136 10.2905 6.01719 9.9461 5.88 9.55999L4.88 6.55999L4.21 7.99999C4.06098 8.33193 3.83467 8.62338 3.55 8.84999C3.23972 9.09559 2.85572 9.22946 2.46 9.22999H1C0.734784 9.22999 0.48043 9.12463 0.292893 8.9371C0.105357 8.74956 0 8.4952 0 8.22999C0 7.96477 0.105357 7.71042 0.292893 7.52288C0.48043 7.33535 0.734784 7.22999 1 7.22999H2.35V7.16999L3.1 5.53999C3.24978 5.19735 3.48368 4.89809 3.78 4.66999C4.08542 4.43911 4.45715 4.31287 4.84 4.30999C5.26483 4.30454 5.67714 4.45382 6 4.72999C6.31073 4.99767 6.54529 5.34262 6.68 5.72999L7.68 8.62999L8.9 2.33999C8.98073 1.84129 9.20285 1.37622 9.54 0.999989C9.7105 0.815338 9.91816 0.668886 10.1493 0.570271C10.3805 0.471655 10.6299 0.423112 10.8812 0.427835C11.1325 0.432559 11.3799 0.490442 11.6072 0.597675C11.8345 0.704909 12.0366 0.859062 12.2 1.04999C12.5443 1.44658 12.7605 1.93816 12.82 2.45999L14.17 12.28L14.81 9.03999C14.8934 8.57976 15.1009 8.15102 15.41 7.79999C15.5788 7.61019 15.7849 7.45718 16.0155 7.35051C16.246 7.24385 16.496 7.1858 16.75 7.17999H19C19.133 7.17996 19.2647 7.20648 19.3874 7.25798C19.51 7.30948 19.6211 7.38493 19.7143 7.47992C19.8074 7.57491 19.8806 7.68752 19.9297 7.81116C19.9788 7.9348 20.0027 8.06699 20 8.19999Z" fill="white"/>
</svg>
