<svg width="24" height="24" viewBox="0 0 24 24" fill="none" xmlns="http://www.w3.org/2000/svg">
<g clip-path="url(#clip0_916_34371)">
<path fill-rule="evenodd" clip-rule="evenodd" d="M13.6039 12.0042C13.6039 15.7625 10.5586 18.8092 6.80196 18.8092C3.04534 18.8092 0 15.7625 0 12.0042C0 8.24592 3.04534 5.19922 6.80196 5.19922C10.5586 5.19922 13.6039 8.24592 13.6039 12.0042ZM20.9908 11.9993C20.9908 15.5891 19.4692 18.4993 17.5923 18.4993C15.7154 18.4993 14.1938 15.5891 14.1938 11.9993C14.1938 8.40942 15.7154 5.49927 17.5923 5.49927C19.4692 5.49927 20.9908 8.40942 20.9908 11.9993ZM22.8001 17.6992C23.4626 17.6992 23.9996 15.1249 23.9996 11.9492C23.9996 8.77358 23.4626 6.19922 22.8001 6.19922C22.1377 6.19922 21.6007 8.77358 21.6007 11.9492C21.6007 15.1249 22.1377 17.6992 22.8001 17.6992Z" fill="#98A2B3"/>
</g>
<defs>
<clipPath id="clip0_916_34371">
<rect width="24" height="24" fill="white"/>
</clipPath>
</defs>
</svg>
