<svg width="55" height="56" viewBox="0 0 55 56" fill="none" xmlns="http://www.w3.org/2000/svg">
<rect width="55" height="56" fill="#E5E5E5"/>
<g clip-path="url(#clip0_1957_5798)">
<rect width="1394" height="1201" transform="translate(-1117 -314)" fill="#F3F3F3"/>
<g filter="url(#filter0_dd_1957_5798)">
<rect x="-1107" y="-131" width="1370" height="427" rx="10" fill="white"/>
</g>
<rect x="-168.5" y="-41.5" width="386" height="246" rx="5.5" fill="white" stroke="#E0DDDD"/>
<rect x="0.5" y="1.47998" width="54" height="54" rx="3.5" fill="white" stroke="#EEEEEE"/>
<path d="M19.7926 50V43.4545H20.5852V46.3693H24.0753V43.4545H24.8679V50H24.0753V47.0724H20.5852V50H19.7926ZM26.8025 50V45.0909H27.5567V50H26.8025ZM27.186 44.2727C27.039 44.2727 26.9122 44.2227 26.8056 44.1225C26.7012 44.0224 26.649 43.902 26.649 43.7614C26.649 43.6207 26.7012 43.5004 26.8056 43.4002C26.9122 43.3001 27.039 43.25 27.186 43.25C27.333 43.25 27.4587 43.3001 27.5631 43.4002C27.6696 43.5004 27.7229 43.6207 27.7229 43.7614C27.7229 43.902 27.6696 44.0224 27.5631 44.1225C27.4587 44.2227 27.333 44.2727 27.186 44.2727ZM31.3697 51.9432C31.0054 51.9432 30.6922 51.8963 30.4301 51.8026C30.168 51.7109 29.9496 51.5895 29.7749 51.4382C29.6023 51.2891 29.4649 51.1293 29.3626 50.9588L29.9635 50.5369C30.0317 50.6264 30.118 50.7287 30.2224 50.8438C30.3268 50.9609 30.4695 51.0621 30.6506 51.1474C30.8339 51.2347 31.0736 51.2784 31.3697 51.2784C31.766 51.2784 32.0931 51.1825 32.3509 50.9908C32.6087 50.799 32.7376 50.4986 32.7376 50.0895V49.0923H32.6737C32.6183 49.1818 32.5395 49.2926 32.4372 49.4247C32.3371 49.5547 32.1922 49.6708 32.0025 49.7731C31.815 49.8732 31.5615 49.9233 31.2419 49.9233C30.8456 49.9233 30.4898 49.8295 30.1744 49.642C29.8612 49.4545 29.613 49.1818 29.4297 48.8239C29.2486 48.4659 29.1581 48.0312 29.1581 47.5199C29.1581 47.017 29.2465 46.5792 29.4233 46.2063C29.6002 45.8313 29.8463 45.5415 30.1616 45.337C30.477 45.1303 30.8413 45.027 31.2547 45.027C31.5743 45.027 31.8278 45.0803 32.0153 45.1868C32.205 45.2912 32.3498 45.4105 32.45 45.5447C32.5523 45.6768 32.6311 45.7855 32.6865 45.8707H32.7632V45.0909H33.4919V50.1406C33.4919 50.5625 33.396 50.9055 33.2042 51.1697C33.0146 51.4361 32.7589 51.631 32.4372 51.7546C32.1176 51.8803 31.7618 51.9432 31.3697 51.9432ZM31.3442 49.2457C31.6467 49.2457 31.9024 49.1765 32.1112 49.038C32.32 48.8995 32.4787 48.7003 32.5874 48.4403C32.6961 48.1804 32.7504 47.8693 32.7504 47.5071C32.7504 47.1534 32.6971 46.8413 32.5906 46.5707C32.4841 46.3001 32.3264 46.0881 32.1176 45.9347C31.9088 45.7812 31.651 45.7045 31.3442 45.7045C31.0246 45.7045 30.7582 45.7855 30.5452 45.9474C30.3342 46.1094 30.1755 46.3267 30.0689 46.5994C29.9645 46.8722 29.9123 47.1747 29.9123 47.5071C29.9123 47.848 29.9656 48.1495 30.0721 48.4116C30.1808 48.6715 30.3406 48.8761 30.5515 49.0252C30.7646 49.1722 31.0288 49.2457 31.3442 49.2457ZM36.0768 47.0469V50H35.3226V43.4545H36.0768V45.858H36.1407C36.2558 45.6044 36.4284 45.4031 36.6585 45.2539C36.8907 45.1026 37.1997 45.027 37.5854 45.027C37.9199 45.027 38.2128 45.0941 38.4643 45.2283C38.7157 45.3604 38.9106 45.5639 39.0491 45.8388C39.1898 46.1115 39.2601 46.4588 39.2601 46.8807V50H38.5058V46.9318C38.5058 46.5419 38.4046 46.2404 38.2022 46.0273C38.0019 45.8121 37.7238 45.7045 37.368 45.7045C37.1209 45.7045 36.8993 45.7567 36.7032 45.8612C36.5094 45.9656 36.3559 46.1179 36.243 46.3182C36.1322 46.5185 36.0768 46.7614 36.0768 47.0469Z" fill="#323232"/>
<g filter="url(#filter1_d_1957_5798)">
<circle cx="29" cy="29.98" r="6" fill="white"/>
</g>
<circle cx="29" cy="29.98" r="4" fill="#EC3F3F"/>
<path d="M46.3587 34.6042C47.3783 34.8967 48.4516 34.3081 48.6474 33.2656C49.1264 30.7164 49.1183 28.0935 48.6172 25.5368C47.9926 22.3503 46.62 19.3577 44.6124 16.8055C42.6047 14.2533 40.0196 12.2146 37.0697 10.8571C34.1199 9.49972 30.8898 8.86244 27.6454 8.9978C24.4011 9.13316 21.2353 10.0373 18.4088 11.6357C15.5823 13.2342 13.1759 15.4812 11.3879 18.1917C9.59983 20.9022 8.48125 23.9988 8.12426 27.2262C7.83783 29.8158 8.04827 32.4303 8.73792 34.9307C9.01996 35.9533 10.1385 36.4505 11.1302 36.074C12.1219 35.6975 12.6089 34.5898 12.349 33.5614C11.8624 31.6356 11.7228 29.6331 11.9423 27.6486C12.2324 25.0258 13.1414 22.5095 14.5944 20.3069C16.0474 18.1043 18.0028 16.2783 20.2997 14.9794C22.5966 13.6805 25.1692 12.9458 27.8056 12.8358C30.442 12.7258 33.0668 13.2436 35.4639 14.3467C37.861 15.4498 39.9618 17.1065 41.5932 19.1805C43.2246 21.2544 44.34 23.6862 44.8476 26.2757C45.2317 28.235 45.2594 30.2422 44.9348 32.2019C44.7615 33.2483 45.3391 34.3116 46.3587 34.6042Z" fill="#FFEDED"/>
<path d="M33.6584 24.6331C32.6364 23.7524 32.7616 22.1333 33.9068 21.4202L42.8611 15.8443C44.821 14.6239 46.947 17.1452 45.4131 18.8708L38.4258 26.7312C37.5175 27.7529 35.8592 27.5058 35.2882 26.2638C35.1746 26.0168 35.0094 25.7972 34.8035 25.6198L33.6584 24.6331Z" fill="#EC3F3F"/>
</g>
<defs>
<filter id="filter0_dd_1957_5798" x="-1115" y="-139" width="1386" height="443" filterUnits="userSpaceOnUse" color-interpolation-filters="sRGB">
<feFlood flood-opacity="0" result="BackgroundImageFix"/>
<feColorMatrix in="SourceAlpha" type="matrix" values="0 0 0 0 0 0 0 0 0 0 0 0 0 0 0 0 0 0 127 0" result="hardAlpha"/>
<feOffset dx="-2" dy="-2"/>
<feGaussianBlur stdDeviation="3"/>
<feComposite in2="hardAlpha" operator="out"/>
<feColorMatrix type="matrix" values="0 0 0 0 0 0 0 0 0 0 0 0 0 0 0 0 0 0 0.05 0"/>
<feBlend mode="normal" in2="BackgroundImageFix" result="effect1_dropShadow_1957_5798"/>
<feColorMatrix in="SourceAlpha" type="matrix" values="0 0 0 0 0 0 0 0 0 0 0 0 0 0 0 0 0 0 127 0" result="hardAlpha"/>
<feOffset dx="2" dy="2"/>
<feGaussianBlur stdDeviation="3"/>
<feComposite in2="hardAlpha" operator="out"/>
<feColorMatrix type="matrix" values="0 0 0 0 0 0 0 0 0 0 0 0 0 0 0 0 0 0 0.05 0"/>
<feBlend mode="normal" in2="effect1_dropShadow_1957_5798" result="effect2_dropShadow_1957_5798"/>
<feBlend mode="normal" in="SourceGraphic" in2="effect2_dropShadow_1957_5798" result="shape"/>
</filter>
<filter id="filter1_d_1957_5798" x="15" y="15.98" width="28" height="28" filterUnits="userSpaceOnUse" color-interpolation-filters="sRGB">
<feFlood flood-opacity="0" result="BackgroundImageFix"/>
<feColorMatrix in="SourceAlpha" type="matrix" values="0 0 0 0 0 0 0 0 0 0 0 0 0 0 0 0 0 0 127 0" result="hardAlpha"/>
<feOffset/>
<feGaussianBlur stdDeviation="4"/>
<feComposite in2="hardAlpha" operator="out"/>
<feColorMatrix type="matrix" values="0 0 0 0 0.196078 0 0 0 0 0.196078 0 0 0 0 0.196078 0 0 0 0.12 0"/>
<feBlend mode="normal" in2="BackgroundImageFix" result="effect1_dropShadow_1957_5798"/>
<feBlend mode="normal" in="SourceGraphic" in2="effect1_dropShadow_1957_5798" result="shape"/>
</filter>
<clipPath id="clip0_1957_5798">
<rect width="1394" height="1201" fill="white" transform="translate(-1117 -314)"/>
</clipPath>
</defs>
</svg>
