<svg width="55" height="55" viewBox="0 0 55 55" fill="none" xmlns="http://www.w3.org/2000/svg">
<rect width="55" height="55" fill="#E5E5E5"/>
<g clip-path="url(#clip0_1957_5798)">
<rect width="1394" height="1201" transform="translate(-974 -315)" fill="#F3F3F3"/>
<g filter="url(#filter0_dd_1957_5798)">
<rect x="-964" y="-132" width="1370" height="427" rx="10" fill="white"/>
</g>
<rect x="-25.5" y="-42.5" width="386" height="246" rx="5.5" fill="white" stroke="#E0DDDD"/>
<rect x="0.5" y="0.5" width="54" height="54" rx="3.5" fill="white" stroke="#E0DDDD"/>
<path d="M18.7926 49V42.4545H19.5852V48.2969H22.6278V49H18.7926ZM26.1972 49.1023C25.754 49.1023 25.3651 48.9968 25.0306 48.7859C24.6982 48.5749 24.4383 48.2798 24.2508 47.9006C24.0654 47.5213 23.9727 47.0781 23.9727 46.571C23.9727 46.0597 24.0654 45.6133 24.2508 45.2319C24.4383 44.8505 24.6982 44.5543 25.0306 44.3434C25.3651 44.1325 25.754 44.027 26.1972 44.027C26.6403 44.027 27.0281 44.1325 27.3605 44.3434C27.695 44.5543 27.955 44.8505 28.1403 45.2319C28.3278 45.6133 28.4216 46.0597 28.4216 46.571C28.4216 47.0781 28.3278 47.5213 28.1403 47.9006C27.955 48.2798 27.695 48.5749 27.3605 48.7859C27.0281 48.9968 26.6403 49.1023 26.1972 49.1023ZM26.1972 48.4247C26.5338 48.4247 26.8108 48.3384 27.0281 48.1658C27.2455 47.9933 27.4063 47.7663 27.5107 47.4851C27.6151 47.2038 27.6673 46.8991 27.6673 46.571C27.6673 46.2429 27.6151 45.9371 27.5107 45.6538C27.4063 45.3704 27.2455 45.1413 27.0281 44.9666C26.8108 44.7919 26.5338 44.7045 26.1972 44.7045C25.8605 44.7045 25.5835 44.7919 25.3662 44.9666C25.1489 45.1413 24.988 45.3704 24.8836 45.6538C24.7792 45.9371 24.727 46.2429 24.727 46.571C24.727 46.8991 24.7792 47.2038 24.8836 47.4851C24.988 47.7663 25.1489 47.9933 25.3662 48.1658C25.5835 48.3384 25.8605 48.4247 26.1972 48.4247ZM30.9682 49L29.4724 44.0909H30.2651L31.3261 47.8494H31.3773L32.4256 44.0909H33.231L34.2665 47.8366H34.3176L35.3787 44.0909H36.1713L34.6756 49H33.9341L32.8602 45.2287H32.7835L31.7097 49H30.9682Z" fill="#323232"/>
<g filter="url(#filter1_d_1957_5798)">
<circle cx="29" cy="30" r="6" fill="white"/>
</g>
<circle cx="29" cy="30" r="4" fill="#10B981"/>
<path d="M46.3587 34.6242C47.3783 34.9168 48.4516 34.3281 48.6474 33.2856C49.1264 30.7365 49.1183 28.1136 48.6172 25.5568C47.9926 22.3703 46.62 19.3777 44.6124 16.8255C42.6047 14.2734 40.0196 12.2346 37.0697 10.8772C34.1199 9.51974 30.8898 8.88246 27.6454 9.01782C24.4011 9.15318 21.2353 10.0573 18.4088 11.6557C15.5823 13.2542 13.1759 15.5012 11.3879 18.2117C9.59983 20.9223 8.48125 24.0188 8.12426 27.2463C7.83783 29.8359 8.04827 32.4503 8.73792 34.9507C9.01996 35.9733 10.1385 36.4705 11.1302 36.094C12.1219 35.7175 12.6089 34.6098 12.349 33.5814C11.8624 31.6556 11.7228 29.6531 11.9423 27.6686C12.2324 25.0459 13.1414 22.5296 14.5944 20.3269C16.0474 18.1243 18.0028 16.2983 20.2997 14.9994C22.5966 13.7005 25.1692 12.9658 27.8056 12.8558C30.442 12.7458 33.0668 13.2637 35.4639 14.3667C37.861 15.4698 39.9618 17.1265 41.5932 19.2005C43.2246 21.2744 44.34 23.7063 44.8476 26.2957C45.2317 28.2551 45.2594 30.2622 44.9348 32.2219C44.7615 33.2684 45.3391 34.3316 46.3587 34.6242Z" fill="#D3FCEE"/>
<path d="M22.0089 27.4124C21.4996 28.6616 19.925 29.0586 18.8843 28.2002L10.7467 21.4883C8.96556 20.0192 10.6784 17.2008 12.8027 18.1053L22.4792 22.225C23.737 22.7605 24.0311 24.4112 23.0355 25.3481C22.8377 25.5343 22.6821 25.7609 22.5795 26.0126L22.0089 27.4124Z" fill="#10B981"/>
</g>
<defs>
<filter id="filter0_dd_1957_5798" x="-972" y="-140" width="1386" height="443" filterUnits="userSpaceOnUse" color-interpolation-filters="sRGB">
<feFlood flood-opacity="0" result="BackgroundImageFix"/>
<feColorMatrix in="SourceAlpha" type="matrix" values="0 0 0 0 0 0 0 0 0 0 0 0 0 0 0 0 0 0 127 0" result="hardAlpha"/>
<feOffset dx="-2" dy="-2"/>
<feGaussianBlur stdDeviation="3"/>
<feComposite in2="hardAlpha" operator="out"/>
<feColorMatrix type="matrix" values="0 0 0 0 0 0 0 0 0 0 0 0 0 0 0 0 0 0 0.05 0"/>
<feBlend mode="normal" in2="BackgroundImageFix" result="effect1_dropShadow_1957_5798"/>
<feColorMatrix in="SourceAlpha" type="matrix" values="0 0 0 0 0 0 0 0 0 0 0 0 0 0 0 0 0 0 127 0" result="hardAlpha"/>
<feOffset dx="2" dy="2"/>
<feGaussianBlur stdDeviation="3"/>
<feComposite in2="hardAlpha" operator="out"/>
<feColorMatrix type="matrix" values="0 0 0 0 0 0 0 0 0 0 0 0 0 0 0 0 0 0 0.05 0"/>
<feBlend mode="normal" in2="effect1_dropShadow_1957_5798" result="effect2_dropShadow_1957_5798"/>
<feBlend mode="normal" in="SourceGraphic" in2="effect2_dropShadow_1957_5798" result="shape"/>
</filter>
<filter id="filter1_d_1957_5798" x="15" y="16" width="28" height="28" filterUnits="userSpaceOnUse" color-interpolation-filters="sRGB">
<feFlood flood-opacity="0" result="BackgroundImageFix"/>
<feColorMatrix in="SourceAlpha" type="matrix" values="0 0 0 0 0 0 0 0 0 0 0 0 0 0 0 0 0 0 127 0" result="hardAlpha"/>
<feOffset/>
<feGaussianBlur stdDeviation="4"/>
<feComposite in2="hardAlpha" operator="out"/>
<feColorMatrix type="matrix" values="0 0 0 0 0.196078 0 0 0 0 0.196078 0 0 0 0 0.196078 0 0 0 0.12 0"/>
<feBlend mode="normal" in2="BackgroundImageFix" result="effect1_dropShadow_1957_5798"/>
<feBlend mode="normal" in="SourceGraphic" in2="effect1_dropShadow_1957_5798" result="shape"/>
</filter>
<clipPath id="clip0_1957_5798">
<rect width="1394" height="1201" fill="white" transform="translate(-974 -315)"/>
</clipPath>
</defs>
</svg>
