<svg width="56" height="55" viewBox="0 0 56 55" fill="none" xmlns="http://www.w3.org/2000/svg">
<rect width="56" height="55" fill="#E5E5E5"/>
<g clip-path="url(#clip0_1957_5798)">
<rect width="1394" height="1201" transform="translate(-1045 -315)" fill="#F3F3F3"/>
<g filter="url(#filter0_dd_1957_5798)">
<rect x="-1035" y="-132" width="1370" height="427" rx="10" fill="white"/>
</g>
<rect x="-96.5" y="-42.5" width="386" height="246" rx="5.5" fill="white" stroke="#E0DDDD"/>
<rect x="1.08789" y="0.5" width="54" height="54" rx="3.5" fill="white" stroke="#EEEEEE"/>
<path d="M11.7926 42.4545H12.7386L14.9631 47.8878H15.0398L17.2642 42.4545H18.2102V49H17.4688V44.027H17.4048L15.3594 49H14.6435L12.598 44.027H12.5341V49H11.7926V42.4545ZM22.2054 49.1023C21.7324 49.1023 21.3244 48.9979 20.9813 48.7891C20.6404 48.5781 20.3773 48.2841 20.1919 47.907C20.0087 47.5277 19.9171 47.0866 19.9171 46.5838C19.9171 46.081 20.0087 45.6378 20.1919 45.2543C20.3773 44.8686 20.6351 44.5682 20.9654 44.353C21.2977 44.1357 21.6855 44.027 22.1287 44.027C22.3844 44.027 22.6369 44.0696 22.8862 44.1548C23.1355 44.2401 23.3624 44.3786 23.5669 44.5703C23.7715 44.7599 23.9345 45.0114 24.0559 45.3246C24.1774 45.6378 24.2381 46.0234 24.2381 46.4815V46.8011H20.454V46.1491H23.471C23.471 45.8722 23.4156 45.625 23.3048 45.4077C23.1962 45.1903 23.0406 45.0188 22.8382 44.8931C22.6379 44.7674 22.4014 44.7045 22.1287 44.7045C21.8283 44.7045 21.5683 44.7791 21.3489 44.9283C21.1316 45.0753 20.9643 45.267 20.8471 45.5036C20.7299 45.7401 20.6713 45.9936 20.6713 46.2642V46.6989C20.6713 47.0696 20.7352 47.3839 20.8631 47.6417C20.9931 47.8974 21.1731 48.0923 21.4032 48.2266C21.6333 48.3587 21.9007 48.4247 22.2054 48.4247C22.4036 48.4247 22.5825 48.397 22.7423 48.3416C22.9043 48.2841 23.0438 48.1989 23.161 48.0859C23.2782 47.9709 23.3688 47.8281 23.4327 47.6577L24.1614 47.8622C24.0847 48.1094 23.9558 48.3267 23.7747 48.5142C23.5936 48.6996 23.3698 48.8445 23.1035 48.9489C22.8372 49.0511 22.5378 49.1023 22.2054 49.1023ZM27.6892 49.1023C27.2801 49.1023 26.9189 48.9989 26.6057 48.7923C26.2925 48.5835 26.0475 48.2894 25.8706 47.9102C25.6938 47.5288 25.6053 47.0781 25.6053 46.5582C25.6053 46.0426 25.6938 45.5952 25.8706 45.2159C26.0475 44.8366 26.2936 44.5437 26.6089 44.337C26.9242 44.1303 27.2886 44.027 27.7019 44.027C28.0215 44.027 28.274 44.0803 28.4594 44.1868C28.6469 44.2912 28.7896 44.4105 28.8877 44.5447C28.9878 44.6768 29.0656 44.7855 29.121 44.8707H29.1849V42.4545H29.9392V49H29.2105V48.2457H29.121C29.0656 48.3352 28.9867 48.4482 28.8845 48.5845C28.7822 48.7187 28.6362 48.8391 28.4466 48.9457C28.257 49.0501 28.0045 49.1023 27.6892 49.1023ZM27.7914 48.4247C28.094 48.4247 28.3497 48.3459 28.5585 48.1882C28.7673 48.0284 28.926 47.8079 29.0347 47.5266C29.1433 47.2433 29.1977 46.9162 29.1977 46.5455C29.1977 46.179 29.1444 45.8583 29.0379 45.5835C28.9313 45.3065 28.7737 45.0913 28.5649 44.9379C28.3561 44.7823 28.0982 44.7045 27.7914 44.7045C27.4718 44.7045 27.2055 44.7866 26.9924 44.9506C26.7815 45.1126 26.6227 45.3331 26.5162 45.6122C26.4118 45.8892 26.3596 46.2003 26.3596 46.5455C26.3596 46.8949 26.4129 47.2124 26.5194 47.4979C26.6281 47.7812 26.7879 48.0071 26.9988 48.1754C27.2119 48.3416 27.4761 48.4247 27.7914 48.4247ZM31.8753 49V44.0909H32.6296V49H31.8753ZM32.2588 43.2727C32.1118 43.2727 31.985 43.2227 31.8785 43.1225C31.7741 43.0224 31.7219 42.902 31.7219 42.7614C31.7219 42.6207 31.7741 42.5004 31.8785 42.4002C31.985 42.3001 32.1118 42.25 32.2588 42.25C32.4058 42.25 32.5316 42.3001 32.636 42.4002C32.7425 42.5004 32.7958 42.6207 32.7958 42.7614C32.7958 42.902 32.7425 43.0224 32.636 43.1225C32.5316 43.2227 32.4058 43.2727 32.2588 43.2727ZM37.5548 46.9929V44.0909H38.3091V49H37.5548V48.169H37.5037C37.3886 48.4183 37.2096 48.6303 36.9667 48.805C36.7238 48.9776 36.417 49.0639 36.0463 49.0639C35.7395 49.0639 35.4667 48.9968 35.2281 48.8626C34.9895 48.7262 34.802 48.5217 34.6656 48.2489C34.5292 47.9741 34.461 47.6278 34.461 47.2102V44.0909H35.2153V47.1591C35.2153 47.517 35.3154 47.8026 35.5157 48.0156C35.7181 48.2287 35.976 48.3352 36.2892 48.3352C36.4767 48.3352 36.6674 48.2873 36.8613 48.1914C37.0573 48.0955 37.2213 47.9485 37.3534 47.7504C37.4877 47.5522 37.5548 47.2997 37.5548 46.9929ZM40.1405 49V44.0909H40.8692V44.858H40.9331C41.0354 44.5959 41.2006 44.3924 41.4285 44.2475C41.6565 44.1005 41.9303 44.027 42.2499 44.027C42.5738 44.027 42.8433 44.1005 43.0585 44.2475C43.2758 44.3924 43.4452 44.5959 43.5667 44.858H43.6178C43.7435 44.6044 43.9321 44.4031 44.1835 44.2539C44.4349 44.1026 44.7364 44.027 45.088 44.027C45.5269 44.027 45.8859 44.1644 46.165 44.4393C46.4442 44.712 46.5837 45.1371 46.5837 45.7145V49H45.8295V45.7145C45.8295 45.3523 45.7304 45.0934 45.5322 44.9379C45.3341 44.7823 45.1008 44.7045 44.8323 44.7045C44.4871 44.7045 44.2197 44.8089 44.0301 45.0178C43.8405 45.2244 43.7457 45.4865 43.7457 45.804V49H42.9786V45.6378C42.9786 45.3587 42.8881 45.1339 42.7069 44.9634C42.5258 44.7908 42.2925 44.7045 42.007 44.7045C41.811 44.7045 41.6278 44.7567 41.4573 44.8612C41.289 44.9656 41.1526 45.1104 41.0482 45.2958C40.9459 45.479 40.8948 45.6911 40.8948 45.9318V49H40.1405Z" fill="#323232"/>
<g filter="url(#filter1_d_1957_5798)">
<circle cx="29.5879" cy="29" r="6" fill="white"/>
</g>
<circle cx="29.5879" cy="29" r="4" fill="#ECB800"/>
<path d="M46.9466 33.6242C47.9662 33.9168 49.0394 33.3281 49.2353 32.2856C49.7143 29.7365 49.7062 27.1136 49.2051 24.5568C48.5805 21.3703 47.2079 18.3777 45.2002 15.8255C43.1926 13.2734 40.6074 11.2346 37.6576 9.87717C34.7078 8.51974 31.4777 7.88246 28.2333 8.01782C24.989 8.15318 21.8232 9.05731 18.9967 10.6557C16.1702 12.2542 13.7638 14.5012 11.9758 17.2117C10.1877 19.9223 9.06914 23.0188 8.71215 26.2463C8.42572 28.8359 8.63616 31.4503 9.32581 33.9507C9.60785 34.9733 10.7264 35.4705 11.7181 35.094C12.7098 34.7175 13.1968 33.6098 12.9369 32.5814C12.4503 30.6556 12.3107 28.6531 12.5302 26.6686C12.8203 24.0459 13.7293 21.5296 15.1823 19.3269C16.6353 17.1243 18.5907 15.2983 20.8876 13.9994C23.1845 12.7005 25.757 11.9658 28.3935 11.8558C31.0299 11.7458 33.6547 12.2637 36.0518 13.3667C38.4489 14.4698 40.5497 16.1265 42.1811 18.2005C43.8125 20.2744 44.9279 22.7063 45.4355 25.2957C45.8195 27.2551 45.8472 29.2622 45.5227 31.2219C45.3494 32.2684 45.927 33.3316 46.9466 33.6242Z" fill="#F9F3C0"/>
<path d="M27.8308 21.4216C26.501 21.6481 25.3328 20.5201 25.5128 19.1831L26.9202 8.72897C27.2283 6.44078 30.5262 6.40856 30.8789 8.69029L32.4854 19.0838C32.6943 20.4348 31.4472 21.5556 30.1261 21.2044C29.8635 21.1345 29.5889 21.122 29.321 21.1677L27.8308 21.4216Z" fill="#ECB800"/>
</g>
<defs>
<filter id="filter0_dd_1957_5798" x="-1043" y="-140" width="1386" height="443" filterUnits="userSpaceOnUse" color-interpolation-filters="sRGB">
<feFlood flood-opacity="0" result="BackgroundImageFix"/>
<feColorMatrix in="SourceAlpha" type="matrix" values="0 0 0 0 0 0 0 0 0 0 0 0 0 0 0 0 0 0 127 0" result="hardAlpha"/>
<feOffset dx="-2" dy="-2"/>
<feGaussianBlur stdDeviation="3"/>
<feComposite in2="hardAlpha" operator="out"/>
<feColorMatrix type="matrix" values="0 0 0 0 0 0 0 0 0 0 0 0 0 0 0 0 0 0 0.05 0"/>
<feBlend mode="normal" in2="BackgroundImageFix" result="effect1_dropShadow_1957_5798"/>
<feColorMatrix in="SourceAlpha" type="matrix" values="0 0 0 0 0 0 0 0 0 0 0 0 0 0 0 0 0 0 127 0" result="hardAlpha"/>
<feOffset dx="2" dy="2"/>
<feGaussianBlur stdDeviation="3"/>
<feComposite in2="hardAlpha" operator="out"/>
<feColorMatrix type="matrix" values="0 0 0 0 0 0 0 0 0 0 0 0 0 0 0 0 0 0 0.05 0"/>
<feBlend mode="normal" in2="effect1_dropShadow_1957_5798" result="effect2_dropShadow_1957_5798"/>
<feBlend mode="normal" in="SourceGraphic" in2="effect2_dropShadow_1957_5798" result="shape"/>
</filter>
<filter id="filter1_d_1957_5798" x="15.5879" y="15" width="28" height="28" filterUnits="userSpaceOnUse" color-interpolation-filters="sRGB">
<feFlood flood-opacity="0" result="BackgroundImageFix"/>
<feColorMatrix in="SourceAlpha" type="matrix" values="0 0 0 0 0 0 0 0 0 0 0 0 0 0 0 0 0 0 127 0" result="hardAlpha"/>
<feOffset/>
<feGaussianBlur stdDeviation="4"/>
<feComposite in2="hardAlpha" operator="out"/>
<feColorMatrix type="matrix" values="0 0 0 0 0.196078 0 0 0 0 0.196078 0 0 0 0 0.196078 0 0 0 0.12 0"/>
<feBlend mode="normal" in2="BackgroundImageFix" result="effect1_dropShadow_1957_5798"/>
<feBlend mode="normal" in="SourceGraphic" in2="effect1_dropShadow_1957_5798" result="shape"/>
</filter>
<clipPath id="clip0_1957_5798">
<rect width="1394" height="1201" fill="white" transform="translate(-1045 -315)"/>
</clipPath>
</defs>
</svg>
