<svg width="233" height="212" viewBox="0 0 233 212" fill="none" xmlns="http://www.w3.org/2000/svg">
<path d="M139.283 67.134C138.717 83.7081 141.148 103.674 131.948 118.814C124.75 130.657 111.129 138.03 97.3088 142.415C66.9232 152.056 25.6093 150.763 7.19988 123.265C-0.134563 112.275 0.305489 90.4726 14.6181 83.4364C21.9526 79.848 30.3348 79.4732 38.4656 78.096C49.132 76.2971 57.116 71.5375 62.6797 63.199C73.5661 46.8967 72.7384 34.3607 76.1017 16.1565C76.7409 12.7836 77.9144 9.49498 81.9169 6.88098C85.5311 4.14669 89.9108 2.34564 94.5845 1.67173C98.6203 0.420143 102.939 0.0790047 107.158 0.678606C116.158 2.14019 124.237 10.2258 130.859 15.3601C137.481 20.4944 140.414 25.7224 140.289 33.733C140.215 44.8729 139.66 56.0035 139.283 67.134Z" fill="#263238"/>
<path d="M140.907 75.0792C140.341 59.8449 139.429 44.6575 138.633 29.442C138.633 29.3483 138.476 29.3389 138.476 29.442C138.717 41.9779 138.78 54.5045 139.209 67.0404C139.628 79.3234 141.001 91.9249 140.257 104.208C138.497 131.763 105.9 140.813 79.8422 137.684C78.6582 137.543 78.5429 139.249 79.7479 139.352C102.715 141.46 130.775 136.297 139.628 114.402C144.438 102.418 141.378 87.5495 140.907 75.0792Z" fill="#263238"/>
<path d="M77.7886 14.8163C77.7766 14.7633 77.7445 14.7157 77.6977 14.6815C77.6509 14.6473 77.5924 14.6287 77.5319 14.6287C77.4715 14.6287 77.4129 14.6473 77.3662 14.6815C77.3194 14.7157 77.2872 14.7633 77.2752 14.8163C75.1797 29.9006 74.3938 47.6083 63.6541 60.1817C58.3428 66.3306 51.0791 70.9024 42.8138 73.2985C36.2652 75.1724 29.507 74.9194 22.7593 75.6408C-3.60275 78.4516 -6.57844 109.791 11.3176 123.311C11.6843 123.592 12.2501 123.03 11.8834 122.721C-0.595633 112.349 -3.51892 94.8382 8.39431 82.9394C17.95 73.3922 34.3792 77.7489 46.7011 73.0831C72.2354 63.4141 76.437 36.8244 77.7886 14.8163Z" fill="#263238"/>
<path d="M80.5026 79.1168C53.1242 103.936 18.6837 156.15 25.0961 166.728C32.2524 178.524 70.3811 143.727 70.2344 141.693C70.1191 140.157 83.5411 108.442 93.7151 85.3754C103.889 62.3085 87.2817 72.9425 80.5026 79.1168Z" fill="#F7A9A0"/>
<path d="M70.4855 141.694C71.659 138.302 89.9113 96.4874 95.1292 83.2582C100.347 70.0289 95.5064 65.9439 80.607 78.0583C65.7076 90.1726 33.0379 130.629 25.5882 152.075C18.4004 172.762 30.3137 172.762 46.0304 163.224C58.8971 155.457 70.4855 141.694 70.4855 141.694Z" fill="#95EAF7"/>
<path d="M97.0888 76.1189C97.0888 76.3625 97.0364 76.6061 96.9945 76.8685C96.9063 76.9817 96.7888 77.0741 96.6519 77.1377C96.515 77.2013 96.3629 77.2343 96.2087 77.2339C96.038 77.2335 95.8706 77.1913 95.7249 77.1117C95.5792 77.0322 95.4607 76.9184 95.3824 76.7828C95.304 76.6472 95.2688 76.4949 95.2805 76.3426C95.2923 76.1903 95.3506 76.0439 95.449 75.9192C95.5474 75.7944 95.6823 75.6963 95.8388 75.6354C95.9954 75.5745 96.1676 75.5532 96.3367 75.5738C96.5059 75.5944 96.6655 75.6561 96.7981 75.7523C96.9307 75.8484 97.0312 75.9752 97.0888 76.1189ZM66.0222 93.6205C65.8348 93.6187 65.6511 93.6668 65.4944 93.7587C65.3377 93.8507 65.2152 93.9823 65.1426 94.1367C65.0699 94.2912 65.0503 94.4615 65.0864 94.6259C65.1224 94.7904 65.2125 94.9414 65.345 95.0599C65.4775 95.1784 65.6465 95.2589 65.8303 95.2912C66.0142 95.3234 66.2047 95.3059 66.3774 95.2409C66.5502 95.176 66.6973 95.0664 66.8002 94.9263C66.903 94.7863 66.9568 94.6219 66.9547 94.4544C66.9547 94.2332 66.8565 94.0211 66.6816 93.8647C66.5067 93.7084 66.2695 93.6205 66.0222 93.6205ZM81.1102 93.6205C80.9232 93.6205 80.7405 93.6702 80.5852 93.7633C80.4299 93.8564 80.3091 93.9886 80.238 94.1433C80.1669 94.2979 80.1489 94.4679 80.1861 94.6317C80.2234 94.7955 80.3142 94.9458 80.4472 95.0633C80.5801 95.1808 80.7491 95.2604 80.9327 95.2919C81.1163 95.3234 81.3063 95.3053 81.4784 95.2401C81.6505 95.1748 81.797 95.0653 81.8994 94.9254C82.0017 94.7855 82.0553 94.6215 82.0532 94.4544C82.0532 94.3441 82.0287 94.2349 81.9812 94.1331C81.9337 94.0313 81.8641 93.939 81.7764 93.8614C81.6887 93.7839 81.5846 93.7226 81.4703 93.6813C81.3559 93.6399 81.2335 93.6193 81.1102 93.6205ZM73.5662 84.9728C73.3792 84.9728 73.1965 85.0225 73.0412 85.1156C72.8859 85.2087 72.7651 85.3409 72.694 85.4955C72.6229 85.6501 72.6049 85.8202 72.6421 85.984C72.6794 86.1478 72.7702 86.298 72.9032 86.4156C73.0361 86.5331 73.2051 86.6127 73.3887 86.6442C73.5723 86.6756 73.7623 86.6576 73.9344 86.5923C74.1065 86.5271 74.253 86.4175 74.3554 86.2776C74.4577 86.1377 74.5113 85.9738 74.5092 85.8067C74.5092 85.6964 74.4847 85.5871 74.4372 85.4854C74.3897 85.3836 74.3201 85.2912 74.2324 85.2137C74.1447 85.1361 74.0406 85.0749 73.9263 85.0335C73.8119 84.9922 73.6895 84.9716 73.5662 84.9728ZM88.6647 84.9728C88.4773 84.9709 88.2935 85.019 88.1369 85.111C87.9802 85.2029 87.8577 85.3345 87.785 85.489C87.7124 85.6434 87.6928 85.8137 87.7289 85.9782C87.7649 86.1426 87.8549 86.2937 87.9874 86.4122C88.1199 86.5307 88.2889 86.6112 88.4728 86.6434C88.6567 86.6757 88.8472 86.6582 89.0199 86.5932C89.1926 86.5282 89.3398 86.4187 89.4426 86.2786C89.5455 86.1385 89.5993 85.9742 89.5972 85.8067C89.5972 85.5855 89.4989 85.3734 89.3241 85.217C89.1492 85.0606 88.912 84.9728 88.6647 84.9728ZM50.9447 111.675C50.7573 111.673 50.5735 111.721 50.4169 111.813C50.2602 111.905 50.1377 112.037 50.065 112.191C49.9924 112.346 49.9728 112.516 50.0088 112.68C50.0449 112.845 50.1349 112.996 50.2674 113.114C50.3999 113.233 50.5689 113.313 50.7528 113.346C50.9367 113.378 51.1272 113.36 51.2999 113.295C51.4726 113.23 51.6198 113.121 51.7226 112.981C51.8254 112.841 51.8793 112.676 51.8772 112.509C51.8772 112.398 51.8527 112.289 51.8052 112.187C51.7577 112.086 51.6881 111.993 51.6004 111.916C51.5127 111.838 51.4086 111.777 51.2943 111.736C51.1799 111.694 51.0575 111.674 50.9342 111.675H50.9447ZM66.0327 111.675C65.8453 111.673 65.6615 111.721 65.5049 111.813C65.3482 111.905 65.2257 112.037 65.153 112.191C65.0804 112.346 65.0608 112.516 65.0969 112.68C65.1329 112.845 65.2229 112.996 65.3554 113.114C65.4879 113.233 65.6569 113.313 65.8408 113.346C66.0247 113.378 66.2152 113.36 66.3879 113.295C66.5607 113.23 66.7078 113.121 66.8106 112.981C66.9134 112.841 66.9673 112.676 66.9652 112.509C66.9652 112.398 66.9407 112.289 66.8932 112.187C66.8457 112.086 66.7761 111.993 66.6884 111.916C66.6006 111.838 66.4966 111.777 66.3823 111.736C66.2679 111.694 66.1455 111.674 66.0222 111.675H66.0327ZM81.1207 111.675C80.9337 111.675 80.751 111.725 80.5957 111.818C80.4404 111.911 80.3195 112.043 80.2485 112.198C80.1774 112.352 80.1594 112.522 80.1966 112.686C80.2339 112.85 80.3247 113 80.4577 113.118C80.5906 113.235 80.7596 113.315 80.9432 113.346C81.1268 113.378 81.3167 113.36 81.4889 113.294C81.661 113.229 81.8075 113.12 81.9099 112.98C82.0122 112.84 82.0657 112.676 82.0637 112.509C82.0637 112.398 82.0389 112.288 81.9907 112.185C81.9426 112.083 81.872 111.99 81.7832 111.912C81.6943 111.835 81.5891 111.774 81.4735 111.733C81.3579 111.692 81.2344 111.672 81.1102 111.675H81.1207ZM58.4887 103.027C58.3013 103.025 58.1175 103.073 57.9609 103.165C57.8042 103.257 57.6817 103.389 57.609 103.543C57.5364 103.698 57.5168 103.868 57.5528 104.033C57.5889 104.197 57.6789 104.348 57.8114 104.467C57.9439 104.585 58.1129 104.666 58.2968 104.698C58.4807 104.73 58.6712 104.713 58.8439 104.648C59.0166 104.583 59.1638 104.473 59.2666 104.333C59.3694 104.193 59.4233 104.029 59.4212 103.861C59.4212 103.751 59.3967 103.642 59.3492 103.54C59.3017 103.438 59.2321 103.346 59.1444 103.268C59.0566 103.19 58.9526 103.129 58.8383 103.088C58.7239 103.047 58.6015 103.026 58.4782 103.027H58.4887ZM73.5767 103.027C73.3897 103.027 73.207 103.077 73.0517 103.17C72.8964 103.263 72.7755 103.395 72.7045 103.55C72.6334 103.705 72.6154 103.875 72.6526 104.038C72.6899 104.202 72.7807 104.352 72.9137 104.47C73.0466 104.587 73.2156 104.667 73.3992 104.699C73.5828 104.73 73.7727 104.712 73.9449 104.647C74.117 104.581 74.2635 104.472 74.3658 104.332C74.4682 104.192 74.5217 104.028 74.5197 103.861C74.5197 103.75 74.4949 103.64 74.4467 103.538C74.3986 103.435 74.328 103.342 74.2392 103.265C74.1503 103.187 74.045 103.126 73.9295 103.085C73.8139 103.044 73.6904 103.025 73.5662 103.027H73.5767ZM50.9342 129.711C50.7468 129.709 50.563 129.757 50.4064 129.849C50.2497 129.941 50.1272 130.072 50.0545 130.227C49.9819 130.381 49.9623 130.551 49.9984 130.716C50.0344 130.88 50.1245 131.031 50.257 131.15C50.3895 131.268 50.5584 131.349 50.7423 131.381C50.9262 131.413 51.1167 131.396 51.2894 131.331C51.4622 131.266 51.6093 131.156 51.7121 131.016C51.815 130.876 51.8688 130.712 51.8667 130.544C51.8667 130.323 51.7685 130.111 51.5936 129.955C51.4187 129.798 51.1815 129.711 50.9342 129.711ZM66.0222 129.711C65.8348 129.709 65.6511 129.757 65.4944 129.849C65.3377 129.941 65.2152 130.072 65.1426 130.227C65.0699 130.381 65.0503 130.551 65.0864 130.716C65.1224 130.88 65.2125 131.031 65.345 131.15C65.4775 131.268 65.6465 131.349 65.8303 131.381C66.0142 131.413 66.2047 131.396 66.3774 131.331C66.5502 131.266 66.6973 131.156 66.8002 131.016C66.903 130.876 66.9568 130.712 66.9547 130.544C66.9547 130.323 66.8565 130.111 66.6816 129.955C66.5067 129.798 66.2695 129.711 66.0222 129.711ZM43.3902 121.082C43.2032 121.082 43.0205 121.131 42.8652 121.224C42.7099 121.317 42.5891 121.45 42.518 121.604C42.4469 121.759 42.4289 121.929 42.4661 122.093C42.5034 122.257 42.5942 122.407 42.7272 122.524C42.8601 122.642 43.0291 122.721 43.2127 122.753C43.3963 122.784 43.5862 122.766 43.7584 122.701C43.9305 122.636 44.077 122.526 44.1794 122.386C44.2817 122.246 44.3352 122.083 44.3332 121.915C44.3332 121.805 44.3087 121.696 44.2612 121.594C44.2137 121.492 44.1441 121.4 44.0564 121.322C43.9687 121.245 43.8646 121.184 43.7503 121.142C43.6359 121.101 43.5135 121.08 43.3902 121.082ZM58.4887 121.082C58.3013 121.08 58.1175 121.128 57.9609 121.22C57.8042 121.312 57.6817 121.443 57.609 121.598C57.5364 121.752 57.5168 121.922 57.5528 122.087C57.5889 122.251 57.6789 122.402 57.8114 122.521C57.9439 122.639 58.1129 122.72 58.2968 122.752C58.4807 122.784 58.6712 122.767 58.8439 122.702C59.0166 122.637 59.1638 122.527 59.2666 122.387C59.3694 122.247 59.4233 122.083 59.4212 121.915C59.4212 121.805 59.3967 121.696 59.3492 121.594C59.3017 121.492 59.2321 121.4 59.1444 121.322C59.0566 121.245 58.9526 121.184 58.8383 121.142C58.7239 121.101 58.6015 121.08 58.4782 121.082H58.4887ZM73.5767 121.082C73.3897 121.082 73.207 121.131 73.0517 121.224C72.8964 121.317 72.7755 121.45 72.7045 121.604C72.6334 121.759 72.6154 121.929 72.6526 122.093C72.6899 122.257 72.7807 122.407 72.9137 122.524C73.0466 122.642 73.2156 122.721 73.3992 122.753C73.5828 122.784 73.7727 122.766 73.9449 122.701C74.117 122.636 74.2635 122.526 74.3658 122.386C74.4682 122.246 74.5217 122.083 74.5197 121.915C74.5197 121.804 74.4949 121.694 74.4467 121.592C74.3986 121.489 74.328 121.397 74.2392 121.319C74.1503 121.241 74.045 121.18 73.9295 121.14C73.8139 121.099 73.6904 121.079 73.5662 121.082H73.5767ZM35.8567 147.784C35.6727 147.785 35.4934 147.836 35.3415 147.929C35.1895 148.021 35.0716 148.152 35.0026 148.305C34.9337 148.457 34.9167 148.625 34.9538 148.786C34.991 148.947 35.0806 149.095 35.2114 149.21C35.3423 149.326 35.5084 149.404 35.689 149.436C35.8696 149.467 36.0566 149.45 36.2264 149.387C36.3962 149.324 36.5412 149.217 36.6432 149.08C36.7452 148.943 36.7997 148.782 36.7997 148.617C36.7997 148.506 36.7746 148.395 36.7258 148.292C36.677 148.189 36.6055 148.095 36.5155 148.018C36.4256 147.94 36.319 147.879 36.2022 147.839C36.0854 147.799 35.9608 147.78 35.8357 147.784H35.8567ZM50.9551 147.784C50.7707 147.784 50.5904 147.833 50.437 147.924C50.2837 148.016 50.1642 148.146 50.0936 148.298C50.023 148.451 50.0046 148.618 50.0405 148.78C50.0765 148.942 50.1653 149.09 50.2957 149.207C50.4261 149.324 50.5923 149.403 50.7732 149.435C50.9541 149.467 51.1416 149.451 51.312 149.388C51.4824 149.325 51.628 149.218 51.7305 149.081C51.833 148.944 51.8877 148.782 51.8877 148.617C51.8877 148.506 51.8629 148.396 51.8147 148.294C51.7666 148.192 51.696 148.099 51.6072 148.021C51.5183 147.943 51.4131 147.882 51.2975 147.842C51.1819 147.801 51.0584 147.781 50.9342 147.784H50.9551ZM43.3902 139.136C43.2032 139.136 43.0205 139.186 42.8652 139.279C42.7099 139.372 42.5891 139.504 42.518 139.659C42.4469 139.813 42.4289 139.983 42.4661 140.147C42.5034 140.311 42.5942 140.461 42.7272 140.579C42.8601 140.696 43.0291 140.776 43.2127 140.807C43.3963 140.839 43.5862 140.821 43.7584 140.755C43.9305 140.69 44.077 140.581 44.1794 140.441C44.2817 140.301 44.3352 140.137 44.3332 139.97C44.3332 139.859 44.3087 139.75 44.2612 139.648C44.2137 139.547 44.1441 139.454 44.0564 139.377C43.9687 139.299 43.8646 139.238 43.7503 139.197C43.6359 139.155 43.5135 139.135 43.3902 139.136ZM58.4887 139.136C58.3013 139.134 58.1175 139.182 57.9609 139.274C57.8042 139.366 57.6817 139.498 57.609 139.652C57.5364 139.807 57.5168 139.977 57.5528 140.141C57.5889 140.306 57.6789 140.457 57.8114 140.575C57.9439 140.694 58.1129 140.774 58.2968 140.807C58.4807 140.839 58.6712 140.821 58.8439 140.756C59.0166 140.691 59.1638 140.582 59.2666 140.442C59.3694 140.302 59.4233 140.137 59.4212 139.97C59.4212 139.859 59.3967 139.75 59.3492 139.648C59.3017 139.547 59.2321 139.454 59.1444 139.377C59.0566 139.299 58.9526 139.238 58.8383 139.197C58.7239 139.155 58.6015 139.135 58.4782 139.136H58.4887ZM35.8462 165.838C35.6622 165.84 35.483 165.89 35.331 165.983C35.179 166.076 35.0611 166.207 34.9921 166.359C34.9232 166.512 34.9062 166.679 34.9433 166.84C34.9805 167.001 35.0701 167.149 35.201 167.265C35.3318 167.38 35.4979 167.459 35.6785 167.49C35.8591 167.522 36.0461 167.505 36.2159 167.441C36.3857 167.378 36.5307 167.271 36.6327 167.134C36.7347 166.997 36.7892 166.836 36.7892 166.672C36.7892 166.561 36.7644 166.451 36.7162 166.348C36.6681 166.246 36.5975 166.153 36.5087 166.075C36.4199 165.998 36.3146 165.937 36.199 165.896C36.0834 165.855 35.9599 165.835 35.8357 165.838H35.8462ZM28.3022 157.19C28.1148 157.188 27.931 157.237 27.7744 157.328C27.6177 157.42 27.4952 157.552 27.4225 157.706C27.3499 157.861 27.3303 158.031 27.3664 158.196C27.4024 158.36 27.4924 158.511 27.625 158.63C27.7575 158.748 27.9265 158.829 28.1103 158.861C28.2942 158.893 28.4847 158.876 28.6574 158.811C28.8302 158.746 28.9773 158.636 29.0802 158.496C29.183 158.356 29.2368 158.192 29.2347 158.024C29.2347 157.914 29.2102 157.805 29.1627 157.703C29.1152 157.601 29.0456 157.509 28.9579 157.431C28.8702 157.354 28.7661 157.292 28.6518 157.251C28.5374 157.21 28.415 157.189 28.2917 157.19H28.3022ZM43.3902 157.19C43.2032 157.19 43.0205 157.24 42.8652 157.333C42.7099 157.426 42.5891 157.558 42.518 157.713C42.4469 157.868 42.4289 158.038 42.4661 158.201C42.5034 158.365 42.5942 158.515 42.7272 158.633C42.8601 158.751 43.0291 158.83 43.2127 158.862C43.3963 158.893 43.5862 158.875 43.7584 158.81C43.9305 158.745 44.077 158.635 44.1794 158.495C44.2817 158.355 44.3352 158.191 44.3332 158.024C44.3332 157.914 44.3087 157.805 44.2612 157.703C44.2137 157.601 44.1441 157.509 44.0564 157.431C43.9687 157.354 43.8646 157.292 43.7503 157.251C43.6359 157.21 43.5135 157.189 43.3902 157.19Z" fill="white"/>
<path d="M59.6624 179.686L62.3971 165.023L66.3262 139.005C66.3262 139.005 57.0743 124.558 62.439 114.195C65.1527 108.939 88.9268 76.3063 98.9226 69.7479C108.353 63.6486 121.974 70.1789 127.024 74.9478C146.576 93.3488 155.796 129.889 162.816 179.658L59.6624 179.686Z" fill="#F7A9A0"/>
<path d="M63.0884 160.423L66.326 139.014C66.326 139.014 57.0741 124.567 62.4387 114.195C65.1525 108.939 88.9266 76.3066 98.9224 69.7482C108.352 63.6582 121.973 70.1792 127.024 74.9574C143.956 90.885 153.145 120.435 159.861 160.395L63.0884 160.423Z" fill="#95EAF7"/>
<path d="M103.218 138.574C98.6535 138.216 94.0655 138.163 89.4922 138.415C87.229 138.565 84.9762 138.808 82.7235 139.099C81.6024 139.239 80.4813 139.352 79.3497 139.455C78.1737 139.586 76.9841 139.586 75.8082 139.455C75.7955 139.45 75.7819 139.449 75.7685 139.451C75.755 139.452 75.7422 139.456 75.7311 139.463C75.72 139.47 75.711 139.479 75.7047 139.49C75.6985 139.501 75.6952 139.513 75.6952 139.525C75.6952 139.537 75.6985 139.549 75.7047 139.56C75.711 139.57 75.72 139.58 75.7311 139.586C75.7422 139.593 75.755 139.598 75.7685 139.599C75.7819 139.601 75.7955 139.599 75.8082 139.595C76.9022 139.82 78.0118 139.98 79.1296 140.073C80.2146 140.139 81.3033 140.139 82.3882 140.073C84.6933 139.942 86.988 139.708 89.2931 139.558C93.9347 139.239 98.5764 138.93 103.239 138.911C103.289 138.909 103.336 138.889 103.369 138.855C103.403 138.822 103.42 138.778 103.417 138.733C103.414 138.688 103.392 138.647 103.354 138.617C103.317 138.587 103.268 138.571 103.218 138.574Z" fill="#263238"/>
<path d="M113.591 143.896C109.96 142.96 106.273 142.209 102.547 141.647C100.682 141.366 98.8172 141.197 96.9312 141.057C96.0301 140.991 95.129 140.944 94.2279 140.907C93.3268 140.869 92.2371 140.907 91.2418 140.907C91.137 140.907 91.1055 141.038 91.2418 141.047C92.1743 141.132 93.0963 141.347 94.0184 141.478L96.8055 141.853C98.6705 142.106 100.536 142.378 102.401 142.621C106.131 143.099 109.85 143.605 113.559 144.196C113.759 144.205 113.8 143.943 113.591 143.896Z" fill="#263238"/>
<path d="M62.3966 165.023C62.9205 160.675 63.4444 156.319 64.0626 151.981C64.6808 147.643 65.2152 143.286 65.8648 138.948L65.9591 139.258C64.568 137.487 63.4245 135.571 62.5538 133.552C61.6607 131.55 61.0143 129.467 60.6259 127.34C60.2489 125.206 60.1434 123.04 60.3116 120.885C60.5834 118.733 61.1827 116.624 62.0928 114.617C63.9041 110.677 66.1542 106.91 68.809 103.374C71.4002 99.8093 74.2272 96.3866 77.2751 93.1239C74.4566 96.5342 71.8162 100.066 69.3434 103.674C66.8507 107.246 64.7155 111.008 62.9624 114.917C62.1009 116.853 61.5438 118.887 61.307 120.96C61.176 123.042 61.2919 125.13 61.6527 127.19C62.0084 129.258 62.6163 131.284 63.4654 133.233C64.2833 135.187 65.3672 137.044 66.6925 138.761L66.7973 138.902V139.061C66.1477 143.399 65.3828 147.718 64.7018 152.056C64.0207 156.394 63.1825 160.704 62.3966 165.023Z" fill="#263238"/>
<path d="M69.3433 103.355C69.3985 102.772 69.5286 102.197 69.7309 101.641C69.9221 101.086 70.1495 100.541 70.412 100.01C70.6739 99.4858 70.9464 98.9611 71.2607 98.4552C71.5738 97.945 71.9238 97.4536 72.3085 96.9842C71.9103 98.0992 71.3969 99.1485 70.894 100.198C70.391 101.247 69.8357 102.278 69.3433 103.355Z" fill="#263238"/>
<path d="M25.0958 166.691C31.2567 174.579 48.0317 176.06 89.8904 183.415C95.6741 184.426 114.639 149.807 108.551 148.449C100.84 146.725 70.5065 141.534 68.2328 141.403C49.069 140.307 20.9151 161.35 25.0958 166.691Z" fill="#F7A9A0"/>
<path d="M100.18 146.734C100.18 146.734 117.919 149.123 126.793 152.965C138.685 158.099 146.586 166.915 149.645 170.766C156.037 178.852 165.236 202.34 158.122 205.891C151.699 209.105 143.652 184.67 143.652 184.67C143.652 184.67 156.456 208.374 147.916 210.969C139.377 213.565 131.833 184.736 131.833 184.736C131.833 184.736 144.406 209.348 135.102 210.782C128.092 211.869 119.616 186.085 119.616 186.085C119.616 186.085 130.23 207.315 123.074 208.702C115.163 210.285 105.68 186.862 105.68 186.862C86.8205 187.659 77.4743 181.138 71.4391 175.797C69.9827 174.523 100.18 146.734 100.18 146.734Z" fill="#F7A9A0"/>
<path d="M139.786 176.238C141.399 178.974 143.065 181.728 144.396 184.586C145.727 187.443 146.963 190.338 148 193.29C149.447 197.127 150.389 201.101 150.808 205.132C149.467 198.03 144.847 187.743 143.474 184.886C142.101 182.028 140.959 179.124 139.618 176.275C139.65 176.2 139.786 176.172 139.786 176.238Z" fill="#263238"/>
<path d="M128.186 180.37C130.083 183.949 132.116 187.434 133.834 191.079C135.552 194.723 136.81 198.293 138.235 202.022C138.35 202.303 138.14 202.265 138.015 201.975C136.422 198.302 134.63 195.023 132.996 191.36C131.361 187.696 129.852 183.996 128.092 180.407C128.061 180.351 128.165 180.304 128.186 180.37Z" fill="#263238"/>
<path d="M117.51 182.318C120.563 187.737 122.982 193.423 124.729 199.286C124.834 199.567 124.561 199.492 124.446 199.201C122.162 193.524 120.423 189.055 117.3 182.421C117.248 182.318 117.436 182.178 117.51 182.318Z" fill="#263238"/>
<path d="M137.302 158.998C139.37 160.2 141.3 161.581 143.065 163.121C144.857 164.64 146.511 166.285 148.01 168.039C148.775 168.911 149.456 169.829 150.169 170.738C150.881 171.647 151.5 172.612 152.034 173.548C153.218 175.487 154.18 177.527 154.905 179.638C154.287 178.702 153.857 177.662 153.176 176.734L152.296 175.301C151.992 174.832 151.657 174.364 151.342 173.914C150.052 172.066 148.653 170.28 147.151 168.564C145.684 166.84 144.102 165.182 142.468 163.58C141.64 162.774 140.802 161.987 139.932 161.219C139.062 160.45 138.214 159.738 137.302 158.998Z" fill="#263238"/>
<path d="M103.878 146.735L67.2058 183.274C67.2058 183.274 30.125 175.657 24.666 167.159C21.0722 161.538 48.985 138.893 70.0558 141.535L103.878 146.735Z" fill="#95EAF7"/>
<path d="M51.8665 148.617C51.8686 148.785 51.8148 148.949 51.7119 149.089C51.6091 149.229 51.462 149.339 51.2892 149.404C51.1165 149.469 50.926 149.486 50.7421 149.454C50.5582 149.422 50.3893 149.341 50.2568 149.223C50.1242 149.104 50.0342 148.953 49.9982 148.789C49.9621 148.625 49.9817 148.454 50.0543 148.3C50.127 148.145 50.2495 148.014 50.4062 147.922C50.5628 147.83 50.7466 147.782 50.934 147.784C51.1813 147.784 51.4185 147.871 51.5934 148.028C51.7683 148.184 51.8665 148.396 51.8665 148.617ZM66.022 147.784C65.8375 147.784 65.6572 147.832 65.5039 147.924C65.3505 148.016 65.231 148.146 65.1604 148.298C65.0898 148.451 65.0714 148.618 65.1074 148.78C65.1433 148.942 65.2322 149.09 65.3626 149.207C65.493 149.324 65.6592 149.403 65.8401 149.435C66.0209 149.467 66.2084 149.451 66.3788 149.388C66.5492 149.325 66.6949 149.218 66.7973 149.081C66.8998 148.944 66.9545 148.782 66.9545 148.617C66.9545 148.396 66.8562 148.184 66.6814 148.028C66.5065 147.871 66.2693 147.784 66.022 147.784ZM81.11 147.784C80.926 147.785 80.7468 147.836 80.5948 147.929C80.4428 148.021 80.3249 148.152 80.2559 148.305C80.187 148.457 80.17 148.625 80.2071 148.786C80.2443 148.947 80.3339 149.095 80.4648 149.21C80.5956 149.326 80.7617 149.404 80.9423 149.436C81.1229 149.467 81.3099 149.45 81.4797 149.387C81.6495 149.323 81.7945 149.217 81.8965 149.08C81.9985 148.943 82.053 148.782 82.053 148.617C82.053 148.507 82.0285 148.398 81.981 148.296C81.9335 148.194 81.8639 148.102 81.7762 148.024C81.6885 147.947 81.5844 147.886 81.4701 147.844C81.3557 147.803 81.2333 147.782 81.11 147.784ZM96.2085 147.784C96.024 147.784 95.8437 147.832 95.6904 147.924C95.537 148.016 95.4175 148.146 95.3469 148.298C95.2763 148.451 95.2579 148.618 95.2938 148.78C95.3298 148.942 95.4186 149.09 95.5491 149.207C95.6795 149.324 95.8456 149.403 96.0265 149.435C96.2074 149.467 96.3949 149.451 96.5653 149.388C96.7357 149.325 96.8814 149.218 96.9838 149.081C97.0863 148.944 97.141 148.782 97.141 148.617C97.141 148.396 97.0427 148.184 96.8678 148.028C96.693 147.871 96.4558 147.784 96.2085 147.784ZM35.8355 165.838C35.6515 165.84 35.4723 165.89 35.3203 165.983C35.1683 166.076 35.0504 166.207 34.9815 166.359C34.9125 166.512 34.8955 166.679 34.9327 166.84C34.9698 167.001 35.0594 167.149 35.1903 167.265C35.3211 167.38 35.4873 167.459 35.6679 167.49C35.8485 167.522 36.0354 167.505 36.2052 167.441C36.375 167.378 36.52 167.271 36.622 167.134C36.724 166.997 36.7785 166.836 36.7785 166.672C36.7785 166.561 36.754 166.452 36.7065 166.35C36.659 166.249 36.5894 166.156 36.5017 166.079C36.414 166.001 36.3099 165.94 36.1956 165.899C36.0812 165.857 35.9588 165.837 35.8355 165.838ZM50.934 165.838C50.7495 165.838 50.5692 165.887 50.4159 165.978C50.2625 166.07 50.143 166.2 50.0724 166.353C50.0019 166.505 49.9834 166.673 50.0194 166.834C50.0554 166.996 50.1442 167.145 50.2746 167.261C50.405 167.378 50.5712 167.457 50.752 167.49C50.9329 167.522 51.1204 167.505 51.2908 167.442C51.4612 167.379 51.6069 167.272 51.7093 167.135C51.8118 166.998 51.8665 166.837 51.8665 166.672C51.8665 166.451 51.7683 166.239 51.5934 166.082C51.4185 165.926 51.1813 165.838 50.934 165.838ZM66.022 165.838C65.8375 165.838 65.6572 165.887 65.5039 165.978C65.3505 166.07 65.231 166.2 65.1604 166.353C65.0898 166.505 65.0714 166.673 65.1074 166.834C65.1433 166.996 65.2322 167.145 65.3626 167.261C65.493 167.378 65.6592 167.457 65.8401 167.49C66.0209 167.522 66.2084 167.505 66.3788 167.442C66.5492 167.379 66.6949 167.272 66.7973 167.135C66.8998 166.998 66.9545 166.837 66.9545 166.672C66.9545 166.451 66.8562 166.239 66.6814 166.082C66.5065 165.926 66.2693 165.838 66.022 165.838ZM81.11 165.838C80.926 165.84 80.7468 165.89 80.5948 165.983C80.4428 166.076 80.3249 166.207 80.2559 166.359C80.187 166.512 80.17 166.679 80.2071 166.84C80.2443 167.001 80.3339 167.149 80.4648 167.265C80.5956 167.38 80.7617 167.459 80.9423 167.49C81.1229 167.522 81.3099 167.505 81.4797 167.441C81.6495 167.378 81.7945 167.271 81.8965 167.134C81.9985 166.997 82.053 166.836 82.053 166.672C82.053 166.561 82.0285 166.452 81.981 166.35C81.9335 166.249 81.8639 166.156 81.7762 166.079C81.6885 166.001 81.5844 165.94 81.4701 165.899C81.3557 165.857 81.2333 165.837 81.11 165.838ZM43.39 157.19C43.203 157.19 43.0203 157.24 42.865 157.333C42.7097 157.426 42.5888 157.558 42.5178 157.713C42.4467 157.868 42.4287 158.038 42.4659 158.201C42.5032 158.365 42.594 158.515 42.727 158.633C42.8599 158.751 43.0289 158.83 43.2125 158.862C43.3961 158.893 43.586 158.875 43.7582 158.81C43.9303 158.744 44.0768 158.635 44.1792 158.495C44.2815 158.355 44.335 158.191 44.333 158.024C44.333 157.914 44.3085 157.805 44.261 157.703C44.2135 157.601 44.1439 157.509 44.0562 157.431C43.9684 157.354 43.8644 157.292 43.75 157.251C43.6357 157.21 43.5133 157.189 43.39 157.19ZM58.4885 157.19C58.3011 157.188 58.1173 157.236 57.9606 157.328C57.804 157.42 57.6815 157.552 57.6088 157.706C57.5362 157.861 57.5166 158.031 57.5526 158.196C57.5887 158.36 57.6787 158.511 57.8112 158.63C57.9437 158.748 58.1127 158.829 58.2966 158.861C58.4805 158.893 58.671 158.876 58.8437 158.811C59.0164 158.746 59.1636 158.636 59.2664 158.496C59.3692 158.356 59.423 158.192 59.421 158.024C59.421 157.914 59.3965 157.805 59.349 157.703C59.3015 157.601 59.2319 157.509 59.1441 157.431C59.0564 157.354 58.9524 157.292 58.8381 157.251C58.7237 157.21 58.6013 157.189 58.478 157.19H58.4885ZM73.5765 157.19C73.3895 157.19 73.2068 157.24 73.0515 157.333C72.8962 157.426 72.7753 157.558 72.7043 157.713C72.6332 157.868 72.6152 158.038 72.6524 158.201C72.6897 158.365 72.7805 158.515 72.9135 158.633C73.0464 158.751 73.2154 158.83 73.399 158.862C73.5826 158.893 73.7725 158.875 73.9446 158.81C74.1168 158.744 74.2633 158.635 74.3656 158.495C74.468 158.355 74.5215 158.191 74.5195 158.024C74.5195 157.913 74.4947 157.803 74.4465 157.701C74.3984 157.598 74.3278 157.505 74.239 157.428C74.1501 157.35 74.0448 157.289 73.9293 157.248C73.8137 157.207 73.6902 157.188 73.566 157.19H73.5765ZM88.6749 157.19C88.4876 157.188 88.3038 157.236 88.1471 157.328C87.9905 157.42 87.868 157.552 87.7953 157.706C87.7226 157.861 87.7031 158.031 87.7391 158.196C87.7752 158.36 87.8652 158.511 87.9977 158.63C88.1302 158.748 88.2992 158.829 88.4831 158.861C88.667 158.893 88.8575 158.876 89.0302 158.811C89.2029 158.746 89.3501 158.636 89.4529 158.496C89.5557 158.356 89.6095 158.192 89.6075 158.024C89.6075 157.914 89.583 157.805 89.5355 157.703C89.488 157.601 89.4183 157.509 89.3306 157.431C89.2429 157.354 89.1389 157.292 89.0245 157.251C88.9102 157.21 88.7878 157.189 88.6645 157.19H88.6749ZM43.39 175.245C43.203 175.245 43.0203 175.294 42.865 175.387C42.7097 175.48 42.5888 175.613 42.5178 175.767C42.4467 175.922 42.4287 176.092 42.4659 176.256C42.5032 176.42 42.594 176.57 42.727 176.687C42.8599 176.805 43.0289 176.884 43.2125 176.916C43.3961 176.947 43.586 176.929 43.7582 176.864C43.9303 176.799 44.0768 176.689 44.1792 176.549C44.2815 176.41 44.335 176.246 44.333 176.078C44.333 175.968 44.3085 175.859 44.261 175.757C44.2135 175.655 44.1439 175.563 44.0562 175.485C43.9684 175.408 43.8644 175.347 43.75 175.305C43.6357 175.264 43.5133 175.243 43.39 175.245ZM58.4885 175.245C58.3011 175.243 58.1173 175.291 57.9606 175.383C57.804 175.475 57.6815 175.606 57.6088 175.761C57.5362 175.915 57.5166 176.086 57.5526 176.25C57.5887 176.414 57.6787 176.565 57.8112 176.684C57.9437 176.802 58.1127 176.883 58.2966 176.915C58.4805 176.947 58.671 176.93 58.8437 176.865C59.0164 176.8 59.1636 176.69 59.2664 176.55C59.3692 176.41 59.423 176.246 59.421 176.078C59.421 175.968 59.3965 175.859 59.349 175.757C59.3015 175.655 59.2319 175.563 59.1441 175.485C59.0564 175.408 58.9524 175.347 58.8381 175.305C58.7237 175.264 58.6013 175.243 58.478 175.245H58.4885ZM73.5869 175.245C73.3368 175.245 73.097 175.333 72.9201 175.492C72.7433 175.65 72.6439 175.864 72.6439 176.088C72.6439 176.198 72.6684 176.307 72.7159 176.409C72.7634 176.511 72.8331 176.603 72.9208 176.681C73.0085 176.758 73.1125 176.82 73.2268 176.861C73.3412 176.902 73.4636 176.923 73.5869 176.922L74.509 175.985C74.4833 175.779 74.3741 175.589 74.2022 175.451C74.0303 175.313 73.8076 175.236 73.5765 175.235L73.5869 175.245Z" fill="white"/>
<path d="M44.9301 147.447C48.3249 145.245 57.8911 140.11 70.0767 141.478C70.1815 141.478 70.192 141.647 70.0767 141.638C60.8773 141.403 48.4611 145.704 44.9301 147.578C44.9196 147.625 44.8463 147.512 44.9301 147.447Z" fill="#263238"/>
<path d="M57.189 177.128C60.9819 172.921 65.0159 168.902 69.0708 164.892C73.1257 160.882 77.1701 156.853 81.3402 152.928C83.6873 150.707 86.0343 148.477 88.4756 146.369C88.5385 146.313 88.6537 146.369 88.6013 146.463C84.8189 150.66 80.7849 154.708 76.7719 158.737C72.7589 162.765 68.6726 166.775 64.5653 170.748C62.2393 172.987 59.8713 175.189 57.4299 177.306C57.3042 177.409 57.0842 177.25 57.189 177.128Z" fill="#263238"/>
<path d="M103.952 146.257C101.699 145.651 99.4024 145.185 97.0782 144.861C94.7627 144.467 92.4366 144.12 90.121 143.783C85.5003 143.118 75.7874 141.244 67.248 141.263C67.1537 141.263 67.6357 141.675 67.73 141.675C71.7954 141.478 100.924 146.659 103.354 146.809C103.257 146.948 103.169 147.092 103.092 147.24C103.092 147.353 103.166 147.484 103.292 147.409C103.595 147.231 103.805 147.006 104.088 146.809C104.142 146.774 104.184 146.725 104.207 146.669C104.231 146.613 104.236 146.552 104.221 146.493C104.207 146.435 104.174 146.381 104.126 146.339C104.078 146.297 104.017 146.268 103.952 146.257Z" fill="#263238"/>
<path d="M133.708 77.2431C168.746 104.573 196.303 138.339 194.48 146.781C191.179 162.502 168.076 163.486 164.534 160.085C150.347 146.341 135.374 119.713 119.155 90.0039C104.664 63.4517 122.172 68.2581 133.708 77.2431Z" fill="#95EAF7"/>
<path d="M127.328 76.4001C127.33 76.5676 127.276 76.7319 127.173 76.872C127.07 77.0121 126.923 77.1216 126.75 77.1866C126.578 77.2516 126.387 77.2691 126.203 77.2369C126.019 77.2046 125.85 77.1241 125.718 77.0056C125.585 76.8871 125.495 76.736 125.459 76.5716C125.423 76.4072 125.443 76.2368 125.515 76.0824C125.588 75.9279 125.711 75.7963 125.867 75.7044C126.024 75.6125 126.208 75.5644 126.395 75.5662C126.642 75.5662 126.88 75.6541 127.054 75.8104C127.229 75.9668 127.328 76.1789 127.328 76.4001ZM126.395 93.6206C126.208 93.6187 126.024 93.6668 125.867 93.7588C125.711 93.8507 125.588 93.9823 125.515 94.1368C125.443 94.2912 125.423 94.4615 125.459 94.626C125.495 94.7904 125.585 94.9415 125.718 95.06C125.85 95.1785 126.019 95.259 126.203 95.2912C126.387 95.3234 126.578 95.306 126.75 95.241C126.923 95.176 127.07 95.0665 127.173 94.9264C127.276 94.7863 127.33 94.622 127.328 94.4544C127.328 94.2333 127.229 94.0212 127.054 93.8648C126.88 93.7084 126.642 93.6206 126.395 93.6206ZM141.483 93.6206C141.296 93.6206 141.113 93.6703 140.958 93.7633C140.803 93.8564 140.682 93.9887 140.611 94.1433C140.54 94.2979 140.522 94.468 140.559 94.6318C140.596 94.7956 140.687 94.9458 140.82 95.0634C140.953 95.1809 141.122 95.2605 141.306 95.292C141.489 95.3234 141.679 95.3054 141.851 95.2401C142.023 95.1749 142.17 95.0653 142.272 94.9254C142.375 94.7855 142.428 94.6216 142.426 94.4544C142.426 94.3441 142.402 94.2349 142.354 94.1332C142.307 94.0314 142.237 93.939 142.149 93.8615C142.062 93.7839 141.958 93.7227 141.843 93.6813C141.729 93.64 141.606 93.6193 141.483 93.6206ZM118.83 84.9728C118.643 84.971 118.459 85.0191 118.302 85.111C118.146 85.203 118.023 85.3346 117.95 85.489C117.878 85.6435 117.858 85.8138 117.894 85.9782C117.93 86.1427 118.02 86.2938 118.153 86.4123C118.285 86.5308 118.454 86.6113 118.638 86.6435C118.822 86.6757 119.013 86.6582 119.185 86.5933C119.358 86.5283 119.505 86.4187 119.608 86.2787C119.711 86.1386 119.765 85.9743 119.763 85.8067C119.763 85.5856 119.664 85.3735 119.49 85.2171C119.315 85.0607 119.077 84.9728 118.83 84.9728ZM133.918 84.9728C133.731 84.971 133.547 85.0191 133.39 85.111C133.234 85.203 133.111 85.3346 133.039 85.489C132.966 85.6435 132.946 85.8138 132.982 85.9782C133.018 86.1427 133.108 86.2938 133.241 86.4123C133.373 86.5308 133.542 86.6113 133.726 86.6435C133.91 86.6757 134.101 86.6582 134.273 86.5933C134.446 86.5283 134.593 86.4187 134.696 86.2787C134.799 86.1386 134.853 85.9743 134.851 85.8067C134.851 85.5888 134.755 85.3794 134.585 85.2236C134.415 85.0677 134.183 84.9777 133.939 84.9728H133.918ZM141.462 111.675C141.275 111.675 141.092 111.725 140.937 111.818C140.782 111.911 140.661 112.043 140.59 112.198C140.519 112.352 140.501 112.522 140.538 112.686C140.575 112.85 140.666 113 140.799 113.118C140.932 113.235 141.101 113.315 141.285 113.346C141.468 113.378 141.658 113.36 141.83 113.294C142.002 113.229 142.149 113.12 142.251 112.98C142.354 112.84 142.407 112.676 142.405 112.509C142.405 112.289 142.308 112.079 142.136 111.922C141.963 111.766 141.729 111.677 141.483 111.675H141.462ZM156.561 111.675C156.373 111.673 156.189 111.721 156.033 111.813C155.876 111.905 155.754 112.037 155.681 112.191C155.608 112.346 155.589 112.516 155.625 112.68C155.661 112.845 155.751 112.996 155.883 113.114C156.016 113.233 156.185 113.313 156.369 113.346C156.553 113.378 156.743 113.36 156.916 113.295C157.089 113.23 157.236 113.121 157.339 112.981C157.441 112.841 157.495 112.676 157.493 112.509C157.493 112.399 157.469 112.289 157.421 112.188C157.374 112.086 157.304 111.993 157.216 111.916C157.129 111.838 157.025 111.777 156.91 111.736C156.796 111.694 156.673 111.674 156.55 111.675H156.561ZM171.324 111.722C171.145 111.782 170.992 111.89 170.883 112.031C170.775 112.171 170.716 112.338 170.716 112.509C170.716 112.73 170.814 112.942 170.989 113.098C171.164 113.255 171.401 113.343 171.649 113.343C171.81 113.342 171.969 113.305 172.11 113.234C172.251 113.164 172.37 113.063 172.455 112.94L171.324 111.722ZM133.918 103.027C133.731 103.025 133.547 103.073 133.39 103.165C133.234 103.257 133.111 103.389 133.039 103.543C132.966 103.698 132.946 103.868 132.982 104.033C133.018 104.197 133.108 104.348 133.241 104.467C133.373 104.585 133.542 104.666 133.726 104.698C133.91 104.73 134.101 104.713 134.273 104.648C134.446 104.583 134.593 104.473 134.696 104.333C134.799 104.193 134.853 104.029 134.851 103.861C134.851 103.643 134.755 103.434 134.585 103.278C134.415 103.122 134.183 103.032 133.939 103.027H133.918ZM149.006 103.027C148.819 103.027 148.636 103.077 148.481 103.17C148.326 103.263 148.205 103.395 148.134 103.55C148.063 103.705 148.045 103.875 148.082 104.038C148.119 104.202 148.21 104.352 148.343 104.47C148.476 104.588 148.645 104.667 148.829 104.699C149.012 104.73 149.202 104.712 149.374 104.647C149.546 104.581 149.693 104.472 149.795 104.332C149.898 104.192 149.951 104.028 149.949 103.861C149.949 103.642 149.852 103.431 149.68 103.275C149.507 103.119 149.273 103.03 149.027 103.027H149.006ZM163.308 103.421C163.219 103.554 163.172 103.706 163.172 103.861C163.171 103.971 163.194 104.081 163.24 104.183C163.286 104.285 163.355 104.378 163.441 104.457C163.528 104.535 163.632 104.597 163.745 104.64C163.859 104.682 163.981 104.704 164.105 104.704C164.239 104.706 164.371 104.68 164.492 104.629C164.126 104.217 163.727 103.824 163.329 103.421H163.308ZM141.881 129.786C142.08 130.095 142.258 130.404 142.447 130.722C142.452 130.676 142.452 130.629 142.447 130.582C142.455 130.413 142.405 130.247 142.304 130.104C142.203 129.962 142.055 129.851 141.881 129.786ZM156.55 129.711C156.363 129.709 156.179 129.757 156.022 129.849C155.866 129.941 155.743 130.072 155.671 130.227C155.598 130.381 155.578 130.552 155.614 130.716C155.65 130.88 155.74 131.032 155.873 131.15C156.005 131.268 156.174 131.349 156.358 131.381C156.542 131.413 156.733 131.396 156.905 131.331C157.078 131.266 157.225 131.156 157.328 131.016C157.431 130.876 157.485 130.712 157.483 130.544C157.483 130.323 157.384 130.111 157.21 129.955C157.035 129.798 156.797 129.711 156.55 129.711ZM171.638 129.711C171.451 129.709 171.267 129.757 171.11 129.849C170.954 129.941 170.831 130.072 170.759 130.227C170.686 130.381 170.666 130.552 170.702 130.716C170.738 130.88 170.828 131.032 170.961 131.15C171.093 131.268 171.262 131.349 171.446 131.381C171.63 131.413 171.821 131.396 171.993 131.331C172.166 131.266 172.313 131.156 172.416 131.016C172.519 130.876 172.573 130.712 172.571 130.544C172.571 130.328 172.477 130.12 172.309 129.965C172.141 129.809 171.911 129.718 171.67 129.711H171.638ZM186.37 129.767C186.175 129.845 186.016 129.981 185.919 130.151C185.821 130.321 185.791 130.516 185.834 130.703C185.877 130.891 185.989 131.06 186.153 131.182C186.317 131.305 186.523 131.374 186.737 131.378C186.972 131.379 187.199 131.302 187.376 131.163C187.082 130.722 186.747 130.254 186.401 129.786L186.37 129.767ZM148.996 121.063C148.809 121.063 148.626 121.113 148.471 121.206C148.315 121.299 148.195 121.431 148.123 121.586C148.052 121.74 148.034 121.91 148.072 122.074C148.109 122.238 148.2 122.388 148.333 122.506C148.466 122.623 148.635 122.703 148.818 122.734C149.002 122.766 149.192 122.748 149.364 122.682C149.536 122.617 149.683 122.508 149.785 122.368C149.887 122.228 149.941 122.064 149.939 121.897C149.933 121.682 149.836 121.477 149.666 121.326C149.496 121.174 149.267 121.086 149.027 121.082L148.996 121.063ZM164.094 121.063C163.907 121.061 163.723 121.109 163.566 121.201C163.41 121.293 163.287 121.425 163.215 121.579C163.142 121.733 163.122 121.904 163.158 122.068C163.194 122.233 163.284 122.384 163.417 122.502C163.549 122.621 163.718 122.701 163.902 122.733C164.086 122.766 164.277 122.748 164.449 122.683C164.622 122.618 164.769 122.509 164.872 122.369C164.975 122.229 165.029 122.064 165.027 121.897C165.021 121.684 164.925 121.48 164.758 121.329C164.59 121.177 164.364 121.089 164.126 121.082L164.094 121.063ZM180.115 121.728L179.675 121.213C179.532 121.138 179.369 121.099 179.203 121.1C178.971 121.122 178.757 121.22 178.601 121.375C178.446 121.53 178.359 121.731 178.359 121.939C178.359 122.147 178.446 122.348 178.601 122.503C178.757 122.658 178.971 122.755 179.203 122.777C179.451 122.775 179.687 122.687 179.863 122.531C180.039 122.375 180.141 122.165 180.146 121.944C180.152 121.878 180.152 121.812 180.146 121.747L180.115 121.728ZM156.55 147.784C156.366 147.784 156.185 147.833 156.032 147.924C155.879 148.016 155.759 148.146 155.689 148.298C155.618 148.451 155.6 148.618 155.636 148.78C155.672 148.942 155.76 149.091 155.891 149.207C156.021 149.324 156.187 149.403 156.368 149.435C156.549 149.468 156.737 149.451 156.907 149.388C157.077 149.325 157.223 149.218 157.326 149.081C157.428 148.944 157.483 148.782 157.483 148.618C157.483 148.396 157.384 148.184 157.21 148.028C157.035 147.872 156.797 147.784 156.55 147.784ZM171.638 147.784C171.454 147.784 171.273 147.833 171.12 147.924C170.967 148.016 170.847 148.146 170.777 148.298C170.706 148.451 170.688 148.618 170.724 148.78C170.76 148.942 170.848 149.091 170.979 149.207C171.109 149.324 171.275 149.403 171.456 149.435C171.637 149.468 171.825 149.451 171.995 149.388C172.165 149.325 172.311 149.218 172.414 149.081C172.516 148.944 172.571 148.782 172.571 148.618C172.571 148.401 172.477 148.193 172.309 148.038C172.141 147.882 171.911 147.791 171.67 147.784H171.638ZM186.737 147.784C186.552 147.784 186.372 147.833 186.219 147.924C186.065 148.016 185.946 148.146 185.875 148.298C185.805 148.451 185.786 148.618 185.822 148.78C185.858 148.942 185.947 149.091 186.077 149.207C186.208 149.324 186.374 149.403 186.555 149.435C186.736 149.468 186.923 149.451 187.093 149.388C187.264 149.325 187.41 149.218 187.512 149.081C187.614 148.944 187.669 148.782 187.669 148.618C187.669 148.401 187.575 148.193 187.407 148.038C187.239 147.882 187.01 147.791 186.768 147.784H186.737ZM149.017 139.136C148.83 139.136 148.647 139.186 148.492 139.279C148.336 139.372 148.215 139.504 148.144 139.659C148.073 139.813 148.055 139.983 148.093 140.147C148.13 140.311 148.221 140.461 148.354 140.579C148.487 140.696 148.656 140.776 148.839 140.807C149.023 140.839 149.213 140.821 149.385 140.755C149.557 140.69 149.703 140.581 149.806 140.441C149.908 140.301 149.962 140.137 149.96 139.97C149.96 139.749 149.861 139.537 149.686 139.38C149.512 139.224 149.274 139.136 149.027 139.136H149.017ZM164.115 139.136C163.928 139.134 163.744 139.182 163.587 139.274C163.431 139.366 163.308 139.498 163.235 139.652C163.163 139.807 163.143 139.977 163.179 140.141C163.215 140.306 163.305 140.457 163.438 140.575C163.57 140.694 163.739 140.774 163.923 140.807C164.107 140.839 164.298 140.821 164.47 140.756C164.643 140.691 164.79 140.582 164.893 140.442C164.996 140.302 165.05 140.137 165.048 139.97C165.048 139.75 164.951 139.54 164.778 139.383C164.606 139.227 164.371 139.138 164.126 139.136H164.115ZM179.203 139.136C179.016 139.136 178.833 139.186 178.678 139.279C178.523 139.372 178.402 139.504 178.331 139.659C178.26 139.813 178.242 139.983 178.279 140.147C178.316 140.311 178.407 140.461 178.54 140.579C178.673 140.696 178.842 140.776 179.026 140.807C179.209 140.839 179.399 140.821 179.571 140.755C179.743 140.69 179.89 140.581 179.992 140.441C180.095 140.301 180.148 140.137 180.146 139.97C180.146 139.749 180.048 139.537 179.873 139.38C179.698 139.224 179.461 139.136 179.214 139.136H179.203ZM164.115 157.19C163.928 157.188 163.744 157.237 163.587 157.329C163.431 157.42 163.308 157.552 163.235 157.706C163.163 157.861 163.143 158.031 163.179 158.196C163.215 158.36 163.305 158.511 163.438 158.63C163.57 158.748 163.739 158.829 163.923 158.861C164.107 158.893 164.298 158.876 164.47 158.811C164.643 158.746 164.79 158.636 164.893 158.496C164.996 158.356 165.05 158.192 165.048 158.024C165.048 157.805 164.951 157.594 164.778 157.438C164.606 157.282 164.371 157.193 164.126 157.19H164.115ZM179.203 157.19C179.016 157.19 178.833 157.24 178.678 157.333C178.523 157.426 178.402 157.558 178.331 157.713C178.26 157.868 178.242 158.038 178.279 158.202C178.316 158.365 178.407 158.516 178.54 158.633C178.673 158.751 178.842 158.83 179.026 158.862C179.209 158.893 179.399 158.875 179.571 158.81C179.743 158.745 179.89 158.635 179.992 158.495C180.095 158.355 180.148 158.191 180.146 158.024C180.146 157.803 180.048 157.591 179.873 157.435C179.698 157.278 179.461 157.19 179.214 157.19H179.203Z" fill="white"/>
<path d="M158.751 153.948C156.183 150.388 153.763 146.715 151.311 143.08C148.86 139.445 146.429 135.791 144.04 132.118C139.325 124.857 134.945 117.437 130.722 109.941C128.334 105.697 125.903 101.509 123.629 97.1805C123.556 97.04 123.304 97.1805 123.357 97.2836C125.557 102.28 127.925 107.196 130.461 112.031L130.356 111.909C129.79 111.225 129.224 110.541 128.669 109.848C127.569 108.48 126.573 107.084 125.526 105.65C125.452 105.538 125.253 105.65 125.326 105.763C126.46 107.713 127.741 109.591 129.161 111.384C129.855 112.222 130.604 113.023 131.404 113.783L131.477 113.839C132.64 115.994 133.824 118.139 135.071 120.266C139.42 127.821 144.19 135.175 149.362 142.302C150.829 144.298 152.307 146.284 153.847 148.242C155.387 150.201 156.99 152.093 158.625 154.023C158.646 154.145 158.834 154.07 158.751 153.948Z" fill="#263238"/>
<path d="M170.339 157.04C163.696 148.524 167.028 131.584 174.363 90.922C175.41 85.3005 223.126 84.8602 222.393 90.922C221.471 98.5485 212.963 128.689 210.752 133.083C199.886 154.82 174.834 162.821 170.339 157.04Z" fill="#F7A9A0"/>
<path d="M220.841 96.169C222.822 91.6156 231.927 66.3751 232.367 59.976C232.807 53.5768 232.65 35.0727 227.201 34.267C221.753 33.4612 221.323 38.8766 221.323 38.8766C221.323 38.8766 219.867 31.0721 214.303 30.6973C208.74 30.3226 208.373 38.7829 208.373 38.7829C208.373 38.7829 206.225 30.866 200.64 30.8566C195.056 30.8472 196.365 39.3919 196.365 39.3919C196.365 39.3919 194.773 32.0746 190.173 33.7704C184.641 35.8316 189.272 49.0328 188.172 56.0596C187.92 57.6618 180.544 88.1022 180.544 88.1022L220.841 96.169Z" fill="#F7A9A0"/>
<path d="M196.219 38.6616C199.603 48.3774 199.205 53.1463 196.313 62.8153C196.261 63.012 196.565 63.1244 196.638 62.937C200.431 53.6897 201.877 47.7684 196.743 38.4929C196.491 38.0338 196.062 38.2025 196.219 38.6616Z" fill="#263238"/>
<path d="M208.111 38.0146C210.636 48.3769 210.259 53.558 208.111 63.8922C208.111 64.0327 208.363 64.0983 208.404 63.9484C211.548 53.9796 212.816 48.0208 208.771 37.9865C208.53 37.5274 207.996 37.5461 208.111 38.0146Z" fill="#263238"/>
<path d="M221.219 39.3917C222.853 49.5853 222.707 55.3193 219.123 65.0632C219.103 65.1104 219.103 65.1631 219.126 65.2096C219.149 65.2562 219.191 65.2928 219.244 65.3115C219.297 65.3301 219.356 65.3292 219.408 65.309C219.46 65.2888 219.501 65.2509 219.522 65.2037C224.247 55.5441 224.488 48.4423 221.554 39.3823C221.366 38.7639 221.114 38.7546 221.219 39.3917Z" fill="#263238"/>
<path d="M173.671 96.0662C173.671 96.0662 169.888 83.7832 169.563 78.0493C169.239 72.3153 176.803 50.5883 182.137 51.8156C189.042 53.3616 187.438 66.6845 185.699 73.1117C185.699 73.1117 201.667 76.672 202.83 86.4534C203.993 96.2348 173.671 96.0662 173.671 96.0662Z" fill="#F7A9A0"/>
<path d="M183.897 52.7617C189.052 58.2239 186.16 66.5344 184.945 72.8867C184.922 72.9795 184.925 73.0759 184.952 73.1676C184.98 73.2594 185.032 73.3438 185.104 73.4137C185.176 73.4836 185.266 73.537 185.366 73.5692C185.466 73.6014 185.573 73.6115 185.678 73.5987C192.258 75.4726 200.934 79.8667 203.072 86.0972C203.085 86.1305 203.112 86.1584 203.147 86.1758C203.181 86.1933 203.222 86.1991 203.261 86.1924C203.3 86.1856 203.335 86.1667 203.36 86.1389C203.384 86.1112 203.397 86.0765 203.396 86.041C202.118 79.0703 193.966 74.1421 186.632 72.4932C187.942 65.991 190.435 57.5025 183.897 52.7149C183.908 52.6868 183.855 52.7243 183.897 52.7617Z" fill="#263238"/>
<path d="M223.147 104.695L167.771 118.749C167.771 118.749 156.728 151.203 163.748 159.345C171.261 168.049 206.12 154.557 213.056 135.594L223.147 104.695Z" fill="#95EAF7"/>
<path d="M202.789 112.509C202.789 112.674 202.734 112.835 202.632 112.972C202.529 113.109 202.384 113.216 202.213 113.279C202.043 113.342 201.855 113.359 201.675 113.327C201.494 113.295 201.327 113.215 201.197 113.099C201.067 112.982 200.978 112.833 200.942 112.672C200.906 112.51 200.924 112.342 200.995 112.19C201.065 112.037 201.185 111.907 201.338 111.816C201.492 111.724 201.672 111.675 201.856 111.675C202.104 111.675 202.341 111.763 202.516 111.919C202.691 112.076 202.789 112.288 202.789 112.509ZM216.944 111.675C216.757 111.675 216.575 111.725 216.419 111.818C216.264 111.911 216.143 112.043 216.072 112.198C216.001 112.352 215.983 112.522 216.02 112.686C216.058 112.85 216.148 113 216.281 113.118C216.414 113.235 216.583 113.315 216.767 113.346C216.951 113.378 217.14 113.36 217.313 113.295C217.485 113.229 217.631 113.12 217.734 112.98C217.836 112.84 217.89 112.676 217.887 112.509C217.887 112.399 217.863 112.289 217.815 112.188C217.768 112.086 217.698 111.993 217.611 111.916C217.523 111.838 217.419 111.777 217.305 111.736C217.19 111.694 217.068 111.674 216.944 111.675ZM171.67 129.711C171.483 129.709 171.299 129.757 171.142 129.849C170.985 129.941 170.863 130.072 170.79 130.227C170.718 130.381 170.698 130.552 170.734 130.716C170.77 130.88 170.86 131.032 170.993 131.15C171.125 131.269 171.294 131.349 171.478 131.381C171.662 131.414 171.852 131.396 172.025 131.331C172.198 131.266 172.345 131.157 172.448 131.016C172.551 130.876 172.605 130.712 172.602 130.545C172.602 130.323 172.504 130.111 172.329 129.955C172.154 129.799 171.917 129.711 171.67 129.711ZM186.768 129.711C186.581 129.709 186.397 129.757 186.241 129.849C186.084 129.941 185.961 130.072 185.889 130.227C185.816 130.381 185.797 130.552 185.833 130.716C185.869 130.88 185.959 131.032 186.091 131.15C186.224 131.269 186.393 131.349 186.577 131.381C186.76 131.414 186.951 131.396 187.124 131.331C187.296 131.266 187.444 131.157 187.546 131.016C187.649 130.876 187.703 130.712 187.701 130.545C187.701 130.323 187.603 130.111 187.428 129.955C187.253 129.799 187.016 129.711 186.768 129.711ZM201.856 129.711C201.669 129.709 201.485 129.757 201.329 129.849C201.172 129.941 201.049 130.072 200.977 130.227C200.904 130.381 200.885 130.552 200.921 130.716C200.957 130.88 201.047 131.032 201.179 131.15C201.312 131.269 201.481 131.349 201.665 131.381C201.848 131.414 202.039 131.396 202.212 131.331C202.384 131.266 202.532 131.157 202.634 131.016C202.737 130.876 202.791 130.712 202.789 130.545C202.789 130.323 202.691 130.111 202.516 129.955C202.341 129.799 202.104 129.711 201.856 129.711ZM179.214 121.063C179.027 121.063 178.844 121.113 178.689 121.206C178.534 121.299 178.413 121.431 178.342 121.586C178.271 121.74 178.253 121.91 178.29 122.074C178.327 122.238 178.418 122.388 178.551 122.506C178.684 122.623 178.853 122.703 179.036 122.734C179.22 122.766 179.41 122.748 179.582 122.682C179.754 122.617 179.901 122.508 180.003 122.368C180.105 122.228 180.159 122.064 180.157 121.897C180.151 121.677 180.049 121.469 179.873 121.316C179.696 121.163 179.459 121.079 179.214 121.082V121.063ZM194.312 121.063C194.125 121.061 193.941 121.109 193.785 121.201C193.628 121.293 193.505 121.425 193.433 121.579C193.36 121.734 193.341 121.904 193.377 122.068C193.413 122.233 193.503 122.384 193.635 122.502C193.768 122.621 193.937 122.701 194.121 122.734C194.304 122.766 194.495 122.748 194.668 122.683C194.84 122.618 194.988 122.509 195.09 122.369C195.193 122.229 195.247 122.064 195.245 121.897C195.242 121.786 195.215 121.676 195.164 121.575C195.113 121.473 195.04 121.382 194.95 121.306C194.859 121.23 194.752 121.171 194.635 121.132C194.519 121.094 194.395 121.077 194.271 121.082L194.312 121.063ZM209.4 121.063C209.213 121.063 209.031 121.113 208.875 121.206C208.72 121.299 208.599 121.431 208.528 121.586C208.457 121.74 208.439 121.91 208.476 122.074C208.514 122.238 208.604 122.388 208.737 122.506C208.87 122.623 209.039 122.703 209.223 122.734C209.407 122.766 209.597 122.748 209.769 122.682C209.941 122.617 210.087 122.508 210.19 122.368C210.292 122.228 210.346 122.064 210.343 121.897C210.338 121.677 210.236 121.469 210.059 121.316C209.883 121.163 209.646 121.079 209.4 121.082V121.063ZM171.68 147.765C171.496 147.765 171.316 147.814 171.162 147.906C171.009 147.997 170.889 148.127 170.819 148.28C170.748 148.432 170.73 148.6 170.766 148.762C170.802 148.923 170.891 149.072 171.021 149.189C171.151 149.305 171.318 149.385 171.498 149.417C171.679 149.449 171.867 149.432 172.037 149.369C172.208 149.306 172.353 149.199 172.456 149.062C172.558 148.925 172.613 148.764 172.613 148.599C172.607 148.379 172.505 148.171 172.329 148.018C172.152 147.865 171.915 147.781 171.67 147.784L171.68 147.765ZM186.779 147.765C186.594 147.765 186.414 147.814 186.261 147.906C186.107 147.997 185.988 148.127 185.917 148.28C185.847 148.432 185.828 148.6 185.864 148.762C185.9 148.923 185.989 149.072 186.12 149.189C186.25 149.305 186.416 149.385 186.597 149.417C186.778 149.449 186.965 149.432 187.136 149.369C187.306 149.306 187.452 149.199 187.554 149.062C187.657 148.925 187.711 148.764 187.711 148.599C187.706 148.379 187.604 148.171 187.427 148.018C187.251 147.865 187.014 147.781 186.768 147.784L186.779 147.765ZM201.867 147.765C201.682 147.765 201.502 147.814 201.349 147.906C201.195 147.997 201.076 148.127 201.005 148.28C200.935 148.432 200.916 148.6 200.952 148.762C200.988 148.923 201.077 149.072 201.208 149.189C201.338 149.305 201.504 149.385 201.685 149.417C201.866 149.449 202.053 149.432 202.224 149.369C202.394 149.306 202.54 149.199 202.642 149.062C202.745 148.925 202.799 148.764 202.799 148.599C202.794 148.379 202.692 148.171 202.515 148.018C202.339 147.865 202.102 147.781 201.856 147.784L201.867 147.765ZM164.147 139.117C163.96 139.115 163.776 139.164 163.619 139.255C163.462 139.347 163.34 139.479 163.267 139.633C163.195 139.788 163.175 139.958 163.211 140.123C163.247 140.287 163.337 140.438 163.47 140.557C163.602 140.675 163.771 140.756 163.955 140.788C164.139 140.82 164.329 140.803 164.502 140.738C164.675 140.673 164.822 140.563 164.925 140.423C165.028 140.283 165.082 140.119 165.079 139.951C165.077 139.842 165.05 139.734 165 139.633C164.951 139.533 164.88 139.443 164.792 139.367C164.703 139.291 164.599 139.232 164.484 139.192C164.37 139.153 164.248 139.134 164.126 139.136L164.147 139.117ZM179.235 139.117C179.048 139.117 178.865 139.167 178.71 139.26C178.555 139.353 178.434 139.485 178.363 139.64C178.292 139.795 178.274 139.965 178.311 140.129C178.348 140.292 178.439 140.443 178.572 140.56C178.705 140.678 178.874 140.757 179.057 140.789C179.241 140.82 179.431 140.802 179.603 140.737C179.775 140.672 179.922 140.562 180.024 140.422C180.126 140.282 180.18 140.118 180.178 139.951C180.175 139.841 180.148 139.732 180.098 139.631C180.048 139.53 179.976 139.439 179.886 139.364C179.797 139.288 179.691 139.229 179.576 139.19C179.46 139.15 179.337 139.132 179.214 139.136L179.235 139.117ZM194.333 139.117C194.146 139.115 193.962 139.164 193.806 139.255C193.649 139.347 193.526 139.479 193.454 139.633C193.381 139.788 193.362 139.958 193.398 140.123C193.434 140.287 193.524 140.438 193.656 140.557C193.789 140.675 193.958 140.756 194.142 140.788C194.325 140.82 194.516 140.803 194.689 140.738C194.861 140.673 195.009 140.563 195.111 140.423C195.214 140.283 195.268 140.119 195.266 139.951C195.263 139.838 195.235 139.727 195.183 139.624C195.131 139.522 195.056 139.429 194.963 139.353C194.87 139.277 194.761 139.218 194.642 139.181C194.523 139.144 194.396 139.128 194.271 139.136L194.333 139.117ZM209.421 139.117C209.234 139.117 209.052 139.167 208.896 139.26C208.741 139.353 208.62 139.485 208.549 139.64C208.478 139.795 208.46 139.965 208.497 140.129C208.535 140.292 208.625 140.443 208.758 140.56C208.891 140.678 209.06 140.757 209.244 140.789C209.428 140.82 209.617 140.802 209.79 140.737C209.962 140.672 210.108 140.562 210.211 140.422C210.313 140.282 210.366 140.118 210.364 139.951C210.362 139.841 210.335 139.732 210.284 139.631C210.234 139.53 210.162 139.439 210.073 139.364C209.983 139.288 209.878 139.229 209.762 139.19C209.647 139.15 209.524 139.132 209.4 139.136L209.421 139.117ZM164.147 157.172C163.96 157.17 163.776 157.218 163.619 157.31C163.462 157.402 163.34 157.533 163.267 157.688C163.195 157.842 163.175 158.013 163.211 158.177C163.247 158.341 163.337 158.493 163.47 158.611C163.602 158.73 163.771 158.81 163.955 158.842C164.139 158.875 164.329 158.857 164.502 158.792C164.675 158.727 164.822 158.618 164.925 158.477C165.028 158.337 165.082 158.173 165.079 158.006C165.077 157.896 165.05 157.788 165 157.688C164.951 157.588 164.88 157.497 164.792 157.421C164.703 157.346 164.599 157.286 164.484 157.247C164.37 157.207 164.248 157.188 164.126 157.19L164.147 157.172ZM179.235 157.172C179.048 157.172 178.865 157.221 178.71 157.314C178.555 157.408 178.434 157.54 178.363 157.694C178.292 157.849 178.274 158.019 178.311 158.183C178.348 158.347 178.439 158.497 178.572 158.614C178.705 158.732 178.874 158.812 179.057 158.843C179.241 158.875 179.431 158.856 179.603 158.791C179.775 158.726 179.922 158.616 180.024 158.477C180.126 158.337 180.18 158.173 180.178 158.006C180.175 157.895 180.148 157.786 180.098 157.686C180.048 157.585 179.976 157.494 179.886 157.418C179.797 157.342 179.691 157.283 179.576 157.244C179.46 157.205 179.337 157.187 179.214 157.19L179.235 157.172Z" fill="white"/>
<path d="M169.584 130.001C175.766 128.745 181.864 127.19 187.962 125.635C194.061 124.079 200.169 122.524 206.225 120.828C209.641 119.891 213.067 118.955 216.452 117.858C216.546 117.858 216.514 117.69 216.452 117.708C210.28 118.955 204.161 120.519 198.074 122.009C191.986 123.499 185.856 125.119 179.779 126.75C176.353 127.687 172.937 128.623 169.553 129.72C169.354 129.776 169.406 130.038 169.584 130.001Z" fill="#263238"/>
<path d="M169.742 118.205C168.882 118.28 168.023 118.44 167.174 118.589C167.11 118.606 167.051 118.637 167.003 118.68C166.955 118.722 166.921 118.775 166.902 118.833C165.959 121.719 165.288 124.689 164.618 127.631C163.947 130.573 163.371 133.44 162.837 136.363C162.543 137.927 162.292 139.511 162.093 141.047C161.024 142.959 160.373 145.035 160.175 147.165C160.175 147.19 160.186 147.214 160.206 147.232C160.226 147.249 160.252 147.259 160.28 147.259C160.308 147.259 160.335 147.249 160.354 147.232C160.374 147.214 160.385 147.19 160.385 147.165C160.647 145.275 161.194 143.425 162.009 141.666C161.48 145.523 161.596 149.429 162.355 153.255C161.307 147.54 162.879 141.581 163.926 135.96C164.45 133.149 165.047 130.338 165.666 127.528C166.284 124.717 167.007 121.953 167.583 119.152C168.317 118.899 169.06 118.655 169.762 118.355C169.774 118.345 169.784 118.333 169.789 118.319C169.795 118.305 169.797 118.29 169.794 118.275C169.792 118.261 169.787 118.247 169.777 118.235C169.768 118.223 169.756 118.212 169.742 118.205Z" fill="#263238"/>
<path d="M113.591 69.9357C113.099 71.5284 104.067 81.694 95.8522 81.0756C93.1803 80.8695 93.7566 67.762 93.7566 67.762L93.5575 66.8251L90.7285 53.1555L108.949 43.5147L111.579 42.2404C111.579 42.2404 112.082 45.9881 112.627 50.757C112.627 50.9725 112.679 51.188 112.7 51.4222C112.721 51.6565 112.784 51.9469 112.805 52.1905C112.91 52.8932 112.994 53.6146 113.078 54.336C113.14 54.8794 113.193 55.4135 113.235 55.985C113.277 56.5565 113.34 57.128 113.392 57.6996C113.767 61.7696 113.834 65.8576 113.591 69.9357Z" fill="#F7A9A0"/>
<path d="M112.648 50.7289C110.956 54.4851 108.37 57.8671 105.07 60.6401C101.77 63.4132 97.8345 65.5109 93.5369 66.7876L90.7079 53.118L108.95 43.5147L111.58 42.2404C111.58 42.2404 112.083 46.0068 112.648 50.7289Z" fill="#263238"/>
<path d="M71.4813 30.9969C68.6628 55.2724 84.61 59.526 90.467 60.0413C95.7793 60.5285 113.948 61.5872 119.553 37.6959C125.159 13.8045 113.424 4.96942 101.333 3.2736C89.2412 1.57779 74.2998 6.72145 71.4813 30.9969Z" fill="#F7A9A0"/>
<path d="M80.6282 25.3571C81.2532 25.3198 81.8757 25.2542 82.4933 25.1604C83.1624 25.1726 83.8175 24.9883 84.3583 24.6357C84.5072 24.4962 84.5994 24.3161 84.6203 24.1241C84.6412 23.9322 84.5896 23.7395 84.4736 23.577C84.188 23.2924 83.8236 23.0801 83.417 22.9617C83.0105 22.8432 82.5762 22.8228 82.158 22.9024C81.2794 22.9455 80.4502 23.2795 79.8319 23.8393C79.7111 23.9759 79.6353 24.1398 79.6129 24.3127C79.5905 24.4857 79.6225 24.6608 79.7052 24.8184C79.7878 24.976 79.918 25.1099 80.0811 25.2051C80.2441 25.3002 80.4336 25.3529 80.6282 25.3571Z" fill="#263238"/>
<path d="M100.096 25.2254C99.482 25.1009 98.8767 24.9445 98.2832 24.7569C97.6209 24.6706 97.0093 24.3906 96.5439 23.9605C96.4263 23.8019 96.3708 23.6129 96.386 23.4231C96.4012 23.2333 96.4861 23.0533 96.6277 22.9112C96.9585 22.6668 97.3563 22.5058 97.7799 22.4449C98.2036 22.3839 98.6378 22.4252 99.0376 22.5645C99.8876 22.7388 100.635 23.1896 101.133 23.8294C101.23 23.9803 101.278 24.1524 101.271 24.3263C101.265 24.5002 101.205 24.6691 101.097 24.814C100.989 24.959 100.839 25.0742 100.662 25.1469C100.485 25.2195 100.289 25.2467 100.096 25.2254Z" fill="#263238"/>
<path d="M95.2448 32.5147C95.2448 32.4585 95.381 32.6084 95.3706 32.674C95.1296 34.323 95.1715 36.253 96.7851 36.9463C96.7851 36.9463 96.7851 37.0494 96.7851 37.04C94.7314 36.5997 94.7314 34.0419 95.2448 32.5147Z" fill="#263238"/>
<path d="M97.0889 30.9318C100.086 30.9973 99.7293 36.3471 96.9527 36.3003C94.176 36.2534 94.5742 30.8849 97.0889 30.9318Z" fill="#263238"/>
<path d="M98.2412 31.278C98.7442 31.6059 99.2262 32.1681 99.8443 32.2618C100.463 32.3555 101.165 31.8308 101.678 31.3249C101.73 31.3249 101.772 31.3249 101.772 31.3904C101.72 32.4211 101.217 33.4517 99.9701 33.536C98.7232 33.6203 98.0945 32.674 97.8745 31.6622C97.8745 31.4186 98.0422 31.1469 98.2412 31.278Z" fill="#263238"/>
<path d="M83.9395 31.3343C83.9395 31.2687 83.7823 31.3999 83.7823 31.4655C83.7195 33.1332 83.3318 35.0258 81.6134 35.4755C81.5506 35.4755 81.5506 35.5692 81.6134 35.5692C83.688 35.3912 84.17 32.8802 83.9395 31.3343Z" fill="#263238"/>
<path d="M82.4096 29.4613C79.4443 29.0771 78.8052 34.4175 81.5504 34.7736C84.2955 35.1296 84.9033 29.7892 82.4096 29.4613Z" fill="#263238"/>
<path d="M81.1101 29.6948C80.5967 29.929 80.0623 30.3974 79.507 30.3787C78.9517 30.36 78.4592 29.7322 78.082 29.142C78.082 29.0764 77.9982 29.142 77.9877 29.1888C77.8306 30.2007 78.082 31.3062 79.1508 31.6061C80.2195 31.9059 80.9739 31.072 81.3616 30.0883C81.4559 29.9009 81.3301 29.6011 81.1101 29.6948Z" fill="#263238"/>
<path d="M92.311 45.4446C91.8604 45.8287 91.4099 46.3815 90.7288 46.3815C90.0372 46.3665 89.3577 46.2162 88.738 45.9411C88.7256 45.939 88.7126 45.9398 88.7006 45.9434C88.6885 45.9471 88.6777 45.9534 88.6693 45.962C88.6608 45.9705 88.655 45.9808 88.6524 45.9919C88.6497 46.0031 88.6504 46.0146 88.6542 46.0255C88.9126 46.3582 89.2679 46.6214 89.6816 46.7866C90.0953 46.9517 90.5517 47.0125 91.0013 46.9624C91.3828 46.8804 91.7283 46.6983 91.9934 46.4396C92.2585 46.1808 92.4311 45.8572 92.4891 45.5102C92.5205 45.3884 92.3738 45.3884 92.311 45.4446Z" fill="#263238"/>
<path d="M85.029 38.9609C85.029 38.9609 84.4527 41.4156 84.3584 42.5868C84.3584 42.6898 84.6622 42.7648 85.1023 42.821C85.1023 42.821 85.1023 42.821 85.1547 42.821C86.2614 43.0759 87.4253 43.0524 88.518 42.7531C89.6107 42.4539 90.5898 41.8905 91.3471 41.1252C91.4518 41.0221 91.2947 40.891 91.1689 40.9566C89.4223 41.8669 87.3947 42.2512 85.3852 42.0527C85.3119 41.7248 86.5273 37.8835 86.3282 37.8554C85.306 37.8689 84.2907 38.0076 83.3106 38.2676C84.3584 33.1333 86.2968 28.177 87.2398 23.0521C87.2537 23.0136 87.2499 22.9717 87.2292 22.9357C87.2086 22.8997 87.1728 22.8725 87.1297 22.86C87.0867 22.8476 87.0399 22.851 86.9996 22.8694C86.9593 22.8879 86.9288 22.9199 86.915 22.9584C84.4527 28.0084 83.122 33.9016 81.8961 39.1858C81.7285 39.8416 84.4946 39.1296 85.029 38.9609Z" fill="#263238"/>
<path d="M85.5525 42.3901C86.1988 43.3631 87.1156 44.17 88.2138 44.7323C88.8219 45.0272 89.52 45.1389 90.2046 45.0509C91.7029 44.8635 91.8915 43.683 91.7553 42.6336C91.6808 42.0797 91.5331 41.5356 91.3153 41.0128C89.6079 42.01 87.5886 42.4926 85.5525 42.3901Z" fill="#263238"/>
<path d="M88.2142 44.7323C88.8223 45.0271 89.5204 45.1388 90.205 45.0508C91.7033 44.8635 91.8919 43.6829 91.7557 42.6336C90.9881 42.5795 90.2223 42.7567 89.5804 43.1371C88.9386 43.5175 88.4576 44.079 88.2142 44.7323Z" fill="#FF9CBD"/>
<path d="M118.422 36.2905C112.135 35.8876 113.025 27.0713 113.025 27.0713C113.025 27.0713 105.984 25.9751 106.414 15.7065C106.414 15.7065 102.432 21.6372 92.7091 22.1806C90.6135 22.3024 97.948 18.0863 97.948 18.0863C97.948 18.0863 88.1198 23.8389 73.189 20.2131C72.1412 19.9601 76.7933 6.08437 89.1361 2.07437C101.479 -1.93563 111.946 1.63401 118.683 8.88573C118.683 8.88573 127.066 13.1206 127.37 20.5785C127.673 28.0363 120.852 36.4498 118.422 36.2905Z" fill="#263238"/>
<path d="M123.252 32.543C125.334 29.4754 126.541 25.9974 126.768 22.4147C126.995 18.832 126.233 15.2544 124.551 11.9965C118.809 0.547376 98.2102 -3.99666 84.6205 4.10766C84.6205 4.10766 107.986 0.359992 115.886 9.78537C123.786 19.2107 123.252 32.543 123.252 32.543Z" fill="#95EAF7"/>
<path d="M114.88 38.642C114.88 38.642 120.978 31.1467 124.803 33.0205C128.627 34.8943 123.954 45.9593 119.386 47.3928C118.815 47.6143 118.2 47.7302 117.578 47.7336C116.956 47.737 116.339 47.6277 115.766 47.4123C115.192 47.197 114.673 46.88 114.24 46.4806C113.807 46.0811 113.469 45.6074 113.246 45.088L114.88 38.642Z" fill="#F7A9A0"/>
<path d="M123.377 36.1874C123.451 36.1874 123.461 36.2717 123.377 36.2998C120.171 37.396 118.453 40.0475 117.227 42.7271C118.191 41.6965 119.49 41.1343 121.051 42.1649C121.135 42.2211 121.051 42.3336 120.957 42.3148C120.4 42.1457 119.798 42.1361 119.235 42.2872C118.671 42.4383 118.174 42.7427 117.814 43.158C117.218 43.8518 116.706 44.5991 116.284 45.3879C116.127 45.6409 115.613 45.5003 115.728 45.2099V45.1443C115.76 41.5184 119.008 36.4872 123.377 36.1874Z" fill="#263238"/>
</svg>
