<svg width="25" height="24" viewBox="0 0 25 24" fill="none" xmlns="http://www.w3.org/2000/svg">
<path fill-rule="evenodd" clip-rule="evenodd" d="M5.91832 2.32433C6.21048 2.19843 6.51314 2.42692 6.59093 2.73539C6.91905 4.03644 8.09706 4.99945 9.5 4.99945H15.5C16.9029 4.99945 18.0809 4.03644 18.4091 2.73539C18.4869 2.42692 18.7895 2.19843 19.0817 2.32434C20.5042 2.93736 21.5 4.35211 21.5 5.99945V18.9994C21.5 21.2086 19.7091 22.9994 17.5 22.9994H7.5C5.29086 22.9994 3.5 21.2086 3.5 18.9994V5.99945C3.5 4.35211 4.49582 2.93736 5.91832 2.32433ZM9.5 9.99945C9.5 10.5517 9.05228 10.9995 8.5 10.9995C7.94772 10.9995 7.5 10.5517 7.5 9.99945C7.5 9.44717 7.94772 8.99945 8.5 8.99945C9.05228 8.99945 9.5 9.44717 9.5 9.99945ZM11.5 9.99945C11.5 9.44717 11.9477 8.99945 12.5 8.99945H16.5C17.0523 8.99945 17.5 9.44717 17.5 9.99945C17.5 10.5517 17.0523 10.9995 16.5 10.9995H12.5C11.9477 10.9995 11.5 10.5517 11.5 9.99945ZM12.5 12.9995C11.9477 12.9995 11.5 13.4472 11.5 13.9995C11.5 14.5517 11.9477 14.9995 12.5 14.9995H16.5C17.0523 14.9995 17.5 14.5517 17.5 13.9995C17.5 13.4472 17.0523 12.9995 16.5 12.9995H12.5ZM12.5 16.9995C11.9477 16.9995 11.5 17.4472 11.5 17.9995C11.5 18.5517 11.9477 18.9995 12.5 18.9995H14.5C15.0523 18.9995 15.5 18.5517 15.5 17.9995C15.5 17.4472 15.0523 16.9995 14.5 16.9995H12.5ZM9.5 13.9995C9.5 14.5517 9.05228 14.9995 8.5 14.9995C7.94772 14.9995 7.5 14.5517 7.5 13.9995C7.5 13.4472 7.94772 12.9995 8.5 12.9995C9.05228 12.9995 9.5 13.4472 9.5 13.9995ZM9.5 17.9995C9.5 18.5517 9.05228 18.9995 8.5 18.9995C7.94772 18.9995 7.5 18.5517 7.5 17.9995C7.5 17.4472 7.94772 16.9995 8.5 16.9995C9.05228 16.9995 9.5 17.4472 9.5 17.9995Z" fill="#777E91"/>
<path d="M9.5 1H15.5C16.0523 1 16.5 1.44772 16.5 2C16.5 2.55228 16.0523 3 15.5 3H9.5C8.94772 3 8.5 2.55228 8.5 2C8.5 1.44772 8.94772 1 9.5 1Z" fill="#777E91"/>
</svg>
