<svg width="73" height="72" viewBox="0 0 73 72" fill="none" xmlns="http://www.w3.org/2000/svg">
<rect x="0.666992" width="72" height="72" rx="36" fill="url(#paint0_linear_102_39458)"/>
<path d="M38.3337 29.334V42.6673C38.3337 43.9934 37.8069 45.2652 36.8692 46.2029C35.9315 47.1405 34.6597 47.6673 33.3337 47.6673H29.717C29.3238 48.7798 28.55 49.7175 27.5323 50.3146C26.5146 50.9117 25.3186 51.1298 24.1557 50.9303C22.9927 50.7309 21.9378 50.1267 21.1772 49.2246C20.4167 48.3225 19.9995 47.1806 19.9995 46.0007C19.9995 44.8207 20.4167 43.6788 21.1772 42.7767C21.9378 41.8746 22.9927 41.2704 24.1557 41.071C25.3186 40.8715 26.5146 41.0896 27.5323 41.6867C28.55 42.2838 29.3238 43.2215 29.717 44.334H33.3337C33.7757 44.334 34.1996 44.1584 34.5122 43.8458C34.8247 43.5333 35.0003 43.1093 35.0003 42.6673V29.334C35.0003 28.0079 35.5271 26.7361 36.4648 25.7985C37.4025 24.8608 38.6742 24.334 40.0003 24.334H45.0003V19.334L53.3337 26.0007L45.0003 32.6673V27.6673H40.0003C39.5583 27.6673 39.1344 27.8429 38.8218 28.1555C38.5093 28.468 38.3337 28.892 38.3337 29.334ZM25.0003 47.6673C25.4424 47.6673 25.8663 47.4917 26.1788 47.1792C26.4914 46.8666 26.667 46.4427 26.667 46.0007C26.667 45.5586 26.4914 45.1347 26.1788 44.8221C25.8663 44.5096 25.4424 44.334 25.0003 44.334C24.5583 44.334 24.1344 44.5096 23.8218 44.8221C23.5093 45.1347 23.3337 45.5586 23.3337 46.0007C23.3337 46.4427 23.5093 46.8666 23.8218 47.1792C24.1344 47.4917 24.5583 47.6673 25.0003 47.6673Z" fill="#FCFCFD"/>
<defs>
<linearGradient id="paint0_linear_102_39458" x1="0.666988" y1="-39.4286" x2="125.041" y2="16.4713" gradientUnits="userSpaceOnUse">
<stop stop-color="#FF5F6D"/>
<stop offset="1" stop-color="#FFC371"/>
</linearGradient>
</defs>
</svg>
