<svg width="21" height="21" viewBox="0 0 21 21" fill="none" xmlns="http://www.w3.org/2000/svg">
<path d="M11.5416 5.29158H9.45831V9.45825H5.29165V11.5416H9.45831V15.7083H11.5416V11.5416H15.7083V9.45825H11.5416V5.29158ZM10.5 0.083252C4.74998 0.083252 0.083313 4.74992 0.083313 10.4999C0.083313 16.2499 4.74998 20.9166 10.5 20.9166C16.25 20.9166 20.9166 16.2499 20.9166 10.4999C20.9166 4.74992 16.25 0.083252 10.5 0.083252ZM10.5 18.8333C5.90623 18.8333 2.16665 15.0937 2.16665 10.4999C2.16665 5.90617 5.90623 2.16659 10.5 2.16659C15.0937 2.16659 18.8333 5.90617 18.8333 10.4999C18.8333 15.0937 15.0937 18.8333 10.5 18.8333Z" fill="white"/>
</svg>
