<svg width="22" height="16" viewBox="0 0 22 16" fill="none" xmlns="http://www.w3.org/2000/svg">
<path d="M5.5 16C3.98333 16 2.68767 15.475 1.613 14.425C0.537667 13.375 0 12.0917 0 10.575C0 9.27501 0.391667 8.11667 1.175 7.10001C1.95833 6.08334 2.98333 5.43334 4.25 5.15001C4.53333 3.95001 5.24167 2.80834 6.375 1.72501C7.50833 0.641673 8.71667 0.100006 10 0.100006C10.55 0.100006 11.021 0.295673 11.413 0.687006C11.8043 1.07901 12 1.55001 12 2.10001V8.15001L13.6 6.60001L15 8.00001L11 12L7 8.00001L8.4 6.60001L10 8.15001V2.10001C8.73333 2.33334 7.75 2.94567 7.05 3.93701C6.35 4.92901 6 5.95001 6 7.00001H5.5C4.53333 7.00001 3.70833 7.34167 3.025 8.02501C2.34167 8.70834 2 9.53334 2 10.5C2 11.4667 2.34167 12.2917 3.025 12.975C3.70833 13.6583 4.53333 14 5.5 14H17.5C18.2 14 18.7917 13.7583 19.275 13.275C19.7583 12.7917 20 12.2 20 11.5C20 10.8 19.7583 10.2083 19.275 9.72501C18.7917 9.24167 18.2 9.00001 17.5 9.00001H16V7.00001C16 6.20001 15.8167 5.45401 15.45 4.76201C15.0833 4.07067 14.6 3.48334 14 3.00001V0.675006C15.2333 1.25834 16.2083 2.12101 16.925 3.26301C17.6417 4.40434 18 5.65001 18 7.00001C19.15 7.13334 20.1043 7.62901 20.863 8.48701C21.621 9.34567 22 10.35 22 11.5C22 12.75 21.5627 13.8127 20.688 14.688C19.8127 15.5627 18.75 16 17.5 16H5.5Z" fill="#1982F8"/>
</svg>
