<svg width="12" height="15" viewBox="0 0 12 15" fill="none" xmlns="http://www.w3.org/2000/svg">
<path d="M5.00001 1V5.59H2.71001C2.26001 5.59 2.04001 6.13 2.36001 6.44L5.65001 9.73C5.85001 9.93 6.16001 9.93 6.36001 9.73L9.65001 6.44C9.96001 6.13 9.74001 5.59 9.30001 5.59H7.00001V1C7.00001 0.45 6.55001 0 6.00001 0C5.45001 0 5.00001 0.45 5.00001 1ZM1.10001 9C0.490013 9 -0.00998634 9.55 0.110014 10.15C0.650014 12.91 3.08001 15 6.00001 15C8.92001 15 11.35 12.91 11.89 10.15C12.01 9.55 11.51 9 10.9 9C10.41 9 10.02 9.35 9.92001 9.83C9.53001 11.64 7.93001 13 6.00001 13C4.07001 13 2.47001 11.64 2.09001 9.83C1.99001 9.35 1.59001 9 1.10001 9Z" fill="white"/>
</svg>
