<svg width="72" height="72" viewBox="0 0 72 72" fill="none" xmlns="http://www.w3.org/2000/svg">
<rect width="72" height="72" rx="36" fill="url(#paint0_linear_102_39454)"/>
<path d="M48.3166 21.2676L50.6716 23.6242L46.5466 27.7492L50.6716 31.8742L46.5466 35.9992L50.6716 40.1259L46.5466 44.2509L50.6716 48.3759L48.3149 50.7326L41.8333 44.2492L45.9583 40.1259L41.8333 35.9992L45.9583 31.8742L41.8333 27.7492L48.3166 21.2676ZM37.4783 22.2309C37.5998 22.3795 37.6664 22.5656 37.6666 22.7576V49.2409C37.6667 49.3988 37.622 49.5534 37.5376 49.6869C37.4532 49.8203 37.3327 49.927 37.19 49.9946C37.0473 50.0622 36.8884 50.0878 36.7317 50.0686C36.575 50.0494 36.427 49.986 36.3049 49.8859L27.4833 42.6642L20.9999 42.6659C20.5579 42.6659 20.134 42.4903 19.8214 42.1778C19.5088 41.8652 19.3333 41.4413 19.3333 40.9992V30.9992C19.3333 30.5572 19.5088 30.1333 19.8214 29.8207C20.134 29.5082 20.5579 29.3326 20.9999 29.3326H27.4816L36.3049 22.1126C36.3896 22.0431 36.4871 21.9911 36.5919 21.9594C36.6968 21.9276 36.8068 21.9169 36.9158 21.9277C37.0247 21.9386 37.1305 21.9708 37.227 22.0225C37.3235 22.0742 37.4089 22.1445 37.4783 22.2292V22.2309ZM34.3333 28.0326L28.6716 32.6642H22.6666V39.3326L28.6716 39.3309L34.3333 43.9642V28.0326Z" fill="#FCFCFD"/>
<defs>
<linearGradient id="paint0_linear_102_39454" x1="-3.68799e-06" y1="-39.4286" x2="124.374" y2="16.4713" gradientUnits="userSpaceOnUse">
<stop stop-color="#FF5F6D"/>
<stop offset="1" stop-color="#FFC371"/>
</linearGradient>
</defs>
</svg>
