   <svg
              width="16"
              height="16"
              viewBox="0 0 16 16"
              fill="none"
              xmlns="http://www.w3.org/2000/svg"
            >
              <path
                d="M12.6654 5.83301H7.33203C6.5036 5.83301 5.83203 6.50458 5.83203 7.33301V12.6663C5.83203 13.4948 6.5036 14.1663 7.33203 14.1663H12.6654C13.4938 14.1663 14.1654 13.4948 14.1654 12.6663V7.33301C14.1654 6.50458 13.4938 5.83301 12.6654 5.83301Z"
                stroke="#0000FF"
              />
              <path
                fill-rule="evenodd"
                clip-rule="evenodd"
                d="M5.33203 3H6.66536C7.63643 3 8.26416 3.00213 8.72663 3.06431C9.16043 3.12262 9.29637 3.21677 9.3725 3.29289C9.44857 3.36902 9.54276 3.50497 9.60103 3.93871C9.6477 4.28559 9.66057 4.72541 9.66403 5.33333H10.6642C10.6562 3.88331 10.5918 3.09804 10.0796 2.58579C9.49376 2 8.55096 2 6.66536 2H5.33203C3.44641 2 2.5036 2 1.91782 2.58579C1.33203 3.17157 1.33203 4.11438 1.33203 6V7.33333C1.33203 9.21893 1.33203 10.1617 1.91782 10.7475C2.5036 11.3333 3.44641 11.3333 5.33203 11.3333V10.3333C4.36095 10.3333 3.73324 10.3312 3.27074 10.269C2.837 10.2107 2.70105 10.1165 2.62492 10.0405C2.5488 9.96433 2.45465 9.8284 2.39634 9.3946C2.33416 8.93213 2.33203 8.3044 2.33203 7.33333V6C2.33203 5.02892 2.33416 4.40121 2.39634 3.93871C2.45465 3.50497 2.5488 3.36902 2.62492 3.29289C2.70105 3.21677 2.837 3.12262 3.27074 3.06431C3.73324 3.00213 4.36095 3 5.33203 3Z"
                fill="#0000FF"
              />
            </svg>