<svg width="550" height="550" viewBox="0 0 820 600" fill="none" xmlns="http://www.w3.org/2000/svg">
<path fill-rule="evenodd" clip-rule="evenodd" d="M809.5 30.5V59.5H780.5V30.5H809.5ZM779.5 30.5V59.5L750.5 59.5V30.5L779.5 30.5ZM780.5 29.5V0H779.5V29.5L750.5 29.5V0H749.5V29.5H720.5V0H719.5V29.5L690.5 29.5V0H689.5V29.5H660.5V0H659.5V29.5L630.5 29.5V0H629.5V29.5H600.5V0H599.5V29.5L570.5 29.5V0H569.5V29.5H540.5V0H539.5V29.5L510.5 29.5V0H509.5V29.5H480.5V0H479.5V29.5L450.5 29.5V0H449.5V29.5H420.5V0H419.5V29.5L390.5 29.5V0H389.5V29.5H360.5V0H359.5V29.5L330.5 29.5V0H329.5V29.5H300.5V0H299.5V29.5L270.5 29.5V0H269.5V29.5H240.5V0H239.5V29.5L210.5 29.5V0H209.5V29.5H180.5V0H179.5V29.5L150.5 29.5V0H149.5V29.5H120.5V0H119.5V29.5L90.5 29.5V0H89.5V29.5H60.5V0H59.5V29.5L30.5 29.5V0H29.5V29.5H0V30.5H29.5V59.5H0V60.5H29.5V89.5H0V90.5H29.5V119.5H0V120.5H29.5V149.5H0V150.5H29.5V179.5H0V180.5H29.5V209.5H0V210.5H29.5V239.5H0V240.5H29.5V269.5H0V270.5H29.5V299.5H0V300.5H29.5V329.5H0V330.5H29.5V359.5H0V360.5H29.5V389.5H0V390.5H29.5V419.5H0V420.5H29.5V449.5H0V450.5H29.5V479.5H0V480.5H29.5V509.5H0V510.5H29.5V539.5H0V540.5H29.5V569.5H0V570.5H29.5V600H30.5V570.5H59.5V600H60.5V570.5H89.5V600H90.5V570.5H119.5V600H120.5V570.5H149.5V600H150.5V570.5H179.5V600H180.5V570.5H209.5V600H210.5V570.5H239.5V600H240.5V570.5H269.5V600H270.5V570.5H299.5V600H300.5V570.5H329.5V600H330.5V570.5H359.5V600H360.5V570.5H389.5V600H390.5V570.5H419.5V600H420.5V570.5H449.5V600H450.5V570.5H479.5V600H480.5V570.5H509.5V600H510.5V570.5H539.5V600H540.5V570.5H569.5V600H570.5V570.5H599.5V600H600.5V570.5H629.5V600H630.5V570.5H659.5V600H660.5V570.5H689.5V600H690.5V570.5H719.5V600H720.5V570.5H749.5V600H750.5V570.5H779.5V600H780.5V570.5H809.5V600H810.5V570.5H840V569.5H810.5V540.5H840V539.5H810.5V510.5H840V509.5H810.5V480.5H840V479.5H810.5V450.5H840V449.5H810.5V420.5H840V419.5H810.5V390.5H840V389.5H810.5V360.5H840V359.5H810.5V330.5H840V329.5H810.5V300.5H840V299.5H810.5V270.5H840V269.5H810.5V240.5H840V239.5H810.5V210.5H840V209.5H810.5V180.5H840V179.5H810.5V150.5H840V149.5H810.5V120.5H840V119.5H810.5V90.5H840V89.5H810.5V60.5H840V59.5H810.5V30.5H840V29.5H810.5V0H809.5V29.5H780.5ZM780.5 569.5H809.5V540.5H780.5V569.5ZM780.5 539.5H809.5V510.5H780.5V539.5ZM779.5 510.5V539.5H750.5V510.5H779.5ZM780.5 509.5H809.5V480.5H780.5V509.5ZM779.5 480.5V509.5H750.5V480.5H779.5ZM780.5 479.5H809.5V450.5H780.5V479.5ZM779.5 450.5V479.5H750.5V450.5H779.5ZM780.5 449.5H809.5V420.5H780.5V449.5ZM779.5 420.5V449.5H750.5V420.5H779.5ZM780.5 419.5H809.5V390.5H780.5V419.5ZM779.5 390.5V419.5H750.5V390.5H779.5ZM780.5 389.5H809.5V360.5H780.5V389.5ZM779.5 360.5V389.5H750.5V360.5H779.5ZM780.5 359.5H809.5V330.5H780.5V359.5ZM779.5 330.5V359.5H750.5V330.5H779.5ZM780.5 329.5H809.5V300.5H780.5V329.5ZM779.5 300.5V329.5H750.5V300.5H779.5ZM780.5 299.5H809.5V270.5H780.5V299.5ZM779.5 270.5V299.5H750.5V270.5H779.5ZM780.5 269.5H809.5V240.5H780.5V269.5ZM779.5 240.5V269.5H750.5V240.5H779.5ZM780.5 239.5H809.5V210.5H780.5V239.5ZM779.5 210.5V239.5H750.5V210.5H779.5ZM780.5 209.5H809.5V180.5H780.5V209.5ZM779.5 180.5V209.5H750.5V180.5H779.5ZM780.5 179.5H809.5V150.5H780.5V179.5ZM779.5 150.5V179.5H750.5V150.5H779.5ZM780.5 149.5H809.5V120.5H780.5V149.5ZM779.5 120.5V149.5H750.5V120.5H779.5ZM780.5 119.5H809.5V90.5H780.5V119.5ZM779.5 90.5V119.5H750.5V90.5H779.5ZM780.5 89.5H809.5V60.5H780.5V89.5ZM779.5 60.5V89.5H750.5V60.5L779.5 60.5ZM749.5 59.5V30.5H720.5V59.5H749.5ZM720.5 60.5H749.5V89.5H720.5V60.5ZM719.5 59.5V30.5L690.5 30.5V59.5H719.5ZM690.5 60.5H719.5V89.5H690.5V60.5ZM689.5 59.5V30.5H660.5V59.5H689.5ZM660.5 60.5H689.5V89.5L660.5 89.5V60.5ZM659.5 59.5V30.5L630.5 30.5V59.5L659.5 59.5ZM630.5 60.5L659.5 60.5V89.5H630.5V60.5ZM629.5 59.5V30.5H600.5V59.5H629.5ZM600.5 60.5H629.5V89.5H600.5V60.5ZM599.5 59.5V30.5L570.5 30.5V59.5H599.5ZM570.5 60.5H599.5V89.5H570.5V60.5ZM569.5 59.5V30.5H540.5V59.5H569.5ZM540.5 60.5H569.5V89.5H540.5V60.5ZM539.5 59.5V30.5L510.5 30.5V59.5L539.5 59.5ZM510.5 60.5L539.5 60.5V89.5H510.5V60.5ZM509.5 59.5V30.5H480.5V59.5H509.5ZM480.5 60.5H509.5V89.5H480.5V60.5ZM479.5 59.5V30.5L450.5 30.5V59.5H479.5ZM450.5 60.5H479.5V89.5H450.5V60.5ZM449.5 59.5V30.5H420.5V59.5H449.5ZM420.5 60.5H449.5V89.5H420.5V60.5ZM419.5 59.5V30.5L390.5 30.5V59.5L419.5 59.5ZM390.5 60.5L419.5 60.5V89.5L390.5 89.5V60.5ZM389.5 59.5V30.5H360.5V59.5H389.5ZM360.5 60.5H389.5V89.5H360.5V60.5ZM359.5 59.5V30.5L330.5 30.5V59.5H359.5ZM330.5 60.5H359.5V89.5H330.5V60.5ZM329.5 59.5V30.5H300.5V59.5H329.5ZM300.5 60.5H329.5V89.5H300.5V60.5ZM299.5 59.5V30.5L270.5 30.5V59.5L299.5 59.5ZM270.5 60.5L299.5 60.5V89.5H270.5V60.5ZM269.5 59.5V30.5H240.5V59.5H269.5ZM240.5 60.5H269.5V89.5H240.5V60.5ZM239.5 59.5V30.5L210.5 30.5V59.5H239.5ZM210.5 60.5H239.5V89.5H210.5V60.5ZM209.5 59.5V30.5H180.5V59.5H209.5ZM180.5 60.5H209.5V89.5H180.5V60.5ZM179.5 59.5V30.5L150.5 30.5V59.5L179.5 59.5ZM150.5 60.5L179.5 60.5V89.5H150.5V60.5ZM149.5 59.5V30.5H120.5V59.5H149.5ZM120.5 60.5H149.5V89.5L120.5 89.5V60.5ZM119.5 59.5V30.5L90.5 30.5V59.5H119.5ZM90.5 60.5H119.5V89.5H90.5V60.5ZM89.5 59.5V30.5H60.5V59.5H89.5ZM60.5 60.5H89.5V89.5H60.5V60.5ZM59.5 59.5V30.5L30.5 30.5V59.5L59.5 59.5ZM30.5 60.5L59.5 60.5V89.5H30.5V60.5ZM30.5 90.5V119.5H59.5V90.5H30.5ZM60.5 90.5V119.5H89.5V90.5H60.5ZM90.5 90.5V119.5H119.5V90.5H90.5ZM120.5 90.5V119.5L149.5 119.5V90.5L120.5 90.5ZM150.5 90.5V119.5H179.5V90.5H150.5ZM180.5 90.5V119.5H209.5V90.5H180.5ZM210.5 90.5V119.5H239.5V90.5H210.5ZM240.5 90.5V119.5H269.5V90.5H240.5ZM270.5 90.5V119.5H299.5V90.5H270.5ZM300.5 90.5V119.5H329.5V90.5H300.5ZM330.5 90.5V119.5H359.5V90.5H330.5ZM360.5 90.5V119.5H389.5V90.5H360.5ZM390.5 90.5V119.5L419.5 119.5V90.5L390.5 90.5ZM420.5 90.5V119.5H449.5V90.5H420.5ZM450.5 90.5V119.5H479.5V90.5H450.5ZM480.5 90.5V119.5H509.5V90.5H480.5ZM510.5 90.5V119.5H539.5V90.5H510.5ZM540.5 90.5V119.5H569.5V90.5H540.5ZM570.5 90.5V119.5H599.5V90.5H570.5ZM600.5 90.5V119.5H629.5V90.5H600.5ZM630.5 90.5V119.5H659.5V90.5H630.5ZM660.5 90.5V119.5L689.5 119.5V90.5L660.5 90.5ZM690.5 90.5V119.5H719.5V90.5H690.5ZM720.5 90.5V119.5H749.5V90.5H720.5ZM749.5 120.5H720.5V149.5H749.5V120.5ZM749.5 150.5H720.5V179.5H749.5V150.5ZM749.5 180.5H720.5V209.5H749.5V180.5ZM749.5 210.5H720.5V239.5H749.5V210.5ZM749.5 240.5H720.5V269.5H749.5V240.5ZM749.5 270.5H720.5V299.5H749.5V270.5ZM749.5 300.5H720.5V329.5H749.5V300.5ZM749.5 330.5H720.5V359.5H749.5V330.5ZM749.5 360.5H720.5V389.5H749.5V360.5ZM749.5 390.5H720.5V419.5H749.5V390.5ZM749.5 420.5H720.5V449.5H749.5V420.5ZM749.5 450.5H720.5V479.5H749.5V450.5ZM749.5 480.5H720.5V509.5H749.5V480.5ZM749.5 510.5H720.5V539.5H749.5V510.5ZM749.5 540.5H720.5V569.5H749.5V540.5ZM750.5 569.5H779.5V540.5H750.5V569.5ZM719.5 569.5V540.5H690.5V569.5H719.5ZM689.5 569.5V540.5H660.5V569.5H689.5ZM659.5 569.5V540.5H630.5V569.5H659.5ZM629.5 569.5V540.5H600.5V569.5H629.5ZM599.5 569.5V540.5H570.5V569.5H599.5ZM569.5 569.5V540.5H540.5V569.5H569.5ZM539.5 569.5V540.5H510.5V569.5H539.5ZM509.5 569.5V540.5H480.5V569.5H509.5ZM479.5 569.5V540.5H450.5V569.5H479.5ZM449.5 569.5V540.5H420.5V569.5H449.5ZM419.5 569.5V540.5H390.5V569.5H419.5ZM389.5 569.5V540.5H360.5V569.5H389.5ZM359.5 569.5V540.5H330.5V569.5H359.5ZM329.5 569.5V540.5H300.5V569.5H329.5ZM299.5 569.5V540.5H270.5V569.5H299.5ZM269.5 569.5V540.5H240.5V569.5H269.5ZM239.5 569.5V540.5H210.5V569.5H239.5ZM209.5 569.5V540.5H180.5V569.5H209.5ZM179.5 569.5V540.5H150.5V569.5H179.5ZM149.5 569.5V540.5H120.5V569.5H149.5ZM119.5 569.5V540.5H90.5V569.5H119.5ZM89.5 569.5V540.5H60.5V569.5H89.5ZM59.5 569.5V540.5H30.5V569.5H59.5ZM30.5 539.5H59.5V510.5H30.5V539.5ZM30.5 509.5H59.5V480.5H30.5V509.5ZM30.5 479.5H59.5V450.5H30.5V479.5ZM30.5 449.5H59.5V420.5H30.5V449.5ZM30.5 419.5H59.5V390.5H30.5V419.5ZM30.5 389.5H59.5V360.5H30.5V389.5ZM30.5 359.5H59.5V330.5H30.5V359.5ZM30.5 329.5H59.5V300.5H30.5V329.5ZM30.5 299.5H59.5V270.5H30.5V299.5ZM30.5 269.5H59.5V240.5H30.5V269.5ZM30.5 239.5H59.5V210.5H30.5V239.5ZM30.5 209.5H59.5V180.5H30.5V209.5ZM30.5 179.5H59.5V150.5H30.5V179.5ZM30.5 149.5H59.5V120.5H30.5V149.5ZM60.5 120.5V149.5H89.5V120.5H60.5ZM90.5 120.5V149.5H119.5V120.5H90.5ZM120.5 120.5V149.5H149.5V120.5L120.5 120.5ZM150.5 120.5V149.5H179.5V120.5H150.5ZM180.5 120.5V149.5L209.5 149.5V120.5H180.5ZM210.5 120.5V149.5H239.5V120.5H210.5ZM240.5 120.5V149.5H269.5V120.5H240.5ZM270.5 120.5V149.5H299.5V120.5H270.5ZM300.5 120.5V149.5H329.5V120.5H300.5ZM330.5 120.5V149.5H359.5V120.5H330.5ZM360.5 120.5V149.5H389.5V120.5H360.5ZM390.5 120.5V149.5H419.5V120.5L390.5 120.5ZM420.5 120.5V149.5H449.5V120.5H420.5ZM450.5 120.5V149.5H479.5V120.5H450.5ZM480.5 120.5V149.5H509.5V120.5H480.5ZM510.5 120.5V149.5H539.5V120.5H510.5ZM540.5 120.5V149.5H569.5V120.5H540.5ZM570.5 120.5V149.5H599.5V120.5H570.5ZM600.5 120.5V149.5L629.5 149.5V120.5H600.5ZM630.5 120.5V149.5H659.5V120.5H630.5ZM660.5 120.5V149.5H689.5V120.5L660.5 120.5ZM690.5 120.5V149.5H719.5V120.5H690.5ZM719.5 150.5H690.5V179.5H719.5V150.5ZM719.5 180.5H690.5V209.5H719.5V180.5ZM719.5 210.5H690.5V239.5H719.5V210.5ZM719.5 240.5H690.5V269.5H719.5V240.5ZM719.5 270.5H690.5V299.5H719.5V270.5ZM719.5 300.5H690.5V329.5H719.5V300.5ZM719.5 330.5H690.5V359.5H719.5V330.5ZM719.5 360.5H690.5V389.5H719.5V360.5ZM719.5 390.5H690.5V419.5H719.5V390.5ZM719.5 420.5H690.5V449.5H719.5V420.5ZM719.5 450.5H690.5V479.5H719.5V450.5ZM719.5 480.5H690.5V509.5H719.5V480.5ZM719.5 510.5H690.5V539.5H719.5V510.5ZM689.5 539.5V510.5H660.5V539.5H689.5ZM659.5 539.5V510.5H630.5V539.5H659.5ZM629.5 539.5V510.5H600.5V539.5H629.5ZM599.5 539.5V510.5H570.5V539.5H599.5ZM569.5 539.5V510.5H540.5V539.5H569.5ZM539.5 539.5V510.5H510.5V539.5H539.5ZM509.5 539.5V510.5H480.5V539.5H509.5ZM479.5 539.5V510.5H450.5V539.5H479.5ZM449.5 539.5V510.5H420.5V539.5H449.5ZM419.5 539.5V510.5L390.5 510.5V539.5H419.5ZM389.5 539.5V510.5H360.5V539.5H389.5ZM359.5 539.5V510.5H330.5V539.5H359.5ZM329.5 539.5V510.5H300.5V539.5H329.5ZM299.5 539.5V510.5H270.5V539.5H299.5ZM269.5 539.5V510.5H240.5V539.5H269.5ZM239.5 539.5V510.5H210.5V539.5H239.5ZM209.5 539.5V510.5H180.5V539.5H209.5ZM179.5 539.5V510.5H150.5V539.5H179.5ZM149.5 539.5V510.5H120.5V539.5H149.5ZM119.5 539.5V510.5H90.5V539.5H119.5ZM89.5 539.5V510.5H60.5V539.5H89.5ZM60.5 509.5H89.5V480.5H60.5V509.5ZM60.5 479.5H89.5V450.5H60.5V479.5ZM60.5 449.5H89.5V420.5H60.5V449.5ZM60.5 419.5H89.5V390.5H60.5V419.5ZM60.5 389.5H89.5V360.5H60.5V389.5ZM60.5 359.5H89.5V330.5H60.5V359.5ZM60.5 329.5H89.5V300.5H60.5V329.5ZM60.5 299.5H89.5V270.5H60.5V299.5ZM60.5 269.5H89.5V240.5H60.5V269.5ZM60.5 239.5H89.5V210.5H60.5V239.5ZM60.5 209.5H89.5V180.5H60.5V209.5ZM60.5 179.5H89.5V150.5H60.5V179.5ZM90.5 150.5V179.5H119.5V150.5H90.5ZM120.5 150.5V179.5H149.5V150.5H120.5ZM150.5 150.5V179.5H179.5V150.5H150.5ZM180.5 150.5V179.5L209.5 179.5V150.5L180.5 150.5ZM210.5 150.5V179.5H239.5V150.5H210.5ZM240.5 150.5V179.5H269.5V150.5H240.5ZM270.5 150.5V179.5H299.5V150.5H270.5ZM300.5 150.5V179.5H329.5V150.5H300.5ZM330.5 150.5V179.5H359.5V150.5H330.5ZM360.5 150.5V179.5H389.5V150.5H360.5ZM390.5 150.5V179.5H419.5V150.5H390.5ZM420.5 150.5V179.5H449.5V150.5H420.5ZM450.5 150.5V179.5H479.5V150.5H450.5ZM480.5 150.5V179.5H509.5V150.5H480.5ZM510.5 150.5V179.5H539.5V150.5H510.5ZM540.5 150.5V179.5H569.5V150.5H540.5ZM570.5 150.5V179.5H599.5V150.5H570.5ZM600.5 150.5V179.5L629.5 179.5V150.5L600.5 150.5ZM630.5 150.5V179.5H659.5V150.5H630.5ZM660.5 150.5V179.5H689.5V150.5H660.5ZM689.5 180.5H660.5V209.5H689.5V180.5ZM689.5 210.5H660.5V239.5H689.5V210.5ZM689.5 240.5H660.5V269.5H689.5V240.5ZM689.5 270.5H660.5V299.5H689.5V270.5ZM689.5 300.5H660.5V329.5H689.5V300.5ZM689.5 330.5H660.5V359.5H689.5V330.5ZM689.5 360.5H660.5V389.5H689.5V360.5ZM689.5 390.5H660.5V419.5H689.5V390.5ZM689.5 420.5H660.5V449.5H689.5V420.5ZM689.5 450.5H660.5V479.5H689.5V450.5ZM689.5 480.5H660.5V509.5H689.5V480.5ZM659.5 509.5V480.5H630.5V509.5H659.5ZM629.5 509.5V480.5H600.5V509.5H629.5ZM599.5 509.5V480.5H570.5V509.5H599.5ZM569.5 509.5V480.5H540.5V509.5H569.5ZM539.5 509.5V480.5H510.5V509.5H539.5ZM509.5 509.5V480.5H480.5V509.5H509.5ZM479.5 509.5V480.5H450.5V509.5H479.5ZM449.5 509.5V480.5H420.5V509.5H449.5ZM419.5 509.5V480.5L390.5 480.5V509.5L419.5 509.5ZM389.5 509.5V480.5H360.5V509.5H389.5ZM359.5 509.5V480.5H330.5V509.5H359.5ZM329.5 509.5V480.5H300.5V509.5H329.5ZM299.5 509.5V480.5H270.5V509.5H299.5ZM269.5 509.5V480.5H240.5V509.5H269.5ZM239.5 509.5V480.5H210.5V509.5H239.5ZM209.5 509.5V480.5H180.5V509.5H209.5ZM179.5 509.5V480.5H150.5V509.5H179.5ZM149.5 509.5V480.5H120.5V509.5H149.5ZM119.5 509.5V480.5H90.5V509.5H119.5ZM90.5 479.5H119.5V450.5H90.5V479.5ZM90.5 449.5H119.5V420.5H90.5V449.5ZM90.5 419.5H119.5V390.5H90.5V419.5ZM90.5 389.5H119.5V360.5H90.5V389.5ZM90.5 359.5H119.5V330.5H90.5V359.5ZM90.5 329.5H119.5V300.5H90.5V329.5ZM90.5 299.5H119.5V270.5H90.5V299.5ZM90.5 269.5H119.5V240.5H90.5V269.5ZM90.5 239.5H119.5V210.5H90.5V239.5ZM90.5 209.5H119.5V180.5H90.5V209.5ZM120.5 180.5V209.5H149.5V180.5H120.5ZM150.5 180.5V209.5H179.5V180.5H150.5ZM180.5 180.5V209.5L209.5 209.5V180.5L180.5 180.5ZM210.5 180.5V209.5H239.5V180.5H210.5ZM240.5 180.5V209.5H269.5V180.5H240.5ZM270.5 180.5V209.5H299.5V180.5H270.5ZM300.5 180.5V209.5H329.5V180.5H300.5ZM330.5 180.5V209.5H359.5V180.5H330.5ZM360.5 180.5V209.5H389.5V180.5H360.5ZM390.5 180.5V209.5H419.5V180.5H390.5ZM420.5 180.5V209.5H449.5V180.5H420.5ZM450.5 180.5V209.5H479.5V180.5H450.5ZM480.5 180.5V209.5H509.5V180.5H480.5ZM510.5 180.5V209.5H539.5V180.5H510.5ZM540.5 180.5V209.5H569.5V180.5H540.5ZM570.5 180.5V209.5H599.5V180.5H570.5ZM600.5 180.5V209.5L629.5 209.5V180.5L600.5 180.5ZM630.5 180.5V209.5H659.5V180.5H630.5ZM659.5 210.5H630.5V239.5H659.5V210.5ZM659.5 240.5H630.5V269.5H659.5V240.5ZM659.5 270.5H630.5V299.5H659.5V270.5ZM659.5 300.5H630.5V329.5H659.5V300.5ZM659.5 330.5H630.5V359.5H659.5V330.5ZM659.5 360.5H630.5V389.5H659.5V360.5ZM659.5 390.5H630.5V419.5H659.5V390.5ZM659.5 420.5H630.5V449.5H659.5V420.5ZM659.5 450.5H630.5V479.5H659.5V450.5ZM629.5 479.5V450.5H600.5V479.5H629.5ZM599.5 479.5V450.5H570.5V479.5H599.5ZM569.5 479.5V450.5H540.5V479.5H569.5ZM539.5 479.5V450.5H510.5V479.5H539.5ZM509.5 479.5V450.5H480.5V479.5H509.5ZM479.5 479.5V450.5H450.5V479.5H479.5ZM449.5 479.5V450.5H420.5V479.5H449.5ZM419.5 479.5V450.5L390.5 450.5V479.5L419.5 479.5ZM389.5 479.5V450.5H360.5V479.5H389.5ZM359.5 479.5V450.5H330.5V479.5H359.5ZM329.5 479.5V450.5H300.5V479.5H329.5ZM299.5 479.5V450.5H270.5V479.5H299.5ZM269.5 479.5V450.5H240.5V479.5H269.5ZM239.5 479.5V450.5H210.5V479.5H239.5ZM209.5 479.5V450.5H180.5V479.5H209.5ZM179.5 479.5V450.5H150.5V479.5H179.5ZM149.5 479.5V450.5H120.5V479.5H149.5ZM120.5 449.5H149.5V420.5H120.5V449.5ZM120.5 419.5H149.5V390.5H120.5V419.5ZM120.5 389.5H149.5V360.5H120.5V389.5ZM120.5 359.5H149.5V330.5H120.5V359.5ZM120.5 329.5H149.5V300.5H120.5V329.5ZM120.5 299.5H149.5V270.5H120.5V299.5ZM120.5 269.5H149.5V240.5H120.5V269.5ZM120.5 239.5H149.5V210.5H120.5V239.5ZM150.5 210.5V239.5H179.5V210.5H150.5ZM180.5 210.5V239.5L209.5 239.5V210.5L180.5 210.5ZM210.5 210.5V239.5H239.5V210.5H210.5ZM240.5 210.5V239.5H269.5V210.5H240.5ZM270.5 210.5V239.5H299.5V210.5H270.5ZM300.5 210.5V239.5H329.5V210.5H300.5ZM330.5 210.5V239.5H359.5V210.5H330.5ZM360.5 210.5V239.5H389.5V210.5H360.5ZM390.5 210.5V239.5H419.5V210.5H390.5ZM420.5 210.5V239.5H449.5V210.5H420.5ZM450.5 210.5V239.5H479.5V210.5H450.5ZM480.5 210.5V239.5H509.5V210.5H480.5ZM510.5 210.5V239.5H539.5V210.5H510.5ZM540.5 210.5V239.5H569.5V210.5H540.5ZM570.5 210.5V239.5H599.5V210.5H570.5ZM600.5 210.5V239.5L629.5 239.5V210.5L600.5 210.5ZM629.5 240.5L600.5 240.5V269.5H629.5V240.5ZM629.5 270.5H600.5V299.5H629.5V270.5ZM629.5 300.5H600.5V329.5H629.5V300.5ZM629.5 330.5H600.5V359.5H629.5V330.5ZM629.5 360.5H600.5V389.5H629.5V360.5ZM629.5 390.5H600.5V419.5H629.5V390.5ZM629.5 420.5H600.5V449.5H629.5V420.5ZM599.5 449.5V420.5H570.5V449.5H599.5ZM569.5 449.5V420.5H540.5V449.5H569.5ZM539.5 449.5V420.5H510.5V449.5H539.5ZM509.5 449.5V420.5H480.5V449.5H509.5ZM479.5 449.5V420.5H450.5V449.5H479.5ZM449.5 449.5V420.5H420.5V449.5H449.5ZM419.5 449.5V420.5L390.5 420.5V449.5L419.5 449.5ZM389.5 449.5V420.5H360.5V449.5H389.5ZM359.5 449.5V420.5H330.5V449.5H359.5ZM329.5 449.5V420.5H300.5V449.5H329.5ZM299.5 449.5V420.5H270.5V449.5H299.5ZM269.5 449.5V420.5H240.5V449.5H269.5ZM239.5 449.5V420.5H210.5V449.5H239.5ZM209.5 449.5V420.5H180.5V449.5H209.5ZM179.5 449.5V420.5H150.5V449.5H179.5ZM150.5 419.5H179.5V390.5H150.5V419.5ZM150.5 389.5H179.5V360.5H150.5V389.5ZM150.5 359.5H179.5V330.5H150.5V359.5ZM150.5 329.5H179.5V300.5H150.5V329.5ZM150.5 299.5H179.5V270.5H150.5V299.5ZM150.5 269.5H179.5V240.5H150.5V269.5ZM180.5 240.5V269.5H209.5V240.5L180.5 240.5ZM210.5 240.5V269.5H239.5V240.5H210.5ZM240.5 240.5V269.5H269.5V240.5H240.5ZM270.5 240.5V269.5H299.5V240.5H270.5ZM300.5 240.5V269.5H329.5V240.5H300.5ZM330.5 240.5V269.5H359.5V240.5H330.5ZM360.5 240.5V269.5H389.5V240.5H360.5ZM390.5 240.5V269.5L419.5 269.5V240.5H390.5ZM420.5 240.5V269.5H449.5V240.5H420.5ZM450.5 240.5V269.5H479.5V240.5H450.5ZM480.5 240.5V269.5H509.5V240.5H480.5ZM510.5 240.5V269.5H539.5V240.5H510.5ZM540.5 240.5V269.5H569.5V240.5H540.5ZM570.5 240.5V269.5H599.5V240.5H570.5ZM599.5 270.5H570.5V299.5H599.5V270.5ZM599.5 300.5H570.5V329.5H599.5V300.5ZM599.5 330.5H570.5V359.5H599.5V330.5ZM599.5 360.5H570.5V389.5H599.5V360.5ZM599.5 390.5H570.5V419.5H599.5V390.5ZM569.5 419.5V390.5H540.5V419.5H569.5ZM539.5 419.5V390.5H510.5V419.5H539.5ZM509.5 419.5V390.5H480.5V419.5H509.5ZM479.5 419.5V390.5H450.5V419.5H479.5ZM449.5 419.5V390.5H420.5V419.5H449.5ZM419.5 419.5V390.5L390.5 390.5V419.5L419.5 419.5ZM389.5 419.5V390.5H360.5V419.5H389.5ZM359.5 419.5V390.5H330.5V419.5H359.5ZM329.5 419.5V390.5H300.5V419.5H329.5ZM299.5 419.5V390.5H270.5V419.5H299.5ZM269.5 419.5V390.5H240.5V419.5H269.5ZM239.5 419.5V390.5H210.5V419.5H239.5ZM209.5 419.5V390.5H180.5V419.5H209.5ZM180.5 389.5H209.5V360.5H180.5V389.5ZM180.5 359.5H209.5V330.5H180.5V359.5ZM180.5 329.5H209.5V300.5H180.5V329.5ZM180.5 299.5H209.5V270.5H180.5V299.5ZM210.5 270.5V299.5H239.5V270.5H210.5ZM240.5 270.5V299.5H269.5V270.5H240.5ZM270.5 270.5V299.5H299.5V270.5H270.5ZM300.5 270.5V299.5H329.5V270.5H300.5ZM330.5 270.5V299.5H359.5V270.5H330.5ZM360.5 270.5V299.5H389.5V270.5H360.5ZM390.5 270.5V299.5L419.5 299.5V270.5L390.5 270.5ZM420.5 270.5V299.5H449.5V270.5H420.5ZM450.5 270.5V299.5H479.5V270.5H450.5ZM480.5 270.5V299.5H509.5V270.5H480.5ZM510.5 270.5V299.5H539.5V270.5H510.5ZM540.5 270.5V299.5H569.5V270.5H540.5ZM569.5 300.5H540.5V329.5H569.5V300.5ZM569.5 330.5H540.5V359.5H569.5V330.5ZM569.5 360.5H540.5V389.5H569.5V360.5ZM539.5 389.5V360.5H510.5V389.5H539.5ZM509.5 389.5V360.5H480.5V389.5H509.5ZM479.5 389.5V360.5H450.5V389.5H479.5ZM449.5 389.5V360.5H420.5V389.5H449.5ZM419.5 389.5V360.5L390.5 360.5V389.5L419.5 389.5ZM389.5 389.5V360.5H360.5V389.5H389.5ZM359.5 389.5V360.5H330.5V389.5H359.5ZM329.5 389.5V360.5H300.5V389.5H329.5ZM299.5 389.5V360.5H270.5V389.5H299.5ZM269.5 389.5V360.5H240.5V389.5H269.5ZM239.5 389.5V360.5H210.5V389.5H239.5ZM210.5 359.5H239.5V330.5H210.5V359.5ZM210.5 329.5H239.5V300.5H210.5V329.5ZM240.5 300.5V329.5H269.5V300.5H240.5ZM270.5 300.5V329.5H299.5V300.5H270.5ZM300.5 300.5V329.5H329.5V300.5H300.5ZM330.5 300.5V329.5H359.5V300.5H330.5ZM360.5 300.5V329.5H389.5V300.5H360.5ZM390.5 300.5V329.5L419.5 329.5V300.5L390.5 300.5ZM420.5 300.5V329.5H449.5V300.5H420.5ZM450.5 300.5V329.5H479.5V300.5H450.5ZM480.5 300.5V329.5H509.5V300.5H480.5ZM510.5 300.5V329.5H539.5V300.5H510.5ZM539.5 330.5H510.5V359.5H539.5V330.5ZM509.5 359.5V330.5H480.5V359.5H509.5ZM479.5 359.5V330.5H450.5V359.5H479.5ZM449.5 359.5V330.5H420.5V359.5H449.5ZM419.5 359.5V330.5L390.5 330.5V359.5L419.5 359.5ZM389.5 359.5V330.5H360.5V359.5H389.5ZM359.5 359.5V330.5H330.5V359.5H359.5ZM329.5 359.5V330.5H300.5V359.5H329.5ZM299.5 359.5V330.5H270.5V359.5H299.5ZM269.5 359.5V330.5H240.5V359.5H269.5Z" fill="url(#paint0_radial_102_39469)"/>
<defs>
<radialGradient id="paint0_radial_102_39469" cx="0" cy="0" r="1" gradientUnits="userSpaceOnUse" gradientTransform="translate(420 300) rotate(90) scale(300 420)">
<stop stop-color="#EC5B76"/>
<stop offset="1" stop-color="#B73A78" stop-opacity="0"/>
</radialGradient>
</defs>
</svg>
