<svg width="131" height="134" viewBox="0 0 131 134" fill="none" xmlns="http://www.w3.org/2000/svg">
<rect width="131" height="134" fill="#E5E5E5"/>
<g clip-path="url(#clip0_718_3367)">
<rect width="1334" height="2490" transform="translate(-686 -1711)" fill="white"/>
<rect x="-463" y="-1649" width="1111" height="2428" fill="#F8F5FF"/>
<g filter="url(#filter0_d_718_3367)">
<rect x="-438" y="-289" width="1072" height="1043" rx="6" fill="white"/>
</g>
<rect x="-42.5" y="-108.5" width="629" height="810" rx="9.5" fill="white" stroke="#E0DDDD"/>
<path d="M42.6489 5.1066C34.5877 8.13276 27.1966 12.7304 20.8974 18.6371C14.5983 24.5438 9.51447 31.6439 5.9363 39.5319C2.35813 47.4198 0.355664 55.9413 0.0432245 64.6097C-0.269215 73.2781 1.11449 81.9237 4.11535 90.0528C7.1162 98.182 11.6754 105.635 17.5327 111.988C23.39 118.34 30.4307 123.467 38.2527 127.075C46.0747 130.683 54.5249 132.703 63.1208 133.018C71.7167 133.333 80.29 131.937 88.3511 128.911L80.1247 106.626C74.9656 108.563 69.4787 109.456 63.9773 109.255C58.4759 109.053 53.0678 107.761 48.0617 105.451C43.0556 103.142 38.5496 99.8608 34.8009 95.7954C31.0523 91.7299 28.1344 86.9597 26.2138 81.757C24.2933 76.5544 23.4077 71.0212 23.6077 65.4734C23.8076 59.9257 25.0892 54.4719 27.3792 49.4236C29.6693 44.3753 32.9229 39.8313 36.9543 36.051C40.9858 32.2707 45.7161 29.3282 50.8753 27.3914L42.6489 5.1066Z" fill="#3DC182"/>
<path d="M120.886 31.748C115.642 23.3711 108.597 16.291 100.271 11.032C91.946 5.77306 82.5543 2.46988 72.7916 1.36709C63.0289 0.264292 53.1453 1.39013 43.8725 4.66123C34.5997 7.93234 26.1753 13.2649 19.2231 20.2641L35.8829 37.0923C40.3323 32.6128 45.7239 29.1999 51.6585 27.1064C57.5931 25.0129 63.9186 24.2924 70.1667 24.9982C76.4148 25.704 82.4255 27.818 87.7537 31.1837C93.0819 34.5495 97.591 39.0807 100.947 44.442L120.886 31.748Z" fill="#EB2B2B"/>
<path d="M116.886 26.0726C108.77 15.7273 97.7653 8.06878 85.29 4.08454C72.8146 0.100294 59.4408 -0.0269895 46.893 3.7191L53.5915 26.5002C61.6221 24.1027 70.1813 24.1842 78.1656 26.7341C86.1498 29.284 93.1929 34.1855 98.3868 40.8065L116.886 26.0726Z" fill="#0000F5"/>
<path d="M88.5206 128.789C100.361 124.311 110.661 116.474 118.177 106.225C125.693 95.9767 130.104 83.7548 130.877 71.0353C131.651 58.3158 128.753 45.6427 122.534 34.5464C116.316 23.4501 107.042 14.4051 95.8329 8.50371L84.913 29.5624C92.0868 33.3393 98.022 39.1281 102.002 46.2297C105.982 53.3313 107.836 61.4421 107.342 69.5826C106.847 77.723 104.024 85.5451 99.2132 92.1042C94.4028 98.6632 87.8108 103.679 80.2332 106.545L88.5206 128.789Z" fill="#ECB800"/>
</g>
<defs>
<filter id="filter0_d_718_3367" x="-448" y="-299" width="1092" height="1063" filterUnits="userSpaceOnUse" color-interpolation-filters="sRGB">
<feFlood flood-opacity="0" result="BackgroundImageFix"/>
<feColorMatrix in="SourceAlpha" type="matrix" values="0 0 0 0 0 0 0 0 0 0 0 0 0 0 0 0 0 0 127 0" result="hardAlpha"/>
<feOffset/>
<feGaussianBlur stdDeviation="5"/>
<feComposite in2="hardAlpha" operator="out"/>
<feColorMatrix type="matrix" values="0 0 0 0 0 0 0 0 0 0 0 0 0 0 0 0 0 0 0.06 0"/>
<feBlend mode="normal" in2="BackgroundImageFix" result="effect1_dropShadow_718_3367"/>
<feBlend mode="normal" in="SourceGraphic" in2="effect1_dropShadow_718_3367" result="shape"/>
</filter>
<clipPath id="clip0_718_3367">
<rect width="1334" height="2490" fill="white" transform="translate(-686 -1711)"/>
</clipPath>
</defs>
</svg>
