<svg width="18" height="20" viewBox="0 0 18 20" fill="none" xmlns="http://www.w3.org/2000/svg">
<path d="M12.5 12.5C12.5 14.5 10 16 10 17.5H8C8 16 5.5 14.5 5.5 12.5C5.5 10.57 7.07 9 9 9C10.93 9 12.5 10.57 12.5 12.5ZM10 18.5H8V20H10V18.5ZM16 12C16 13.68 15.41 15.21 14.42 16.42L15.84 17.84C17.18 16.27 18 14.23 18 12C18 9.26 16.77 6.81 14.84 5.16L13.42 6.58C14.99 7.86 16 9.82 16 12ZM13 4L9 0V3C4.03 3 0 7.03 0 12C0 14.23 0.82 16.27 2.16 17.84L3.58 16.42C2.59 15.21 2 13.68 2 12C2 8.14 5.14 5 9 5V8L13 4Z" fill="white"/>
</svg>
