<svg width="11" height="16" viewBox="0 0 11 16" fill="none" xmlns="http://www.w3.org/2000/svg">
<path fill-rule="evenodd" clip-rule="evenodd" d="M1.93545 0C1.47964 0 1.04249 0.210714 0.720179 0.585786C0.397869 0.960859 0.216797 1.46957 0.216797 2V14C0.216797 14.5304 0.397869 15.0391 0.720179 15.4142C1.04249 15.7893 1.47964 16 1.93545 16H8.81007C9.26589 16 9.70303 15.7893 10.0253 15.4142C10.3477 15.0391 10.5287 14.5304 10.5287 14V5.414C10.5286 4.88361 10.3475 4.37499 10.0252 4L7.09141 0.586C6.76918 0.210901 6.3321 0.000113275 5.87633 0H1.93545ZM3.65411 10C3.65411 9.73478 3.56357 9.48043 3.40241 9.29289C3.24126 9.10536 3.02269 9 2.79478 9C2.56687 9 2.3483 9.10536 2.18714 9.29289C2.02599 9.48043 1.93545 9.73478 1.93545 10V13C1.93545 13.2652 2.02599 13.5196 2.18714 13.7071C2.3483 13.8946 2.56687 14 2.79478 14C3.02269 14 3.24126 13.8946 3.40241 13.7071C3.56357 13.5196 3.65411 13.2652 3.65411 13V10ZM5.37276 7C5.60067 7 5.81924 7.10536 5.9804 7.29289C6.14155 7.48043 6.23209 7.73478 6.23209 8V13C6.23209 13.2652 6.14155 13.5196 5.9804 13.7071C5.81924 13.8946 5.60067 14 5.37276 14C5.14485 14 4.92628 13.8946 4.76512 13.7071C4.60397 13.5196 4.51343 13.2652 4.51343 13V8C4.51343 7.73478 4.60397 7.48043 4.76512 7.29289C4.92628 7.10536 5.14485 7 5.37276 7ZM8.81007 6C8.81007 5.73478 8.71953 5.48043 8.55838 5.29289C8.39722 5.10536 8.17865 5 7.95074 5C7.72283 5 7.50426 5.10536 7.34311 5.29289C7.18195 5.48043 7.09141 5.73478 7.09141 6V13C7.09141 13.2652 7.18195 13.5196 7.34311 13.7071C7.50426 13.8946 7.72283 14 7.95074 14C8.17865 14 8.39722 13.8946 8.55838 13.7071C8.71953 13.5196 8.81007 13.2652 8.81007 13V6Z" fill="white"/>
</svg>
