<svg width="33" height="33" viewBox="0 0 33 33" fill="none" xmlns="http://www.w3.org/2000/svg">
<path d="M29.5375 15.0417C28.8666 8.96046 24.0396 4.13337 17.9583 3.46254V0.458374H15.0416V3.46254C8.9604 4.13337 4.13331 8.96046 3.46248 15.0417H0.458313V17.9584H3.46248C4.13331 24.0396 8.9604 28.8667 15.0416 29.5375V32.5417H17.9583V29.5375C24.0396 28.8667 28.8666 24.0396 29.5375 17.9584H32.5416V15.0417H29.5375ZM16.5 26.7084C10.8562 26.7084 6.29165 22.1438 6.29165 16.5C6.29165 10.8563 10.8562 6.29171 16.5 6.29171C22.1437 6.29171 26.7083 10.8563 26.7083 16.5C26.7083 22.1438 22.1437 26.7084 16.5 26.7084Z" fill="#F859A5"/>
</svg>
