<svg width="64" height="64" viewBox="0 0 64 64" fill="none" xmlns="http://www.w3.org/2000/svg">
<circle cx="32" cy="32" r="32" fill="white"/>
<path d="M32 20C25.3868 20 20 25.3868 20 32C20 38.6132 25.3868 44 32 44C38.6132 44 44 38.6132 44 32C44 25.3868 38.6132 20 32 20ZM32 22.4C37.3161 22.4 41.6 26.6839 41.6 32C41.6 37.3161 37.3161 41.6 32 41.6C26.6839 41.6 22.4 37.3161 22.4 32C22.4 26.6839 26.6839 22.4 32 22.4ZM30.8 26V30.8H26V33.2H30.8V38H33.2V33.2H38V30.8H33.2V26H30.8Z" fill="#1982F8"/>
</svg>
