<svg width="22" height="22" viewBox="0 0 22 22" fill="none" xmlns="http://www.w3.org/2000/svg">
<path d="M11 7.99999C10.4066 7.99999 9.82662 8.17593 9.33327 8.50558C8.83992 8.83522 8.45541 9.30376 8.22834 9.85194C8.00128 10.4001 7.94187 11.0033 8.05763 11.5853C8.17338 12.1672 8.4591 12.7017 8.87866 13.1213C9.29822 13.5409 9.83277 13.8266 10.4147 13.9423C10.9967 14.0581 11.5999 13.9987 12.148 13.7716C12.6962 13.5446 13.1647 13.16 13.4944 12.6667C13.824 12.1734 14 11.5933 14 11C14 10.2043 13.6839 9.44128 13.1213 8.87867C12.5587 8.31606 11.7956 7.99999 11 7.99999ZM11 12C10.8022 12 10.6089 11.9413 10.4444 11.8315C10.28 11.7216 10.1518 11.5654 10.0761 11.3827C10.0004 11.1999 9.98061 10.9989 10.0192 10.8049C10.0578 10.6109 10.153 10.4327 10.2929 10.2929C10.4327 10.153 10.6109 10.0578 10.8049 10.0192C10.9989 9.98062 11.1999 10.0004 11.3827 10.0761C11.5654 10.1518 11.7216 10.28 11.8315 10.4444C11.9413 10.6089 12 10.8022 12 11C12 11.2652 11.8946 11.5196 11.7071 11.7071C11.5196 11.8946 11.2652 12 11 12ZM19.81 11.81C19.6469 11.6251 19.5579 11.3865 19.56 11.14V10.86C19.5579 10.6135 19.6469 10.3749 19.81 10.19L20.45 9.46999C20.9405 8.91938 21.2111 8.2074 21.21 7.46999C21.2052 6.94427 21.0676 6.4283 20.81 5.96999L20.25 4.96999C19.9865 4.51365 19.6075 4.13475 19.1511 3.87143C18.6946 3.60811 18.1769 3.46965 17.65 3.46999C17.4485 3.47012 17.2475 3.49022 17.05 3.52999L16.11 3.71999H15.9C15.7285 3.71733 15.5602 3.67269 15.41 3.58999L15.16 3.43999C14.9665 3.34558 14.8087 3.19126 14.71 2.99999L14.4 2.08999C14.1925 1.50322 13.8077 0.99549 13.2989 0.637148C12.79 0.278805 12.1823 0.0875877 11.56 0.0899869H10.44C9.82242 0.084636 9.21826 0.270008 8.70998 0.620796C8.20169 0.971585 7.81405 1.47069 7.59998 2.04999L7.28998 2.99999C7.21238 3.23223 7.05226 3.42793 6.83998 3.54999L6.59998 3.69999C6.44559 3.78135 6.27445 3.82585 6.09998 3.82999H5.89998L4.99998 3.57999C4.80245 3.54022 4.60147 3.52012 4.39998 3.51999C3.86657 3.50875 3.33981 3.63997 2.874 3.90012C2.40819 4.16027 2.02019 4.53994 1.74998 4.99999L1.18998 5.99999C0.876119 6.54589 0.741993 7.17672 0.806605 7.8031C0.871217 8.42948 1.13129 9.01964 1.54998 9.48999L2.18998 10.21C2.35305 10.3949 2.44208 10.6335 2.43998 10.88V11.16C2.44208 11.4065 2.35305 11.6451 2.18998 11.83L1.54998 12.55C1.05945 13.1006 0.788899 13.8126 0.789981 14.55C0.794806 15.0757 0.932398 15.5917 1.18998 16.05L1.74998 17.05C2.01345 17.5063 2.39247 17.8852 2.84889 18.1485C3.30532 18.4119 3.82305 18.5503 4.34998 18.55C4.55147 18.5499 4.75245 18.5298 4.94998 18.49L5.88998 18.3H6.08998C6.26148 18.3026 6.42972 18.3473 6.57998 18.43L6.82998 18.58C7.04226 18.702 7.20238 18.8977 7.27998 19.13L7.59998 20C7.80743 20.5868 8.19223 21.0945 8.70108 21.4528C9.20993 21.8112 9.81762 22.0024 10.44 22H11.56C12.1823 22.0024 12.79 21.8112 13.2989 21.4528C13.8077 21.0945 14.1925 20.5868 14.4 20L14.71 19.09C14.7876 18.8577 14.9477 18.662 15.16 18.54L15.4 18.39C15.5544 18.3086 15.7255 18.2641 15.9 18.26H16.1L17.05 18.45C17.2475 18.4898 17.4485 18.5099 17.65 18.51C18.1769 18.5103 18.6946 18.3719 19.1511 18.1085C19.6075 17.8452 19.9865 17.4663 20.25 17.01L20.81 16.01C21.0676 15.5517 21.2052 15.0357 21.21 14.51C21.2111 13.7726 20.9405 13.0606 20.45 12.51L19.81 11.81ZM18.32 13.13L18.96 13.85C19.123 14.0349 19.2121 14.2735 19.21 14.52C19.2082 14.6961 19.1599 14.8686 19.07 15.02L18.51 16.02C18.4227 16.1711 18.2974 16.2968 18.1466 16.3845C17.9957 16.4722 17.8245 16.5189 17.65 16.52H17.45L16.51 16.33C15.7888 16.1805 15.0377 16.3015 14.4 16.67L14.16 16.81C13.5231 17.1762 13.0428 17.7633 12.81 18.46L12.51 19.38C12.4429 19.5786 12.3151 19.7511 12.1446 19.8731C11.9741 19.9952 11.7696 20.0605 11.56 20.06H10.44C10.2303 20.0605 10.0258 19.9952 9.85535 19.8731C9.68488 19.7511 9.55707 19.5786 9.48998 19.38L9.18998 18.46C8.95717 17.7633 8.47682 17.1762 7.83998 16.81L7.58998 16.67C7.13668 16.409 6.62303 16.2712 6.09998 16.27C5.89518 16.2701 5.69088 16.2902 5.48998 16.33V16.33L4.54998 16.52H4.34998C4.17377 16.5207 4.00051 16.4748 3.84773 16.387C3.69495 16.2992 3.56809 16.1726 3.47998 16.02L2.92998 15.02C2.8401 14.8686 2.79181 14.6961 2.78998 14.52C2.7767 14.2786 2.8513 14.0406 2.99998 13.85L3.63998 13.13C4.13051 12.5794 4.40106 11.8674 4.39998 11.13V10.85C4.40106 10.1126 4.13051 9.40059 3.63998 8.84999L2.99998 8.14999C2.83691 7.9651 2.74788 7.7265 2.74998 7.47999C2.76725 7.30706 2.82929 7.14163 2.92998 6.99999L3.48998 5.99999C3.57724 5.84885 3.70253 5.72318 3.8534 5.63546C4.00427 5.54775 4.17547 5.50104 4.34998 5.49999H4.54998L5.48998 5.68999C5.69081 5.73022 5.89516 5.75032 6.09998 5.74999C6.62303 5.74882 7.13668 5.61093 7.58998 5.34999L7.83998 5.20999C8.46934 4.8536 8.94877 4.28184 9.18998 3.59999L9.48998 2.67999C9.55707 2.48137 9.68488 2.30885 9.85535 2.18683C10.0258 2.06481 10.2303 1.99945 10.44 1.99999H11.56C11.7696 1.99945 11.9741 2.06481 12.1446 2.18683C12.3151 2.30885 12.4429 2.48137 12.51 2.67999L12.81 3.59999C13.0428 4.29672 13.5231 4.88382 14.16 5.24999L14.41 5.38999C14.8633 5.65093 15.3769 5.78882 15.9 5.78999C16.1048 5.79032 16.3091 5.77022 16.51 5.72999L17.45 5.53999H17.65C17.8262 5.53929 17.9995 5.58516 18.1522 5.67297C18.305 5.76077 18.4319 5.88738 18.52 6.03999L19.07 7.03999C19.1599 7.19142 19.2082 7.3639 19.21 7.53999C19.2121 7.7865 19.123 8.0251 18.96 8.20999L18.32 8.92999C17.8295 9.48059 17.5589 10.1926 17.56 10.93V11.21C17.5589 11.9474 17.8295 12.6594 18.32 13.21" fill="#323232"/>
</svg>
