<svg width="13" height="13" viewBox="0 0 13 13" fill="none" xmlns="http://www.w3.org/2000/svg">
<path d="M12.3813 6.2375L6.75625 0.6125C6.52189 0.38005 6.20509 0.249737 5.875 0.25H1.5C1.16848 0.25 0.850537 0.381696 0.616117 0.616117C0.381696 0.850537 0.25 1.16848 0.25 1.5V5.875C0.24987 6.03995 0.282385 6.20329 0.345673 6.35561C0.408961 6.50793 0.50177 6.64621 0.61875 6.7625L6.24375 12.3875C6.47812 12.62 6.79491 12.7503 7.125 12.75C7.45599 12.7486 7.77291 12.616 8.00625 12.3813L12.3813 8.00625C12.616 7.77291 12.7486 7.45599 12.75 7.125C12.7501 6.96006 12.7176 6.79672 12.6543 6.6444C12.591 6.49208 12.4982 6.35379 12.3813 6.2375ZM7.125 11.5L1.5 5.875V1.5H5.875L11.5 7.125M3.0625 2.125C3.24792 2.125 3.42918 2.17998 3.58335 2.283C3.73752 2.38601 3.85768 2.53243 3.92864 2.70373C3.99959 2.87504 4.01816 3.06354 3.98199 3.2454C3.94581 3.42725 3.85652 3.5943 3.72541 3.72541C3.5943 3.85652 3.42725 3.94581 3.2454 3.98199C3.06354 4.01816 2.87504 3.99959 2.70373 3.92864C2.53243 3.85768 2.38601 3.73752 2.283 3.58335C2.17998 3.42918 2.125 3.24792 2.125 3.0625C2.125 2.81386 2.22377 2.5754 2.39959 2.39959C2.5754 2.22377 2.81386 2.125 3.0625 2.125Z" fill="#56B787"/>
</svg>
