<svg width="1024" height="1024" viewBox="0 0 1024 1024" fill="none" xmlns="http://www.w3.org/2000/svg">
<path d="M512 64C264.6 64 64 264.6 64 512C64 759.4 264.6 960 512 960C759.4 960 960 759.4 960 512C960 264.6 759.4 64 512 64ZM512 884C306.6 884 140 717.4 140 512C140 306.6 306.6 140 512 140C717.4 140 884 306.6 884 512C884 717.4 717.4 884 512 884Z" fill="black"/>
<path d="M464 336C464 348.73 469.057 360.939 478.059 369.941C487.061 378.943 499.27 384 512 384C524.73 384 536.939 378.943 545.941 369.941C554.943 360.939 560 348.73 560 336C560 323.27 554.943 311.061 545.941 302.059C536.939 293.057 524.73 288 512 288C499.27 288 487.061 293.057 478.059 302.059C469.057 311.061 464 323.27 464 336V336ZM536 448H488C483.6 448 480 451.6 480 456V728C480 732.4 483.6 736 488 736H536C540.4 736 544 732.4 544 728V456C544 451.6 540.4 448 536 448Z" fill="black"/>
</svg>
