<svg width="44" height="44" viewBox="0 0 44 44" fill="none" xmlns="http://www.w3.org/2000/svg">
<g filter="url(#filter0_d_1236_43228)">
<path d="M2 9C2 4.58172 5.58172 1 10 1H34C38.4183 1 42 4.58172 42 9V33C42 37.4183 38.4183 41 34 41H10C5.58172 41 2 37.4183 2 33V9Z" fill="#1F2032"/>
<path d="M18.2918 29.1246C25.8371 29.1246 29.9652 22.8719 29.9652 17.4512C29.9652 17.2754 29.9613 17.0957 29.9535 16.9199C30.7566 16.3392 31.4496 15.6198 32 14.7957C31.2521 15.1285 30.458 15.3458 29.6449 15.4402C30.5011 14.9271 31.1421 14.1209 31.4492 13.1711C30.6438 13.6484 29.763 13.9851 28.8445 14.1668C28.2257 13.5093 27.4075 13.0739 26.5164 12.928C25.6253 12.7821 24.711 12.9338 23.9148 13.3597C23.1186 13.7856 22.4848 14.4619 22.1115 15.2841C21.7382 16.1062 21.6462 17.0285 21.8496 17.9082C20.2187 17.8264 18.6233 17.4027 17.1667 16.6647C15.71 15.9267 14.4247 14.8908 13.3941 13.6242C12.8703 14.5273 12.71 15.596 12.9459 16.613C13.1817 17.6301 13.7959 18.5192 14.6637 19.0996C14.0122 19.0789 13.375 18.9035 12.8047 18.5879V18.6387C12.8041 19.5864 13.1317 20.5051 13.7319 21.2386C14.3321 21.9721 15.1678 22.4751 16.0969 22.6621C15.4934 22.8272 14.86 22.8513 14.2457 22.7324C14.5079 23.5475 15.018 24.2604 15.7048 24.7716C16.3916 25.2828 17.2209 25.5668 18.077 25.584C16.6237 26.7256 14.8285 27.3447 12.9805 27.3418C12.6527 27.3413 12.3253 27.3212 12 27.2817C13.8774 28.4861 16.0613 29.1258 18.2918 29.1246Z" fill="#777E91"/>
<path d="M10 2H34V0H10V2ZM41 9V33H43V9H41ZM34 40H10V42H34V40ZM3 33V9H1V33H3ZM10 40C6.13401 40 3 36.866 3 33H1C1 37.9706 5.02944 42 10 42V40ZM41 33C41 36.866 37.866 40 34 40V42C38.9706 42 43 37.9706 43 33H41ZM34 2C37.866 2 41 5.13401 41 9H43C43 4.02944 38.9706 0 34 0V2ZM10 0C5.02944 0 1 4.02944 1 9H3C3 5.13401 6.13401 2 10 2V0Z" fill="#353945"/>
</g>
<defs>
<filter id="filter0_d_1236_43228" x="0" y="0" width="44" height="44" filterUnits="userSpaceOnUse" color-interpolation-filters="sRGB">
<feFlood flood-opacity="0" result="BackgroundImageFix"/>
<feColorMatrix in="SourceAlpha" type="matrix" values="0 0 0 0 0 0 0 0 0 0 0 0 0 0 0 0 0 0 127 0" result="hardAlpha"/>
<feOffset dy="1"/>
<feGaussianBlur stdDeviation="1"/>
<feColorMatrix type="matrix" values="0 0 0 0 0.0627451 0 0 0 0 0.0941176 0 0 0 0 0.156863 0 0 0 0.05 0"/>
<feBlend mode="normal" in2="BackgroundImageFix" result="effect1_dropShadow_1236_43228"/>
<feBlend mode="normal" in="SourceGraphic" in2="effect1_dropShadow_1236_43228" result="shape"/>
</filter>
</defs>
</svg>
