<svg width="16" height="16" viewBox="0 0 16 16" fill="none" xmlns="http://www.w3.org/2000/svg">
<path d="M7.99996 4.33333C9.22578 4.32926 10.4279 4.67119 11.468 5.31982C12.5082 5.96845 13.3442 6.89744 13.88 8C12.78 10.2467 10.5333 11.6667 7.99996 11.6667C5.46663 11.6667 3.21996 10.2467 2.11996 8C2.6557 6.89744 3.49171 5.96845 4.53188 5.31982C5.57204 4.67119 6.77414 4.32926 7.99996 4.33333ZM7.99996 3C4.66663 3 1.81996 5.07333 0.666626 8C1.81996 10.9267 4.66663 13 7.99996 13C11.3333 13 14.18 10.9267 15.3333 8C14.18 5.07333 11.3333 3 7.99996 3ZM7.99996 6.33333C8.44199 6.33333 8.86591 6.50893 9.17847 6.82149C9.49103 7.13405 9.66663 7.55797 9.66663 8C9.66663 8.44203 9.49103 8.86595 9.17847 9.17851C8.86591 9.49107 8.44199 9.66667 7.99996 9.66667C7.55793 9.66667 7.13401 9.49107 6.82145 9.17851C6.50889 8.86595 6.33329 8.44203 6.33329 8C6.33329 7.55797 6.50889 7.13405 6.82145 6.82149C7.13401 6.50893 7.55793 6.33333 7.99996 6.33333ZM7.99996 5C6.34663 5 4.99996 6.34667 4.99996 8C4.99996 9.65333 6.34663 11 7.99996 11C9.65329 11 11 9.65333 11 8C11 6.34667 9.65329 5 7.99996 5Z" fill="#1982F8"/>
</svg>
