<svg width="216" height="265" viewBox="0 0 216 265" fill="none" xmlns="http://www.w3.org/2000/svg">
<path d="M39.4823 262.561H67.1607C67.8351 262.561 68.3818 263.107 68.3818 263.781C68.3818 264.454 67.8351 265 67.1607 265H39.4823C38.8079 265 38.2612 264.454 38.2612 263.781C38.2612 263.107 38.8079 262.561 39.4823 262.561ZM125.231 262.561H171.362C172.036 262.561 172.583 263.107 172.583 263.781C172.583 264.454 172.036 265 171.362 265H125.231C124.557 265 124.01 264.454 124.01 263.781C124.01 263.107 124.557 262.561 125.231 262.561Z" fill="#FFCB3D"/>
<path d="M171.501 262.569C171.456 262.564 171.409 262.561 171.362 262.561H125.231C125.152 262.561 125.074 262.569 124.999 262.583L127.179 245.222H147.585L152.442 248.799C153.555 249.91 154.776 250.913 156.078 251.807C159.253 253.92 160.908 253.893 165.739 256.224C167.041 256.847 168.289 257.524 169.538 258.31C170.135 258.852 171.193 259.936 171.518 261.236C171.573 261.453 171.573 261.67 171.6 261.86C171.6 262.112 171.563 262.35 171.501 262.569ZM67.5092 262.612C67.3988 262.579 67.2819 262.561 67.1608 262.561H39.4825C39.4104 262.561 39.3398 262.568 39.2712 262.58L45.826 245.778L65.2552 248.407L67.5092 262.612Z" fill="#474961"/>
<path d="M58.6437 173.479C58.5272 173.454 58.4106 173.428 58.2938 173.403C64.5622 136.9 69.3411 115.025 72.6304 107.777C75.9198 100.53 79.7965 95.3974 84.2605 92.3804C88.5202 87.5339 96.0332 87.804 106.426 87.5001C106.69 87.4878 106.99 87.4906 107.254 87.478C118 87.2968 116.213 87.7069 119.05 88.5834C132.664 92.2144 143.957 115.145 152.93 157.376L155.782 171.209C155.742 171.096 155.7 170.984 155.656 170.874C155.734 171.232 155.772 171.594 155.769 171.962C156.057 177.872 151.463 182.504 141.989 185.858C136.201 187.907 124.873 193.546 106.249 195.324C98.3418 196.079 83.5866 195.916 61.9827 194.833C58.4125 188.844 56.8848 184.051 57.3995 180.452C57.6816 178.48 58.0963 176.155 58.6437 173.479H58.6437Z" fill="#A339FF"/>
<path opacity="0.176986" d="M58.6291 173.55C90.3669 180.424 113.818 179.893 128.983 171.957C143.853 164.176 152.738 163.79 155.639 170.799C155.728 171.18 155.772 171.568 155.769 171.962C156.057 177.872 151.463 182.504 141.989 185.858C136.201 187.907 124.873 193.546 106.249 195.324C98.3418 196.079 83.5866 195.916 61.9827 194.833C58.4125 188.844 56.8848 184.051 57.3995 180.452C57.6791 178.497 58.089 176.196 58.6291 173.55Z" fill="#444444"/>
<path d="M87.5211 66.4859C84.4831 66.0188 82.0459 65.5207 80.2097 64.9918C78.7049 64.7806 76.4049 64.1842 75.5029 62.4159C74.1885 59.8782 76.5944 56.4125 79.2795 52.5208C82.5117 47.8576 84.4919 46.1756 87.6068 43.9758C92.9098 40.2306 96.1846 40.0854 98.5603 42.495C98.7994 42.7374 99.0373 43.1387 99.2742 43.6987C99.9516 43.6001 100.645 43.554 101.349 43.5642L107.319 43.6726C114.89 43.7539 120.914 50.2298 120.805 58.0606V58.5483L120.643 73.6409L120.496 80.7083C120.395 85.5735 116.417 89.465 111.543 89.465H96.3204C96.2873 89.465 96.2541 89.4649 96.221 89.4645C91.2757 89.4097 87.3113 85.3621 87.3662 80.4241L87.5211 66.4859Z" fill="#FFCB3D"/>
<path d="M211.363 73.6716L6.49793 62.9507C5.00133 62.8724 3.7245 64.0204 3.64607 65.5148L0.180851 131.539C0.102417 133.033 1.25207 134.308 2.74868 134.386L207.613 145.107C209.11 145.186 210.387 144.038 210.465 142.543L213.93 76.5193C214.009 75.0249 212.859 73.7499 211.363 73.6716Z" fill="#D8DEED"/>
<path d="M142.537 90.6911L14.632 83.9977C14.0334 83.9664 13.5227 84.4256 13.4913 85.0233L12.8096 98.0117C12.7782 98.6094 13.2381 99.1194 13.8367 99.1507L141.742 105.844C142.34 105.875 142.851 105.416 142.882 104.819L143.564 91.8302C143.595 91.2325 143.136 90.7225 142.537 90.6911Z" fill="white"/>
<path d="M109.473 39.9244L109.119 44.4254C109.102 44.6469 108.951 44.8353 108.738 44.9008C107.552 45.266 106.4 45.3987 105.28 45.2988C104.129 45.1961 102.435 44.7837 100.198 44.0616C99.933 43.9761 99.7758 43.704 99.8344 43.4321L101.633 35.0807L101.738 35.1106C100.751 33.12 100.126 32.0064 99.8631 31.7697C98.8619 30.8122 98.0713 24.9015 102.533 25.2578C103.025 25.2607 103.503 25.4012 103.963 25.6254L103.993 25.6495C104.142 25.7701 104.334 25.7772 104.526 25.7843C104.985 25.7361 105.328 25.3731 105.307 24.9122L104.81 17.8533C104.762 17.3952 105.078 17.035 105.537 16.9869C106.536 16.8821 107.502 16.7262 108.477 16.4059C108.612 16.3917 108.717 16.3534 108.825 16.3421C109.786 16.1323 114.96 15.2623 118.172 18.8213C118.455 19.1731 118.737 19.5248 118.966 19.8823C119.554 20.8014 119.883 21.8567 119.921 22.997L120.141 27.9326C120.138 28.4233 120.135 28.914 120.081 29.4374C119.424 35.6366 117.114 40.1293 114.807 40.5076C113.622 40.6592 112.421 40.6491 111.223 40.4205C111.071 40.3636 111.169 40.4105 109.473 39.9244ZM85.8654 177.817L65.2551 248.407L45.8259 245.778L58.2939 173.403L58.3555 173.407C58.3509 173.434 58.3463 173.461 58.3417 173.488C68.3353 175.663 77.5099 177.106 85.8654 177.817ZM122.133 174.853C124.579 174.033 126.862 173.067 128.983 171.957C143.589 164.314 152.421 163.806 155.479 170.432C157.228 175.999 157.729 181.079 156.98 185.672C154.733 199.46 151.601 219.31 147.585 245.222H127.178L127.532 187.048L122.133 174.853ZM76.5262 63.55C77.6219 64.4464 79.1703 64.8134 80.2835 64.9696C83.6603 65.9424 89.0695 66.8105 96.5112 67.5741L92.6523 82.6552L117.095 91.3815C117.215 91.407 117.785 91.6346 118.807 92.0644C129.404 95.0789 136.464 97.8111 139.986 100.261C142.717 102.161 142.162 104.647 138.322 107.72C135.266 110.165 131.166 110.872 127.466 109.593L111.669 104.13C111.67 104.111 111.67 104.092 111.671 104.072C91.8717 101.917 79.9527 97.6674 75.9141 91.3229C72.188 85.4693 72.3921 76.2117 76.5262 63.55V63.55ZM137.665 69.8524C144.197 63.1426 150.176 62.0633 155.601 66.6144C161.026 71.1656 155.047 72.2449 137.665 69.8524Z" fill="#ED9474"/>
<path d="M94.1071 28.8576C93.2845 29.1829 92.4711 29.308 91.6668 29.233C86.345 28.7366 82.7379 24.068 81.3133 19.5044C79.8887 14.9408 82.3916 12.5996 86.3961 10.0461C90.4005 7.49271 94.9846 9.31325 98.8062 11.287C101.04 12.4406 102.35 14.4416 102.737 17.2901C103.342 17.2354 104.009 17.1664 104.754 17.069C105.618 16.9784 106.581 16.7442 108.183 16.4126C108.318 16.3984 109.077 16.2112 109.185 16.1998C110.146 15.9901 114.99 15.2865 118.202 18.8454C118.184 18.9291 117.353 18.8454 114.922 20.4572C112.153 22.2928 109.425 30.3377 106.984 30.2125C106.957 30.212 106.902 30.239 106.819 30.2934L106.927 30.1913L105.432 27.1332C105.094 26.5148 104.581 26.0509 103.996 25.6764C103.536 25.4523 103.057 25.3118 102.566 25.3089C101.259 25.337 99.9607 26.4814 99.56 27.8585C99.1862 29.2327 99.5851 30.6893 100.637 31.6142C101.302 32.2256 102.16 32.5987 103.067 32.667L104.171 32.5301C104.126 32.5699 104.081 32.6102 104.036 32.6511C102.154 35.6144 101.214 37.096 101.214 37.096C101.214 37.096 100.399 36.877 98.7695 36.4389C96.7671 35.7467 95.213 33.2196 94.1071 28.8576ZM116.185 26.9037C115.66 27.0951 114.81 27.3205 114.035 27.2112C112.738 27.0748 113.846 26.1956 115.001 26.02C115.538 25.9364 115.992 26.1066 116.285 26.2939C116.494 26.4627 116.449 26.8215 116.185 26.9037ZM120.762 26.3144C120.242 26.5597 119.428 26.8631 118.634 26.8375C117.292 26.7876 118.334 25.8063 119.454 25.5526C120.039 25.4095 120.464 25.5556 120.78 25.7131C121.04 25.8493 121.023 26.2053 120.762 26.3144Z" fill="#482D1F"/>
<path d="M114.672 30.4137C114.368 30.1187 114.397 29.3528 114.43 28.8862C114.42 28.5331 114.721 28.2835 115.018 28.2523C115.209 28.2595 115.464 28.3418 115.557 28.7134C115.84 29.5828 115.08 30.9159 114.672 30.4137ZM119.122 29.9195C118.872 29.6187 118.847 28.8585 118.88 28.3919C118.87 28.0388 119.171 27.7892 119.468 27.7581C119.66 27.7652 119.914 27.8475 120.007 28.2191C120.29 29.0885 119.503 30.4244 119.122 29.9195Z" fill="#482D1F"/>
<path d="M118.635 27.9093C118.64 27.7597 118.522 27.6348 118.372 27.6303C118.222 27.6258 118.097 27.7434 118.093 27.893L118.044 29.5056L118.045 29.5395L118.319 32.3981C118.312 32.4311 118.289 32.4549 118.254 32.4621C117.928 32.4603 117.51 32.4603 116.998 32.4622C116.848 32.4628 116.727 32.5845 116.728 32.7342C116.728 32.8838 116.85 33.0047 117 33.0041C117.521 33.0022 117.944 33.0022 118.271 33.0041L118.301 33.0027C118.616 32.9696 118.845 32.7193 118.863 32.4163L118.862 32.3741L118.587 29.5048L118.635 27.9093Z" fill="#482D1F"/>
<path d="M117.008 35.2362C116.816 35.2291 116.319 35.1723 116.18 34.8872C116.174 34.8333 116.112 34.7581 116.133 34.7014C116.2 34.5582 117.036 34.4704 117.036 34.4704C118.146 34.3812 118.41 34.299 118.505 34.4252C118.541 34.5032 118.552 34.611 118.389 34.8734C118.194 35.357 117.31 35.259 117.008 35.2362Z" fill="#482D1F"/>
<path d="M159.671 91.5878L196.943 93.5383C198.755 93.6331 199.402 93.8559 200.046 94.2443C200.69 94.6327 201.182 95.179 201.502 95.859C201.821 96.539 201.975 97.2049 201.881 99.0142L201.631 103.761C201.536 105.57 201.313 106.216 200.924 106.859C200.535 107.502 199.988 107.994 199.307 108.313C198.626 108.632 197.959 108.786 196.147 108.691L158.876 106.741C157.064 106.646 156.417 106.423 155.773 106.035C155.129 105.646 154.636 105.1 154.317 104.42C153.997 103.74 153.843 103.074 153.938 101.265L154.187 96.5183C154.282 94.7091 154.505 94.0629 154.894 93.4199C155.283 92.777 155.83 92.2851 156.511 91.9661C157.192 91.647 157.859 91.493 159.671 91.5878Z" fill="#474BFF"/>
<path d="M120.117 117.679L41.8025 113.581C41.5031 113.565 41.2478 113.795 41.2321 114.094L40.8344 121.67C40.8188 121.969 41.0487 122.224 41.348 122.24L119.663 126.338C119.962 126.354 120.217 126.124 120.233 125.825L120.631 118.249C120.646 117.95 120.416 117.695 120.117 117.679Z" fill="#F2F6FB"/>
<path d="M170.815 120.526L126.374 118.2C126.075 118.184 125.819 118.414 125.804 118.713L125.406 126.289C125.39 126.588 125.62 126.843 125.92 126.859L170.361 129.185C170.66 129.2 170.916 128.971 170.931 128.672L171.329 121.095C171.345 120.796 171.115 120.541 170.815 120.526Z" fill="#F2F6FB"/>
<path d="M136.022 108.563C136.23 108.647 136.468 108.546 136.552 108.338C136.636 108.13 136.535 107.893 136.326 107.809C135.017 107.282 133.986 106.904 131.682 106.088C129.388 105.277 128.365 104.902 127.07 104.38C126.862 104.296 126.624 104.397 126.54 104.605C126.456 104.813 126.557 105.05 126.766 105.134C128.075 105.662 129.106 106.039 131.41 106.855C133.704 107.666 134.727 108.041 136.022 108.563ZM140.075 105.656C140.288 105.727 140.519 105.612 140.59 105.399C140.661 105.186 140.545 104.956 140.332 104.885C138.871 104.399 137.747 103.997 135.251 103.082C132.747 102.163 131.618 101.759 130.147 101.27C129.933 101.199 129.703 101.314 129.632 101.527C129.561 101.74 129.676 101.97 129.889 102.041C131.35 102.527 132.474 102.929 134.97 103.845C137.474 104.763 138.604 105.167 140.075 105.656Z" fill="#482D1F"/>
<path d="M100.241 66.8004C102.288 61.2258 103.477 57.2281 103.81 54.789C103.84 54.5666 103.684 54.3617 103.461 54.3314C103.238 54.3011 103.033 54.4569 103.003 54.6793C102.68 57.0445 101.505 60.9977 99.4771 66.5206C99.3998 66.7314 99.5081 66.9649 99.7192 67.0421C99.9303 67.1194 100.164 67.0112 100.241 66.8004Z" fill="#482D1F"/>
</svg>
